<svg xmlns="http://www.w3.org/2000/svg" id="NEW_BORDER" data-name="NEW + BORDER" viewBox="0 0 882.56 223.31"><defs><style>.cls-2{fill:#ed1c24}.cls-3{fill:#4d4d4f}</style></defs><path d="M887.05 274H96.38a46 46 0 0 1-45.94-45.95V96.65A46 46 0 0 1 96.38 50.7H933v177.37A46 46 0 0 1 887.05 274" style="fill:#fff" transform="translate(-50.44 -50.7)"/><path d="M650.78 154.77V79.14a1.76 1.76 0 0 0-2.91-1.32l-10.52 3.88a1.76 1.76 0 0 1-2.91-1.33V59.49a1.76 1.76 0 0 1 .61-1.33l15.24-8a1.75 1.75 0 0 1 1.15-.43h22.18a1.75 1.75 0 0 1 1.76 1.75v103.29a1.76 1.76 0 0 1-1.76 1.76h-21.06a1.76 1.76 0 0 1-1.78-1.76M688.56 154.77v-19.75a1.75 1.75 0 0 1 .47-1.19l38.24-41.53c3.9-4.2 5.4-6.9 5.4-11.4 0-5.85-3.3-9.9-9.6-9.9-4.18 0-9.13 1.81-9.82 8.68a1.79 1.79 0 0 1-1.76 1.67h-21.1a1.77 1.77 0 0 1-1.77-1.82c.89-19.84 16.4-30.72 34.45-30.72 19.8 0 34.19 12.14 34.19 32.24 0 11.25-4.64 17.25-13.19 26.25l-22.7 24a1.76 1.76 0 0 0 1.28 3h32.91a1.75 1.75 0 0 1 1.75 1.76v18.68a1.75 1.75 0 0 1-1.75 1.76h-65.23a1.76 1.76 0 0 1-1.77-1.73M797.97 157.43c-17.24 0-34.62-9-35.51-31.61a1.79 1.79 0 0 1 1.78-1.84h21.12a1.8 1.8 0 0 1 1.75 1.67c.66 6.39 5.19 9.58 10.86 9.58 6.45 0 11-3.75 11-11.4a11 11 0 0 0-11.41-11.24h-3.45V91.3h3.45c7.35 0 10.2-5.25 10.2-10.05 0-6.75-4.65-10.2-9.75-10.2a9.43 9.43 0 0 0-9.65 8.5 1.7 1.7 0 0 1-1.65 1.55h-21.26a1.78 1.78 0 0 1-1.78-1.84c.9-19 15.84-30.4 34.3-30.4 19.8 0 34.34 13.19 34.34 31.64 0 10.3-4.41 15.94-9.15 19.5a1.73 1.73 0 0 0 0 2.75c5.26 4.12 10.39 10.47 10.39 21.84.01 22.34-16.83 32.84-35.58 32.84" class="cls-2"/><path d="M76.56 122.03a1.91 1.91 0 0 0-1.86 2.24c1 6.08 6.29 11.16 15 11.16 8.21 0 12.25-2.09 16.37-5.9a1.89 1.89 0 0 1 2.62 0l13 13a1.89 1.89 0 0 1 0 2.69c-8.31 7.91-16.83 12.21-31.94 12.21-19 0-40.82-6.86-40.82-43.85 0-28.06 15.94-43.84 38.42-43.84 24.88 0 38.59 18.17 38.59 40.65v9.77a1.87 1.87 0 0 1-1.87 1.87Zm22-24.07c-1.59-3.67-5.1-6.7-11.32-6.7s-9.72 3-11.32 6.7a13.7 13.7 0 0 0-1.32 4.63 1.87 1.87 0 0 0 1.87 2.06h21.54a1.88 1.88 0 0 0 1.88-2.06 14 14 0 0 0-1.33-4.63M175.68 156.47a1.87 1.87 0 0 1-1.87-1.87v-5.14c-5.26 5.26-10 7.81-19.13 7.81-8.61 0-15.78-2.87-20.57-7.65-4.94-4.95-7.49-12.12-7.49-20.09 0-12.92 8.77-24.88 29.18-24.88h17.38v-2.23c0-7.81-3.83-10.68-12.92-10.68-6 0-8.92 1.28-12.45 4.53a1.85 1.85 0 0 1-2.55-.09l-13.62-13.61a1.89 1.89 0 0 1 0-2.7c8.24-7.7 16.12-10.13 29.86-10.13 24.55 0 37.79 10.2 37.79 31.09v53.77a1.87 1.87 0 0 1-1.87 1.87Zm-2.5-34.44h-13.24c-5.1 0-8.29 2.87-8.29 6.86 0 3.83 2.87 7.17 8.61 7.17 5.1 0 7.5-.47 10.37-3.18 1.91-1.76 2.55-4.47 2.55-8.61ZM238.7 157.43c-12.4 0-24.51-.59-35.9-11.09a1.89 1.89 0 0 1 0-2.71l14.27-14.27a1.89 1.89 0 0 1 2.58-.05c7 6 15.38 6 19.57 6 3.83 0 11.16-1.12 11.16-5.58 0-2.4-1.11-4.95-6.22-5.42l-13.23-1.28c-14.83-1.43-24.87-8.13-24.87-24.87 0-19 17.06-28.38 34.12-28.38 13.25 0 24.09 1.85 32.37 9.17a1.89 1.89 0 0 1 .05 2.73l-13.49 13.49a1.92 1.92 0 0 1-2.55.09c-4.36-3.31-10.81-4-16.86-4-6.38 0-8.45 3-8.45 4.94 0 1-.32 4.15 5.58 4.79l13.19 1.31c18 1.76 25.83 12.44 25.83 26.15 0 20.21-17.22 28.98-37.15 28.98M401.12 156.47a1.87 1.87 0 0 1-1.87-1.87v-5.14c-5.26 5.26-10 7.81-19.13 7.81-8.61 0-15.78-2.87-20.57-7.65-4.94-4.95-7.49-12.12-7.49-20.09 0-12.92 8.77-24.88 29.18-24.88h17.38v-2.23c0-7.81-3.83-10.68-12.92-10.68-6 0-8.93 1.28-12.45 4.53a1.86 1.86 0 0 1-2.56-.09l-13.61-13.61a1.89 1.89 0 0 1 0-2.7c8.24-7.7 16.12-10.13 29.86-10.13 24.55 0 37.78 10.2 37.78 31.09v53.77a1.86 1.86 0 0 1-1.87 1.87Zm-2.5-34.44h-13.24c-5.1 0-8.29 2.87-8.29 6.86 0 3.83 2.87 7.17 8.61 7.17 5.1 0 7.49-.47 10.36-3.18 1.92-1.76 2.56-4.47 2.56-8.61ZM479.24 156.47a1.86 1.86 0 0 1-1.86-1.87v-5.14a29.1 29.1 0 0 1-19.93 8c-8.14 0-14.67-2.71-19.3-7.34-7.33-7.33-8.61-15.46-8.61-24.55v-53a1.87 1.87 0 0 1 1.87-1.87h22.41a1.87 1.87 0 0 1 1.87 1.87v49.47c0 9.89 7 11.8 10.52 11.8s10.53-1.91 10.53-11.8V72.56a1.87 1.87 0 0 1 1.87-1.87h22.41a1.87 1.87 0 0 1 1.86 1.87v82a1.86 1.86 0 0 1-1.86 1.87ZM541.63 156.47c-19 0-26.63-13.55-26.63-25.35V90.78h-5.94a1.86 1.86 0 0 1-1.87-1.87V72.56a1.87 1.87 0 0 1 1.87-1.87H515V51.36a1.87 1.87 0 0 1 1.87-1.87h22.41a1.87 1.87 0 0 1 1.87 1.87v19.33h11.68a1.87 1.87 0 0 1 1.87 1.87v16.35a1.87 1.87 0 0 1-1.87 1.87h-11.68v38.43c0 3.35 1.75 5.26 5.26 5.26h6.42a1.87 1.87 0 0 1 1.87 1.87v18.26a1.87 1.87 0 0 1-1.87 1.87ZM622.94 146.43c-5.1 5.42-13.72 11-27.58 11s-22.49-5.58-27.59-11c-7.17-7.81-9.41-15.95-9.41-32.85 0-16.74 2.24-25 9.41-32.84 5.1-5.42 13.71-11 27.59-11s22.48 5.58 27.58 11c7.17 7.81 9.41 16.1 9.41 32.84 0 16.9-2.24 25.04-9.41 32.85m-20.57-50.7c-1.59-1.6-3.83-2.4-7-2.4s-5.43.8-7 2.4c-3.35 3.34-3.83 9.4-3.83 17.85s.48 14.51 3.83 17.86c1.59 1.6 3.83 2.39 7 2.39s5.42-.79 7-2.39c3.35-3.35 3.83-9.41 3.83-17.86s-.48-14.51-3.83-17.85M322.79 161.76a29.7 29.7 0 0 1-6.7 11.32c-5.1 5.42-12.9 7.17-20.55 7.17h-8a1.87 1.87 0 0 1-1.87-1.87v-19.86a1.87 1.87 0 0 1 1.87-1.87h3.71a11.28 11.28 0 0 0 10.86-7.21 2.76 2.76 0 0 0 0-2l-27.38-74.19a1.87 1.87 0 0 1 1.75-2.52h23.38a1.86 1.86 0 0 1 1.77 1.29l12.27 37.62a1.87 1.87 0 0 0 3.57 0l11.71-37.58a1.88 1.88 0 0 1 1.79-1.31h23.36a1.87 1.87 0 0 1 1.75 2.52Z" class="cls-3"/><path d="M887.05 274H96.38a46 46 0 0 1-45.94-45.95V96.65A46 46 0 0 1 96.38 50.7H933v177.37A46 46 0 0 1 887.05 274M96.38 67.41a29.28 29.28 0 0 0-29.24 29.24v131.42a29.28 29.28 0 0 0 29.24 29.24h790.67a29.28 29.28 0 0 0 29.24-29.24V67.41Z" style="fill:#ffde3f" transform="translate(-50.44 -50.7)"/></svg>