<svg xmlns="http://www.w3.org/2000/svg" width="381.7pt" height="129.6" viewBox="228 242 381.7 97.2"><path fill="#ec1d27" d="M509.844 309.652v-32.574c0-.652-.762-1-1.254-.574l-4.531 1.676a.757.757 0 0 1-1.254-.575v-8.992c0-.218.093-.43.257-.574l6.567-3.437a.76.76 0 0 1 .496-.188h9.555c.422 0 .758.34.758.758v44.48a.756.756 0 0 1-.758.758h-9.078a.76.76 0 0 1-.758-.758M526.121 309.652v-8.507c0-.192.074-.372.203-.512l16.465-17.871c1.68-1.809 2.324-2.973 2.324-4.91 0-2.52-1.418-4.262-4.133-4.262-1.8 0-3.933.777-4.23 3.734-.04.403-.352.723-.754.723h-9.09a.765.765 0 0 1-.765-.79c.382-8.546 7.066-13.23 14.84-13.23 8.527 0 14.73 5.235 14.73 13.887 0 4.848-2.004 7.43-5.688 11.309l-9.773 10.351c-.457.48-.113 1.278.55 1.278h14.153c.418 0 .758.336.758.753v8.047c0 .418-.34.758-.758.758h-28.07a.76.76 0 0 1-.762-.758M573.246 310.797c-7.43 0-14.914-3.86-15.297-13.617a.77.77 0 0 1 .766-.79h9.097c.403 0 .711.32.75.72.29 2.753 2.239 4.128 4.684 4.128 2.777 0 4.715-1.617 4.715-4.91 0-2.777-2.066-4.848-4.91-4.848h-1.489v-9.171h1.489c3.164 0 4.39-2.262 4.39-4.329 0-2.906-2-4.39-4.195-4.39-2.016 0-3.867 1.3-4.16 3.656-.047.375-.336.668-.711.668h-9.137c-.43 0-.789-.36-.77-.789.391-8.184 6.825-13.098 14.778-13.098 8.524 0 14.793 5.684 14.793 13.63 0 4.433-1.902 6.866-3.941 8.402a.744.744 0 0 0-.02 1.183c2.266 1.774 4.477 4.512 4.477 9.41 0 9.625-7.235 14.145-15.309 14.145"/><path fill="#46464a" d="M271.977 285.18c-.684-1.578-2.196-2.883-4.875-2.883-2.68 0-4.188 1.305-4.875 2.883a6 6 0 0 0-.57 1.996.807.807 0 0 0 .808.89h9.277c.477 0 .86-.414.805-.89a6 6 0 0 0-.57-1.996m-9.489 10.37a.823.823 0 0 0-.8.966c.445 2.617 2.707 4.804 6.445 4.804 3.535 0 5.281-.898 7.055-2.539.32-.3.816-.3 1.125.008l5.593 5.59a.817.817 0 0 1-.011 1.16c-3.582 3.41-7.254 5.258-13.762 5.258-8.172 0-17.582-2.953-17.582-18.887 0-12.086 6.867-18.887 16.55-18.887 10.715 0 16.622 7.832 16.622 17.516v4.207c0 .445-.36.805-.805.805ZM304.117 295.55h-5.699c-2.2 0-3.57 1.24-3.57 2.954 0 1.648 1.234 3.09 3.707 3.09 2.199 0 3.226-.203 4.465-1.371.824-.758 1.097-1.926 1.097-3.711Zm1.082 14.837a.81.81 0 0 1-.808-.805v-2.219c-2.266 2.266-4.325 3.367-8.239 3.367-3.71 0-6.8-1.238-8.859-3.296-2.129-2.13-3.23-5.22-3.23-8.653 0-5.566 3.777-10.715 12.57-10.715h7.484v-.96c0-3.368-1.648-4.602-5.562-4.602-2.586 0-3.844.55-5.364 1.95a.8.8 0 0 1-1.101-.036l-5.863-5.863a.815.815 0 0 1 .02-1.164c3.546-3.32 6.94-4.368 12.858-4.368 10.575 0 16.278 4.399 16.278 13.395v23.164a.81.81 0 0 1-.809.805ZM332.344 310.797c-5.344 0-10.559-.254-15.465-4.774a.816.816 0 0 1-.02-1.168l6.149-6.148c.305-.305.785-.3 1.11-.02 2.995 2.567 6.624 2.567 8.429 2.567 1.648 0 4.808-.48 4.808-2.406 0-1.032-.48-2.13-2.675-2.336l-5.703-.547c-6.387-.621-10.711-3.504-10.711-10.715 0-8.172 7.347-12.227 14.695-12.227 5.707 0 10.375.797 13.941 3.954.344.304.348.851.024 1.175l-5.813 5.813c-.297.297-.758.293-1.093.039-1.88-1.426-4.657-1.707-7.266-1.707-2.746 0-3.64 1.305-3.64 2.129 0 .414-.137 1.785 2.406 2.058l5.699.551c7.761.758 11.125 5.356 11.125 11.262 0 8.723-7.418 12.5-16 12.5M401.223 295.55h-5.7c-2.195 0-3.57 1.24-3.57 2.954 0 1.648 1.235 3.09 3.707 3.09 2.2 0 3.23-.203 4.465-1.371.824-.758 1.098-1.926 1.098-3.711Zm1.082 14.837a.806.806 0 0 1-.805-.805v-2.219c-2.266 2.266-4.328 3.367-8.242 3.367-3.711 0-6.801-1.238-8.86-3.296-2.128-2.13-3.23-5.22-3.23-8.653 0-5.566 3.781-10.715 12.57-10.715h7.485v-.96c0-3.368-1.645-4.602-5.563-4.602-2.582 0-3.844.55-5.363 1.95a.796.796 0 0 1-1.098-.036l-5.863-5.863a.815.815 0 0 1 .016-1.164c3.55-3.32 6.941-4.368 12.859-4.368 10.574 0 16.277 4.399 16.277 13.395v23.164a.81.81 0 0 1-.804.805ZM435.957 310.387a.804.804 0 0 1-.809-.805v-2.219c-2.265 2.27-5.628 3.434-8.582 3.434-3.503 0-6.32-1.164-8.312-3.16-3.16-3.157-3.707-6.66-3.707-10.574v-22.82c0-.446.36-.805.805-.805h9.652c.445 0 .805.359.805.804v21.309c0 4.258 3.023 5.082 4.535 5.082 1.508 0 4.531-.824 4.531-5.082v-21.309c0-.445.36-.805.805-.805h9.652c.445 0 .805.36.805.805v35.34c0 .445-.36.805-.805.805ZM462.824 310.387c-8.172 0-11.469-5.84-11.469-10.922V282.09h-2.558a.804.804 0 0 1-.805-.805v-7.043c0-.445.36-.805.805-.805h2.558v-8.328c0-.445.364-.804.805-.804h9.656c.442 0 .805.36.805.804v8.329h5.031c.446 0 .805.359.805.804v7.043c0 .445-.36.805-.805.805h-5.03v16.55c0 1.446.753 2.27 2.265 2.27h2.765c.446 0 .805.36.805.805v7.867c0 .445-.36.805-.805.805ZM488.992 284.219c-.687-.684-1.648-1.028-3.023-1.028s-2.336.344-3.024 1.028c-1.441 1.441-1.648 4.054-1.648 7.691 0 3.64.207 6.25 1.648 7.695.688.688 1.649 1.028 3.024 1.028s2.336-.34 3.023-1.028c1.442-1.445 1.649-4.054 1.649-7.695 0-3.637-.207-6.25-1.649-7.691m8.856 21.84c-2.196 2.336-5.907 4.738-11.88 4.738-5.976 0-9.683-2.402-11.882-4.738-3.09-3.364-4.05-6.868-4.05-14.149 0-7.21.96-10.781 4.05-14.148 2.2-2.332 5.906-4.739 11.883-4.739 5.972 0 9.683 2.407 11.879 4.739 3.093 3.367 4.054 6.937 4.054 14.148 0 7.281-.96 10.785-4.054 14.149M368.563 312.66c-.758 2.133-1.72 3.711-2.887 4.88-2.196 2.335-5.555 3.089-8.852 3.089h-3.453a.804.804 0 0 1-.805-.805v-8.554c0-.446.36-.805.805-.805h1.598c1.992 0 3.847-1.024 4.68-3.106 0 0 .183-.39.003-.87l-11.797-31.962a.804.804 0 0 1 .758-1.082h10.07c.348 0 .657.223.766.555l5.285 16.207c.243.746 1.301.738 1.536-.012l5.046-16.183a.8.8 0 0 1 .77-.567h10.062c.563 0 .95.559.754 1.082Zm0 0"/><g clip-path="url(#clip-2)"><path fill="#f9df27" d="M249.313 250.184c-6.946 0-12.594 5.652-12.594 12.597v56.606c0 6.945 5.648 12.593 12.594 12.593h340.574c6.945 0 12.597-5.648 12.597-12.593v-69.203Zm340.574 88.996H249.313c-10.915 0-19.793-8.88-19.793-19.793V262.78c0-10.914 8.878-19.793 19.792-19.793H609.68v76.399c0 10.914-8.88 19.793-19.793 19.793"/></g></svg>