<svg xmlns="http://www.w3.org/2000/svg" xmlns:xlink="http://www.w3.org/1999/xlink" width="1122.52" height="793.701" viewBox="0 0 841.89 595.276"><rect width="100%" height="100%" fill="#fff"/><defs><path id="a" d="M1.031 0h.344c.094 0 .125-.047.125-.14v-3.266h2.61c.077 0 .14-.031.14-.125v-.297a.14.14 0 0 0-.14-.14H1.5v-2.47h2.734c.094 0 .141-.03.141-.125v-.28q0-.142-.14-.141H1.03q-.14 0-.14.14V-.14Q.89 0 1.03 0m0 0"/><path id="b" d="M3.031.125c1.422 0 2.485-1.11 2.485-2.578 0-1.453-1.063-2.563-2.485-2.563-1.406 0-2.484 1.11-2.484 2.563C.547-.984 1.625.125 3.03.125m0-.578c-1.094 0-1.906-.828-1.906-2 0-1.156.813-2 1.906-2 1.094 0 1.906.844 1.906 2 0 1.172-.812 2-1.906 2m0 0"/><path id="c" d="M.906 0h.36c.078 0 .125-.047.125-.14v-2.954c0-.515.218-1.36 1.14-1.36.078 0 .203 0 .344.048.094.031.172.015.172-.094v-.25c0-.094-.016-.125-.078-.172-.094-.062-.25-.094-.453-.094-.61 0-.953.36-1.141.813l-.016-.547c0-.11-.03-.14-.14-.14H.906c-.094 0-.125.046-.125.14v4.61c0 .093.031.14.125.14m0 0"/><path id="e" d="M1.344 0h.343c.094 0 .125-.047.125-.14v-4.25h1c.079 0 .141-.048.141-.126v-.234c0-.094-.062-.14-.14-.14h-1v-1.016c0-.469.109-.828.687-.828.094 0 .203 0 .328.03.063 0 .125 0 .125-.077v-.328c0-.079-.031-.094-.094-.125a1.2 1.2 0 0 0-.437-.063c-.813 0-1.203.453-1.203 1.234v1.172H.625c-.078 0-.14.047-.14.141v.234c0 .079.062.125.14.125h.594v4.25c0 .094.031.141.125.141m0 0"/><path id="f" d="M2.563.125c.828 0 1.374-.422 1.656-.906l.031.625c0 .11.031.156.14.156h.298q.14 0 .14-.14v-4.61q0-.14-.14-.14h-.344c-.094 0-.125.046-.125.14v2.86c0 .89-.657 1.437-1.5 1.437-.86 0-1.328-.547-1.328-1.438V-4.75c0-.094-.047-.14-.125-.14h-.36c-.094 0-.125.046-.125.14v2.875c0 1.313.719 2 1.781 2m0 0"/><path id="g" d="M2.219.125c.25 0 .61-.062.61-.203v-.234c0-.094-.048-.141-.204-.11-.078 0-.234.016-.312.016-.313 0-.454-.14-.454-.547v-3.438h.844c.094 0 .14-.046.14-.125v-.234q0-.14-.14-.14H1.86v-1.157c0-.094-.03-.14-.125-.14h-.343c-.079 0-.125.046-.125.14v1.156H.625c-.078 0-.14.047-.14.141v.234c0 .079.062.125.14.125h.64v3.516c0 .656.313 1 .954 1m0 0"/><path id="h" d="M3.031-5.016c-.828 0-1.36.407-1.64.907V-7c0-.094-.047-.14-.125-.14h-.36c-.094 0-.125.046-.125.14v6.86c0 .093.031.14.125.14h.36c.078 0 .125-.047.125-.14V-3c0-.89.64-1.453 1.5-1.453.843 0 1.328.562 1.328 1.453v2.86c0 .093.031.14.125.14h.343q.141 0 .141-.14v-2.891c0-1.297-.719-1.985-1.797-1.985m0 0"/><path id="i" d="M3.11.125c.687 0 1.312-.219 1.75-.64.077-.063.109-.11.046-.204l-.14-.187c-.032-.031-.11-.031-.141 0-.375.297-.828.5-1.453.5-1.266 0-1.969-.797-2.047-1.828h3.813c.265 0 .328-.125.328-.47 0-1.187-.828-2.312-2.282-2.312-1.453 0-2.437 1.11-2.437 2.547 0 1.422.969 2.594 2.562 2.594M1.124-2.719c.094-1.062.813-1.75 1.844-1.75 1.062 0 1.734.719 1.765 1.75Zm0 0"/><path id="j" d="M1.094-6.234c.218 0 .39-.172.39-.391a.4.4 0 0 0-.39-.406.414.414 0 0 0-.407.406.4.4 0 0 0 .407.39M.906 0h.36c.078 0 .109-.047.109-.14v-4.61c0-.094-.031-.14-.11-.14H.907c-.094 0-.125.046-.125.14v4.61c0 .093.031.14.125.14m0 0"/><path id="k" d="M.906 0h.36c.078 0 .125-.047.125-.14V-3c0-.89.64-1.453 1.5-1.453.843 0 1.328.562 1.328 1.453v2.86c0 .093.031.14.125.14h.343q.141 0 .141-.14v-2.891c0-1.297-.719-1.985-1.797-1.985-.828 0-1.36.407-1.64.907l-.032-.641c0-.11-.03-.14-.14-.14H.906c-.094 0-.125.046-.125.14v4.61c0 .093.031.14.125.14m0 0"/><path id="l" d="M.906 0h.36c.078 0 .125-.047.125-.14v-2.891c0-.875.453-1.422 1.218-1.422.75 0 1.172.516 1.172 1.422v2.89c0 .094.031.141.11.141h.359c.094 0 .125-.047.125-.14v-2.891c0-.875.516-1.422 1.281-1.422.75 0 1.11.516 1.11 1.422v2.89c0 .094.03.141.125.141h.343c.094 0 .125-.047.125-.14v-2.938c0-1.297-.593-1.938-1.593-1.938-.86 0-1.297.438-1.547.985-.25-.657-.766-.985-1.453-.985-.735 0-1.157.391-1.391.844l-.016-.578c0-.11-.03-.14-.14-.14H.906c-.094 0-.125.046-.125.14v4.61c0 .093.031.14.125.14m0 0"/><path id="m" d="M2.969.125c.89 0 1.562-.422 1.922-1.11l.015.844q0 .141.14.141h.313c.094 0 .125-.047.125-.14v-4.61c0-.094-.03-.14-.125-.14h-.312q-.14 0-.14.14l-.016.86c-.36-.672-1.032-1.126-1.922-1.126-1.438 0-2.422 1.11-2.422 2.563C.547-.984 1.53.125 2.969.125m.062-.578c-1.11 0-1.906-.797-1.906-2 0-1.188.797-1.985 1.906-1.985 1.11 0 1.875.813 1.875 2.016 0 1.188-.765 1.969-1.875 1.969m0 0"/><path id="n" d="M.906 1.89h.36c.078 0 .125-.046.125-.14V-.969C1.75-.297 2.42.125 3.313.125c1.437 0 2.421-1.11 2.421-2.578 0-1.453-.984-2.563-2.421-2.563-.891 0-1.563.454-1.938 1.125l-.016-.859c0-.094-.03-.14-.125-.14H.906c-.094 0-.125.046-.125.14v6.5c0 .094.031.14.125.14M3.25-.452c-1.11 0-1.875-.781-1.875-1.969 0-1.203.766-2.015 1.875-2.015 1.11 0 1.906.796 1.906 1.984 0 1.203-.797 2-1.906 2m0 0"/><path id="o" d="M.906 0h.36c.078 0 .125-.047.125-.14V-7c0-.094-.047-.14-.125-.14h-.36c-.094 0-.125.046-.125.14v6.86c0 .093.031.14.125.14m0 0"/><path id="p" d="M2.188.125c.874 0 1.64-.5 1.64-1.39 0-.766-.515-1.126-1.156-1.376l-.453-.187c-.547-.235-.906-.422-.906-.922 0-.516.437-.75.906-.75.375 0 .703.156 1.015.5.094.094.157.094.235 0l.11-.14c.062-.063.077-.141.015-.22a1.77 1.77 0 0 0-1.39-.656c-.798 0-1.47.5-1.47 1.282 0 .703.532 1.047 1.11 1.297l.578.234c.469.203.812.453.812.937 0 .563-.437.86-1.062.86-.547 0-.922-.266-1.219-.578C.875-1.078.781-1.063.734-1l-.109.156c-.062.078-.062.156.016.25.265.313.75.719 1.547.719m0 0"/><path id="q" d="M3.078.125c.781 0 1.422-.312 1.828-.812.063-.079.094-.125.032-.188l-.188-.187c-.094-.094-.172-.047-.25.03-.297.329-.703.579-1.39.579-1.126 0-1.985-.813-1.985-2s.86-2 1.984-2c.672 0 1.079.266 1.407.61.046.062.125.109.218.015l.188-.188c.062-.062.047-.109-.016-.203-.422-.5-1.047-.797-1.828-.797-1.437 0-2.531 1.11-2.531 2.563C.547-.984 1.64.125 3.078.125m0 0"/><path id="r" d="M.906 0h.36c.078 0 .125-.047.125-.14v-1.313l.89-.938L4.11-.094c.047.078.11.094.188.094h.36c.124 0 .155-.078.093-.156L2.64-2.812 4.485-4.75c.063-.062.063-.14-.046-.14h-.47c-.062 0-.109.015-.171.077L1.39-2.187V-7c0-.094-.047-.14-.125-.14h-.36c-.094 0-.125.046-.125.14v6.86c0 .093.031.14.125.14m0 0"/><path id="s" d="M2.953 2.047c1.281 0 2.485-.672 2.485-2.219V-4.75c0-.094-.032-.14-.125-.14h-.329c-.093 0-.125.046-.125.14v.813c-.375-.672-1.03-1.079-1.937-1.079-1.39 0-2.375 1.032-2.375 2.485 0 1.469.984 2.484 2.39 2.484.891 0 1.532-.406 1.907-1.047v.875c0 1.297-.922 1.75-1.922 1.75-.5 0-1.016-.125-1.422-.39-.062-.032-.125-.016-.172.03l-.125.235c-.031.078 0 .14.078.188.36.25.969.453 1.672.453M3-.61c-1.062 0-1.875-.735-1.875-1.922 0-1.172.813-1.922 1.875-1.922 1.078 0 1.844.766 1.844 1.953C4.844-1.344 4.078-.61 3-.61m0 0"/><path id="t" d="M4.297.125c.719 0 1.437-.203 1.984-.672l-.328-.36c-.469.345-1.016.5-1.625.5-1.469 0-3.094-1.046-3.094-3.077 0-2.063 1.594-3.063 3.094-3.063s2.984.984 2.984 3.125c0 .89-.265 1.375-.828 1.375-.25 0-.609-.094-.546-.781l.218-2.281h-.39l-.172.578c-.297-.469-.797-.766-1.438-.766-1.078 0-1.843.828-1.843 1.875s.734 1.86 1.796 1.86c.594 0 1.11-.25 1.438-.672.125.453.469.672.922.672.578 0 1.39-.36 1.39-1.907 0-2.234-1.656-3.593-3.53-3.593-1.86 0-3.641 1.328-3.641 3.578C.688-1.281 2.422.125 4.297.125m-.14-2.187c-.829 0-1.329-.579-1.329-1.376 0-.78.5-1.359 1.328-1.359s1.36.578 1.36 1.36c0 .796-.532 1.374-1.36 1.374m0 0"/><path id="u" d="M1.797 1.89h.344c.078 0 .14-.03.172-.109l2.562-6.5c.047-.11 0-.172-.11-.172h-.343c-.078 0-.125.032-.156.125L2.703-.656l-1.578-4.11c-.031-.093-.094-.125-.172-.125H.625c-.11 0-.156.063-.11.172L2.392.016 1.703 1.75q-.047.14.094.14m0 0"/><path id="v" d="M1.703 0h.36c.078 0 .124-.047.124-.14v-6.704c0-.093-.046-.14-.124-.14H.53c-.094 0-.125.046-.125.14v.25c0 .094.031.14.125.14h1.063V-.14c0 .094.031.141.11.141m0 0"/><path id="w" d="M.578 0h3.516q.14 0 .14-.14v-.266c0-.078-.046-.14-.14-.14H1.14L3.25-3.142c.469-.546 1-1.203 1-2.078 0-1-.734-1.843-1.953-1.843-.922 0-1.469.468-1.797.984-.062.094-.062.14.016.219l.203.187c.062.063.14.063.187-.016.219-.343.578-.828 1.375-.828.828 0 1.375.579 1.375 1.344 0 .75-.515 1.344-.953 1.89L.516-.624a.26.26 0 0 0-.079.203v.281Q.438 0 .579 0m0 0"/><path id="x" d="M2.313.125c1.28 0 2.156-.875 2.156-2.016 0-.953-.578-1.625-1.375-1.89.672-.328 1.062-.906 1.062-1.61 0-.937-.718-1.671-1.765-1.671-.797 0-1.391.437-1.72.937-.03.063-.046.11 0 .172l.235.203c.063.047.125.047.188-.016.25-.421.656-.75 1.25-.75.765 0 1.234.532 1.234 1.204 0 .734-.547 1.296-1.36 1.296h-.155c-.11 0-.141.047-.141.125v.297c0 .078.031.11.14.11h.157c.844 0 1.64.53 1.64 1.53 0 .892-.64 1.517-1.546 1.517-.782 0-1.22-.438-1.454-.75-.046-.063-.093-.079-.156-.016L.47-1C.406-.937.39-.89.438-.812c.406.578 1.046.937 1.875.937m0 0"/><path id="y" d="M.922.125c.25 0 .453-.187.453-.453a.453.453 0 0 0-.453-.453.467.467 0 0 0-.469.453c0 .266.219.453.469.453m0 0"/><path id="z" d="M9.797.39c2.25 0 4.297-.656 5.656-2.015.297-.266.297-.516.172-.719l-1.344-1.89c-.187-.22-.312-.297-.578-.157-1.328.75-2.437.875-3.515.875-2.282 0-3.782-.843-4.329-2.578h9.172c1.469 0 1.89-.968 1.89-2.593 0-4.11-2.827-7.657-7.718-7.657-4.906 0-8.187 3.625-8.187 8.313C1.016-3.187 4.563.39 9.796.39m-4-9.921c.39-1.89 1.781-2.703 3.453-2.703 1.656 0 2.922.78 3.25 2.703Zm0 0"/><path id="A" d="M8.5.39c2.266 0 3.906-.906 4.969-2.437l.078 1.563c0 .297.219.484.515.484h3.579c.297 0 .547-.187.547-.484v-14.97c0-.296-.22-.5-.516-.5h-3.61c-.296 0-.515.204-.515.5l-.078 1.517c-1.031-1.485-2.625-2.407-4.969-2.407-4.437 0-7.484 3.657-7.484 8.375 0 4.75 3.047 8.36 7.484 8.36m1.063-4.53c-2.11 0-3.704-1.485-3.704-3.829 0-2.312 1.594-3.843 3.704-3.843 2.187 0 3.687 1.53 3.687 3.812 0 2.344-1.5 3.86-3.687 3.86m0 0"/><path id="B" d="M7.422.39c3.219 0 6.047-1.687 6.078-4.984C13.578-7 11.984-8.39 9.984-9.172l-2.406-.953c-.703-.297-1.266-.719-1.266-1.297 0-.484.297-1.047 1.266-1.047.89 0 1.766.453 2.797 1.266.297.203.531.234.75 0l1.672-1.953c.125-.188.219-.453.031-.672a7.22 7.22 0 0 0-5.5-2.516c-3.062 0-5.734 1.797-5.734 4.922 0 2.219 1.375 3.578 3.453 4.39l2.078.845c1.078.421 1.438.78 1.438 1.406 0 .718-.594 1.031-1.47 1.031-1.14 0-2.218-.484-3.609-1.484-.265-.172-.562-.266-.812.156L1.359-3.25c-.218.328-.25.719-.093.938C2.609-.72 4.719.39 7.422.39m0 0"/><path id="C" d="M5.11 6.188h3.874c.266 0 .485-.141.579-.391l8.468-21.188c.125-.359-.062-.562-.422-.562h-4.03c-.267 0-.532.14-.626.39L9.438-5.796l-3.516-9.765c-.094-.25-.36-.391-.61-.391H1.266c-.36 0-.547.203-.422.562L7.03.031 4.688 5.594c-.157.39.03.593.421.593m0 0"/><path id="D" d="M7.547.39c2.312 0 3.781-1.14 4.687-2.765l.141 1.86c0 .39.219.515.516.515h3.812c.281 0 .516-.187.516-.484v-14.97c0-.296-.235-.5-.516-.5h-3.937c-.297 0-.532.204-.532.5v8.063c0 2.125-1.078 3.22-2.765 3.22-1.75 0-2.672-1.095-2.672-3.22v-8.062c0-.297-.219-.5-.516-.5H2.313c-.297 0-.485.203-.485.5v9.234c0 4.172 2.406 6.61 5.719 6.61m0 0"/><path id="E" d="M8.469.39c1.094 0 2.86-.202 2.86-1.015v-2.687c0-.329-.267-.5-.595-.47-.421.032-.703.032-1 .032-.812 0-1.375-.453-1.375-1.328v-7.031h2.454c.28 0 .484-.188.484-.485v-2.86c0-.296-.203-.5-.485-.5H8.36v-3.733c0-.297-.218-.485-.515-.485h-4c-.297 0-.531.188-.531.485v3.734H1.328c-.281 0-.484.203-.484.5v2.86c0 .296.203.484.484.484h1.985v7.578C3.313-.813 5.828.39 8.468.39m0 0"/><path id="F" d="M9.375.39c4.813 0 8.39-3.64 8.39-8.359s-3.578-8.375-8.39-8.375-8.36 3.657-8.36 8.375c0 4.719 3.548 8.36 8.36 8.36m0-4.562c-2.016 0-3.578-1.453-3.578-3.797 0-2.343 1.562-3.812 3.578-3.812s3.578 1.469 3.578 3.812-1.562 3.797-3.578 3.797m0 0"/><path id="G" d="M5.922 0H9.89c.297 0 .53-.187.53-.484v-21.813c0-.297-.233-.484-.53-.484H1.594c-.297 0-.485.187-.485.484v3.219c0 .297.188.531.485.531h3.843V-.484c0 .297.188.484.485.484m0 0"/><path id="H" d="M2.14 0h13.423c.28 0 .515-.187.515-.484v-3.22a.524.524 0 0 0-.515-.53H7.578l5.438-5.532c.875-.906 3.03-2.921 3.03-6.312 0-4-3.093-6.969-7.546-6.969-3.547 0-5.797 1.86-7.094 3.75-.172.188-.172.485.063.719l2.234 2.234c.297.266.5.297.75 0 .86-1.093 1.86-2.14 3.625-2.14 1.875 0 3.125 1.172 3.125 2.859 0 2.016-1.672 3.547-2.578 4.469l-6.766 6.86c-.171.234-.234.39-.234.624v3.188c0 .297.234.484.516.484m0 0"/><path id="I" d="M8.203.422c4.328 0 7.781-2.672 7.781-6.797 0-3.094-1.921-4.89-3.906-5.703 1.563-.688 3.125-2.281 3.125-4.875 0-3.875-3.297-6.094-6.937-6.094-3 0-5.344 1.469-6.578 3.422-.157.266-.094.547.14.719l2.266 2.203c.265.265.562.297.75-.063.593-1.03 1.64-1.718 2.906-1.718 1.453 0 2.594.968 2.594 2.406 0 1.11-.64 2.344-2.5 2.344h-.875c-.328 0-.563.156-.563.515v2.969c0 .328.235.516.563.516h.906c2.281 0 3.063 1.53 3.063 2.765 0 1.469-1.047 2.828-3.063 2.828-1.5 0-2.531-.812-3.422-1.843-.25-.266-.516-.266-.703-.063L1.297-3.813a.484.484 0 0 0-.094.688c1.235 1.953 3.61 3.547 7 3.547m0 0"/><path id="K" d="M11.453-16.344c-2.281 0-3.734 1.14-4.656 2.766v-9.203c0-.297-.219-.485-.516-.485H2.313c-.297 0-.485.188-.485.485V-.484c0 .297.188.484.484.484h3.97c.296 0 .515-.187.515-.484v-8.078c0-2.11 1.047-3.22 2.766-3.22 1.765 0 2.671 1.11 2.671 3.22v8.078c0 .297.235.484.532.484h3.937c.281 0 .516-.187.516-.484v-9.25c0-4.157-2.438-6.61-5.766-6.61m0 0"/><path id="L" d="M8.5.39c2.266 0 3.906-.906 4.969-2.437l.078 1.563c0 .297.219.484.515.484h3.579c.297 0 .547-.187.547-.484v-22.297c0-.297-.22-.485-.516-.485h-4c-.297 0-.485.188-.485.485v8.422c-1.078-1.266-2.609-1.985-4.687-1.985-4.437 0-7.484 3.657-7.484 8.375 0 4.75 3.047 8.36 7.484 8.36m1.063-4.53c-2.11 0-3.704-1.485-3.704-3.829 0-2.312 1.594-3.843 3.704-3.843 2.187 0 3.687 1.53 3.687 3.812 0 2.344-1.5 3.86-3.687 3.86m0 0"/><path id="M" d="M2.313 0h4c.296 0 .515-.187.515-.484v-22.297c0-.297-.219-.485-.516-.485h-4c-.296 0-.484.188-.484.485V-.484c0 .297.188.484.484.484m0 0"/><path id="N" d="M4.36-18.484c1.562 0 2.702-1.203 2.702-2.735 0-1.5-1.14-2.703-2.703-2.703s-2.734 1.203-2.734 2.703c0 1.532 1.172 2.735 2.734 2.735M2.343 0h4.031c.297 0 .5-.187.5-.484v-14.97c0-.296-.203-.5-.5-.5H2.344c-.297 0-.485.204-.485.5v14.97c0 .297.188.484.485.484m0 0"/><path id="O" d="M2.313 0H6.28c.297 0 .516-.187.516-.484v-8.078c0-2.11 1.047-3.22 2.766-3.22 1.765 0 2.671 1.11 2.671 3.22v8.078c0 .297.235.484.532.484h3.937c.281 0 .516-.187.516-.484v-9.25c0-4.157-2.438-6.61-5.766-6.61-2.281 0-3.734 1.14-4.656 2.766l-.156-1.844c0-.39-.203-.531-.485-.531H2.313c-.297 0-.485.203-.485.5V-.484c0 .297.188.484.484.484m0 0"/><path id="P" d="M11.484.39C15.954.39 19-3.218 19-7.968c0-4.718-3.047-8.375-7.516-8.375-2.078 0-3.609.719-4.656 1.985v-8.422c0-.297-.219-.485-.516-.485h-4c-.296 0-.484.188-.484.485V-.484c0 .297.219.484.516.484h3.578c.297 0 .516-.187.516-.484l.078-1.563C7.578-.516 9.203.391 11.484.391m-1.062-4.53C8.266-4.14 6.766-5.657 6.766-8c0-2.281 1.5-3.812 3.656-3.812 2.11 0 3.703 1.53 3.703 3.843 0 2.344-1.594 3.828-3.703 3.828m0 0"/><path id="Q" d="M13.344.422c6.515 0 10.453-4.844 10.453-10.766v-2.344c0-.296-.203-.5-.5-.5h-9.86c-.28 0-.484.204-.484.5v3.547c0 .282.203.516.485.516h5.437c-.187 2.14-2.078 4-5.375 4-3.969 0-6.797-2.797-6.797-6.672S9.531-18 13.25-18c1.922 0 3.484.719 4.719 1.797.25.187.515.187.781-.11l2.406-2.562c.297-.328.297-.625.032-.906-1.954-2.032-4.657-3.266-7.97-3.266C6.767-23.047 1.5-18 1.5-11.297S6.766.422 13.344.422m0 0"/><path id="R" d="M2.313 0H6.28c.297 0 .516-.187.516-.484v-7.688c0-2.375 1.234-3.672 3.297-3.672.484 0 .844.063 1.172.156.453.094.672 0 .672-.421v-3.157c0-.296-.063-.484-.282-.656-.265-.187-.687-.422-1.469-.422-1.859 0-2.859 1.313-3.39 3.032l-.156-2.11c0-.39-.203-.531-.485-.531H2.313c-.297 0-.485.203-.485.5V-.484c0 .297.188.484.484.484m0 0"/><path id="S" d="M9.469.39c2.578 0 4.719-1.14 6.094-2.921.187-.235.156-.5-.032-.688l-2.25-2.156c-.265-.25-.625-.25-.844-.031-.89.812-1.734 1.234-2.796 1.234-2.422 0-3.844-1.812-3.844-3.906 0-2.047 1.422-3.703 3.766-3.703 1.109 0 1.953.39 2.812 1.234.25.235.61.235.875-.031l2.25-2.14c.188-.204.219-.5.031-.688-1.375-1.797-3.515-2.938-6.187-2.938-4.813 0-8.328 3.578-8.328 8.266C1.016-3.281 4.594.39 9.469.39m0 0"/><path id="T" d="M3.703 0H7.72c.281 0 .515-.187.515-.484V-12.11h3.188c.297 0 .484-.188.484-.485v-2.86c0-.296-.187-.5-.484-.5H8.234v-1.593c0-1.062.36-1.844 1.891-1.844.36 0 .813.094 1.36.188.234.031.421 0 .421-.235v-3.28c0-.188-.094-.423-.281-.516-.984-.5-1.703-.563-2.672-.563-3.547 0-5.734 1.703-5.734 5.61v2.234h-1.89c-.282 0-.485.203-.485.5v2.86c0 .296.203.484.484.484h1.89V-.484c0 .297.204.484.485.484m0 0"/><path id="U" d="M2.64 0h11.72c.28 0 .515-.187.515-.484v-3.578c0-.297-.234-.5-.516-.5H7.297v-4.641h6.672c.281 0 .484-.203.484-.5v-3.578c0-.297-.203-.485-.484-.485H7.297v-4.453h7.094c.28 0 .484-.203.484-.5v-3.578c0-.297-.203-.484-.484-.484H2.64c-.297 0-.5.187-.5.484V-.484c0 .297.203.484.5.484m0 0"/><path id="V" d="M1.266 0h4.328c.265 0 .5-.094.625-.328l2.468-4.297 2.47 4.297c.14.234.327.328.593.328h4.36c.39 0 .546-.266.328-.578l-4.75-7.594 4.546-7.187c.266-.328.078-.594-.312-.594h-4.328c-.266 0-.5.11-.625.328l-2.281 3.906-2.313-3.906a.63.63 0 0 0-.578-.328H1.469c-.39 0-.563.265-.36.594l4.594 7.187L.906-.578C.75-.266.875 0 1.266 0m0 0"/><path id="W" d="M2.64 0h7.579c5.5 0 8.14-2.64 8.14-6.484 0-3.313-2.218-5.172-4.422-5.75 1.454-.72 2.922-2.313 2.922-4.75 0-3.157-2.25-5.797-6.312-5.797H2.64c-.297 0-.5.187-.5.484V-.484c0 .297.203.484.5.484M7.22-13.86v-4.406h2.25c1.562 0 2.547.563 2.547 2.125 0 1.657-.985 2.282-2.547 2.282Zm0 9.329V-9.86H9.89c1.922 0 3.218.718 3.218 2.64 0 1.875-1.296 2.688-3.218 2.688Zm0 0"/><path id="X" d="M4.172.422a2.874 2.874 0 0 0 2.89-2.89c0-1.626-1.265-2.97-2.89-2.97-1.64 0-2.906 1.344-2.906 2.97A2.88 2.88 0 0 0 4.172.421m0 0"/><path id="Y" d="M13.89.422c6.485 0 10.516-4.656 10.516-10.734v-.813c0-.297-.187-.5-.484-.5H14.25c-.281 0-.453.14-.453.422v1.015c0 .297.172.422.453.422h8.172c.031 4.782-3.485 8.204-8.531 8.204-5.47 0-9.594-4.172-9.594-9.735 0-5.594 4.125-9.765 9.562-9.765 2.454 0 4.594.921 6.454 2.515.156.156.359.156.484 0l.812-.953c.172-.156.172-.328-.062-.516-2.11-1.984-4.625-3.03-7.688-3.03-6.765 0-11.609 5.218-11.609 11.75C2.25-4.75 7.094.421 13.89.421m0 0"/><path id="Z" d="M2.969 0h1.125c.297 0 .437-.156.437-.453v-9.64c0-1.688.703-4.423 3.703-4.423.297 0 .688 0 1.141.157.328.109.547.03.547-.313v-.828c0-.281-.063-.422-.25-.547-.297-.187-.813-.297-1.469-.297-1.984 0-3.094 1.172-3.719 2.64l-.062-1.75c0-.358-.094-.5-.453-.5h-1c-.297 0-.39.173-.39.454V-.453c0 .297.093.453.39.453m0 0"/><path id="aa" d="M10.156.39c2.219 0 4.266-.687 5.688-2.046.234-.235.36-.39.14-.688l-.453-.578c-.11-.14-.328-.14-.469 0-1.234.938-2.656 1.625-4.75 1.625-4.093 0-6.374-2.61-6.671-6h12.437c.875 0 1.078-.39 1.078-1.516 0-3.874-2.703-7.53-7.422-7.53S1.75-12.72 1.75-8.032C1.75-3.421 4.953.39 10.156.39M3.672-8.89c.297-3.438 2.64-5.688 6.031-5.688 3.453 0 5.625 2.375 5.719 5.687Zm0 0"/><path id="ab" d="M5.86 6.188h1.109c.25 0 .453-.141.547-.391l8.406-21.188c.125-.359 0-.562-.36-.562h-1.14c-.266 0-.39.14-.485.39L8.782-2.14l-5.14-13.421c-.094-.25-.25-.391-.516-.391h-1.11c-.359 0-.484.203-.359.562L7.781.063l-2.25 5.671c-.093.25 0 .454.328.454m0 0"/><path id="ac" d="M10.031.39c2.563 0 4.61-.968 5.985-2.64.187-.25.25-.422.062-.61l-.625-.624c-.281-.297-.547-.125-.781.093-.969 1.079-2.297 1.922-4.516 1.922-3.719 0-6.484-2.625-6.484-6.5s2.766-6.547 6.453-6.547c2.203 0 3.547.875 4.594 1.985.156.203.422.36.703.031l.625-.578c.187-.203.125-.36-.063-.656-1.375-1.625-3.421-2.61-5.921-2.61-4.72 0-8.313 3.578-8.313 8.375 0 4.782 3.594 8.36 8.281 8.36m0 0"/><path id="ad" d="M2.969 0h1.125c.297 0 .437-.156.437-.453v-22.36c0-.296-.14-.453-.437-.453H2.969c-.297 0-.39.157-.39.453v22.36c0 .297.093.453.39.453m0 0"/><path id="ae" d="M3.547-20.312c.719 0 1.265-.579 1.265-1.297 0-.72-.546-1.297-1.265-1.297s-1.297.578-1.297 1.297c0 .718.578 1.297 1.297 1.297M2.969 0h1.125c.297 0 .39-.156.39-.453V-15.5c0-.281-.093-.453-.39-.453H2.969c-.297 0-.39.172-.39.453V-.453c0 .297.093.453.39.453m0 0"/><path id="af" d="M4.36 0H5.5c.297 0 .422-.156.422-.453v-13.828H9.14c.297 0 .453-.172.453-.469v-.75c0-.281-.156-.453-.453-.453H5.92v-3.313c0-1.53.36-2.703 2.22-2.703.328 0 .672.032 1.062.094.203.031.39 0 .39-.219v-1.078c0-.265-.062-.328-.28-.422-.36-.14-.891-.203-1.407-.203-2.672 0-3.937 1.469-3.937 4.047v3.797H2.047c-.297 0-.453.172-.453.453v.75c0 .297.156.469.453.469h1.922V-.453c0 .297.094.453.39.453m0 0"/><path id="ag" d="M13.438-1.86H4.922v-20.468c0-.297-.14-.453-.438-.453H3.36c-.296 0-.468.156-.468.453V-.453c0 .297.172.453.468.453h10.079c.296 0 .5-.187.5-.484v-.875c0-.297-.204-.5-.5-.5m0 0"/><path id="ah" d="M9.594 6.672c4.203 0 8.11-2.188 8.11-7.219V-15.5c0-.281-.095-.453-.392-.453h-1.078c-.28 0-.39.172-.39.453l-.031 2.672C14.609-15 12.469-16.344 9.5-16.344c-4.516 0-7.75 3.36-7.75 8.078 0 4.782 3.234 8.11 7.813 8.11 2.906 0 5.015-1.313 6.218-3.422v2.86c0 4.234-2.984 5.702-6.25 5.702-1.656 0-3.312-.39-4.656-1.28-.187-.095-.422-.063-.547.14l-.422.75c-.094.25 0 .453.266.61 1.172.812 3.187 1.468 5.422 1.468m.203-8.656c-3.485 0-6.156-2.407-6.156-6.282 0-3.812 2.672-6.25 6.156-6.25 3.515 0 5.984 2.47 5.984 6.344 0 3.813-2.469 6.188-5.984 6.188m0 0"/><path id="ai" d="M9.89-16.344c-2.703 0-4.453 1.344-5.359 2.969v-9.437c0-.297-.14-.454-.437-.454H2.969c-.297 0-.39.157-.39.453v22.36c0 .297.093.453.39.453h1.125c.297 0 .437-.156.437-.453v-9.313c0-2.921 2.11-4.75 4.875-4.75s4.36 1.829 4.36 4.75v9.313c0 .297.093.453.39.453h1.14c.298 0 .423-.156.423-.453V-9.86c0-4.235-2.344-6.485-5.828-6.485m0 0"/><path id="aj" d="M7.266.39c.812 0 1.937-.156 1.937-.656v-.75c0-.312-.125-.484-.64-.39-.266.047-.75.078-1.016.078-1 0-1.453-.469-1.453-1.766V-14.28h2.718c.297 0 .47-.172.47-.469v-.75c0-.281-.173-.453-.47-.453H6.095v-3.766c0-.297-.14-.453-.438-.453H4.563c-.297 0-.422.156-.422.453v3.766H2.047c-.297 0-.453.172-.453.453v.75c0 .297.156.469.453.469H4.14V-2.86c0 2.14 1 3.25 3.125 3.25m0 0"/><path id="al" d="M1.922 0h1.266c.265 0 .421-.094.562-.328l4.125-6.469 4.14 6.469c.126.234.282.328.547.328h1.266c.36 0 .453-.234.235-.547L9.047-8.14l4.781-7.25c.203-.328.11-.562-.219-.562h-1.28c-.25 0-.423.11-.548.328L7.875-9.5l-3.906-6.125c-.125-.219-.297-.328-.547-.328H2.187c-.359 0-.468.234-.265.562l4.781 7.25L1.688-.547c-.22.313-.094.547.234.547m0 0"/><path id="am" d="M9.672.39c2.922 0 5.11-1.359 6.281-3.609l.063 2.766c0 .297.125.453.422.453h1.046c.282 0 .422-.156.422-.453V-15.5c0-.281-.14-.453-.422-.453h-1.047c-.296 0-.421.172-.421.453l-.063 2.844c-1.172-2.219-3.36-3.688-6.281-3.688-4.688 0-7.922 3.625-7.922 8.375 0 4.782 3.234 8.36 7.922 8.36m.219-1.859c-3.641 0-6.25-2.593-6.25-6.5 0-3.875 2.609-6.515 6.25-6.515 3.578 0 6.093 2.672 6.093 6.578 0 3.875-2.515 6.437-6.093 6.437m0 0"/><path id="an" d="M2.969 0h1.125c.297 0 .437-.156.437-.453v-9.313c0-2.921 2.11-4.75 4.875-4.75s4.36 1.829 4.36 4.75v9.313c0 .297.093.453.39.453h1.14c.298 0 .423-.156.423-.453V-9.86c0-4.235-2.344-6.485-5.828-6.485-2.703 0-4.453 1.344-5.36 2.969l-.11-2.078c0-.36-.093-.5-.452-.5h-1c-.297 0-.39.172-.39.453V-.453c0 .297.093.453.39.453m0 0"/><path id="ao" d="M10.813.39c4.687 0 7.906-3.577 7.906-8.359 0-4.75-3.219-8.375-7.907-8.375-2.906 0-5.109 1.407-6.28 3.625v-10.093c0-.297-.141-.454-.438-.454H2.969c-.297 0-.39.157-.39.453v22.36c0 .297.093.453.39.453H4.03c.297 0 .39-.156.39-.453l.063-2.766c1.22 2.25 3.36 3.61 6.329 3.61m-.235-1.859C7-1.469 4.484-4.03 4.484-7.906c0-3.907 2.516-6.578 6.094-6.578 3.61 0 6.219 2.64 6.219 6.515 0 3.907-2.61 6.5-6.219 6.5m0 0"/><path id="ap" d="M8.36.39c2.703 0 4.5-1.328 5.406-2.968l.062 2.094c0 .359.14.484.453.484h1.016c.297 0 .422-.156.422-.453V-15.5c0-.281-.125-.453-.422-.453h-1.14c-.298 0-.391.172-.391.453v9.313c0 2.937-2.141 4.718-4.907 4.718S4.531-3.25 4.531-6.187V-15.5c0-.281-.14-.453-.437-.453H2.969c-.297 0-.39.172-.39.453v9.375c0 4.266 2.296 6.516 5.78 6.516m0 0"/><path id="aq" d="M7.125.39c2.828 0 5.344-1.593 5.344-4.53 0-2.47-1.703-3.641-3.781-4.485l-1.47-.625c-1.75-.703-2.921-1.328-2.921-2.984 0-1.657 1.437-2.407 2.922-2.407 1.25 0 2.312.485 3.328 1.594.297.281.484.328.781 0l.36-.422c.187-.234.218-.5.03-.719-1.109-1.406-2.765-2.156-4.562-2.156-2.562 0-4.75 1.594-4.75 4.172 0 2.313 1.688 3.422 3.61 4.235l1.859.78c1.531.641 2.672 1.423 2.672 3.063 0 1.813-1.438 2.766-3.453 2.766-1.828 0-3.032-.86-3.969-1.89-.266-.298-.547-.266-.719-.032l-.39.484c-.157.297-.157.516.062.813C2.922-.906 4.563.39 7.125.39m0 0"/><path id="ar" d="M9.672.39c2.922 0 5.11-1.359 6.281-3.609l.063 2.766c0 .297.125.453.422.453h1.046c.282 0 .422-.156.422-.453v-22.36c0-.296-.14-.453-.422-.453h-1.14c-.297 0-.39.157-.39.453v10.094c-1.204-2.219-3.392-3.625-6.282-3.625-4.688 0-7.922 3.625-7.922 8.375 0 4.782 3.234 8.36 7.922 8.36m.219-1.859c-3.641 0-6.25-2.593-6.25-6.5 0-3.875 2.609-6.515 6.25-6.515 3.578 0 6.093 2.672 6.093 6.578 0 3.875-2.515 6.437-6.093 6.437m0 0"/><path id="as" d="M9.89.39C14.517.39 18-3.218 18-7.968s-3.484-8.375-8.11-8.375c-4.624 0-8.14 3.625-8.14 8.375S5.266.391 9.89.391m0-1.859c-3.578 0-6.218-2.703-6.218-6.5 0-3.812 2.64-6.547 6.219-6.547 3.547 0 6.218 2.735 6.218 6.547 0 3.797-2.672 6.5-6.218 6.5m0 0"/><path id="at" d="M2.969 0h1.125c.297 0 .437-.156.437-.453v-9.438c0-2.875 1.485-4.625 4-4.625 2.406 0 3.766 1.688 3.766 4.625v9.438c0 .297.14.453.39.453h1.172c.297 0 .391-.156.391-.453v-9.438c0-2.875 1.703-4.625 4.172-4.625 2.437 0 3.61 1.688 3.61 4.625v9.438c0 .297.14.453.421.453h1.14c.298 0 .391-.156.391-.453v-9.578c0-4.219-1.953-6.313-5.203-6.313-2.765 0-4.234 1.438-5.047 3.188-.78-2.14-2.468-3.188-4.718-3.188-2.375 0-3.782 1.235-4.532 2.735l-.062-1.844c0-.36-.094-.5-.453-.5h-1c-.297 0-.39.172-.39.453V-.453c0 .297.093.453.39.453m0 0"/><path id="au" d="M2.969 6.188h1.125c.297 0 .437-.172.437-.454v-8.89C5.703-.97 7.875.39 10.813.39c4.687 0 7.906-3.578 7.906-8.36 0-4.75-3.219-8.375-7.907-8.375-2.937 0-5.109 1.469-6.328 3.688L4.422-15.5c0-.281-.094-.453-.39-.453H2.968c-.297 0-.39.172-.39.453V5.734c0 .282.093.454.39.454m7.61-7.657C7-1.469 4.483-4.03 4.483-7.906c0-3.907 2.516-6.578 6.094-6.578 3.61 0 6.219 2.64 6.219 6.515 0 3.907-2.61 6.5-6.219 6.5m0 0"/><path id="av" d="M3 .422c.813 0 1.484-.656 1.484-1.5 0-.813-.671-1.5-1.484-1.5s-1.5.687-1.5 1.5A1.5 1.5 0 0 0 3 .422m0 0"/><path id="ay" d="M2.953 0h2c.266 0 .422-.156.422-.437v-20.641c0-.281-.156-.438-.422-.438h-2c-.281 0-.469.157-.469.438v20.64c0 .282.188.438.47.438m0 0"/><path id="az" d="M3.938 0h1.937c.266 0 .422-.156.422-.437v-12.375h3.016c.28 0 .468-.188.468-.47v-1.343c0-.281-.187-.437-.469-.437H6.297v-2.61c0-1.297.344-2.281 2-2.281q.469 0 1.078.094c.219.03.406 0 .406-.203v-1.704c0-.203-.094-.297-.281-.39-.531-.25-1.078-.313-1.719-.313-2.765 0-4.281 1.453-4.281 4.313v3.093H1.719c-.282 0-.453.157-.453.438v1.344c0 .281.172.469.453.469H3.5V-.437c0 .28.156.437.438.437m0 0"/><path id="aA" d="M2.61 0h1.937c.281 0 .437-.156.437-.437v-21.11c0-.281-.156-.422-.437-.422H2.609q-.42 0-.421.422v21.11c0 .28.14.437.421.437m0 0"/><path id="aB" d="M9.469.375c2.125 0 4.047-.656 5.375-1.937.25-.22.344-.407.125-.657l-.672-.953c-.125-.14-.313-.14-.5-.031-1.172.844-2.422 1.297-4.078 1.297-3.328 0-5.266-1.906-5.594-4.61h10.75c1.016 0 1.266-.546 1.266-1.78 0-3.72-2.625-7.126-7.11-7.126-4.515 0-7.625 3.406-7.625 7.828S4.546.375 9.47.375M4.125-8.578c.297-2.797 2.203-4.485 4.906-4.485s4.485 1.782 4.64 4.485Zm0 0"/><path id="aC" d="M9 6.297c3.875 0 7.781-1.938 7.781-6.938v-13.984c0-.281-.125-.437-.406-.437h-1.781c-.266 0-.422.156-.422.437l-.031 2.078c-1.078-1.812-2.922-2.875-5.47-2.875-4.28 0-7.265 3.156-7.265 7.578 0 4.5 2.985 7.625 7.297 7.625 2.516 0 4.328-1.078 5.406-2.828v2.313C14.11 2.796 11.531 4 8.83 4c-1.485 0-2.954-.375-4.25-1.172-.25-.125-.485-.062-.61.188l-.594 1.078c-.11.234-.062.515.219.703 1.265.89 3.234 1.5 5.406 1.5m.125-9.031c-2.86 0-5-1.97-5-5.11 0-3.062 2.14-5.062 5-5.062 2.89 0 4.922 2 4.922 5.125 0 3.11-2.031 5.047-4.922 5.047m0 0"/><path id="aD" d="M3.594-18.625c.922 0 1.625-.734 1.625-1.656s-.703-1.657-1.625-1.657-1.656.735-1.656 1.657.734 1.656 1.656 1.656M2.609 0h1.938c.281 0 .437-.156.437-.437v-14.188c0-.281-.156-.437-.437-.437H2.609c-.28 0-.39.156-.39.437V-.437c0 .28.11.437.39.437m0 0"/><path id="aE" d="M10.422.375c4.328 0 7.344-3.39 7.344-7.906 0-4.485-3.016-7.89-7.344-7.89-2.5 0-4.375 1.093-5.438 2.905v-9.03c0-.282-.156-.423-.437-.423H2.609q-.42 0-.421.422v21.11c0 .28.14.437.421.437h1.782c.28 0 .406-.156.406-.437l.062-2.235C5.97-.797 7.844.375 10.422.375m-.5-2.562c-2.938 0-5-2.11-5-5.313s2.062-5.375 5-5.375c2.984 0 5.14 2.172 5.14 5.344 0 3.203-2.156 5.344-5.14 5.344m0 0"/><path id="aF" d="M7.219.375c.86 0 2.125-.156 2.125-.75v-1.281c0-.313-.156-.469-.578-.407-.313.032-.72.063-.953.063-.891 0-1.391-.422-1.391-1.531v-9.281h2.516c.28 0 .437-.188.437-.47v-1.343c0-.281-.156-.437-.437-.437H6.422v-3.563c0-.281-.125-.437-.39-.437H4.093c-.282 0-.438.156-.438.437v3.563H1.72c-.282 0-.453.156-.453.437v1.344c0 .281.172.469.453.469h1.937v9.609c0 2.5 1.422 3.578 3.563 3.578m0 0"/><path id="aG" d="M5.281 5.844h1.907c.25 0 .437-.125.53-.375l7.954-20c.125-.344-.031-.531-.36-.531h-1.937a.534.534 0 0 0-.531.374L8.484-3.14 4.125-14.687c-.094-.25-.25-.376-.5-.376H1.656c-.328 0-.453.188-.328.532L7.094.063l-2.11 5.312c-.125.281 0 .469.297.469m0 0"/><path id="aH" d="M6.828.375c2.797 0 5.25-1.547 5.25-4.406.031-2.328-1.531-3.5-3.469-4.297L6.953-9c-1.36-.531-2.281-1.047-2.281-2.312 0-1.204 1.016-1.844 2.281-1.844 1.031 0 1.984.437 2.938 1.39.28.266.5.297.75 0l.734-.859c.156-.187.219-.437.031-.656-1.14-1.406-2.797-2.14-4.578-2.14-2.594 0-4.797 1.562-4.797 4.171 0 2.125 1.5 3.266 3.344 4.031l1.813.766c1.328.547 2.156 1.14 2.156 2.36C9.344-2.704 8.266-2 6.704-2c-1.516 0-2.61-.672-3.626-1.656-.25-.25-.531-.25-.75.031l-.61.86c-.187.312-.218.546 0 .796C2.673-.797 4.36.375 6.829.375m0 0"/><path id="aI" d="M2.61 0h1.937c.281 0 .406-.156.406-.437v-8.5c0-1.813.86-3.97 3.375-3.97.344 0 .703.032 1.11.157.343.094.546.031.546-.312v-1.5c0-.282-.062-.407-.234-.563-.281-.187-.75-.297-1.39-.297-1.844 0-2.86 1.125-3.407 2.61l-.094-1.782c0-.344-.125-.469-.437-.469H2.609c-.28 0-.421.157-.421.438V-.437c0 .28.14.437.421.437m0 0"/><path id="aJ" d="M14.625 5.844h1.938c.28 0 .437-.157.437-.438v-20.031c0-.281-.156-.437-.437-.437H14.78c-.281 0-.39.156-.39.437l-.063 2.297c-1.078-1.906-2.984-3.094-5.562-3.094-4.344 0-7.36 3.406-7.36 7.89 0 4.516 3.016 7.907 7.36 7.907 2.484 0 4.359-1.11 5.437-2.89v7.921c0 .282.156.438.422.438M9.25-2.188c-2.984 0-5.125-2.14-5.125-5.343 0-3.172 2.14-5.344 5.125-5.344 2.953 0 5.016 2.172 5.016 5.375S12.203-2.187 9.25-2.187m0 0"/><path id="aK" d="M7.656.375c2.422 0 4.016-1.203 4.89-2.734l.079 1.89c0 .344.125.469.438.469h1.812c.281 0 .438-.156.438-.437v-14.188c0-.281-.157-.437-.438-.437h-1.937c-.282 0-.391.156-.391.437v8.422c0 2.516-1.703 3.984-4 3.984-2.313 0-3.594-1.469-3.594-3.984v-8.422c0-.281-.125-.437-.406-.437H2.609c-.28 0-.421.156-.421.437v8.813c0 4 2.234 6.187 5.468 6.187m0 0"/><path id="aL" d="M8.766.375c2.578 0 4.453-1.172 5.562-3.047l.063 2.235c0 .28.109.437.39.437h1.781C16.845 0 17-.156 17-.437v-21.11c0-.281-.156-.422-.437-.422h-1.938c-.266 0-.422.14-.422.422v9.031c-1.078-1.812-2.953-2.906-5.437-2.906-4.344 0-7.36 3.406-7.36 7.89 0 4.516 3.016 7.907 7.36 7.907m.484-2.562c-2.984 0-5.125-2.141-5.125-5.344 0-3.172 2.14-5.344 5.125-5.344 2.953 0 5.016 2.172 5.016 5.375S12.203-2.187 9.25-2.187m0 0"/><path id="aM" d="M9.188.375c4.421 0 7.75-3.422 7.75-7.906 0-4.485-3.329-7.89-7.75-7.89-4.422 0-7.782 3.405-7.782 7.89S4.766.375 9.188.375m0-2.594c-2.922 0-5.063-2.14-5.063-5.312s2.14-5.344 5.063-5.344c2.89 0 5.078 2.172 5.078 5.344S12.078-2.22 9.188-2.22m0 0"/><path id="aN" d="M2.61 0h1.937c.281 0 .406-.156.406-.437v-8.407c0-2.531 1.688-4.031 3.984-4.031 2.313 0 3.61 1.5 3.61 4.031v8.407c0 .28.11.437.39.437h1.938c.281 0 .438-.156.438-.437v-8.844c0-3.969-2.25-6.14-5.485-6.14-2.422 0-4.015 1.187-4.875 2.733l-.094-1.906c0-.344-.125-.469-.437-.469H2.609c-.28 0-.421.157-.421.438V-.437c0 .28.14.437.421.437m0 0"/><path id="aO" d="M7.5 0h1.969c.25 0 .453-.125.547-.375l5.625-14.156c.125-.344 0-.531-.328-.531h-1.97c-.25 0-.405.124-.5.374L8.485-3.14 4.125-14.687c-.094-.25-.25-.376-.5-.376H1.656c-.328 0-.453.188-.328.532L6.953-.375c.078.25.297.375.547.375m0 0"/><path id="aP" d="M1.625 0H3.75c.25 0 .406-.094.516-.312L7.688-5.75l3.406 5.438c.125.218.281.312.531.312h2.11c.374 0 .5-.219.28-.516L9.345-7.687l4.453-6.844c.187-.313.094-.531-.25-.531h-2.14c-.25 0-.407.093-.532.312L7.688-9.656 4.483-14.75c-.125-.219-.28-.312-.515-.312H1.844c-.375 0-.453.218-.282.53l4.47 6.845L1.358-.516c-.187.297-.062.516.266.516m0 0"/><path id="aQ" d="M9.828-15.422c-2.422 0-4.015 1.188-4.875 2.735v-8.86c0-.281-.125-.422-.406-.422H2.609q-.42 0-.421.422v21.11c0 .28.14.437.421.437h1.938c.281 0 .406-.156.406-.437v-8.407c0-2.531 1.688-4.031 3.984-4.031 2.313 0 3.61 1.5 3.61 4.031v8.407c0 .28.11.437.39.437h1.938c.281 0 .438-.156.438-.437v-8.844c0-3.969-2.25-6.14-5.485-6.14m0 0"/><path id="aR" d="M12.938.406c6.156 0 9.921-4.468 9.921-10.156V-11c0-.281-.172-.469-.453-.469H13.22c-.281 0-.438.156-.438.438v1.719c0 .28.156.437.438.437h6.875C20.03-5.156 17.234-2.391 13-2.391c-4.703 0-8.203-3.546-8.203-8.28 0-4.75 3.5-8.298 8.11-8.298 2.156 0 4 .813 5.562 2.157.187.187.375.187.562-.032l1.25-1.375c.188-.218.188-.406-.062-.625-1.938-1.875-4.36-2.922-7.313-2.922-6.297 0-11.031 4.86-11.031 11.094C1.875-4.422 6.609.406 12.938.406m0 0"/><path id="aS" d="M9.281.375c2.422 0 4.422-.984 5.719-2.594.188-.203.188-.422 0-.61l-1.078-1.046c-.25-.25-.516-.156-.735.063-.89.953-2 1.593-3.75 1.593-3.109 0-5.312-2.234-5.312-5.344 0-3.109 2.203-5.312 5.25-5.312 1.781 0 2.89.672 3.813 1.656.187.188.453.281.703 0l1.078-1.015c.187-.188.187-.391 0-.641-1.297-1.562-3.297-2.547-5.688-2.547-4.484 0-7.875 3.375-7.875 7.86 0 4.515 3.39 7.937 7.875 7.937m0 0"/><path id="aT" d="M2.953 0h2c.266 0 .422-.156.422-.437V-16.5l.438 1.375 6.14 14.781c.094.25.281.344.531.344h1.954c.25 0 .437-.094.53-.344l6.141-14.781.438-1.375V-.437c0 .28.187.437.453.437h2c.281 0 .438-.156.438-.437v-20.641c0-.281-.157-.438-.438-.438h-2.547c-.25 0-.437.094-.515.313l-7.47 17.969L6-21.204c-.094-.218-.25-.312-.5-.312H2.953c-.281 0-.469.157-.469.438v20.64c0 .282.188.438.47.438m0 0"/><path id="aU" d="M2.61 0h1.937c.281 0 .406-.156.406-.437V-8.97c0-2.469 1.219-3.906 3.281-3.906 2.032 0 3.141 1.406 3.141 3.906v8.532c0 .28.156.437.422.437h1.937c.282 0 .407-.156.407-.437V-8.97c0-2.469 1.343-3.906 3.375-3.906 2.062 0 3.047 1.406 3.047 3.906v8.532c0 .28.125.437.39.437h1.938c.28 0 .437-.156.437-.437v-8.97c0-3.968-1.906-6.015-5.047-6.015-2.484 0-3.922 1.25-4.703 2.875-.797-1.922-2.328-2.875-4.39-2.875-2.188 0-3.5 1.094-4.266 2.516l-.063-1.688c0-.344-.125-.469-.437-.469H2.609c-.28 0-.421.157-.421.438V-.437c0 .28.14.437.421.437m0 0"/><path id="aV" d="M3.203.406c1 0 1.844-.812 1.844-1.844A1.857 1.857 0 0 0 3.203-3.28 1.847 1.847 0 0 0 1.36-1.437c0 1.03.829 1.843 1.844 1.843m0 0"/><path id="aW" d="M4.375 0h6.89c.5 0 .813-.328.813-.812v-14.72h10.844c.484 0 .812-.327.812-.812v-5.937c0-.485-.328-.797-.812-.797H12.078v-7.125h11.547c.484 0 .813-.328.813-.813v-5.937c0-.484-.329-.797-.813-.797H4.375c-.484 0-.812.313-.812.797v36.14c0 .485.328.813.812.813m0 0"/><path id="aX" d="M15.531.64c7.985 0 13.922-6.03 13.922-13.859 0-7.812-5.937-13.86-13.922-13.86-7.984 0-13.86 6.048-13.86 13.86 0 7.828 5.876 13.86 13.86 13.86m0-7.546c-3.344 0-5.937-2.422-5.937-6.313 0-3.875 2.594-6.312 5.937-6.312s5.938 2.437 5.938 6.312c0 3.89-2.594 6.313-5.938 6.313m0 0"/><path id="aY" d="M3.828 0h6.578c.485 0 .86-.328.86-.812v-13.375c0-3.5 1.734-5.344 4.593-5.344 2.907 0 4.422 1.843 4.422 5.343V-.812c0 .484.375.812.86.812h6.53c.485 0 .86-.328.86-.812v-15.313c0-6.906-4.047-10.953-9.547-10.953-3.78 0-6.203 1.89-7.718 4.594L11-25.562c0-.657-.328-.86-.812-.86h-6.36c-.484 0-.812.313-.812.797V-.812c0 .484.328.812.812.812m0 0"/><path id="aZ" d="M14.031.64c1.828 0 4.735-.312 4.735-1.671V-5.5c0-.547-.422-.812-.97-.75-.702.047-1.187.047-1.671.047-1.344 0-2.266-.75-2.266-2.219v-11.64h4.047c.485 0 .813-.329.813-.813v-4.75c0-.484-.328-.797-.813-.797H13.86v-6.203c0-.5-.375-.812-.859-.812H6.36c-.485 0-.86.312-.86.812v6.203H2.219c-.5 0-.813.313-.813.797v4.75c0 .484.313.813.813.813H5.5V-7.5C5.5-1.344 9.656.64 14.031.64m0 0"/><path id="ba" d="M6.906-17.375a4.78 4.78 0 0 0 4.797-4.797c0-2.687-2.11-4.906-4.797-4.906-2.703 0-4.797 2.219-4.797 4.906a4.77 4.77 0 0 0 4.797 4.797m0 18.016a4.78 4.78 0 0 0 4.797-4.797c0-2.688-2.11-4.906-4.797-4.906-2.703 0-4.797 2.218-4.797 4.906A4.77 4.77 0 0 0 6.906.64m0 0"/><path id="bc" d="M12.156.5c5.297 0 8.875-3.297 8.875-9.219v-18c0-.36-.187-.547-.547-.547h-1.359c-.344 0-.547.188-.547.547v17.64c0 4.985-2.687 7.204-6.422 7.204-3.75 0-6.469-2.219-6.469-7.203v-17.64c0-.36-.156-.548-.5-.548H3.813c-.343 0-.546.188-.546.547v18C3.266-2.797 6.89.5 12.156.5m0 0"/><path id="bd" d="M8.531.469c3.39 0 6.39-1.906 6.39-5.422 0-2.953-2.03-4.36-4.515-5.375l-1.765-.735c-2.094-.859-3.5-1.593-3.5-3.578 0-2 1.718-2.89 3.5-2.89 1.484 0 2.765.593 3.984 1.906.344.36.578.39.938 0l.421-.5c.235-.281.266-.578.032-.86-1.313-1.671-3.297-2.562-5.453-2.562-3.063 0-5.688 1.906-5.688 4.985 0 2.765 2.031 4.078 4.328 5.062l2.219.938c1.828.765 3.203 1.703 3.203 3.656 0 2.172-1.719 3.312-4.14 3.312-2.172 0-3.61-1.015-4.75-2.265-.313-.344-.657-.313-.86-.032l-.453.579c-.203.359-.203.624.078.968C3.5-1.094 5.453.47 8.531.47m0 0"/><path id="be" d="M11.563.469c3.515 0 6.124-1.64 7.53-4.328l.079 3.312c0 .36.156.547.5.547h1.25c.344 0 .5-.187.5-.547v-18c0-.344-.156-.547-.5-.547h-1.25c-.344 0-.5.203-.5.547l-.078 3.39c-1.407-2.64-4.016-4.39-7.532-4.39-5.609 0-9.453 4.313-9.453 10C2.11-3.812 5.953.47 11.563.47m.28-2.219c-4.359 0-7.484-3.125-7.484-7.797 0-4.625 3.125-7.781 7.485-7.781 4.281 0 7.281 3.187 7.281 7.86 0 4.64-3 7.718-7.281 7.718m0 0"/><path id="bf" d="M11.484 7.984c5.032 0 9.704-2.609 9.704-8.64v-17.89c0-.345-.11-.548-.47-.548h-1.28c-.344 0-.47.203-.47.547l-.03 3.203c-1.454-2.61-4.016-4.203-7.563-4.203-5.422 0-9.266 4-9.266 9.656 0 5.72 3.844 9.704 9.344 9.704 3.469 0 6-1.563 7.438-4.094V-.86c0 5.062-3.578 6.812-7.485 6.812-1.984 0-3.969-.453-5.562-1.516-.235-.109-.5-.078-.657.157l-.515.906c-.11.297 0 .531.312.734 1.407.97 3.813 1.75 6.5 1.75m.235-10.359c-4.156 0-7.36-2.89-7.36-7.516 0-4.562 3.204-7.484 7.36-7.484 4.219 0 7.172 2.969 7.172 7.594 0 4.562-2.953 7.406-7.172 7.406m0 0"/><path id="bg" d="M12.156.469c2.64 0 5.094-.813 6.813-2.453.281-.282.437-.47.156-.813l-.547-.703c-.11-.156-.39-.156-.547 0-1.468 1.125-3.187 1.938-5.687 1.938-4.906 0-7.625-3.11-7.985-7.157H19.25c1.047 0 1.281-.469 1.281-1.844 0-4.624-3.234-8.984-8.89-8.984-5.641 0-9.532 4.313-9.532 9.922C2.11-4.094 5.922.469 12.156.469m-7.75-11.11c.344-4.125 3.157-6.812 7.203-6.812 4.125 0 6.735 2.844 6.86 6.812Zm0 0"/><path id="bh" d="M4.203.172c.969 0 1.86-.281 2.438-.875.125-.11.125-.219.078-.297l-.578-.812c-.079-.11-.141-.125-.25-.079-.578.329-1.047.375-1.516.375-.984 0-1.625-.359-1.86-1.093h3.938c.64 0 .813-.422.813-1.125 0-1.766-1.203-3.282-3.313-3.282S.438-5.469.438-3.453C.438-1.375 1.953.172 4.203.172M2.484-4.094c.172-.812.782-1.172 1.485-1.172.719 0 1.265.344 1.406 1.172Zm0 0"/><path id="bi" d="M3.656.172c.969 0 1.672-.39 2.14-1.047l.016.672c0 .125.11.203.235.203h1.531c.125 0 .234-.078.234-.203v-6.438a.214.214 0 0 0-.218-.218H6.047c-.125 0-.234.093-.234.218l-.016.657c-.453-.641-1.14-1.032-2.14-1.032-1.907 0-3.22 1.563-3.22 3.594S1.75.172 3.658.172m.453-1.953c-.906 0-1.593-.64-1.593-1.64s.687-1.657 1.593-1.657c.938 0 1.579.656 1.579 1.64 0 1-.641 1.657-1.579 1.657m0 0"/><path id="bj" d="M3.188.172c1.39 0 2.609-.734 2.609-2.14.031-1.032-.656-1.641-1.5-1.97l-1.031-.406c-.313-.125-.547-.312-.547-.562 0-.219.125-.453.547-.453.375 0 .75.203 1.203.547.125.078.218.093.312 0l.719-.844c.047-.078.094-.188.016-.282A3.1 3.1 0 0 0 3.14-7.015c-1.313 0-2.453.766-2.453 2.11 0 .953.578 1.531 1.484 1.89l.89.36c.47.187.61.328.61.594 0 .312-.25.453-.625.453-.485 0-.953-.203-1.547-.641-.11-.078-.234-.11-.36.063l-.546.78c-.11.141-.125.313-.047.407C1.125-.312 2.03.172 3.187.172m0 0"/><path id="bk" d="M2.203 2.656H3.86c.11 0 .204-.062.25-.172L7.75-6.609c.047-.157-.031-.25-.187-.25H5.828a.29.29 0 0 0-.266.172l-1.5 4.203-1.515-4.203a.29.29 0 0 0-.266-.172H.547c-.156 0-.235.093-.188.25L3.016.016l-1 2.39c-.079.172.015.25.187.25m0 0"/><path id="bl" d="M3.25.172c.984 0 1.61-.5 2.016-1.188l.046.797c0 .157.094.219.22.219h1.64c.125 0 .219-.078.219-.203v-6.438a.214.214 0 0 0-.22-.218H5.485a.214.214 0 0 0-.218.218v3.47c0 .905-.47 1.374-1.203 1.374-.75 0-1.141-.469-1.141-1.375V-6.64a.214.214 0 0 0-.219-.218H1c-.14 0-.219.093-.219.218v3.97C.781-.876 1.812.171 3.25.171m0 0"/><path id="bm" d="M3.64.172c.47 0 1.22-.094 1.22-.438v-1.156c0-.14-.11-.219-.25-.203-.173.016-.298.016-.423.016-.359 0-.593-.188-.593-.578v-3.016H4.64c.125 0 .218-.078.218-.203v-1.235a.214.214 0 0 0-.218-.218H3.594v-1.594c0-.14-.094-.219-.219-.219H1.656c-.125 0-.234.078-.234.219v1.594H.578a.214.214 0 0 0-.219.218v1.235c0 .125.094.203.22.203h.843v3.266C1.422-.344 2.5.172 3.64.172m0 0"/><path id="bn" d="M4.031.172c2.063 0 3.61-1.578 3.61-3.594 0-2.031-1.547-3.594-3.61-3.594-2.078 0-3.593 1.563-3.593 3.594C.438-1.406 1.953.172 4.03.172m0-1.969c-.875 0-1.547-.625-1.547-1.625 0-1.015.672-1.64 1.547-1.64.86 0 1.532.625 1.532 1.64 0 1-.672 1.625-1.532 1.625m0 0"/><path id="bo" d="M2.547 0H4.25c.125 0 .219-.078.219-.203v-9.375a.214.214 0 0 0-.219-.219H.688a.214.214 0 0 0-.22.219v1.39c0 .126.094.22.22.22h1.64v7.765c0 .125.094.203.219.203m0 0"/><path id="bp" d="M.922 0h5.766c.125 0 .218-.078.218-.203v-1.39a.214.214 0 0 0-.218-.22H3.266l2.328-2.39c.375-.39 1.297-1.25 1.297-2.703 0-1.719-1.328-3-3.235-3-1.531 0-2.5.797-3.062 1.61a.24.24 0 0 0 .031.312l.969.968c.125.11.203.125.328 0 .36-.484.797-.921 1.547-.921.812 0 1.344.5 1.344 1.218 0 .875-.72 1.532-1.11 1.922L.797-1.844a.46.46 0 0 0-.094.266v1.375c0 .125.094.203.219.203m0 0"/><path id="bq" d="M3.531.188C5.391.188 6.86-.97 6.86-2.734c0-1.328-.812-2.11-1.671-2.453A2.23 2.23 0 0 0 6.53-7.281c0-1.672-1.406-2.625-2.984-2.625-1.281 0-2.281.64-2.813 1.469a.22.22 0 0 0 .047.312l.985.953c.109.11.234.125.312-.031.25-.453.703-.734 1.25-.734.625 0 1.125.406 1.125 1.03 0 .47-.281 1-1.078 1H3c-.14 0-.25.079-.25.235v1.266c0 .14.11.218.25.218h.39c.97 0 1.313.657 1.313 1.188 0 .64-.453 1.219-1.312 1.219-.657 0-1.094-.344-1.47-.797-.124-.11-.234-.11-.312-.016L.563-1.64c-.094.063-.125.188-.047.297C1.046-.5 2.063.188 3.53.188m0 0"/><path id="bN" d="M5.734.188c2.797 0 4.485-2.094 4.485-4.641v-1c0-.125-.078-.203-.203-.203H5.78c-.125 0-.218.078-.218.203v1.531c0 .125.093.219.218.219H8.11c-.078.922-.89 1.719-2.312 1.719-1.703 0-2.922-1.203-2.922-2.875 0-1.657 1.219-2.875 2.813-2.875.828 0 1.5.312 2.03.765.11.094.22.094.345-.031l1.03-1.11c.126-.14.126-.265.016-.39-.843-.875-2-1.406-3.437-1.406C2.906-9.906.64-7.734.64-4.86.64-1.97 2.906.188 5.734.188m0 0"/><path id="bO" d="M1 0h1.703c.125 0 .219-.078.219-.203v-3.313c0-1.015.531-1.578 1.406-1.578.219 0 .375.032.516.078.187.032.281 0 .281-.187v-1.36c0-.125-.016-.203-.125-.28-.11-.079-.281-.173-.625-.173-.797 0-1.234.563-1.453 1.297l-.063-.906c0-.172-.093-.234-.218-.234H1c-.14 0-.219.093-.219.218v6.438C.781-.078.86 0 1 0m0 0"/><path id="bP" d="M4.063.172c1.109 0 2.03-.5 2.625-1.266.078-.093.062-.203-.016-.297l-.969-.921c-.11-.11-.266-.11-.36-.016-.374.36-.75.531-1.202.531-1.032 0-1.657-.781-1.657-1.672 0-.875.625-1.594 1.625-1.594.485 0 .844.172 1.204.532a.27.27 0 0 0 .375-.016l.968-.922a.217.217 0 0 0 .016-.297c-.594-.765-1.516-1.25-2.656-1.25-2.078 0-3.578 1.532-3.578 3.547 0 2.063 1.53 3.64 3.625 3.64m0 0"/><path id="bQ" d="M1 0h1.719c.125 0 .219-.078.219-.203v-9.594c0-.125-.094-.203-.22-.203H1c-.14 0-.219.078-.219.203v9.594C.781-.078.86 0 1 0m0 0"/><path id="bR" d="M1.875-7.937c.672 0 1.156-.516 1.156-1.188 0-.64-.484-1.156-1.156-1.156S.703-9.766.703-9.125c0 .672.5 1.188 1.172 1.188M1 0h1.734c.125 0 .22-.078.22-.203v-6.438a.214.214 0 0 0-.22-.218H1c-.125 0-.203.093-.203.218v6.438C.797-.078.875 0 1 0m0 0"/><path id="bS" d="M1.594 0h1.719c.124 0 .218-.078.218-.203v-5h1.375c.125 0 .219-.078.219-.203v-1.235a.214.214 0 0 0-.219-.218H3.531v-.672c0-.469.156-.797.813-.797.156 0 .36.031.593.078.094.016.188 0 .188-.094v-1.422A.27.27 0 0 0 5-9.984c-.422-.203-.734-.235-1.156-.235-1.516 0-2.453.719-2.453 2.406v.954H.578a.214.214 0 0 0-.219.218v1.235c0 .125.094.203.22.203h.812v5c0 .125.078.203.203.203m0 0"/><path id="bU" d="M1.125 0h5.047c.125 0 .219-.078.219-.203V-1.75c0-.125-.094-.203-.22-.203H3.126v-2H6c.125 0 .203-.094.203-.219v-1.531c0-.125-.078-.219-.203-.219H3.125v-1.906h3.063c.125 0 .203-.094.203-.219v-1.531c0-.125-.079-.219-.203-.219H1.125c-.125 0-.203.094-.203.219v9.375C.922-.078 1 0 1.125 0m0 0"/><path id="bV" d="M.547 0h1.86c.109 0 .202-.047.265-.14l1.062-1.844L4.797-.141c.062.094.14.141.25.141h1.875c.172 0 .234-.11.14-.25L5.017-3.516l1.968-3.078c.11-.14.016-.265-.14-.265h-1.86c-.125 0-.218.046-.265.14L3.734-5.03l-1-1.688c-.046-.093-.14-.14-.25-.14H.625c-.156 0-.234.125-.156.265l1.984 3.078L.391-.25C.328-.11.375 0 .547 0m0 0"/><path id="bW" d="M1.125 0h3.266c2.359 0 3.5-1.125 3.5-2.781 0-1.422-.953-2.219-1.907-2.485a2.22 2.22 0 0 0 1.266-2.03c0-1.36-.969-2.5-2.719-2.5H1.125c-.125 0-.203.093-.203.218v9.375C.922-.078 1 0 1.125 0m1.984-5.953v-1.89h.954c.671 0 1.093.234 1.093.906 0 .718-.422.984-1.093.984Zm0 4.016v-2.297H4.25c.828 0 1.39.312 1.39 1.125s-.562 1.172-1.39 1.172Zm0 0"/><path id="bX" d="M3.656.172c.969 0 1.672-.39 2.14-1.047l.016.672c0 .125.11.203.235.203h1.531c.125 0 .234-.078.234-.203v-9.594c0-.125-.093-.203-.218-.203H5.875c-.125 0-.219.078-.219.203v3.625c-.453-.547-1.11-.844-2-.844C1.75-7.016.438-5.453.438-3.422S1.75.172 3.656.172m.453-1.953c-.906 0-1.593-.64-1.593-1.64s.687-1.657 1.593-1.657c.938 0 1.579.656 1.579 1.64 0 1-.641 1.657-1.579 1.657m0 0"/><path id="cc" d="M4.89 0h1.704c.125 0 .218-.078.218-.203v-1.578h.829A.214.214 0 0 0 7.859-2v-1.328c0-.125-.093-.203-.218-.203h-.828v-6.047a.214.214 0 0 0-.22-.219h-1.75c-.109 0-.202.047-.25.14L.61-3.671a.6.6 0 0 0-.062.281v1.407c0 .125.078.203.203.203h3.922v1.578c0 .125.094.203.219.203M2.61-3.531l2.062-3.094v3.094Zm0 0"/><path id="cd" d="M1 2.656h1.719c.125 0 .219-.078.219-.203V-.703c.453.547 1.124.875 2 .875 1.921 0 3.234-1.563 3.234-3.594S6.859-7.016 4.937-7.016c-1 0-1.687.391-2.14 1.032l-.031-.657a.214.214 0 0 0-.22-.218H1c-.14 0-.219.093-.219.218v9.094c0 .125.078.203.219.203M4.469-1.78c-.922 0-1.563-.657-1.563-1.656 0-.985.64-1.641 1.563-1.641s1.593.656 1.593 1.656-.671 1.64-1.593 1.64m0 0"/><path id="ce" d="M1 0h1.703c.125 0 .219-.078.219-.203v-3.469c0-.922.453-1.39 1.187-1.39.75 0 1.157.468 1.157 1.39v3.469c0 .125.093.203.218.203h1.688c.125 0 .219-.078.219-.203v-3.984c0-1.782-1.047-2.829-2.47-2.829-.984 0-1.609.485-2 1.188l-.062-.797c0-.172-.093-.234-.218-.234H1c-.14 0-.219.093-.219.218v6.438C.781-.078.86 0 1 0m0 0"/><path id="cf" d="M4.047 2.86c1.656 0 3.64-.735 3.64-3.266v-6.235c0-.125-.078-.218-.203-.218H5.922a.214.214 0 0 0-.219.218l-.047.532c-.406-.578-1.062-.907-2.015-.907-1.938 0-3.203 1.422-3.203 3.422 0 2.031 1.265 3.438 3.187 3.438.938 0 1.61-.328 2.031-.89v.64c0 1.172-.937 1.531-1.828 1.531-.578 0-1.172-.156-1.781-.484-.172-.094-.297-.032-.375.125l-.438.859c-.093.14-.078.313.063.422.719.547 1.703.812 2.75.812m.016-4.922c-.907 0-1.547-.594-1.547-1.532 0-.922.64-1.515 1.547-1.515.875 0 1.5.593 1.5 1.515 0 .938-.625 1.531-1.5 1.531m0 0"/><path id="cm" d="M3.016-10C2-10.062.406-9.234.406-7.5c0 1.172.703 1.656 1.39 1.656.688 0 1.267-.562 1.267-1.25s-.594-1.234-1.25-1.234c-.485 0 .171-1.219 1.203-1.203Zm0 0"/><path id="cn" d="M5.672.188a5.025 5.025 0 0 0 5.047-5.047 5.025 5.025 0 0 0-5.047-5.047A5.02 5.02 0 0 0 .64-4.86 5.02 5.02 0 0 0 5.67.188m0-2.172c-1.578 0-2.797-1.25-2.797-2.875 0-1.641 1.219-2.875 2.797-2.875 1.594 0 2.797 1.234 2.797 2.875 0 1.625-1.203 2.875-2.797 2.875m0 0"/><path id="co" d="M.438-5.89c1.015.077 2.609-.766 2.609-2.5 0-1.141-.703-1.657-1.375-1.657-.703 0-1.281.563-1.281 1.25s.578 1.25 1.234 1.25c.484 0-.156 1.219-1.187 1.203Zm0 0"/><path id="cq" d="M.89-3h4.204c.125 0 .218-.078.218-.203V-4.5a.214.214 0 0 0-.218-.219H.89c-.125 0-.203.094-.203.219v1.297c0 .125.078.203.203.203m0 0"/><path id="cr" d="M4.61.188c2.03 0 4-1.454 4-5.047 0-3.578-1.97-5.047-4-5.047-2.016 0-4 1.469-4 5.047 0 3.593 1.984 5.047 4 5.047m0-1.985c-1.376 0-1.923-1.328-1.923-3.062 0-1.72.547-3.063 1.922-3.063s1.922 1.344 1.922 3.063c0 1.734-.547 3.062-1.922 3.062m0 0"/><path id="cs" d="M1 0h1.703c.125 0 .219-.078.219-.203V-3.72c0-.875.36-1.344 1.015-1.344.688 0 1 .47 1 1.344v3.516c0 .125.094.203.235.203h1.687c.141 0 .22-.078.22-.203V-3.72c0-.875.359-1.344 1.03-1.344.688 0 1 .47 1 1.344v3.516c0 .125.094.203.22.203h1.687c.125 0 .234-.078.234-.203v-4c0-1.781-.922-2.813-2.39-2.813-1.047 0-1.735.485-2.11 1.172-.39-.765-1.062-1.172-1.922-1.172-.906 0-1.547.454-1.922 1.094l-.047-.703c0-.172-.093-.234-.218-.234H1c-.14 0-.219.093-.219.218v6.438C.781-.078.86 0 1 0m0 0"/><path id="cu" d="M4.938.172c1.921 0 3.234-1.563 3.234-3.594S6.859-7.016 4.937-7.016c-.89 0-1.546.297-2 .844v-3.625c0-.125-.093-.203-.218-.203H1c-.14 0-.219.078-.219.203v9.594C.781-.078.875 0 1 0h1.547c.125 0 .219-.078.219-.203l.03-.672C3.267-.219 3.954.172 4.939.172m-.47-1.953c-.921 0-1.562-.657-1.562-1.656 0-.985.64-1.641 1.563-1.641s1.593.656 1.593 1.656-.671 1.64-1.593 1.64m0 0"/><path id="cv" d="M1 0h1.719c.125 0 .219-.078.219-.203v-1.39l.765-.891L5.406-.125c.078.094.14.125.25.125h1.86c.156 0 .218-.11.125-.266L5-3.969l2.266-2.625c.125-.14.078-.265-.125-.265H5.219a.28.28 0 0 0-.25.125L2.937-4.281v-5.516c0-.125-.093-.203-.218-.203H1c-.14 0-.219.078-.219.203v9.594C.781-.078.86 0 1 0m0 0"/><path id="bs" d="M4.64.172c2.016 0 3.407-1.547 3.407-3.594S6.657-7.016 4.64-7.016c-1.25 0-2.188.594-2.703 1.547v-4.328c0-.125-.047-.203-.172-.203h-.5c-.125 0-.157.078-.157.203v9.594c0 .14.032.203.157.203h.468c.125 0 .172-.062.172-.203l.032-1.188C2.453-.42 3.375.172 4.64.172m-.093-.797c-1.547 0-2.61-1.11-2.61-2.766 0-1.687 1.063-2.828 2.61-2.828s2.672 1.125 2.672 2.797S6.094-.625 4.547-.625m0 0"/><path id="bt" d="M4.25.172c1.984 0 3.484-1.563 3.484-3.594 0-2.047-1.5-3.594-3.484-3.594S.75-5.469.75-3.422C.75-1.39 2.266.172 4.25.172m0-.797c-1.531 0-2.672-1.172-2.672-2.797 0-1.64 1.14-2.812 2.672-2.812 1.531 0 2.672 1.172 2.672 2.812 0 1.625-1.14 2.797-2.672 2.797m0 0"/><path id="bu" d="M4.156.172c1.25 0 2.188-.594 2.703-1.563l.016 1.188c0 .14.063.203.188.203h.453c.125 0 .172-.062.172-.203v-9.594c0-.125-.047-.203-.172-.203h-.5c-.125 0-.157.078-.157.203v4.328c-.53-.953-1.468-1.547-2.703-1.547C2.141-7.016.75-5.469.75-3.422S2.14.172 4.156.172m.094-.797c-1.562 0-2.687-1.125-2.687-2.797S2.688-6.219 4.25-6.219c1.547 0 2.61 1.14 2.61 2.828 0 1.657-1.063 2.766-2.61 2.766m0 0"/><path id="bv" d="M2.516 2.656H3c.11 0 .188-.062.234-.172l3.61-9.093c.047-.157 0-.25-.157-.25h-.5c-.109 0-.156.062-.203.172L3.781-.923 1.563-6.687c-.032-.11-.11-.172-.22-.172H.86c-.14 0-.203.093-.14.25L3.344.03 2.375 2.47c-.047.11 0 .187.14.187m0 0"/><path id="bw" d="M3.125.172c.344 0 .828-.078.828-.281v-.328c0-.141-.047-.204-.281-.157-.11 0-.313.016-.422.016-.437 0-.64-.188-.64-.75v-4.813h1.187q.187 0 .187-.187v-.328c0-.125-.062-.203-.187-.203H2.609v-1.61c0-.125-.046-.203-.171-.203h-.485c-.125 0-.172.078-.172.203v1.61H.875c-.125 0-.187.078-.187.203v.328q0 .187.187.187h.906v4.907c0 .922.422 1.406 1.344 1.406m0 0"/><path id="bx" d="M4.36.172c.952 0 1.827-.297 2.452-.89.094-.095.157-.157.047-.282l-.187-.266c-.047-.046-.14-.046-.203 0-.532.407-1.14.704-2.032.704-1.765 0-2.75-1.11-2.875-2.563h5.344c.375 0 .469-.172.469-.672 0-1.656-1.172-3.219-3.187-3.219C2.156-7.016.75-5.469.75-3.453.75-1.47 2.125.172 4.36.172M1.577-3.812c.125-1.485 1.14-2.454 2.594-2.454 1.484 0 2.422 1.016 2.453 2.454Zm0 0"/><path id="by" d="M.828 0h.547c.11 0 .172-.047.234-.14l1.782-2.782L5.156-.14c.063.094.125.141.235.141h.547c.156 0 .203-.094.109-.234L3.89-3.5l2.047-3.11c.093-.14.046-.25-.094-.25h-.547c-.11 0-.172.048-.234.141L3.39-4.079l-1.688-2.64a.24.24 0 0 0-.234-.14H.937c-.156 0-.203.109-.109.25L2.875-3.5.735-.234C.624-.094.687 0 .827 0m0 0"/><path id="bz" d="M3.063.172c1.218 0 2.296-.688 2.296-1.953 0-1.063-.734-1.563-1.625-1.922L3.11-3.97c-.765-.312-1.265-.578-1.265-1.297 0-.703.625-1.03 1.265-1.03.532 0 .985.218 1.422.687.125.125.203.14.328 0l.157-.188c.093-.094.109-.203.015-.297-.468-.61-1.187-.922-1.953-.922-1.11 0-2.047.688-2.047 1.782 0 1 .735 1.468 1.563 1.828l.797.328c.656.281 1.14.61 1.14 1.312 0 .782-.61 1.188-1.484 1.188-.781 0-1.297-.36-1.703-.813-.11-.125-.235-.109-.313-.015l-.172.218c-.062.125-.062.22.032.344A2.74 2.74 0 0 0 3.063.172m0 0"/><path id="bA" d="M4.25-7.016c-1.156 0-1.922.563-2.312 1.266v-4.047c0-.125-.047-.203-.172-.203h-.5c-.125 0-.157.078-.157.203v9.594c0 .14.032.203.157.203h.5c.125 0 .172-.062.172-.203v-4c0-1.25.921-2.031 2.109-2.031s1.875.78 1.875 2.03v4c0 .142.031.204.156.204h.5c.125 0 .172-.062.172-.203v-4.031c0-1.828-1-2.782-2.5-2.782m0 0"/><path id="bB" d="M3.594.172C4.75.172 5.53-.406 5.922-1.11l.016.906c0 .14.062.203.203.203h.437c.125 0 .172-.062.172-.203v-6.453c0-.125-.047-.203-.172-.203h-.5c-.125 0-.156.078-.156.203v4c0 1.25-.922 2.031-2.125 2.031-1.188 0-1.86-.781-1.86-2.031v-4c0-.125-.046-.203-.171-.203h-.5c-.125 0-.157.078-.157.203v4.031c0 1.828.985 2.797 2.485 2.797m0 0"/><path id="bC" d="M1.266 0h.5c.125 0 .172-.062.172-.203v-9.594c0-.125-.047-.203-.172-.203h-.5c-.125 0-.157.078-.157.203v9.594c0 .14.032.203.157.203m0 0"/><path id="bD" d="M1.531-8.719c.297 0 .532-.265.532-.562 0-.313-.235-.563-.532-.563a.56.56 0 0 0-.562.563c0 .297.25.562.562.562M1.266 0h.5c.125 0 .172-.062.172-.203v-6.453c0-.125-.047-.203-.172-.203h-.5c-.125 0-.157.078-.157.203v6.453c0 .14.032.203.157.203m0 0"/><path id="bE" d="M1.266 0h.5c.125 0 .172-.062.172-.203v-4c0-1.25.921-2.031 2.109-2.031s1.875.78 1.875 2.03v4c0 .142.031.204.156.204h.5c.125 0 .172-.062.172-.203v-4.031c0-1.828-1-2.782-2.5-2.782-1.156 0-1.922.563-2.312 1.266l-.032-.89c0-.157-.047-.22-.203-.22h-.437c-.125 0-.157.079-.157.204v6.453c0 .14.032.203.157.203m0 0"/><path id="bF" d="M5.969.188c2.781 0 4.515-2 4.515-4.625v-.344c0-.125-.078-.219-.203-.219H6.125c-.125 0-.203.063-.203.188v.437c0 .125.078.172.203.172h3.516c.015 2.062-1.5 3.531-3.672 3.531-2.344 0-4.125-1.797-4.125-4.187 0-2.407 1.781-4.188 4.11-4.188 1.046 0 1.968.39 2.765 1.078.078.063.156.063.219 0l.343-.406c.078-.078.078-.14-.031-.219-.906-.86-1.984-1.312-3.297-1.312C3.047-9.906.97-7.656.97-4.86c0 2.812 2.078 5.047 5 5.047m0 0"/><path id="bG" d="M1.266 0h.5c.125 0 .172-.062.172-.203v-4.125c0-.734.312-1.906 1.593-1.906.125 0 .297 0 .5.062.14.047.235.016.235-.14v-.344c0-.125-.032-.188-.11-.235-.125-.093-.36-.125-.625-.125-.86 0-1.328.5-1.594 1.125l-.03-.75c0-.156-.048-.218-.204-.218h-.437c-.125 0-.157.078-.157.203v6.453c0 .14.032.203.157.203m0 0"/><path id="bH" d="M4.313.172c1.093 0 1.984-.422 2.562-1.14.094-.11.125-.173.031-.266L6.641-1.5c-.125-.125-.235-.047-.328.047-.422.453-1 .828-1.954.828-1.593 0-2.78-1.14-2.78-2.797 0-1.672 1.187-2.812 2.765-2.812.953 0 1.531.375 1.984.843.063.094.172.157.297.016l.266-.25c.093-.078.062-.156-.032-.281-.578-.688-1.468-1.11-2.53-1.11C2.296-7.016.75-5.484.75-3.422.75-1.375 2.297.172 4.313.172m0 0"/><path id="bI" d="M1.875 0h.484c.125 0 .188-.062.188-.203v-5.938h1.375c.14 0 .203-.062.203-.187v-.328c0-.125-.062-.203-.203-.203H2.547v-1.422c0-.656.156-1.156.953-1.156.14 0 .297.015.453.046.094 0 .172 0 .172-.109v-.453c0-.11-.031-.14-.125-.188a2.2 2.2 0 0 0-.61-.078c-1.14 0-1.687.625-1.687 1.735v1.625H.875c-.125 0-.187.078-.187.203v.328q0 .187.187.187h.828v5.938c0 .14.047.203.172.203m0 0"/><path id="bJ" d="M5.781-.797H2.11v-8.797c0-.125-.046-.203-.171-.203h-.5c-.125 0-.188.078-.188.203v9.39c0 .142.063.204.188.204H5.78c.125 0 .203-.078.203-.203v-.39c0-.126-.078-.204-.203-.204m0 0"/><path id="bK" d="M4.125 2.86c1.797 0 3.484-.922 3.484-3.094v-6.422c0-.125-.046-.203-.171-.203h-.454c-.125 0-.171.078-.171.203l-.016 1.14c-.516-.937-1.438-1.5-2.719-1.5C2.141-7.016.75-5.578.75-3.546.75-1.5 2.14-.063 4.11-.063c1.25 0 2.156-.563 2.671-1.47v1.22c0 1.828-1.281 2.453-2.687 2.453-.703 0-1.422-.172-2-.547-.078-.047-.172-.032-.235.062l-.187.313c-.031.11 0 .203.125.265.5.36 1.36.625 2.328.625m.078-3.72c-1.484 0-2.64-1.03-2.64-2.687 0-1.64 1.156-2.687 2.64-2.687 1.516 0 2.578 1.062 2.578 2.718 0 1.641-1.062 2.657-2.578 2.657m0 0"/><path id="bL" d="M3.234 0h.563c.11 0 .203-.062.25-.172l2.016-5.765 2.03 5.765c.048.11.141.172.25.172h.563c.11 0 .219-.062.25-.172l2.266-6.437c.062-.157 0-.25-.156-.25h-.485c-.11 0-.172.062-.203.172L8.61-.907l-2.015-5.78c-.032-.11-.14-.172-.25-.172h-.547a.27.27 0 0 0-.266.172l-2 5.78-1.969-5.78c-.03-.11-.109-.172-.218-.172H.859c-.14 0-.203.093-.14.25L2.984-.172c.032.11.141.172.25.172m0 0"/><path id="bM" d="M4.156.172c1.25 0 2.188-.594 2.703-1.563l.016 1.188c0 .14.063.203.188.203h.453c.125 0 .172-.062.172-.203v-6.453c0-.125-.047-.203-.172-.203h-.453c-.125 0-.188.078-.188.203l-.016 1.218c-.515-.953-1.453-1.578-2.703-1.578C2.141-7.016.75-5.469.75-3.422S2.14.172 4.156.172m.094-.797c-1.562 0-2.687-1.125-2.687-2.797S2.688-6.219 4.25-6.219c1.547 0 2.61 1.14 2.61 2.828 0 1.657-1.063 2.766-2.61 2.766m0 0"/><path id="bY" d="M1.266 0h.5c.125 0 .172-.062.172-.203V-4.25c0-1.234.656-1.984 1.718-1.984 1.047 0 1.625.718 1.625 1.984v4.047c0 .14.063.203.172.203h.5c.125 0 .172-.062.172-.203V-4.25c0-1.234.734-1.984 1.797-1.984 1.047 0 1.547.718 1.547 1.984v4.047c0 .14.047.203.187.203h.485c.125 0 .172-.062.172-.203v-4.11c0-1.812-.844-2.703-2.25-2.703-1.188 0-1.813.61-2.157 1.36-.343-.922-1.062-1.36-2.031-1.36-1.016 0-1.625.532-1.937 1.172l-.032-.797c0-.156-.047-.218-.203-.218h-.437c-.125 0-.157.078-.157.203v6.453c0 .14.032.203.157.203m0 0"/><path id="bZ" d="M1.266 2.656h.5c.125 0 .172-.062.172-.187V-1.36C2.453-.422 3.39.17 4.64.17c2.015 0 3.406-1.546 3.406-3.593S6.657-7.016 4.64-7.016c-1.25 0-2.188.625-2.703 1.579l-.032-1.22c0-.124-.047-.202-.172-.202h-.468c-.125 0-.157.078-.157.203v9.125c0 .125.032.187.157.187m3.28-3.281C3-.625 1.938-1.735 1.938-3.391c0-1.687 1.063-2.828 2.61-2.828s2.672 1.125 2.672 2.797S6.094-.625 4.547-.625m0 0"/><path id="ca" d="M1.281.188a.65.65 0 0 0 .657-.657.657.657 0 0 0-.657-.64.654.654 0 0 0-.64.64c0 .375.297.657.64.657m0 0"/><path id="cb" d="M3.469 0h.484c.125 0 .203-.062.203-.203V-9h2.125q.188 0 .188-.187v-.407c0-.125-.063-.203-.188-.203H1.156c-.125 0-.187.078-.187.203v.406q0 .188.187.188h2.125v8.797c0 .14.063.203.188.203m0 0"/><path id="cg" d="M2.469 1.813h.39c.141 0 .22-.094.141-.25C2.172-.125 1.688-2.266 1.688-4.47c0-2.093.484-4.11 1.312-5.703.078-.156 0-.25-.14-.25h-.391a.28.28 0 0 0-.25.14C1.313-8.671.859-6.436.859-4.468c0 2.078.407 4.453 1.36 6.14.062.11.14.141.25.141m0 0"/><path id="ch" d="M2.39 0h.485c.125 0 .188-.062.188-.203v-9.39c0-.126-.063-.204-.188-.204H.735c-.126 0-.157.078-.157.203v.36c0 .125.031.203.156.203H2.22v8.828c0 .14.047.203.172.203m0 0"/><path id="ci" d="M4.281.188c2.235 0 3.563-1.907 3.563-5.047C7.844-8 6.516-9.906 4.28-9.906 2.063-9.906.72-8 .72-4.86S2.063.188 4.28.188m0-.813c-1.687 0-2.734-1.516-2.734-4.234 0-2.735 1.047-4.25 2.734-4.25s2.735 1.515 2.735 4.25c0 2.718-1.047 4.234-2.735 4.234m0 0"/><path id="cj" d="M.469 1.813h.469c.109 0 .187-.047.218-.157l4.5-11.843c.063-.141 0-.235-.14-.235h-.47c-.109 0-.187.063-.234.172L.313 1.578c-.062.156 0 .234.157.234m0 0"/><path id="ck" d="M5 0h.484c.125 0 .172-.062.172-.203v-2.203H6.72c.14 0 .156-.063.156-.188v-.375c0-.125-.016-.187-.156-.187H5.656v-6.422c0-.125-.062-.219-.187-.219h-.485c-.125 0-.171.047-.25.14L.704-3.265C.64-3.187.64-3.14.64-3.062v.453c0 .125.093.203.218.203h3.97v2.203c0 .14.03.203.171.203M1.516-3.156l3.312-5.266v5.266Zm0 0"/><path id="cl" d="M1.406 1.813c.125 0 .203-.032.266-.141.953-1.688 1.36-4.063 1.36-6.14 0-1.97-.454-4.204-1.36-5.813a.29.29 0 0 0-.266-.14h-.375c-.156 0-.218.093-.156.25.844 1.593 1.328 3.608 1.328 5.702 0 2.203-.484 4.344-1.328 6.032-.062.156 0 .25.156.25Zm0 0"/><path id="cp" d="M1.266 0h.5c.125 0 .172-.062.172-.203v-1.828l1.25-1.328L5.765-.125c.062.094.14.125.25.125h.515c.172 0 .203-.11.125-.219L3.703-3.922l2.578-2.734c.078-.078.078-.203-.078-.203h-.64a.26.26 0 0 0-.235.125l-3.39 3.672v-6.735c0-.125-.047-.203-.172-.203h-.5c-.125 0-.157.078-.157.203v9.594c0 .14.032.203.157.203m0 0"/><path id="ct" d="M1.438 0h.5c.125 0 .171-.062.171-.203v-3.563h1.954c2.078 0 3.187-1.25 3.187-3 0-1.765-1.11-3.03-3.187-3.03H1.438c-.125 0-.188.077-.188.202v9.39c0 .142.063.204.188.204m.671-4.547V-9h1.86c1.36 0 2.406.61 2.406 2.234s-1.047 2.22-2.406 2.22Zm0 0"/><path id="cw" d="M1.438 0h.5c.125 0 .171-.062.171-.203v-9.39c0-.126-.046-.204-.171-.204h-.5c-.125 0-.188.078-.188.203v9.39c0 .142.063.204.188.204m0 0"/></defs><use xlink:href="#a" x="36.413" y="564.794" fill="#46464a"/><g fill="#46464a"><use xlink:href="#b" x="41.117" y="564.794"/><use xlink:href="#c" x="47.08" y="564.794"/></g><g fill="#46464a"><use xlink:href="#d" x="50.356" y="564.794"/><use xlink:href="#e" x="52.263" y="564.794"/></g><g fill="#46464a"><use xlink:href="#f" x="55.489" y="564.794"/><use xlink:href="#c" x="60.993" y="564.794"/></g><g fill="#46464a"><use xlink:href="#g" x="64.469" y="564.794"/><use xlink:href="#h" x="67.705" y="564.794"/><use xlink:href="#i" x="73.208" y="564.794"/><use xlink:href="#c" x="78.911" y="564.794"/></g><g fill="#46464a"><use xlink:href="#d" x="82.187" y="564.794"/><use xlink:href="#j" x="84.095" y="564.794"/><use xlink:href="#k" x="86.162" y="564.794"/></g><use xlink:href="#e" x="91.466" y="564.794" fill="#46464a"/><g fill="#46464a"><use xlink:href="#b" x="94.492" y="564.794"/><use xlink:href="#c" x="100.455" y="564.794"/><use xlink:href="#l" x="103.831" y="564.794"/><use xlink:href="#m" x="111.881" y="564.794"/><use xlink:href="#g" x="118.053" y="564.794"/><use xlink:href="#j" x="121.289" y="564.794"/><use xlink:href="#b" x="123.357" y="564.794"/><use xlink:href="#k" x="129.32" y="564.794"/><use xlink:href="#d" x="134.823" y="564.794"/><use xlink:href="#n" x="136.731" y="564.794"/><use xlink:href="#o" x="142.903" y="564.794"/><use xlink:href="#i" x="144.971" y="564.794"/><use xlink:href="#m" x="150.674" y="564.794"/><use xlink:href="#p" x="156.846" y="564.794"/></g><g fill="#46464a"><use xlink:href="#i" x="161.11" y="564.794"/><use xlink:href="#d" x="166.813" y="564.794"/><use xlink:href="#q" x="168.721" y="564.794"/></g><g fill="#46464a"><use xlink:href="#b" x="173.924" y="564.794"/><use xlink:href="#k" x="179.887" y="564.794"/></g><use xlink:href="#g" x="185.191" y="564.794" fill="#46464a"/><g fill="#46464a"><use xlink:href="#m" x="188.377" y="564.794"/><use xlink:href="#q" x="194.549" y="564.794"/></g><g fill="#46464a"><use xlink:href="#g" x="199.903" y="564.794"/><use xlink:href="#d" x="203.139" y="564.794"/><use xlink:href="#l" x="205.047" y="564.794"/><use xlink:href="#m" x="213.097" y="564.794"/><use xlink:href="#c" x="219.269" y="564.794"/><use xlink:href="#r" x="222.645" y="564.794"/></g><use xlink:href="#i" x="227.319" y="564.794" fill="#46464a"/><g fill="#46464a"><use xlink:href="#g" x="232.923" y="564.794"/><use xlink:href="#j" x="236.159" y="564.794"/><use xlink:href="#k" x="238.226" y="564.794"/><use xlink:href="#s" x="243.73" y="564.794"/><use xlink:href="#t" x="249.852" y="564.794"/><use xlink:href="#i" x="258.292" y="564.794"/><use xlink:href="#m" x="263.995" y="564.794"/><use xlink:href="#p" x="270.167" y="564.794"/></g><use xlink:href="#u" x="274.282" y="564.794" fill="#46464a"/><g fill="#46464a"><use xlink:href="#m" x="279.226" y="564.794"/><use xlink:href="#f" x="285.399" y="564.794"/><use xlink:href="#g" x="290.902" y="564.794"/></g><g fill="#46464a"><use xlink:href="#b" x="294.088" y="564.794"/><use xlink:href="#v" x="300.051" y="564.794"/><use xlink:href="#w" x="302.798" y="564.794"/><use xlink:href="#x" x="307.632" y="564.794"/></g><g fill="#46464a"><use xlink:href="#y" x="312.446" y="564.794"/><use xlink:href="#q" x="314.194" y="564.794"/></g><g fill="#46464a"><use xlink:href="#b" x="319.398" y="564.794"/><use xlink:href="#l" x="325.36" y="564.794"/><use xlink:href="#y" x="333.41" y="564.794"/><use xlink:href="#m" x="335.158" y="564.794"/><use xlink:href="#f" x="341.331" y="564.794"/></g><path fill="none" stroke="#28477c" stroke-miterlimit="10" stroke-width="36.156198" d="M438.816 423.777h333.668M438.816 458.125h304.227M438.816 494.281h251.532"/><g fill="#46464a"><use xlink:href="#z" x="438.816" y="217.687"/><use xlink:href="#A" x="455.965" y="217.687"/></g><use xlink:href="#B" x="475.06" y="217.687" fill="#46464a"/><use xlink:href="#C" x="488.346" y="217.687" fill="#46464a"/><g fill="#46464a"><use xlink:href="#A" x="505.453" y="217.687"/><use xlink:href="#D" x="524.684" y="217.687"/></g><use xlink:href="#E" x="542.757" y="217.687" fill="#46464a"/><use xlink:href="#F" x="553.866" y="217.687" fill="#46464a"/><use xlink:href="#G" x="570.29" y="217.687" fill="#ed1d24"/><g fill="#ed1d24"><use xlink:href="#H" x="582.037" y="217.687"/><use xlink:href="#I" x="598.893" y="217.687"/></g><use xlink:href="#J" x="615.229" y="217.687" fill="#ed1d24"/><use xlink:href="#K" x="620.892" y="217.687" fill="#46464a"/><g fill="#46464a"><use xlink:href="#z" x="639.076" y="217.687"/><use xlink:href="#A" x="656.225" y="217.687"/></g><use xlink:href="#L" x="675.485" y="217.687" fill="#46464a"/><g fill="#46464a"><use xlink:href="#M" x="694.752" y="217.687"/><use xlink:href="#N" x="702.627" y="217.687"/><use xlink:href="#O" x="710.6" y="217.687"/></g><use xlink:href="#z" x="728.783" y="217.687" fill="#46464a"/><use xlink:href="#B" x="745.623" y="217.687" fill="#46464a"/><use xlink:href="#J" x="760.299" y="217.687" fill="#46464a"/><use xlink:href="#J" x="765.294" y="217.687" fill="#46464a"/><g fill="#46464a"><use xlink:href="#B" x="438.816" y="253.843"/><use xlink:href="#K" x="452.646" y="253.843"/><use xlink:href="#F" x="470.836" y="253.843"/><use xlink:href="#D" x="488.733" y="253.843"/></g><use xlink:href="#M" x="507.044" y="253.843" fill="#46464a"/><use xlink:href="#L" x="514.912" y="253.843" fill="#46464a"/><g fill="#46464a"><use xlink:href="#J" x="534.241" y="253.843"/><use xlink:href="#P" x="539.903" y="253.843"/></g><use xlink:href="#z" x="559.138" y="253.843" fill="#46464a"/><g fill="#46464a"><use xlink:href="#J" x="576.384" y="253.843"/><use xlink:href="#Q" x="582.046" y="253.843"/></g><use xlink:href="#R" x="606.663" y="253.843" fill="#46464a"/><use xlink:href="#z" x="618.378" y="253.843" fill="#46464a"/><use xlink:href="#C" x="634.612" y="253.843" fill="#46464a"/><use xlink:href="#S" x="651.689" y="253.843" fill="#46464a"/><use xlink:href="#M" x="667.371" y="253.843" fill="#46464a"/><use xlink:href="#N" x="675.245" y="253.843" fill="#46464a"/><use xlink:href="#T" x="682.905" y="253.843" fill="#46464a"/><use xlink:href="#T" x="694.942" y="253.843" fill="#46464a"/><use xlink:href="#J" x="707.665" y="253.843" fill="#46464a"/><use xlink:href="#U" x="438.816" y="289.999" fill="#46464a"/><g fill="#46464a"><use xlink:href="#V" x="454.524" y="289.999"/><use xlink:href="#E" x="471.119" y="289.999"/></g><use xlink:href="#R" x="482.707" y="289.999" fill="#46464a"/><use xlink:href="#A" x="494.438" y="289.999" fill="#46464a"/><g fill="#46464a"><use xlink:href="#J" x="513.767" y="289.999"/><use xlink:href="#W" x="519.429" y="289.999"/></g><g fill="#46464a"><use xlink:href="#F" x="538.283" y="289.999"/><use xlink:href="#M" x="556.245" y="289.999"/></g><use xlink:href="#L" x="564.113" y="289.999" fill="#46464a"/><use xlink:href="#X" x="583.755" y="289.999" fill="#46464a"/><use xlink:href="#Y" x="438.816" y="326.155" fill="#46464a"/><use xlink:href="#Z" x="464.549" y="326.155" fill="#46464a"/><use xlink:href="#aa" x="474.012" y="326.155" fill="#46464a"/><g fill="#46464a"><use xlink:href="#ab" x="491.19" y="326.155"/><use xlink:href="#ac" x="506.875" y="326.155"/></g><use xlink:href="#ad" x="523.513" y="326.155" fill="#46464a"/><use xlink:href="#ae" x="529.708" y="326.155" fill="#46464a"/><use xlink:href="#af" x="535.494" y="326.155" fill="#46464a"/><use xlink:href="#af" x="545.939" y="326.155" fill="#46464a"/><use xlink:href="#J" x="556.461" y="326.155" fill="#46464a"/><use xlink:href="#ag" x="562.122" y="326.155" fill="#46464a"/><use xlink:href="#ae" x="576.782" y="326.155" fill="#46464a"/><g fill="#46464a"><use xlink:href="#ah" x="582.889" y="326.155"/><use xlink:href="#ai" x="602.316" y="326.155"/></g><use xlink:href="#aj" x="618.938" y="326.155" fill="#46464a"/><g fill="#46464a"><use xlink:href="#ak" x="629.155" y="326.155"/><use xlink:href="#aj" x="635.045" y="326.155"/></g><use xlink:href="#aa" x="644.153" y="326.155" fill="#46464a"/><g fill="#46464a"><use xlink:href="#al" x="661.4" y="326.155"/><use xlink:href="#aj" x="676.303" y="326.155"/></g><g fill="#46464a"><use xlink:href="#ak" x="686.521" y="326.155"/><use xlink:href="#ac" x="692.411" y="326.155"/></g><use xlink:href="#am" x="708.831" y="326.155" fill="#46464a"/><use xlink:href="#an" x="728.446" y="326.155" fill="#46464a"/><use xlink:href="#ak" x="746.701" y="326.155" fill="#46464a"/><use xlink:href="#ao" x="438.816" y="362.311" fill="#46464a"/><use xlink:href="#aa" x="458.399" y="362.311" fill="#46464a"/><g fill="#46464a"><use xlink:href="#ak" x="476.654" y="362.311"/><use xlink:href="#ap" x="482.544" y="362.311"/></g><use xlink:href="#aq" x="499.608" y="362.311" fill="#46464a"/><g fill="#46464a"><use xlink:href="#aa" x="512.82" y="362.311"/><use xlink:href="#ar" x="530.847" y="362.311"/></g><g fill="#46464a"><use xlink:href="#ak" x="550.632" y="362.311"/><use xlink:href="#aj" x="556.522" y="362.311"/></g><use xlink:href="#as" x="565.626" y="362.311" fill="#46464a"/><g fill="#46464a"><use xlink:href="#ak" x="584.728" y="362.311"/><use xlink:href="#ac" x="590.618" y="362.311"/></g><use xlink:href="#as" x="606.989" y="362.311" fill="#46464a"/><use xlink:href="#at" x="625.895" y="362.311" fill="#46464a"/><use xlink:href="#au" x="651.618" y="362.311" fill="#46464a"/><g fill="#46464a"><use xlink:href="#ad" x="671.236" y="362.311"/><use xlink:href="#ae" x="677.419" y="362.311"/><use xlink:href="#at" x="683.602" y="362.311"/><use xlink:href="#aa" x="709.276" y="362.311"/></g><use xlink:href="#an" x="727.222" y="362.311" fill="#46464a"/><use xlink:href="#aj" x="743.844" y="362.311" fill="#46464a"/><use xlink:href="#ak" x="754.712" y="362.311" fill="#46464a"/><use xlink:href="#am" x="438.816" y="398.467" fill="#46464a"/><use xlink:href="#an" x="458.432" y="398.467" fill="#46464a"/><use xlink:href="#ar" x="475.802" y="398.467" fill="#46464a"/><g fill="#46464a"><use xlink:href="#ak" x="495.583" y="398.467"/><use xlink:href="#ac" x="501.473" y="398.467"/></g><use xlink:href="#as" x="517.844" y="398.467" fill="#46464a"/><use xlink:href="#an" x="536.75" y="398.467" fill="#46464a"/><g fill="#46464a"><use xlink:href="#aj" x="553.372" y="398.467"/><use xlink:href="#Z" x="563.004" y="398.467"/></g><use xlink:href="#am" x="572.466" y="398.467" fill="#46464a"/><g fill="#46464a"><use xlink:href="#aq" x="591.711" y="398.467"/><use xlink:href="#aj" x="604.857" y="398.467"/></g><use xlink:href="#av" x="615.228" y="398.467" fill="#46464a"/><use xlink:href="#ak" x="621.248" y="398.467" fill="#46464a"/><use xlink:href="#aw" x="626.483" y="398.467" fill="#fff"/><g fill="#fff"><use xlink:href="#ax" x="438.816" y="432.815"/><use xlink:href="#ay" x="444.318" y="432.815"/></g><use xlink:href="#az" x="451.334" y="432.815" fill="#fff"/><g fill="#fff"><use xlink:href="#ax" x="461.752" y="432.815"/><use xlink:href="#aA" x="467.253" y="432.815"/><use xlink:href="#aB" x="473.615" y="432.815"/><use xlink:href="#aC" x="490.364" y="432.815"/></g><g fill="#fff"><use xlink:href="#aD" x="508.561" y="432.815"/><use xlink:href="#aE" x="514.923" y="432.815"/></g><g fill="#fff"><use xlink:href="#aD" x="533.246" y="432.815"/><use xlink:href="#aA" x="539.607" y="432.815"/><use xlink:href="#aD" x="545.969" y="432.815"/></g><use xlink:href="#aF" x="551.977" y="432.815" fill="#fff"/><use xlink:href="#aG" x="561.95" y="432.815" fill="#fff"/><g fill="#fff"><use xlink:href="#ax" x="578.33" y="432.815"/><use xlink:href="#aD" x="583.831" y="432.815"/></g><use xlink:href="#aH" x="589.975" y="432.815" fill="#fff"/><g fill="#fff"><use xlink:href="#ax" x="603.036" y="432.815"/><use xlink:href="#aI" x="608.537" y="432.815"/></g><g fill="#fff"><use xlink:href="#aB" x="618.27" y="432.815"/><use xlink:href="#aJ" x="635.02" y="432.815"/><use xlink:href="#aK" x="653.398" y="432.815"/></g><g fill="#fff"><use xlink:href="#aD" x="670.122" y="432.815"/><use xlink:href="#aI" x="676.484" y="432.815"/></g><g fill="#fff"><use xlink:href="#aB" x="686.217" y="432.815"/><use xlink:href="#aL" x="702.966" y="432.815"/></g><g fill="#fff"><use xlink:href="#ax" x="721.529" y="432.815"/><use xlink:href="#aM" x="727.03" y="432.815"/></g><use xlink:href="#aN" x="744.609" y="432.815" fill="#fff"/><use xlink:href="#ax" x="762.096" y="432.815" fill="#fff"/><use xlink:href="#ax" x="766.982" y="432.815" fill="#fff"/><use xlink:href="#ax" x="772.484" y="432.815" fill="#fff"/><g fill="#fff"><use xlink:href="#ax" x="438.816" y="467.164"/><use xlink:href="#aI" x="444.318" y="467.164"/></g><use xlink:href="#aB" x="454.051" y="467.164" fill="#fff"/><use xlink:href="#aO" x="469.985" y="467.164" fill="#fff"/><use xlink:href="#aB" x="485.241" y="467.164" fill="#fff"/><g fill="#fff"><use xlink:href="#aI" x="501.969" y="467.164"/><use xlink:href="#aH" x="512.049" y="467.164"/><use xlink:href="#aB" x="524.65" y="467.164"/></g><use xlink:href="#aL" x="541.393" y="467.164" fill="#fff"/><g fill="#fff"><use xlink:href="#ax" x="559.955" y="467.164"/><use xlink:href="#aF" x="565.456" y="467.164"/></g><use xlink:href="#aB" x="574.562" y="467.164" fill="#fff"/><use xlink:href="#aP" x="590.543" y="467.164" fill="#fff"/><use xlink:href="#aF" x="605.151" y="467.164" fill="#fff"/><g fill="#fff"><use xlink:href="#ax" x="615.169" y="467.164"/><use xlink:href="#aF" x="620.671" y="467.164"/></g><use xlink:href="#aQ" x="630.305" y="467.164" fill="#fff"/><use xlink:href="#aB" x="646.913" y="467.164" fill="#fff"/><use xlink:href="#aN" x="663.644" y="467.164" fill="#fff"/><g fill="#fff"><use xlink:href="#ax" x="680.513" y="467.164"/><use xlink:href="#aK" x="686.014" y="467.164"/></g><g fill="#fff"><use xlink:href="#aH" x="702.521" y="467.164"/><use xlink:href="#aB" x="715.121" y="467.164"/></g><use xlink:href="#ax" x="732.669" y="467.164" fill="#fff"/><use xlink:href="#ax" x="737.556" y="467.164" fill="#fff"/><use xlink:href="#ax" x="743.042" y="467.164" fill="#fff"/><g fill="#fff"><use xlink:href="#ax" x="438.816" y="503.32"/><use xlink:href="#aR" x="444.318" y="503.32"/></g><use xlink:href="#aI" x="468.289" y="503.32" fill="#fff"/><use xlink:href="#aB" x="478.022" y="503.32" fill="#fff"/><use xlink:href="#aG" x="493.957" y="503.32" fill="#fff"/><use xlink:href="#aS" x="509.228" y="503.32" fill="#fff"/><g fill="#fff"><use xlink:href="#aA" x="524.745" y="503.32"/><use xlink:href="#aD" x="531.107" y="503.32"/></g><use xlink:href="#az" x="537.112" y="503.32" fill="#fff"/><use xlink:href="#az" x="547.481" y="503.32" fill="#fff"/><g fill="#fff"><use xlink:href="#ax" x="557.899" y="503.32"/><use xlink:href="#aT" x="563.4" y="503.32"/></g><g fill="#fff"><use xlink:href="#aB" x="589.889" y="503.32"/><use xlink:href="#aL" x="606.638" y="503.32"/></g><use xlink:href="#aD" x="625.053" y="503.32" fill="#fff"/><use xlink:href="#aK" x="631.323" y="503.32" fill="#fff"/><use xlink:href="#aU" x="648.05" y="503.32" fill="#fff"/><use xlink:href="#aV" x="673.248" y="503.32" fill="#fff"/><use xlink:href="#ax" x="679.64" y="503.32" fill="#fff"/><use xlink:href="#aw" x="684.525" y="503.32" fill="#fff"/><use xlink:href="#aW" x="32.307" y="173.383" fill="#46464a"/><use xlink:href="#aX" x="57.09" y="173.383" fill="#46464a"/><use xlink:href="#aY" x="86.576" y="173.383" fill="#46464a"/><g fill="#46464a"><use xlink:href="#aZ" x="115.604" y="173.383"/><use xlink:href="#ba" x="134.643" y="173.383"/><use xlink:href="#bb" x="147.371" y="173.383"/></g><use xlink:href="#bc" x="156.774" y="173.383" fill="#46464a"/><use xlink:href="#bd" x="179.745" y="173.383" fill="#46464a"/><g fill="#46464a"><use xlink:href="#be" x="195.493" y="173.383"/><use xlink:href="#bf" x="218.865" y="173.383"/><use xlink:href="#bg" x="242.042" y="173.383"/></g><g fill="#231f20"><use xlink:href="#bh" x="36.413" y="212.91"/><use xlink:href="#bi" x="43.852" y="212.91"/></g><use xlink:href="#bj" x="52.128" y="212.91" fill="#231f20"/><use xlink:href="#bk" x="57.914" y="212.91" fill="#231f20"/><g fill="#231f20"><use xlink:href="#bi" x="65.35" y="212.91"/><use xlink:href="#bl" x="73.684" y="212.91"/></g><use xlink:href="#bm" x="81.523" y="212.91" fill="#231f20"/><use xlink:href="#bn" x="86.371" y="212.91" fill="#231f20"/><use xlink:href="#bo" x="93.525" y="212.91" fill="#ed1d24"/><g fill="#ed1d24"><use xlink:href="#bp" x="98.651" y="212.91"/><use xlink:href="#bq" x="105.978" y="212.91"/></g><g fill="#231f20"><use xlink:href="#br" x="112.995" y="212.91"/><use xlink:href="#bs" x="115.526" y="212.91"/><use xlink:href="#bt" x="124.027" y="212.91"/></g><use xlink:href="#bu" x="132.224" y="212.91" fill="#231f20"/><g fill="#231f20"><use xlink:href="#bv" x="140.582" y="212.91"/><use xlink:href="#br" x="147.853" y="212.91"/><use xlink:href="#bw" x="150.384" y="212.91"/></g><use xlink:href="#bx" x="154.398" y="212.91" fill="#231f20"/><use xlink:href="#by" x="161.909" y="212.91" fill="#231f20"/><use xlink:href="#bw" x="168.406" y="212.91" fill="#231f20"/><use xlink:href="#br" x="173.077" y="212.91" fill="#231f20"/><use xlink:href="#bz" x="36.413" y="230.888" fill="#231f20"/><g fill="#231f20"><use xlink:href="#bA" x="42.202" y="230.888"/><use xlink:href="#bt" x="49.724" y="230.888"/><use xlink:href="#bB" x="57.891" y="230.888"/></g><use xlink:href="#bC" x="65.469" y="230.888" fill="#231f20"/><use xlink:href="#bu" x="68.214" y="230.888" fill="#231f20"/><use xlink:href="#br" x="76.716" y="230.888" fill="#231f20"/><g fill="#231f20"><use xlink:href="#bs" x="79.251" y="230.888"/><use xlink:href="#bx" x="87.753" y="230.888"/><use xlink:href="#br" x="95.598" y="230.888"/><use xlink:href="#bz" x="98.129" y="230.888"/></g><use xlink:href="#bx" x="103.899" y="230.888" fill="#231f20"/><g fill="#231f20"><use xlink:href="#bw" x="111.375" y="230.888"/><use xlink:href="#br" x="115.765" y="230.888"/><use xlink:href="#bD" x="118.296" y="230.888"/><use xlink:href="#bE" x="121.051" y="230.888"/><use xlink:href="#br" x="128.616" y="230.888"/><use xlink:href="#bF" x="131.147" y="230.888"/></g><use xlink:href="#bG" x="142.297" y="230.888" fill="#231f20"/><use xlink:href="#bx" x="146.464" y="230.888" fill="#231f20"/><use xlink:href="#bv" x="153.946" y="230.888" fill="#231f20"/><use xlink:href="#bH" x="160.792" y="230.888" fill="#231f20"/><g fill="#231f20"><use xlink:href="#bC" x="168.036" y="230.888"/><use xlink:href="#bD" x="170.791" y="230.888"/></g><use xlink:href="#bI" x="173.374" y="230.888" fill="#231f20"/><use xlink:href="#bI" x="177.949" y="230.888" fill="#231f20"/><use xlink:href="#br" x="182.745" y="230.888" fill="#231f20"/><use xlink:href="#bJ" x="36.413" y="248.866" fill="#231f20"/><use xlink:href="#bD" x="42.811" y="248.866" fill="#231f20"/><use xlink:href="#bK" x="45.527" y="248.866" fill="#231f20"/><use xlink:href="#bA" x="53.967" y="248.866" fill="#231f20"/><g fill="#231f20"><use xlink:href="#bw" x="61.207" y="248.866"/><use xlink:href="#br" x="65.598" y="248.866"/><use xlink:href="#bL" x="68.129" y="248.866"/></g><use xlink:href="#bD" x="79.849" y="248.866" fill="#231f20"/><use xlink:href="#bw" x="82.432" y="248.866" fill="#231f20"/><g fill="#231f20"><use xlink:href="#bA" x="86.663" y="248.866"/><use xlink:href="#br" x="94.228" y="248.866"/><use xlink:href="#bM" x="96.759" y="248.866"/></g><use xlink:href="#bH" x="105.272" y="248.866" fill="#231f20"/><use xlink:href="#bH" x="112.405" y="248.866" fill="#231f20"/><use xlink:href="#bx" x="119.551" y="248.866" fill="#231f20"/><use xlink:href="#bE" x="127.352" y="248.866" fill="#231f20"/><use xlink:href="#bw" x="134.593" y="248.866" fill="#231f20"/><use xlink:href="#bx" x="138.606" y="248.866" fill="#231f20"/><g fill="#231f20"><use xlink:href="#bu" x="146.441" y="248.866"/><use xlink:href="#br" x="154.942" y="248.866"/><use xlink:href="#bw" x="157.473" y="248.866"/></g><use xlink:href="#bx" x="161.488" y="248.866" fill="#231f20"/><use xlink:href="#by" x="168.997" y="248.866" fill="#231f20"/><use xlink:href="#bw" x="175.495" y="248.866" fill="#231f20"/><use xlink:href="#br" x="180.165" y="248.866" fill="#231f20"/><g fill="#231f20"><use xlink:href="#bs" x="36.413" y="266.844"/><use xlink:href="#bx" x="44.914" y="266.844"/></g><g fill="#231f20"><use xlink:href="#bD" x="52.704" y="266.844"/><use xlink:href="#bE" x="55.459" y="266.844"/></g><g fill="#231f20"><use xlink:href="#bK" x="62.987" y="266.844"/><use xlink:href="#br" x="71.419" y="266.844"/><use xlink:href="#bz" x="73.95" y="266.844"/></g><use xlink:href="#bx" x="79.721" y="266.844" fill="#231f20"/><g fill="#231f20"><use xlink:href="#bw" x="87.195" y="266.844"/><use xlink:href="#br" x="91.585" y="266.844"/><use xlink:href="#bD" x="94.116" y="266.844"/><use xlink:href="#bE" x="96.871" y="266.844"/><use xlink:href="#br" x="104.436" y="266.844"/></g><use xlink:href="#bN" x="106.958" y="266.844" fill="#46464a"/><use xlink:href="#bO" x="117.606" y="266.844" fill="#46464a"/><use xlink:href="#bh" x="122.716" y="266.844" fill="#46464a"/><g fill="#46464a"><use xlink:href="#bk" x="129.774" y="266.844"/><use xlink:href="#bP" x="137.199" y="266.844"/></g><use xlink:href="#bQ" x="144.01" y="266.844" fill="#46464a"/><use xlink:href="#bR" x="147.464" y="266.844" fill="#46464a"/><use xlink:href="#bS" x="150.83" y="266.844" fill="#46464a"/><use xlink:href="#bS" x="156.072" y="266.844" fill="#46464a"/><g fill="#46464a"><use xlink:href="#bT" x="161.26" y="266.844"/><use xlink:href="#bU" x="163.693" y="266.844"/></g><use xlink:href="#bV" x="170.521" y="266.844" fill="#46464a"/><use xlink:href="#bm" x="177.726" y="266.844" fill="#46464a"/><use xlink:href="#bO" x="182.772" y="266.844" fill="#46464a"/><use xlink:href="#bi" x="187.889" y="266.844" fill="#46464a"/><use xlink:href="#bT" x="196.474" y="266.844" fill="#46464a"/><use xlink:href="#bW" x="36.413" y="284.822" fill="#46464a"/><g fill="#46464a"><use xlink:href="#bn" x="44.587" y="284.822"/><use xlink:href="#bQ" x="52.376" y="284.822"/></g><use xlink:href="#bX" x="55.828" y="284.822" fill="#46464a"/><use xlink:href="#d" x="64.136" y="284.822" fill="#231f20"/><use xlink:href="#bw" x="65.944" y="284.822" fill="#231f20"/><g fill="#231f20"><use xlink:href="#bt" x="69.959" y="284.822"/><use xlink:href="#br" x="78.167" y="284.822"/><use xlink:href="#bA" x="80.698" y="284.822"/></g><use xlink:href="#bD" x="88.247" y="284.822" fill="#231f20"/><use xlink:href="#bK" x="90.963" y="284.822" fill="#231f20"/><g fill="#231f20"><use xlink:href="#bA" x="99.403" y="284.822"/><use xlink:href="#bC" x="106.967" y="284.822"/><use xlink:href="#bD" x="109.722" y="284.822"/></g><use xlink:href="#bK" x="112.438" y="284.822" fill="#231f20"/><use xlink:href="#bA" x="120.878" y="284.822" fill="#231f20"/><g fill="#231f20"><use xlink:href="#bw" x="128.118" y="284.822"/><use xlink:href="#br" x="132.509" y="284.822"/><use xlink:href="#bD" x="135.04" y="284.822"/><use xlink:href="#bY" x="137.794" y="284.822"/></g><g fill="#231f20"><use xlink:href="#bZ" x="148.936" y="284.822"/><use xlink:href="#bt" x="157.438" y="284.822"/><use xlink:href="#bG" x="165.646" y="284.822"/></g><use xlink:href="#bw" x="170.326" y="284.822" fill="#231f20"/><use xlink:href="#bM" x="174.34" y="284.822" fill="#231f20"/><use xlink:href="#bE" x="182.857" y="284.822" fill="#231f20"/><use xlink:href="#bw" x="190.098" y="284.822" fill="#231f20"/><use xlink:href="#br" x="194.768" y="284.822" fill="#231f20"/><g fill="#231f20"><use xlink:href="#bZ" x="36.413" y="302.8"/><use xlink:href="#bM" x="44.914" y="302.8"/></g><use xlink:href="#bG" x="53.431" y="302.8" fill="#231f20"/><use xlink:href="#bw" x="58.111" y="302.8" fill="#231f20"/><g fill="#231f20"><use xlink:href="#bz" x="62.421" y="302.8"/><use xlink:href="#br" x="68.322" y="302.8"/><use xlink:href="#bt" x="70.853" y="302.8"/></g><g fill="#231f20"><use xlink:href="#bI" x="78.736" y="302.8"/><use xlink:href="#br" x="83.253" y="302.8"/><use xlink:href="#bw" x="85.784" y="302.8"/></g><use xlink:href="#bA" x="90.015" y="302.8" fill="#231f20"/><g fill="#231f20"><use xlink:href="#bx" x="97.544" y="302.8"/><use xlink:href="#br" x="105.388" y="302.8"/><use xlink:href="#bw" x="107.919" y="302.8"/></g><use xlink:href="#bx" x="111.935" y="302.8" fill="#231f20"/><use xlink:href="#by" x="119.444" y="302.8" fill="#231f20"/><use xlink:href="#bw" x="125.943" y="302.8" fill="#231f20"/><use xlink:href="#ca" x="130.489" y="302.8" fill="#231f20"/><use xlink:href="#cb" x="36.413" y="338.757" fill="#231f20"/><use xlink:href="#bx" x="42.613" y="338.757" fill="#231f20"/><use xlink:href="#by" x="50.123" y="338.757" fill="#231f20"/><g fill="#231f20"><use xlink:href="#bw" x="56.621" y="338.757"/><use xlink:href="#br" x="61.012" y="338.757"/><use xlink:href="#bz" x="63.542" y="338.757"/></g><use xlink:href="#bA" x="69.331" y="338.757" fill="#231f20"/><use xlink:href="#bt" x="76.86" y="338.757" fill="#231f20"/><use xlink:href="#bB" x="85.025" y="338.757" fill="#231f20"/><use xlink:href="#bC" x="92.605" y="338.757" fill="#231f20"/><g fill="#231f20"><use xlink:href="#bu" x="95.35" y="338.757"/><use xlink:href="#br" x="103.851" y="338.757"/><use xlink:href="#bs" x="106.382" y="338.757"/><use xlink:href="#bx" x="114.884" y="338.757"/><use xlink:href="#br" x="122.728" y="338.757"/><use xlink:href="#bz" x="125.259" y="338.757"/></g><use xlink:href="#bx" x="131.03" y="338.757" fill="#231f20"/><g fill="#231f20"><use xlink:href="#bw" x="138.505" y="338.757"/><use xlink:href="#br" x="142.896" y="338.757"/><use xlink:href="#bL" x="145.427" y="338.757"/></g><use xlink:href="#bD" x="157.147" y="338.757" fill="#231f20"/><use xlink:href="#bw" x="159.73" y="338.757" fill="#231f20"/><g fill="#231f20"><use xlink:href="#bA" x="163.961" y="338.757"/><use xlink:href="#br" x="171.526" y="338.757"/><use xlink:href="#bM" x="174.057" y="338.757"/></g><use xlink:href="#br" x="182.838" y="338.757" fill="#231f20"/><use xlink:href="#cc" x="36.413" y="356.735" fill="#46464a"/><use xlink:href="#cd" x="44.674" y="356.735" fill="#46464a"/><use xlink:href="#bm" x="52.839" y="356.735" fill="#46464a"/><g fill="#46464a"><use xlink:href="#bT" x="57.775" y="356.735"/><use xlink:href="#bQ" x="60.208" y="356.735"/><use xlink:href="#bh" x="63.661" y="356.735"/><use xlink:href="#bi" x="71.1" y="356.735"/></g><use xlink:href="#bX" x="79.447" y="356.735" fill="#46464a"/><g fill="#46464a"><use xlink:href="#bR" x="87.795" y="356.735"/><use xlink:href="#ce" x="91.29" y="356.735"/></g><use xlink:href="#cf" x="99.201" y="356.735" fill="#46464a"/><g fill="#231f20"><use xlink:href="#br" x="107.385" y="356.735"/><use xlink:href="#cg" x="109.916" y="356.735"/></g><use xlink:href="#bD" x="113.308" y="356.735" fill="#231f20"/><g fill="#231f20"><use xlink:href="#bx" x="116.024" y="356.735"/><use xlink:href="#br" x="123.868" y="356.735"/><use xlink:href="#ch" x="126.399" y="356.735"/></g><use xlink:href="#ci" x="130.622" y="356.735" fill="#231f20"/><use xlink:href="#cj" x="138.533" y="356.735" fill="#231f20"/><use xlink:href="#ch" x="144.662" y="356.735" fill="#231f20"/><use xlink:href="#ck" x="148.51" y="356.735" fill="#231f20"/><use xlink:href="#bZ" x="155.83" y="356.735" fill="#231f20"/><use xlink:href="#bw" x="164.022" y="356.735" fill="#231f20"/><g fill="#231f20"><use xlink:href="#cl" x="168.155" y="356.735"/><use xlink:href="#br" x="171.763" y="356.735"/><use xlink:href="#bL" x="174.294" y="356.735"/></g><use xlink:href="#bD" x="186.014" y="356.735" fill="#231f20"/><use xlink:href="#bw" x="188.597" y="356.735" fill="#231f20"/><use xlink:href="#bA" x="192.828" y="356.735" fill="#231f20"/><use xlink:href="#br" x="200.673" y="356.735" fill="#231f20"/><use xlink:href="#bz" x="36.413" y="374.713" fill="#231f20"/><g fill="#231f20"><use xlink:href="#bZ" x="42.202" y="374.713"/><use xlink:href="#bM" x="50.703" y="374.713"/></g><use xlink:href="#bH" x="59.216" y="374.713" fill="#231f20"/><g fill="#231f20"><use xlink:href="#bD" x="66.462" y="374.713"/><use xlink:href="#bE" x="69.217" y="374.713"/></g><g fill="#231f20"><use xlink:href="#bK" x="76.745" y="374.713"/><use xlink:href="#br" x="85.177" y="374.713"/><use xlink:href="#bz" x="87.708" y="374.713"/></g><use xlink:href="#bx" x="93.477" y="374.713" fill="#231f20"/><g fill="#231f20"><use xlink:href="#bw" x="100.953" y="374.713"/><use xlink:href="#br" x="105.343" y="374.713"/><use xlink:href="#bw" x="107.874" y="374.713"/></g><g fill="#231f20"><use xlink:href="#bt" x="111.89" y="374.713"/><use xlink:href="#br" x="120.098" y="374.713"/></g><g fill="#46464a"><use xlink:href="#cm" x="122.624" y="374.713"/><use xlink:href="#cn" x="125.841" y="374.713"/></g><use xlink:href="#cd" x="137.031" y="374.713" fill="#46464a"/><use xlink:href="#bm" x="145.196" y="374.713" fill="#46464a"/><use xlink:href="#bR" x="150.193" y="374.713" fill="#46464a"/><use xlink:href="#bP" x="153.642" y="374.713" fill="#46464a"/><g fill="#46464a"><use xlink:href="#bi" x="160.346" y="374.713"/><use xlink:href="#bQ" x="168.694" y="374.713"/></g><use xlink:href="#co" x="172.307" y="374.713" fill="#46464a"/><g fill="#231f20"><use xlink:href="#br" x="175.482" y="374.713"/><use xlink:href="#bM" x="178.013" y="374.713"/></g><g fill="#231f20"><use xlink:href="#bE" x="186.53" y="374.713"/><use xlink:href="#bu" x="194.081" y="374.713"/></g><use xlink:href="#br" x="202.861" y="374.713" fill="#231f20"/><use xlink:href="#bw" x="36.413" y="392.691" fill="#231f20"/><use xlink:href="#bG" x="40.644" y="392.691" fill="#231f20"/><use xlink:href="#bM" x="44.812" y="392.691" fill="#231f20"/><use xlink:href="#bH" x="53.325" y="392.691" fill="#231f20"/><use xlink:href="#cp" x="60.57" y="392.691" fill="#231f20"/><use xlink:href="#bx" x="67.093" y="392.691" fill="#231f20"/><g fill="#231f20"><use xlink:href="#bu" x="74.926" y="392.691"/><use xlink:href="#br" x="83.428" y="392.691"/><use xlink:href="#bw" x="85.959" y="392.691"/></g><g fill="#231f20"><use xlink:href="#bt" x="89.973" y="392.691"/><use xlink:href="#br" x="98.181" y="392.691"/></g><use xlink:href="#cq" x="100.711" y="392.691" fill="#46464a"/><use xlink:href="#bp" x="106.004" y="392.691" fill="#46464a"/><use xlink:href="#cr" x="113.367" y="392.691" fill="#46464a"/><use xlink:href="#bh" x="122.432" y="392.691" fill="#46464a"/><use xlink:href="#cs" x="129.86" y="392.691" fill="#46464a"/><use xlink:href="#bj" x="141.551" y="392.691" fill="#46464a"/><g fill="#231f20"><use xlink:href="#ca" x="147.364" y="392.691"/><use xlink:href="#br" x="149.951" y="392.691"/></g><use xlink:href="#ct" x="230.869" y="212.91" fill="#231f20"/><g fill="#231f20"><use xlink:href="#bM" x="238.379" y="212.91"/><use xlink:href="#bG" x="246.895" y="212.91"/></g><g fill="#231f20"><use xlink:href="#bM" x="251.063" y="212.91"/><use xlink:href="#bK" x="259.579" y="212.91"/><use xlink:href="#bG" x="268.025" y="212.91"/></g><g fill="#231f20"><use xlink:href="#bM" x="272.193" y="212.91"/><use xlink:href="#bZ" x="280.709" y="212.91"/><use xlink:href="#bA" x="289.224" y="212.91"/></g><use xlink:href="#bz" x="296.62" y="212.91" fill="#231f20"/><g fill="#231f20"><use xlink:href="#br" x="302.521" y="212.91"/><use xlink:href="#bz" x="305.052" y="212.91"/></g><use xlink:href="#bA" x="310.839" y="212.91" fill="#231f20"/><use xlink:href="#bt" x="318.368" y="212.91" fill="#231f20"/><g fill="#231f20"><use xlink:href="#bB" x="326.532" y="212.91"/><use xlink:href="#bC" x="334.111" y="212.91"/></g><use xlink:href="#bu" x="336.856" y="212.91" fill="#231f20"/><g fill="#231f20"><use xlink:href="#br" x="345.358" y="212.91"/><use xlink:href="#bs" x="347.889" y="212.91"/></g><use xlink:href="#bx" x="356.393" y="212.91" fill="#231f20"/><g fill="#231f20"><use xlink:href="#br" x="364.237" y="212.91"/><use xlink:href="#bz" x="366.768" y="212.91"/></g><use xlink:href="#bA" x="372.556" y="212.91" fill="#231f20"/><use xlink:href="#bt" x="380.084" y="212.91" fill="#231f20"/><use xlink:href="#bG" x="388.297" y="212.91" fill="#231f20"/><use xlink:href="#bw" x="392.977" y="212.91" fill="#231f20"/><use xlink:href="#br" x="397.647" y="212.91" fill="#231f20"/><g fill="#231f20"><use xlink:href="#bM" x="230.869" y="230.888"/><use xlink:href="#bE" x="239.385" y="230.888"/></g><use xlink:href="#bu" x="246.937" y="230.888" fill="#231f20"/><g fill="#231f20"><use xlink:href="#br" x="255.439" y="230.888"/><use xlink:href="#bZ" x="257.97" y="230.888"/><use xlink:href="#bG" x="266.485" y="230.888"/></g><use xlink:href="#bx" x="270.653" y="230.888" fill="#231f20"/><use xlink:href="#bI" x="278.174" y="230.888" fill="#231f20"/><use xlink:href="#bx" x="282.237" y="230.888" fill="#231f20"/><use xlink:href="#bG" x="290.038" y="230.888" fill="#231f20"/><g fill="#231f20"><use xlink:href="#bM" x="294.206" y="230.888"/><use xlink:href="#bs" x="302.722" y="230.888"/><use xlink:href="#bC" x="311.238" y="230.888"/></g><use xlink:href="#bv" x="313.826" y="230.888" fill="#231f20"/><use xlink:href="#br" x="321.096" y="230.888" fill="#231f20"/><use xlink:href="#bj" x="323.637" y="230.888" fill="#46464a"/><use xlink:href="#cd" x="329.646" y="230.888" fill="#46464a"/><use xlink:href="#bi" x="338.015" y="230.888" fill="#46464a"/><use xlink:href="#bP" x="346.361" y="230.888" fill="#46464a"/><use xlink:href="#bh" x="353.026" y="230.888" fill="#46464a"/><g fill="#46464a"><use xlink:href="#bX" x="360.462" y="230.888"/><use xlink:href="#bT" x="368.768" y="230.888"/><use xlink:href="#cu" x="371.201" y="230.888"/></g><g fill="#46464a"><use xlink:href="#bk" x="379.119" y="230.888"/><use xlink:href="#bT" x="386.95" y="230.888"/><use xlink:href="#bi" x="389.383" y="230.888"/></g><use xlink:href="#bT" x="397.968" y="230.888" fill="#46464a"/><g fill="#46464a"><use xlink:href="#bQ" x="230.869" y="248.866"/><use xlink:href="#bR" x="234.323" y="248.866"/><use xlink:href="#ce" x="237.819" y="248.866"/></g><use xlink:href="#bh" x="245.704" y="248.866" fill="#46464a"/><g fill="#46464a"><use xlink:href="#bT" x="253.115" y="248.866"/><use xlink:href="#cu" x="255.548" y="248.866"/></g><use xlink:href="#bO" x="263.901" y="248.866" fill="#46464a"/><g fill="#46464a"><use xlink:href="#bh" x="269.01" y="248.866"/><use xlink:href="#bi" x="276.449" y="248.866"/></g><use xlink:href="#cv" x="284.8" y="248.866" fill="#46464a"/><g fill="#231f20"><use xlink:href="#ca" x="292.53" y="248.866"/><use xlink:href="#br" x="294.837" y="248.866"/><use xlink:href="#cw" x="297.368" y="248.866"/></g><g fill="#231f20"><use xlink:href="#bI" x="300.383" y="248.866"/><use xlink:href="#br" x="304.9" y="248.866"/><use xlink:href="#bz" x="307.43" y="248.866"/></g><g fill="#231f20"><use xlink:href="#bZ" x="313.219" y="248.866"/><use xlink:href="#bM" x="321.721" y="248.866"/></g><use xlink:href="#bH" x="330.234" y="248.866" fill="#231f20"/><g fill="#231f20"><use xlink:href="#bx" x="337.381" y="248.866"/><use xlink:href="#br" x="345.225" y="248.866"/><use xlink:href="#bD" x="347.756" y="248.866"/></g><g fill="#231f20"><use xlink:href="#bz" x="350.357" y="248.866"/><use xlink:href="#br" x="356.258" y="248.866"/><use xlink:href="#bC" x="358.789" y="248.866"/><use xlink:href="#bD" x="361.543" y="248.866"/><use xlink:href="#bY" x="364.298" y="248.866"/></g><use xlink:href="#bD" x="375.42" y="248.866" fill="#231f20"/><use xlink:href="#bw" x="378.003" y="248.866" fill="#231f20"/><use xlink:href="#bx" x="382.017" y="248.866" fill="#231f20"/><use xlink:href="#bu" x="389.85" y="248.866" fill="#231f20"/><use xlink:href="#br" x="398.632" y="248.866" fill="#231f20"/><use xlink:href="#bw" x="230.869" y="266.844" fill="#231f20"/><g fill="#231f20"><use xlink:href="#bA" x="235.1" y="266.844"/><use xlink:href="#bx" x="242.623" y="266.844"/><use xlink:href="#bE" x="250.426" y="266.844"/></g><g fill="#231f20"><use xlink:href="#br" x="257.99" y="266.844"/><use xlink:href="#bM" x="260.521" y="266.844"/></g><use xlink:href="#br" x="269.023" y="266.844" fill="#231f20"/><use xlink:href="#bq" x="271.557" y="266.844" fill="#46464a"/><use xlink:href="#cs" x="278.801" y="266.844" fill="#46464a"/><use xlink:href="#cs" x="290.58" y="266.844" fill="#46464a"/><g fill="#46464a"><use xlink:href="#bT" x="302.312" y="266.844"/><use xlink:href="#bS" x="304.745" y="266.844"/></g><g fill="#46464a"><use xlink:href="#bR" x="309.818" y="266.844"/><use xlink:href="#bO" x="313.313" y="266.844"/></g><use xlink:href="#bj" x="318.423" y="266.844" fill="#46464a"/><use xlink:href="#bm" x="324.308" y="266.844" fill="#46464a"/><use xlink:href="#cq" x="328.963" y="266.844" fill="#46464a"/><g fill="#46464a"><use xlink:href="#bQ" x="334.79" y="266.844"/><use xlink:href="#bR" x="338.244" y="266.844"/><use xlink:href="#ce" x="341.739" y="266.844"/></g><use xlink:href="#bh" x="349.626" y="266.844" fill="#46464a"/><g fill="#46464a"><use xlink:href="#bT" x="357.035" y="266.844"/><use xlink:href="#bR" x="359.468" y="266.844"/><use xlink:href="#ce" x="362.964" y="266.844"/></g><use xlink:href="#bX" x="370.874" y="266.844" fill="#46464a"/><use xlink:href="#bh" x="379.221" y="266.844" fill="#46464a"/><use xlink:href="#ce" x="386.649" y="266.844" fill="#46464a"/><use xlink:href="#bm" x="394.336" y="266.844" fill="#46464a"/><use xlink:href="#br" x="399.537" y="266.844" fill="#231f20"/><use xlink:href="#bH" x="230.869" y="284.822" fill="#231f20"/><use xlink:href="#bM" x="238.023" y="284.822" fill="#231f20"/><g fill="#231f20"><use xlink:href="#bE" x="246.54" y="284.822"/><use xlink:href="#br" x="254.105" y="284.822"/><use xlink:href="#bs" x="256.636" y="284.822"/><use xlink:href="#bx" x="265.137" y="284.822"/><use xlink:href="#br" x="272.982" y="284.822"/><use xlink:href="#bB" x="275.513" y="284.822"/></g><use xlink:href="#bz" x="282.938" y="284.822" fill="#231f20"/><use xlink:href="#bx" x="288.708" y="284.822" fill="#231f20"/><use xlink:href="#bu" x="296.542" y="284.822" fill="#231f20"/><g fill="#231f20"><use xlink:href="#ca" x="305.317" y="284.822"/><use xlink:href="#br" x="307.625" y="284.822"/><use xlink:href="#cb" x="310.155" y="284.822"/></g><use xlink:href="#bA" x="317.12" y="284.822" fill="#231f20"/><use xlink:href="#bx" x="324.649" y="284.822" fill="#231f20"/><use xlink:href="#bz" x="332.279" y="284.822" fill="#231f20"/><g fill="#231f20"><use xlink:href="#bx" x="338.05" y="284.822"/><use xlink:href="#br" x="345.895" y="284.822"/><use xlink:href="#bz" x="348.426" y="284.822"/></g><use xlink:href="#bw" x="354.168" y="284.822" fill="#231f20"/><use xlink:href="#bv" x="358.611" y="284.822" fill="#231f20"/><use xlink:href="#bC" x="365.722" y="284.822" fill="#231f20"/><use xlink:href="#bx" x="368.467" y="284.822" fill="#231f20"/><use xlink:href="#bz" x="376.098" y="284.822" fill="#231f20"/><use xlink:href="#br" x="382.278" y="284.822" fill="#231f20"/><use xlink:href="#bz" x="230.869" y="302.8" fill="#231f20"/><use xlink:href="#bA" x="236.658" y="302.8" fill="#231f20"/><use xlink:href="#bt" x="244.186" y="302.8" fill="#231f20"/><use xlink:href="#bB" x="252.351" y="302.8" fill="#231f20"/><use xlink:href="#bC" x="259.931" y="302.8" fill="#231f20"/><g fill="#231f20"><use xlink:href="#bu" x="262.676" y="302.8"/><use xlink:href="#br" x="271.178" y="302.8"/><use xlink:href="#bE" x="273.709" y="302.8"/></g><use xlink:href="#bt" x="281.236" y="302.8" fill="#231f20"/><g fill="#231f20"><use xlink:href="#bw" x="289.121" y="302.8"/><use xlink:href="#br" x="293.511" y="302.8"/><use xlink:href="#bs" x="296.042" y="302.8"/><use xlink:href="#bx" x="304.544" y="302.8"/><use xlink:href="#br" x="312.389" y="302.8"/><use xlink:href="#bY" x="314.919" y="302.8"/></g><use xlink:href="#bD" x="326.042" y="302.8" fill="#231f20"/><use xlink:href="#by" x="328.631" y="302.8" fill="#231f20"/><use xlink:href="#bx" x="334.731" y="302.8" fill="#231f20"/><use xlink:href="#bu" x="342.564" y="302.8" fill="#231f20"/><use xlink:href="#ca" x="351.341" y="302.8" fill="#231f20"/></svg>