<svg xmlns="http://www.w3.org/2000/svg" xmlns:xlink="http://www.w3.org/1999/xlink" width="1122.52" height="793.701" viewBox="0 0 841.89 595.276"><rect width="100%" height="100%" fill="#fff"/><defs><path id="d" d="M4.984 0h3.047c.219 0 .36-.14.36-.36v-12.952h3.156c.219 0 .39-.141.39-.36v-2.61c0-.218-.171-.359-.39-.359H1.453c-.219 0-.36.141-.36.36v2.61c0 .218.141.358.36.358H4.61V-.358c0 .218.172.359.375.359m0 0"/><path id="e" d="M1.922 0h3.047c.218 0 .36-.14.36-.36v-6.124h5.702V-.36c0 .218.14.359.36.359h3.03c.22 0 .392-.14.392-.36V-16.28c0-.219-.172-.36-.391-.36H11.39c-.22 0-.36.141-.36.36v6.468H5.328v-6.468c0-.219-.14-.36-.36-.36H1.923c-.203 0-.36.141-.36.36V-.36c0 .218.157.359.36.359m0 0"/><path id="f" d="M1.922 0h8.562c.204 0 .375-.14.375-.36v-2.609c0-.219-.171-.36-.375-.36H5.328v-3.39h4.875c.203 0 .344-.156.344-.36v-2.624a.33.33 0 0 0-.344-.344H5.328v-3.265H10.5c.219 0 .36-.141.36-.36v-2.61c0-.218-.141-.359-.36-.359H1.922c-.203 0-.36.141-.36.36V-.36c0 .218.157.359.36.359m0 0"/><path id="h" d="M1.922 0h5.547c4.015 0 5.937-1.922 5.937-4.734 0-2.422-1.625-3.782-3.234-4.203a3.8 3.8 0 0 0 2.14-3.47c0-2.296-1.64-4.234-4.609-4.234H1.922c-.203 0-.36.141-.36.36V-.36c0 .218.157.359.36.359m3.36-10.125v-3.203h1.64c1.14 0 1.844.406 1.844 1.547 0 1.203-.703 1.656-1.844 1.656Zm0 6.828v-3.906h1.937c1.406 0 2.36.531 2.36 1.922 0 1.39-.954 1.984-2.36 1.984Zm0 0"/><path id="i" d="M6.61.281c2.796 0 5.656-1.5 5.656-4.968 0-2.844-1.907-3.938-3.657-4.766l-1.687-.766c-1.219-.578-1.89-.86-1.89-1.765 0-.844.656-1.391 1.734-1.391.984 0 1.765.406 2.828 1.297.172.125.39.047.5-.11l1.578-1.874c.14-.204.11-.407-.031-.547-1.375-1.438-3.016-2.22-4.985-2.22-2.906 0-5.25 1.688-5.25 4.798 0 2.594 1.657 3.86 3.422 4.64l2.016.954c1.047.468 1.765.78 1.765 1.75 0 1.046-.859 1.53-2.078 1.53-1.25 0-2.156-.53-3.25-1.593-.219-.172-.406-.094-.547.063L1.141-2.875c-.172.188-.172.375-.047.516 1 1.343 2.875 2.64 5.515 2.64m0 0"/><path id="j" d="M5.922 0h3.156c.235 0 .422-.094.469-.281l3.312-11.594L16.141-.281c.047.187.234.281.468.281h3.157c.218 0 .437-.094.484-.281l4.703-15.953c.078-.235-.015-.407-.281-.407h-3.188c-.187 0-.359.078-.406.297L18.031-5.14l-3.328-11.203c-.062-.218-.187-.297-.39-.297H11.39c-.22 0-.344.078-.407.297L7.656-5.14 4.61-16.344c-.046-.218-.218-.297-.406-.297H1.047c-.266 0-.375.172-.281.407L5.438-.281c.046.187.265.281.484.281m0 0"/><path id="k" d="m15.906-.406-5.515-15.938a.47.47 0 0 0-.453-.297H6.703a.47.47 0 0 0-.453.297L.734-.406C.641-.172.781 0 1.047 0h3.156c.188 0 .344-.078.406-.281l.72-2.235h5.984L12.03-.28c.063.203.203.281.39.281h3.188c.266 0 .391-.172.297-.406M6.391-5.844l1.922-6.015 1.937 6.015Zm0 0"/><path id="l" d="M6.016 0h3.03c.22 0 .392-.14.392-.36v-7.265l4.843-8.578c.14-.266.047-.438-.234-.438H10.89c-.203 0-.36.078-.453.25L7.53-11.078l-2.89-5.313a.47.47 0 0 0-.438-.25H1.047c-.281 0-.375.172-.234.438l4.843 8.547V-.36c0 .218.14.359.36.359m0 0"/><path id="m" d="M9.656.313c4.719 0 8.578-3.766 8.578-8.563 0-4.828-3.859-8.578-8.578-8.578A8.52 8.52 0 0 0 1.094-8.25 8.526 8.526 0 0 0 9.656.313m0-3.688c-2.687 0-4.765-2.11-4.765-4.875 0-2.797 2.078-4.89 4.765-4.89 2.703 0 4.75 2.093 4.75 4.89 0 2.766-2.047 4.875-4.75 4.875m0 0"/><path id="n" d="M7.89.313c3.75 0 6.438-2.313 6.438-6.829v-9.765c0-.219-.14-.36-.36-.36h-3.03c-.22 0-.36.141-.36.36v9.718c0 2.016-.984 3.188-2.687 3.188-1.735 0-2.688-1.172-2.688-3.187v-9.72c0-.218-.14-.359-.36-.359h-3.03c-.22 0-.36.141-.36.36v9.765C1.453-2 4.11.313 7.891.313m0 0"/><path id="o" d="M14.813-16.64h-3.047c-.22 0-.36.14-.36.359V-6.11L5.891-16.391a.45.45 0 0 0-.422-.25H1.922c-.203 0-.36.141-.36.36V-.36c0 .218.157.359.36.359h3.047c.218 0 .36-.14.36-.36V-10.53L10.843-.234a.46.46 0 0 0 .422.234h3.547c.203 0 .343-.14.343-.36V-16.28c0-.219-.14-.36-.344-.36m0 0"/><path id="p" d="M1.922 0h5.156c5.547 0 8.516-3.656 8.516-8.312 0-4.657-2.969-8.329-8.516-8.329H1.922c-.203 0-.36.141-.36.36V-.36c0 .218.157.359.36.359m3.406-3.328v-9.984h1.703c3.11 0 4.735 1.765 4.735 5 0 3.234-1.625 4.984-4.735 4.984Zm0 0"/><path id="q" d="M10.172-3.328H5.328v-12.953c0-.219-.14-.36-.36-.36H1.923c-.203 0-.36.141-.36.36V-.36c0 .218.157.359.36.359h8.25c.219 0 .36-.14.36-.36v-2.609c0-.219-.141-.36-.36-.36m0 0"/><path id="r" d="M9.672.313c2.406 0 4.39-.954 5.875-2.47.156-.171.11-.343 0-.484L13.64-4.656c-.141-.172-.328-.172-.5-.047-.922.812-2.063 1.328-3.438 1.328-2.734 0-4.812-2.062-4.812-4.875 0-2.828 2.078-4.89 4.812-4.89 1.375 0 2.516.515 3.438 1.328.172.124.359.124.5-.047l1.906-2.016c.11-.14.156-.312 0-.484-1.485-1.516-3.469-2.47-5.875-2.47-4.703 0-8.578 3.688-8.578 8.579 0 4.906 3.875 8.563 8.578 8.563m0 0"/><path id="s" d="m13.5-.422-3.687-5.75c2.124-.812 3.14-2.64 3.14-5 0-3.234-1.906-5.469-5.922-5.469h-5.11c-.202 0-.359.141-.359.36V-.36c0 .218.157.359.36.359h3.047c.218 0 .36-.14.36-.36v-5.374h.843l3.406 5.5A.46.46 0 0 0 10 0h3.266c.28 0 .406-.172.234-.422m-8.172-12.89h1.61c1.265 0 2.421.406 2.421 2.14 0 1.719-1.156 2.125-2.421 2.125h-1.61Zm0 0"/><clipPath id="a"><path d="M.457 0h840.867v594.555H.457Zm0 0"/></clipPath><clipPath id="b"><path d="M291.617 256.578H564.34v69.012H291.617Zm0 0"/></clipPath><clipPath id="c"><path d="M291.617 256.578H564.34v69.012H291.617Zm0 0"/></clipPath></defs><g clip-path="url(#a)"><path fill="#28477c" d="M.457 594.555h840.867V0H.457Zm0 0"/></g><g clip-path="url(#b)"><path fill="#fff" d="M550.14 325.59H305.798c-7.828 0-14.2-6.371-14.2-14.2v-40.613c0-7.828 6.372-14.199 14.2-14.199H564.34v54.813c0 7.828-6.371 14.199-14.2 14.199"/></g><path fill="#ec1d27" d="M492.71 304.406v-23.37a.542.542 0 0 0-.897-.411l-3.25 1.2a.544.544 0 0 1-.903-.41v-6.454c0-.156.07-.305.188-.41l4.71-2.469a.54.54 0 0 1 .356-.133h6.856c.3 0 .543.242.543.543v31.914c0 .301-.243.543-.543.543h-6.516a.54.54 0 0 1-.543-.543M504.39 304.406v-6.105c0-.137.051-.266.145-.367l11.813-12.82c1.207-1.298 1.668-2.134 1.668-3.524 0-1.809-1.02-3.059-2.965-3.059-1.29 0-2.82.559-3.035 2.68a.556.556 0 0 1-.543.52h-6.52a.55.55 0 0 1-.55-.567c.277-6.129 5.07-9.492 10.648-9.492 6.117 0 10.566 3.754 10.566 9.965 0 3.476-1.437 5.328-4.078 8.11l-7.012 7.429a.542.542 0 0 0 .395.914h10.152c.301 0 .543.242.543.543v5.773c0 .301-.242.543-.543.543h-20.14a.54.54 0 0 1-.543-.543M538.2 305.227c-5.329 0-10.704-2.77-10.977-9.77a.556.556 0 0 1 .55-.566h6.528c.289 0 .508.23.539.515.207 1.977 1.605 2.961 3.36 2.961 1.991 0 3.382-1.156 3.382-3.523 0-1.992-1.484-3.473-3.523-3.473h-1.067v-6.582h1.067c2.27 0 3.152-1.621 3.152-3.105 0-2.086-1.438-3.153-3.012-3.153-1.445 0-2.773.934-2.984 2.625-.035.27-.238.48-.512.48h-6.555a.55.55 0 0 1-.55-.57c.28-5.867 4.894-9.394 10.601-9.394 6.117 0 10.614 4.078 10.614 9.781 0 3.18-1.364 4.926-2.829 6.024a.533.533 0 0 0-.011.851c1.625 1.27 3.207 3.235 3.207 6.75 0 6.906-5.188 10.149-10.98 10.149"/><path fill="#46464a" d="M322.059 286.848c-.493-1.133-1.579-2.067-3.5-2.067-1.918 0-3.004.934-3.497 2.067a4.3 4.3 0 0 0-.41 1.433c-.039.34.235.637.578.637h6.657a.58.58 0 0 0 .578-.637 4.3 4.3 0 0 0-.406-1.433m-6.809 7.441a.588.588 0 0 0-.574.691c.316 1.88 1.941 3.45 4.62 3.45 2.54 0 3.794-.645 5.063-1.825a.58.58 0 0 1 .809.008l4.012 4.012a.58.58 0 0 1-.008.828c-2.57 2.445-5.203 3.774-9.875 3.774-5.86 0-12.613-2.118-12.613-13.551 0-8.672 4.93-13.547 11.875-13.547 7.687 0 11.925 5.617 11.925 12.562v3.02c0 .32-.257.578-.578.578ZM345.117 294.29h-4.09c-1.578 0-2.562.886-2.562 2.116 0 1.184.887 2.219 2.66 2.219 1.578 0 2.316-.148 3.203-.984.59-.543.79-1.38.79-2.66Zm.774 10.644a.58.58 0 0 1-.579-.579v-1.59c-1.625 1.626-3.105 2.415-5.91 2.415-2.664 0-4.879-.887-6.359-2.368-1.527-1.527-2.313-3.742-2.313-6.207 0-3.992 2.707-7.687 9.016-7.687h5.371v-.688c0-2.414-1.183-3.304-3.992-3.304-1.855 0-2.758.398-3.848 1.398a.57.57 0 0 1-.789-.023l-4.207-4.207a.585.585 0 0 1 .012-.836c2.547-2.38 4.98-3.13 9.227-3.13 7.585 0 11.675 3.153 11.675 9.606v16.621a.58.58 0 0 1-.578.579ZM365.367 305.227c-3.836 0-7.574-.18-11.097-3.426a.585.585 0 0 1-.012-.836l4.41-4.414a.58.58 0 0 1 .797-.012c2.148 1.84 4.754 1.84 6.05 1.84 1.18 0 3.446-.344 3.446-1.727 0-.738-.344-1.523-1.922-1.672l-4.086-.394c-4.582-.445-7.687-2.516-7.687-7.688 0-5.863 5.27-8.77 10.543-8.77 4.097 0 7.445.571 10.003 2.837.247.215.247.61.016.844l-4.168 4.168c-.215.214-.547.21-.785.027-1.352-1.024-3.344-1.223-5.215-1.223-1.969 0-2.61.934-2.61 1.528 0 .293-.097 1.28 1.723 1.476l4.09.395c5.57.543 7.985 3.843 7.985 8.078 0 6.262-5.325 8.969-11.48 8.969M414.785 294.29h-4.09c-1.578 0-2.562.886-2.562 2.116 0 1.184.887 2.219 2.66 2.219 1.578 0 2.316-.148 3.203-.984.59-.543.79-1.38.79-2.66Zm.774 10.644a.58.58 0 0 1-.579-.579v-1.59c-1.625 1.626-3.105 2.415-5.91 2.415-2.664 0-4.879-.887-6.36-2.368-1.526-1.527-2.312-3.742-2.312-6.207 0-3.992 2.707-7.687 9.016-7.687h5.371v-.688c0-2.414-1.183-3.304-3.992-3.304-1.856 0-2.758.398-3.848 1.398a.57.57 0 0 1-.789-.023l-4.207-4.207a.585.585 0 0 1 .012-.836c2.547-2.38 4.98-3.13 9.226-3.13 7.586 0 11.676 3.153 11.676 9.606v16.621a.58.58 0 0 1-.578.579ZM439.703 304.934a.58.58 0 0 1-.578-.579v-1.593c-1.629 1.629-4.043 2.465-6.16 2.465-2.512 0-4.535-.836-5.961-2.266-2.266-2.266-2.664-4.777-2.664-7.59V279c0-.316.262-.578.578-.578h6.926a.58.58 0 0 1 .578.578v15.29c0 3.054 2.168 3.644 3.254 3.644 1.082 0 3.25-.59 3.25-3.645V279a.58.58 0 0 1 .578-.578h6.926c.316 0 .578.262.578.578v25.355a.58.58 0 0 1-.578.579ZM458.98 304.934c-5.863 0-8.23-4.192-8.23-7.836v-12.465h-1.836a.58.58 0 0 1-.578-.578V279a.58.58 0 0 1 .578-.578h1.836v-5.973c0-.32.258-.578.578-.578h6.926c.32 0 .578.258.578.578v5.973h3.61a.58.58 0 0 1 .578.578v5.055a.58.58 0 0 1-.579.578h-3.609v11.875c0 1.035.543 1.625 1.625 1.625h1.984c.32 0 .579.258.579.578v5.644a.58.58 0 0 1-.579.579ZM477.75 286.16c-.492-.492-1.18-.738-2.168-.738-.984 0-1.676.246-2.168.738-1.035 1.035-1.184 2.906-1.184 5.516 0 2.613.149 4.484 1.184 5.52.492.491 1.184.738 2.168.738.988 0 1.676-.247 2.168-.739 1.035-1.035 1.184-2.906 1.184-5.52 0-2.609-.149-4.48-1.184-5.515m6.355 15.668c-1.574 1.676-4.238 3.399-8.523 3.399s-6.945-1.723-8.523-3.399c-2.22-2.414-2.907-4.926-2.907-10.152 0-5.172.688-7.735 2.907-10.149 1.578-1.675 4.238-3.398 8.523-3.398s6.95 1.723 8.523 3.398c2.22 2.414 2.91 4.977 2.91 10.149 0 5.226-.69 7.738-2.91 10.152M391.352 306.566c-.543 1.524-1.235 2.66-2.07 3.497-1.579 1.675-3.989 2.218-6.352 2.218h-2.477a.577.577 0 0 1-.578-.578v-6.137c0-.32.258-.578.578-.578h1.145c1.43 0 2.761-.734 3.359-2.226 0 0 .129-.282 0-.625l-8.46-22.93a.577.577 0 0 1 .542-.777h7.227c.25 0 .468.16.546.398l3.793 11.625c.176.535.934.531 1.102-.008l3.621-11.61a.57.57 0 0 1 .55-.405h7.22c.402 0 .683.398.543.777Zm0 0"/><g clip-path="url(#c)"><path fill="#f9df27" d="M305.797 261.742c-4.98 0-9.035 4.055-9.035 9.035v40.614c0 4.98 4.054 9.035 9.035 9.035H550.14c4.98 0 9.035-4.055 9.035-9.035v-49.649ZM550.14 325.59H305.797c-7.828 0-14.2-6.371-14.2-14.2v-40.613c0-7.828 6.372-14.199 14.2-14.199H564.34v54.813c0 7.828-6.371 14.199-14.2 14.199"/></g><g fill="#fff"><use xlink:href="#d" x="338.126" y="401.229"/><use xlink:href="#e" x="350.416" y="401.229"/><use xlink:href="#f" x="366.057" y="401.229"/><use xlink:href="#g" x="377.515" y="401.229"/><use xlink:href="#h" x="381.413" y="401.229"/><use xlink:href="#f" x="394.82" y="401.229"/><use xlink:href="#i" x="406.278" y="401.229"/></g><g fill="#fff"><use xlink:href="#d" x="418.116" y="401.229"/><use xlink:href="#g" x="430.406" y="401.229"/><use xlink:href="#j" x="434.304" y="401.229"/></g><use xlink:href="#k" x="456.316" y="401.229" fill="#fff"/><g fill="#fff"><use xlink:href="#l" x="469.39" y="401.229"/><use xlink:href="#g" x="483.748" y="401.229"/><use xlink:href="#d" x="487.646" y="401.229"/></g><use xlink:href="#m" x="498.51" y="401.229" fill="#fff"/><use xlink:href="#g" x="517.812" y="401.229" fill="#fff"/><use xlink:href="#g" x="520.995" y="401.229" fill="#fff"/><g fill="#fff"><use xlink:href="#h" x="355.788" y="425"/><use xlink:href="#n" x="369.195" y="425"/><use xlink:href="#l" x="384.266" y="425"/><use xlink:href="#g" x="398.624" y="425"/><use xlink:href="#k" x="402.522" y="425"/></g><g fill="#fff"><use xlink:href="#o" x="418.328" y="425"/><use xlink:href="#p" x="434.349" y="425"/><use xlink:href="#g" x="450.181" y="425"/><use xlink:href="#i" x="454.079" y="425"/><use xlink:href="#f" x="466.63" y="425"/><use xlink:href="#q" x="478.088" y="425"/><use xlink:href="#q" x="488.761" y="425"/></g><g fill="#fff"><use xlink:href="#n" x="369.765" y="448.771"/><use xlink:href="#i" x="384.836" y="448.771"/><use xlink:href="#f" x="397.387" y="448.771"/><use xlink:href="#p" x="408.845" y="448.771"/><use xlink:href="#g" x="424.676" y="448.771"/><use xlink:href="#r" x="428.575" y="448.771"/></g><g fill="#fff"><use xlink:href="#k" x="444.002" y="448.771"/><use xlink:href="#s" x="459.929" y="448.771"/></g><use xlink:href="#i" x="472.908" y="448.771" fill="#fff"/></svg>