<svg xmlns="http://www.w3.org/2000/svg" xmlns:xlink="http://www.w3.org/1999/xlink" width="1122.52" height="793.701" viewBox="0 0 841.89 595.276"><rect width="100%" height="100%" fill="#fff"/><defs><path id="c" d="M23.078-7.547h-11v-29.406c0-.484-.312-.797-.812-.797H4.375c-.484 0-.812.313-.812.797v36.14c0 .485.328.813.812.813h18.703c.5 0 .813-.328.813-.812v-5.922c0-.5-.313-.813-.813-.813m0 0"/><path id="d" d="M15.531.64c7.985 0 13.922-6.03 13.922-13.859 0-7.812-5.937-13.86-13.922-13.86-7.984 0-13.86 6.048-13.86 13.86 0 7.828 5.876 13.86 13.86 13.86m0-7.546c-3.344 0-5.937-2.422-5.937-6.313 0-3.875 2.594-6.312 5.937-6.312s5.938 2.437 5.938 6.312c0 3.89-2.594 6.313-5.938 6.313m0 0"/><path id="e" d="M15.594 11.063c6.406 0 14.078-2.86 14.078-12.625v-24.063c0-.484-.328-.797-.813-.797h-6.047c-.484 0-.812.313-.812.797l-.156 2.047c-1.625-2.203-4.094-3.5-7.813-3.5-7.453 0-12.36 5.5-12.36 13.219C1.672-6.047 6.579-.594 13.97-.594c3.61 0 6.203-1.297 7.828-3.453v2.484c0 4.532-3.625 5.938-7.016 5.938-2.265 0-4.531-.656-6.906-1.89-.64-.376-1.14-.11-1.453.484L4.75 6.25c-.328.547-.266 1.25.266 1.625 2.75 2.11 6.578 3.188 10.578 3.188m.047-19.047c-3.453 0-5.938-2.266-5.938-5.875 0-3.563 2.485-5.828 5.938-5.828 3.406 0 5.828 2.265 5.828 5.828 0 3.609-2.422 5.875-5.828 5.875m0 0"/><path id="f" d="M6.906-17.375a4.78 4.78 0 0 0 4.797-4.797c0-2.687-2.11-4.906-4.797-4.906-2.703 0-4.797 2.219-4.797 4.906a4.77 4.77 0 0 0 4.797 4.797m0 18.016a4.78 4.78 0 0 0 4.797-4.797c0-2.688-2.11-4.906-4.797-4.906-2.703 0-4.797 2.218-4.797 4.906A4.77 4.77 0 0 0 6.906.64m0 0"/><path id="h" d="M4.016 0h1.359c.344 0 .5-.187.5-.547v-9.937h5.422c5.797 0 8.875-3.5 8.875-8.375 0-4.907-3.078-8.407-8.875-8.407H4.016c-.36 0-.547.188-.547.547V-.547c0 .36.187.547.547.547m1.859-12.656v-12.422h5.188c3.78 0 6.703 1.703 6.703 6.219 0 4.53-2.922 6.203-6.703 6.203Zm0 0"/><path id="i" d="M11.844.469c5.531 0 9.703-4.328 9.703-10.016s-4.172-10-9.703-10-9.735 4.313-9.735 10S6.313.47 11.844.47m0-2.219c-4.281 0-7.438-3.234-7.438-7.797 0-4.547 3.157-7.828 7.438-7.828 4.25 0 7.437 3.281 7.437 7.828 0 4.563-3.187 7.797-7.437 7.797m0 0"/><path id="j" d="M3.547 0h1.36c.359 0 .515-.187.515-.547v-11.531c0-2.016.844-5.297 4.437-5.297.344 0 .813 0 1.36.203.39.11.656.031.656-.39v-.985c0-.344-.078-.5-.312-.656-.344-.235-.97-.344-1.75-.344-2.376 0-3.704 1.39-4.438 3.14L5.297-18.5c0-.437-.11-.594-.547-.594H3.547c-.36 0-.469.203-.469.547v18c0 .36.11.547.469.547m0 0"/><path id="k" d="M8.688.469c.968 0 2.343-.203 2.343-.781v-.891c0-.39-.156-.594-.781-.469-.312.031-.906.078-1.219.078-1.203 0-1.75-.547-1.75-2.11v-13.39h3.282c.343 0 .546-.203.546-.547v-.906c0-.344-.203-.547-.546-.547H7.28v-4.515c0-.344-.156-.547-.5-.547H5.453c-.344 0-.5.203-.5.547v4.515h-2.5c-.344 0-.547.203-.547.547v.906c0 .344.203.547.547.547h2.5v13.672c0 2.563 1.203 3.89 3.734 3.89m0 0"/><path id="l" d="M11.563.469c3.515 0 6.124-1.64 7.53-4.328l.079 3.312c0 .36.156.547.5.547h1.25c.344 0 .5-.187.5-.547v-18c0-.344-.156-.547-.5-.547h-1.25c-.344 0-.5.203-.5.547l-.078 3.39c-1.407-2.64-4.016-4.39-7.532-4.39-5.609 0-9.453 4.313-9.453 10C2.11-3.812 5.953.47 11.563.47m.28-2.219c-4.359 0-7.484-3.125-7.484-7.797 0-4.625 3.125-7.781 7.485-7.781 4.281 0 7.281 3.187 7.281 7.86 0 4.64-3 7.718-7.281 7.718m0 0"/><path id="m" d="M4.25-24.312c.86 0 1.516-.704 1.516-1.547 0-.86-.657-1.563-1.516-1.563-.86 0-1.562.703-1.562 1.563 0 .843.703 1.547 1.562 1.547M3.547 0h1.36c.359 0 .468-.187.468-.547v-18c0-.344-.11-.547-.469-.547h-1.36c-.358 0-.468.203-.468.547v18c0 .36.11.547.469.547m0 0"/><path id="n" d="M3.469 0h.484c.125 0 .203-.062.203-.203V-9h2.125q.188 0 .188-.187v-.407c0-.125-.063-.203-.188-.203H1.156c-.125 0-.187.078-.187.203v.406q0 .188.187.188h2.125v8.797c0 .14.063.203.188.203m0 0"/><path id="o" d="M4.25-7.016c-1.156 0-1.922.563-2.312 1.266v-4.047c0-.125-.047-.203-.172-.203h-.5c-.125 0-.157.078-.157.203v9.594c0 .14.032.203.157.203h.5c.125 0 .172-.062.172-.203v-4c0-1.25.921-2.031 2.109-2.031s1.875.78 1.875 2.03v4c0 .142.031.204.156.204h.5c.125 0 .172-.062.172-.203v-4.031c0-1.828-1-2.782-2.5-2.782m0 0"/><path id="p" d="M1.531-8.719c.297 0 .532-.265.532-.562 0-.313-.235-.563-.532-.563a.56.56 0 0 0-.562.563c0 .297.25.562.562.562M1.266 0h.5c.125 0 .172-.062.172-.203v-6.453c0-.125-.047-.203-.172-.203h-.5c-.125 0-.157.078-.157.203v6.453c0 .14.032.203.157.203m0 0"/><path id="q" d="M3.063.172c1.218 0 2.296-.688 2.296-1.953 0-1.063-.734-1.563-1.625-1.922L3.11-3.97c-.765-.312-1.265-.578-1.265-1.297 0-.703.625-1.03 1.265-1.03.532 0 .985.218 1.422.687.125.125.203.14.328 0l.157-.188c.093-.094.109-.203.015-.297-.468-.61-1.187-.922-1.953-.922-1.11 0-2.047.688-2.047 1.782 0 1 .735 1.468 1.563 1.828l.797.328c.656.281 1.14.61 1.14 1.312 0 .782-.61 1.188-1.484 1.188-.781 0-1.297-.36-1.703-.813-.11-.125-.235-.109-.313-.015l-.172.218c-.062.125-.062.22.032.344A2.74 2.74 0 0 0 3.063.172m0 0"/><path id="s" d="M3.125.172c.344 0 .828-.078.828-.281v-.328c0-.141-.047-.204-.281-.157-.11 0-.313.016-.422.016-.437 0-.64-.188-.64-.75v-4.813h1.187q.187 0 .187-.187v-.328c0-.125-.062-.203-.187-.203H2.609v-1.61c0-.125-.046-.203-.171-.203h-.485c-.125 0-.172.078-.172.203v1.61H.875c-.125 0-.187.078-.187.203v.328q0 .187.187.187h.906v4.907c0 .922.422 1.406 1.344 1.406m0 0"/><path id="t" d="M4.36.172c.952 0 1.827-.297 2.452-.89.094-.095.157-.157.047-.282l-.187-.266c-.047-.046-.14-.046-.203 0-.532.407-1.14.704-2.032.704-1.765 0-2.75-1.11-2.875-2.563h5.344c.375 0 .469-.172.469-.672 0-1.656-1.172-3.219-3.187-3.219C2.156-7.016.75-5.469.75-3.453.75-1.47 2.125.172 4.36.172M1.577-3.812c.125-1.485 1.14-2.454 2.594-2.454 1.484 0 2.422 1.016 2.453 2.454Zm0 0"/><path id="u" d="M4.313.172c1.093 0 1.984-.422 2.562-1.14.094-.11.125-.173.031-.266L6.641-1.5c-.125-.125-.235-.047-.328.047-.422.453-1 .828-1.954.828-1.593 0-2.78-1.14-2.78-2.797 0-1.672 1.187-2.812 2.765-2.812.953 0 1.531.375 1.984.843.063.094.172.157.297.016l.266-.25c.093-.078.062-.156-.032-.281-.578-.688-1.468-1.11-2.53-1.11C2.296-7.016.75-5.484.75-3.422.75-1.375 2.297.172 4.313.172m0 0"/><path id="v" d="M4.25.172c1.984 0 3.484-1.563 3.484-3.594 0-2.047-1.5-3.594-3.484-3.594S.75-5.469.75-3.422C.75-1.39 2.266.172 4.25.172m0-.797c-1.531 0-2.672-1.172-2.672-2.797 0-1.64 1.14-2.812 2.672-2.812 1.531 0 2.672 1.172 2.672 2.812 0 1.625-1.14 2.797-2.672 2.797m0 0"/><path id="w" d="M1.266 0h.5c.125 0 .172-.062.172-.203v-4c0-1.25.921-2.031 2.109-2.031s1.875.78 1.875 2.03v4c0 .142.031.204.156.204h.5c.125 0 .172-.062.172-.203v-4.031c0-1.828-1-2.782-2.5-2.782-1.156 0-1.922.563-2.312 1.266l-.032-.89c0-.157-.047-.22-.203-.22h-.437c-.125 0-.157.079-.157.204v6.453c0 .14.032.203.157.203m0 0"/><path id="x" d="M4.156.172c1.25 0 2.188-.594 2.703-1.563l.016 1.188c0 .14.063.203.188.203h.453c.125 0 .172-.062.172-.203v-9.594c0-.125-.047-.203-.172-.203h-.5c-.125 0-.157.078-.157.203v4.328c-.53-.953-1.468-1.547-2.703-1.547C2.141-7.016.75-5.469.75-3.422S2.14.172 4.156.172m.094-.797c-1.562 0-2.687-1.125-2.687-2.797S2.688-6.219 4.25-6.219c1.547 0 2.61 1.14 2.61 2.828 0 1.657-1.063 2.766-2.61 2.766m0 0"/><path id="y" d="M4.156.172c1.25 0 2.188-.594 2.703-1.563l.016 1.188c0 .14.063.203.188.203h.453c.125 0 .172-.062.172-.203v-6.453c0-.125-.047-.203-.172-.203h-.453c-.125 0-.188.078-.188.203l-.016 1.218c-.515-.953-1.453-1.578-2.703-1.578C2.141-7.016.75-5.469.75-3.422S2.14.172 4.156.172m.094-.797c-1.562 0-2.687-1.125-2.687-2.797S2.688-6.219 4.25-6.219c1.547 0 2.61 1.14 2.61 2.828 0 1.657-1.063 2.766-2.61 2.766m0 0"/><path id="z" d="M1.266 0h.5c.125 0 .172-.062.172-.203v-4.125c0-.734.312-1.906 1.593-1.906.125 0 .297 0 .5.062.14.047.235.016.235-.14v-.344c0-.125-.032-.188-.11-.235-.125-.093-.36-.125-.625-.125-.86 0-1.328.5-1.594 1.125l-.03-.75c0-.156-.048-.218-.204-.218h-.437c-.125 0-.157.078-.157.203v6.453c0 .14.032.203.157.203m0 0"/><path id="A" d="M2.516 2.656H3c.11 0 .188-.062.234-.172l3.61-9.093c.047-.157 0-.25-.157-.25h-.5c-.109 0-.156.062-.203.172L3.781-.923 1.563-6.687c-.032-.11-.11-.172-.22-.172H.86c-.14 0-.203.093-.14.25L3.344.03 2.375 2.47c-.047.11 0 .187.14.187m0 0"/><path id="B" d="M1.875 0h.484c.125 0 .188-.062.188-.203v-5.938h1.375c.14 0 .203-.062.203-.187v-.328c0-.125-.062-.203-.203-.203H2.547v-1.422c0-.656.156-1.156.953-1.156.14 0 .297.015.453.046.094 0 .172 0 .172-.109v-.453c0-.11-.031-.14-.125-.188a2.2 2.2 0 0 0-.61-.078c-1.14 0-1.687.625-1.687 1.735v1.625H.875c-.125 0-.187.078-.187.203v.328q0 .187.187.187h.828v5.938c0 .14.047.203.172.203m0 0"/><path id="C" d="M1.266 0h.5c.125 0 .172-.062.172-.203V-4.25c0-1.234.656-1.984 1.718-1.984 1.047 0 1.625.718 1.625 1.984v4.047c0 .14.063.203.172.203h.5c.125 0 .172-.062.172-.203V-4.25c0-1.234.734-1.984 1.797-1.984 1.047 0 1.547.718 1.547 1.984v4.047c0 .14.047.203.187.203h.485c.125 0 .172-.062.172-.203v-4.11c0-1.812-.844-2.703-2.25-2.703-1.188 0-1.813.61-2.157 1.36-.343-.922-1.062-1.36-2.031-1.36-1.016 0-1.625.532-1.937 1.172l-.032-.797c0-.156-.047-.218-.203-.218h-.437c-.125 0-.157.078-.157.203v6.453c0 .14.032.203.157.203m0 0"/><path id="N" d="M1.266 0h.5c.125 0 .172-.062.172-.203v-9.594c0-.125-.047-.203-.172-.203h-.5c-.125 0-.157.078-.157.203v9.594c0 .14.032.203.157.203m0 0"/><path id="O" d="M4.125 2.86c1.797 0 3.484-.922 3.484-3.094v-6.422c0-.125-.046-.203-.171-.203h-.454c-.125 0-.171.078-.171.203l-.016 1.14c-.516-.937-1.438-1.5-2.719-1.5C2.141-7.016.75-5.578.75-3.546.75-1.5 2.14-.063 4.11-.063c1.25 0 2.156-.563 2.671-1.47v1.22c0 1.828-1.281 2.453-2.687 2.453-.703 0-1.422-.172-2-.547-.078-.047-.172-.032-.235.062l-.187.313c-.031.11 0 .203.125.265.5.36 1.36.625 2.328.625m.078-3.72c-1.484 0-2.64-1.03-2.64-2.687 0-1.64 1.156-2.687 2.64-2.687 1.516 0 2.578 1.062 2.578 2.718 0 1.641-1.062 2.657-2.578 2.657m0 0"/><path id="P" d="M3.594.172C4.75.172 5.53-.406 5.922-1.11l.016.906c0 .14.062.203.203.203h.437c.125 0 .172-.062.172-.203v-6.453c0-.125-.047-.203-.172-.203h-.5c-.125 0-.156.078-.156.203v4c0 1.25-.922 2.031-2.125 2.031-1.188 0-1.86-.781-1.86-2.031v-4c0-.125-.046-.203-.171-.203h-.5c-.125 0-.157.078-.157.203v4.031c0 1.828.985 2.797 2.485 2.797m0 0"/><path id="Q" d="M4.64.172c2.016 0 3.407-1.547 3.407-3.594S6.657-7.016 4.64-7.016c-1.25 0-2.188.594-2.703 1.547v-4.328c0-.125-.047-.203-.172-.203h-.5c-.125 0-.157.078-.157.203v9.594c0 .14.032.203.157.203h.468c.125 0 .172-.062.172-.203l.032-1.188C2.453-.42 3.375.172 4.64.172m-.093-.797c-1.547 0-2.61-1.11-2.61-2.766 0-1.687 1.063-2.828 2.61-2.828s2.672 1.125 2.672 2.797S6.094-.625 4.547-.625m0 0"/><path id="R" d="M3.234 0h.563c.11 0 .203-.062.25-.172l2.016-5.765 2.03 5.765c.048.11.141.172.25.172h.563c.11 0 .219-.062.25-.172l2.266-6.437c.062-.157 0-.25-.156-.25h-.485c-.11 0-.172.062-.203.172L8.61-.907l-2.015-5.78c-.032-.11-.14-.172-.25-.172h-.547a.27.27 0 0 0-.266.172l-2 5.78-1.969-5.78c-.03-.11-.109-.172-.218-.172H.859c-.14 0-.203.093-.14.25L2.984-.172c.032.11.141.172.25.172m0 0"/><path id="S" d="M1.266 2.656h.5c.125 0 .172-.062.172-.187V-1.36C2.453-.422 3.39.17 4.64.17c2.015 0 3.406-1.546 3.406-3.593S6.657-7.016 4.64-7.016c-1.25 0-2.188.625-2.703 1.579l-.032-1.22c0-.124-.047-.202-.172-.202h-.468c-.125 0-.157.078-.157.203v9.125c0 .125.032.187.157.187m3.28-3.281C3-.625 1.938-1.735 1.938-3.391c0-1.687 1.063-2.828 2.61-2.828s2.672 1.125 2.672 2.797S6.094-.625 4.547-.625m0 0"/><path id="T" d="M3.531 0h.5c.11 0 .203-.062.25-.172l2.563-6.437c.047-.157 0-.25-.157-.25h-.484c-.11 0-.172.062-.219.172L3.781-.923 1.563-6.687c-.032-.11-.11-.172-.22-.172H.86c-.14 0-.203.093-.14.25L3.266-.172c.046.11.14.172.265.172m0 0"/><path id="U" d="M1.281.188a.65.65 0 0 0 .657-.657.657.657 0 0 0-.657-.64.654.654 0 0 0-.64.64c0 .375.297.657.64.657m0 0"/><path id="V" d="M5.781-.797H2.11v-8.797c0-.125-.046-.203-.171-.203h-.5c-.125 0-.188.078-.188.203v9.39c0 .142.063.204.188.204H5.78c.125 0 .203-.078.203-.203v-.39c0-.126-.078-.204-.203-.204m0 0"/><path id="D" d="M4.203.172c.969 0 1.86-.281 2.438-.875.125-.11.125-.219.078-.297l-.578-.812c-.079-.11-.141-.125-.25-.079-.578.329-1.047.375-1.516.375-.984 0-1.625-.359-1.86-1.093h3.938c.64 0 .813-.422.813-1.125 0-1.766-1.203-3.282-3.313-3.282S.438-5.469.438-3.453C.438-1.375 1.953.172 4.203.172M2.484-4.094c.172-.812.782-1.172 1.485-1.172.719 0 1.265.344 1.406 1.172Zm0 0"/><path id="E" d="M3.656.172c.969 0 1.672-.39 2.14-1.047l.016.672c0 .125.11.203.235.203h1.531c.125 0 .234-.078.234-.203v-6.438a.214.214 0 0 0-.218-.218H6.047c-.125 0-.234.093-.234.218l-.016.657c-.453-.641-1.14-1.032-2.14-1.032-1.907 0-3.22 1.563-3.22 3.594S1.75.172 3.658.172m.453-1.953c-.906 0-1.593-.64-1.593-1.64s.687-1.657 1.593-1.657c.938 0 1.579.656 1.579 1.64 0 1-.641 1.657-1.579 1.657m0 0"/><path id="F" d="M3.188.172c1.39 0 2.609-.734 2.609-2.14.031-1.032-.656-1.641-1.5-1.97l-1.031-.406c-.313-.125-.547-.312-.547-.562 0-.219.125-.453.547-.453.375 0 .75.203 1.203.547.125.078.218.093.312 0l.719-.844c.047-.078.094-.188.016-.282A3.1 3.1 0 0 0 3.14-7.015c-1.313 0-2.453.766-2.453 2.11 0 .953.578 1.531 1.484 1.89l.89.36c.47.187.61.328.61.594 0 .312-.25.453-.625.453-.485 0-.953-.203-1.547-.641-.11-.078-.234-.11-.36.063l-.546.78c-.11.141-.125.313-.047.407C1.125-.312 2.03.172 3.187.172m0 0"/><path id="G" d="M2.203 2.656H3.86c.11 0 .204-.062.25-.172L7.75-6.609c.047-.157-.031-.25-.187-.25H5.828a.29.29 0 0 0-.266.172l-1.5 4.203-1.515-4.203a.29.29 0 0 0-.266-.172H.547c-.156 0-.235.093-.188.25L3.016.016l-1 2.39c-.079.172.015.25.187.25m0 0"/><path id="H" d="M3.25.172c.984 0 1.61-.5 2.016-1.188l.046.797c0 .157.094.219.22.219h1.64c.125 0 .219-.078.219-.203v-6.438a.214.214 0 0 0-.22-.218H5.485a.214.214 0 0 0-.218.218v3.47c0 .905-.47 1.374-1.203 1.374-.75 0-1.141-.469-1.141-1.375V-6.64a.214.214 0 0 0-.219-.218H1c-.14 0-.219.093-.219.218v3.97C.781-.876 1.812.171 3.25.171m0 0"/><path id="I" d="M3.64.172c.47 0 1.22-.094 1.22-.438v-1.156c0-.14-.11-.219-.25-.203-.173.016-.298.016-.423.016-.359 0-.593-.188-.593-.578v-3.016H4.64c.125 0 .218-.078.218-.203v-1.235a.214.214 0 0 0-.218-.218H3.594v-1.594c0-.14-.094-.219-.219-.219H1.656c-.125 0-.234.078-.234.219v1.594H.578a.214.214 0 0 0-.219.218v1.235c0 .125.094.203.22.203h.843v3.266C1.422-.344 2.5.172 3.64.172m0 0"/><path id="J" d="M4.031.172c2.063 0 3.61-1.578 3.61-3.594 0-2.031-1.547-3.594-3.61-3.594-2.078 0-3.593 1.563-3.593 3.594C.438-1.406 1.953.172 4.03.172m0-1.969c-.875 0-1.547-.625-1.547-1.625 0-1.015.672-1.64 1.547-1.64.86 0 1.532.625 1.532 1.64 0 1-.672 1.625-1.532 1.625m0 0"/><path id="K" d="M2.547 0H4.25c.125 0 .219-.078.219-.203v-9.375a.214.214 0 0 0-.219-.219H.688a.214.214 0 0 0-.22.219v1.39c0 .126.094.22.22.22h1.64v7.765c0 .125.094.203.219.203m0 0"/><path id="L" d="M.922 0h5.766c.125 0 .218-.078.218-.203v-1.39a.214.214 0 0 0-.218-.22H3.266l2.328-2.39c.375-.39 1.297-1.25 1.297-2.703 0-1.719-1.328-3-3.235-3-1.531 0-2.5.797-3.062 1.61a.24.24 0 0 0 .031.312l.969.968c.125.11.203.125.328 0 .36-.484.797-.921 1.547-.921.812 0 1.344.5 1.344 1.218 0 .875-.72 1.532-1.11 1.922L.797-1.844a.46.46 0 0 0-.094.266v1.375c0 .125.094.203.219.203m0 0"/><path id="M" d="M3.531.188C5.391.188 6.86-.97 6.86-2.734c0-1.328-.812-2.11-1.671-2.453A2.23 2.23 0 0 0 6.53-7.281c0-1.672-1.406-2.625-2.984-2.625-1.281 0-2.281.64-2.813 1.469a.22.22 0 0 0 .047.312l.985.953c.109.11.234.125.312-.031.25-.453.703-.734 1.25-.734.625 0 1.125.406 1.125 1.03 0 .47-.281 1-1.078 1H3c-.14 0-.25.079-.25.235v1.266c0 .14.11.218.25.218h.39c.97 0 1.313.657 1.313 1.188 0 .64-.453 1.219-1.312 1.219-.657 0-1.094-.344-1.47-.797-.124-.11-.234-.11-.312-.016L.563-1.64c-.094.063-.125.188-.047.297C1.046-.5 2.063.188 3.53.188m0 0"/><path id="ae" d="M0-4.36v4.157h-4.156V-4.36Zm0 0"/><path id="af" d="M0 0"/><path id="ag" d="M0-.625v-1.984c0-.047-.031-.079-.078-.079h-.188c-.046 0-.078.032-.078.079v1.703H-2v-1.61c0-.062-.031-.078-.094-.078h-.172c-.046 0-.078.016-.078.078v1.61h-1.515V-2.61c0-.047-.032-.079-.079-.079h-.171c-.063 0-.094.032-.094.079v1.984q0 .094.094.094h4.03C-.03-.531 0-.562 0-.625m0 0"/><path id="ah" d="m-.11-3.734-4.015 1.453c-.047.031-.078.062-.078.11v.265c0 .047.031.093.078.11L-.109-.345c.062.031.109 0 .109-.062v-.219c0-.047-.016-.078-.078-.094l-.906-.328V-3.03l.906-.328c.062-.016.078-.032.078-.079v-.234c0-.062-.047-.094-.11-.062m-1.218 2.578-2.438-.875 2.438-.875Zm0 0"/><path id="ai" d="M0-1.031v-.203c0-.063-.031-.079-.078-.079H-4.11c-.063 0-.094.016-.094.079v.922c0 .046.031.062.094.062h.156c.047 0 .078-.016.078-.062v-.641h3.797C-.031-.953 0-.97 0-1.031m0 0"/><path id="aj" d="M0-.344v-2.11c0-.062-.031-.093-.078-.093h-.156q-.094 0-.094.094v1.765l-1.563-1.265c-.328-.281-.718-.594-1.234-.594-.61 0-1.125.438-1.125 1.172 0 .547.281.875.594 1.078.062.031.094.031.14-.016l.11-.124c.031-.032.031-.079-.016-.11-.203-.125-.484-.344-.484-.828 0-.5.344-.828.797-.828s.812.312 1.14.578L-.375-.312a.17.17 0 0 0 .11.046h.187c.047 0 .078-.03.078-.078m0 0"/><path id="ak" d="M.078-1.39c0-.766-.531-1.297-1.219-1.297-.562 0-.968.343-1.125.828-.203-.407-.546-.641-.968-.641-.563 0-1.016.438-1.016 1.063 0 .484.266.843.563 1.03.046.016.078.032.109 0l.125-.14c.031-.031.031-.078-.016-.11-.25-.155-.437-.39-.437-.75 0-.452.312-.75.719-.75.437 0 .78.329.78.829v.094c0 .062.016.078.079.078h.172c.047 0 .062-.016.062-.078v-.094c0-.516.328-1 .922-1 .531 0 .906.39.906.937 0 .47-.25.735-.453.875-.031.032-.047.063 0 .094l.125.14c.031.048.063.048.11.016.343-.25.562-.625.562-1.125m0 0"/><path id="al" d="M-1.547-.406v-1.797c0-.063-.016-.078-.078-.078h-.156c-.063 0-.078.015-.078.078v1.797c0 .047.015.062.078.062h.156c.063 0 .078-.015.078-.062m0 0"/><path id="am" d="M-.344-2.484v1.578h-3.765c-.063 0-.094.031-.094.078v.203q0 .094.094.094h4.03C-.03-.531 0-.562 0-.625v-1.86c0-.046-.031-.078-.094-.078H-.25c-.062 0-.094.032-.094.079m0 0"/><path id="an" d="M.078-2.562c0-1.204-.953-2.141-2.156-2.141-1.219 0-2.172.937-2.172 2.14 0 1.22.953 2.157 2.172 2.157A2.13 2.13 0 0 0 .078-2.562m-.36 0c0 1.015-.78 1.765-1.796 1.765-1.031 0-1.797-.75-1.797-1.765 0-1 .766-1.766 1.797-1.766 1.015 0 1.797.766 1.797 1.766m0 0"/><path id="ao" d="M.078-2.562C.078-3.75-.782-4.5-1.906-4.5h-.14q-.095 0-.095.094v1.781c0 .047.016.078.079.078h.187c.047 0 .078-.031.078-.078v-1.516c.875 0 1.516.657 1.516 1.579 0 1.015-.781 1.765-1.797 1.765-1.031 0-1.797-.75-1.797-1.765 0-.438.156-.844.453-1.188.031-.031.031-.062 0-.078l-.172-.156c-.031-.032-.062-.032-.094.015-.374.39-.562.844-.562 1.406 0 1.25.969 2.157 2.172 2.157S.078-1.312.078-2.562m0 0"/><path id="ap" d="M-4.203-3.36v.204c0 .047.031.078.094.078h3.593L-4.14-1.031c-.046.015-.062.062-.062.11v.296q0 .094.094.094h4.03C-.03-.531 0-.562 0-.625v-.203c0-.047-.031-.078-.078-.078h-3.61l3.626-2.047c.046-.016.062-.063.062-.11v-.296c0-.063-.031-.094-.078-.094H-4.11q-.094 0-.094.094m0 0"/><path id="aq" d="M0-1.687v-.25c0-.047-.016-.079-.078-.11L-3.734-3.25l3.656-1.203C-.016-4.47 0-4.5 0-4.547v-.266c0-.046-.016-.078-.078-.093l-4.016-1.25c-.062-.016-.11 0-.11.078v.203c0 .047.016.078.079.094L-.5-4.671-4.125-3.47c-.062.031-.078.063-.078.094v.25c0 .047.016.078.078.094L-.5-1.812-4.125-.703c-.062.015-.078.047-.078.094v.203c0 .062.047.094.11.078l4.015-1.25c.062-.031.078-.047.078-.11m0 0"/><path id="ar" d="M0-.625v-.203c0-.047-.031-.078-.078-.078H-1.61v-.828c0-.907-.547-1.375-1.297-1.375s-1.297.468-1.297 1.375v1.109q0 .094.094.094h4.03C-.03-.531 0-.562 0-.625m-1.953-.281H-3.86v-.797c0-.578.265-1.031.953-1.031.703 0 .953.453.953 1.03Zm0 0"/><path id="as" d="M.078-1.828c0-.844-.672-1.484-1.547-1.484s-1.547.64-1.547 1.484c0 .86.672 1.5 1.547 1.5s1.547-.64 1.547-1.5m-.344 0c0 .672-.5 1.156-1.203 1.156s-1.203-.484-1.203-1.156c0-.656.5-1.14 1.203-1.14s1.203.484 1.203 1.14m0 0"/><path id="at" d="M0-.547V-.75c0-.062-.031-.078-.078-.078H-1.86c-.313 0-.813-.14-.813-.688 0-.062 0-.125.031-.218.016-.047 0-.094-.062-.094h-.156q-.071 0-.094.047c-.047.047-.063.156-.063.265 0 .375.22.579.485.688l-.313.015c-.078 0-.094.016-.094.079v.187c0 .063.032.078.079.078h2.78C-.03-.469 0-.484 0-.547m0 0"/><path id="au" d="M.078-1.344c0-.14-.031-.36-.125-.36h-.14c-.063 0-.094.032-.079.126a.8.8 0 0 1 .016.187c0 .188-.078.266-.312.266h-2.079v-.5c0-.062-.015-.078-.078-.078h-.14c-.047 0-.079.016-.079.078v.5h-.703c-.046 0-.078.031-.078.078v.203c0 .063.031.078.078.078h.704v.391c0 .047.03.078.078.078h.14c.063 0 .078-.031.078-.078v-.39h2.11c.406 0 .61-.188.61-.579m0 0"/><path id="av" d="M.078-1.781c0-.547-.265-.938-.672-1.156l.516-.016c.047 0 .078-.016.078-.078v-.188c0-.062-.031-.078-.078-.078H-2.86c-.047 0-.079.016-.079.078v.188c0 .062.032.078.079.078l.53.015c-.405.22-.687.61-.687 1.157 0 .86.672 1.453 1.547 1.453S.078-.922.078-1.781m-.344-.047c0 .672-.484 1.156-1.203 1.156-.718 0-1.203-.484-1.203-1.156 0-.656.5-1.125 1.219-1.125.703 0 1.187.469 1.187 1.125m0 0"/><path id="aw" d="M-3.75-.656a.24.24 0 0 0-.234-.235.24.24 0 0 0-.235.235c0 .14.11.25.235.25s.234-.11.234-.25M0-.546V-.75c0-.062-.031-.078-.078-.078H-2.86c-.047 0-.079.015-.079.078v.203c0 .063.032.078.079.078h2.78C-.03-.469 0-.484 0-.547m0 0"/><path id="ax" d="M0-.797v-.219c0-.046-.031-.078-.078-.078h-2.563v-.593c0-.047-.015-.079-.078-.079h-.14c-.047 0-.079.032-.079.079v.593h-.609c-.281 0-.5-.062-.5-.406 0-.062 0-.125.016-.203 0-.031 0-.063-.047-.063h-.188c-.046 0-.062 0-.078.047a.7.7 0 0 0-.047.266c0 .484.282.719.75.719h.704v.359c0 .047.03.078.078.078h.14c.063 0 .078-.031.078-.078v-.36h2.563C-.031-.734 0-.75 0-.796m0 0"/><path id="az" d="M1.14-1.078v-.203a.12.12 0 0 0-.077-.11l-3.907-1.546c-.062-.016-.094 0-.094.062v.219c0 .047.016.062.063.094l2.484.937-2.484.953c-.047.016-.062.047-.062.094v.203c0 .063.03.094.093.063l2.86-1.125 1.047.421c.046.016.078 0 .078-.062m0 0"/><path id="aA" d="M.078-1.875c0-.406-.125-.781-.39-1.047-.032-.047-.063-.062-.125-.031l-.11.094c-.015.015-.015.062 0 .078.188.234.313.5.313.875 0 .765-.485 1.187-1.11 1.234v-2.297c0-.156-.078-.187-.281-.187-.719 0-1.39.5-1.39 1.36 0 .874.671 1.468 1.53 1.468.86 0 1.563-.578 1.563-1.547M-1.64-.672c-.64-.062-1.046-.484-1.046-1.11 0-.64.437-1.046 1.046-1.062Zm0 0"/><path id="aB" d="M0-.547V-.75c0-.062-.031-.078-.078-.078h-4.125c-.063 0-.094.015-.094.078v.203c0 .063.031.078.094.078h4.125C-.031-.469 0-.484 0-.547m0 0"/><path id="aC" d="M0-1.39v-.235a.12.12 0 0 0-.078-.11l-2.469-.874 2.469-.86A.12.12 0 0 0 0-3.579v-.25c0-.046-.031-.077-.078-.108l-2.766-.97c-.062-.015-.094 0-.094.063v.219c0 .047.016.078.063.094l2.484.828-2.484.875c-.047.015-.062.062-.062.11v.234c0 .046.015.093.062.109l2.484.86-2.484.843c-.047.016-.062.047-.062.094v.203c0 .063.03.094.093.063l2.766-.97A.12.12 0 0 0 0-1.39m0 0"/><path id="aD" d="M.078-1.984c0-.875-.672-1.47-1.547-1.47s-1.547.595-1.547 1.47c0 .53.266.937.672 1.156h-1.86c-.062 0-.093.015-.093.078v.203c0 .063.031.078.094.078h4.125C-.031-.469 0-.484 0-.547V-.75c0-.047-.031-.062-.078-.062l-.516-.016c.407-.219.672-.625.672-1.156m-.344.03c0 .657-.484 1.126-1.187 1.126-.719 0-1.219-.469-1.219-1.125s.485-1.14 1.203-1.14 1.203.484 1.203 1.14m0 0"/><path id="aE" d="M.078-1.844c0-.484-.187-.86-.484-1.11-.063-.03-.078-.046-.125-.015l-.11.125c-.062.047-.03.094.016.14.203.173.36.423.36.829 0 .688-.485 1.203-1.204 1.203-.718 0-1.203-.515-1.203-1.187 0-.422.156-.657.36-.86.03-.015.062-.078.015-.125l-.11-.11c-.046-.046-.077-.03-.124 0-.297.267-.485.642-.485 1.095 0 .875.657 1.53 1.547 1.53.875 0 1.547-.655 1.547-1.515m0 0"/><path id="aF" d="M0-.547V-.75c0-.062-.031-.078-.078-.078h-.797l-.562-.547 1.39-1.094A.14.14 0 0 0 0-2.579v-.218c0-.078-.047-.094-.094-.062l-1.593 1.265-1.172-1.093c-.032-.047-.079-.047-.079.03v.266c0 .047.016.079.047.11l1.579 1.453h-2.891c-.063 0-.094.015-.094.078v.203c0 .063.031.078.094.078h4.125C-.031-.469 0-.484 0-.547m0 0"/><path id="aG" d="M1.234-1.766c0-.78-.406-1.5-1.343-1.5h-2.75c-.047 0-.079.016-.079.079V-3c0 .063.032.078.079.078h.5c-.407.235-.657.625-.657 1.172 0 .828.625 1.422 1.485 1.422.89 0 1.5-.594 1.5-1.438 0-.53-.235-.921-.625-1.14h.531c.766 0 1.047.547 1.047 1.14 0 .313-.078.625-.235.86-.015.047-.015.078.016.11l.14.077c.048.016.095 0 .11-.047.156-.218.281-.593.281-1m-1.593-.046c0 .656-.453 1.14-1.172 1.14-.688 0-1.14-.484-1.14-1.14 0-.641.452-1.094 1.171-1.094.703 0 1.14.453 1.14 1.094m0 0"/><path id="aH" d="M.078-1.547c0-.5-.25-.828-.547-.984l.375-.016Q0-2.547 0-2.64v-.171c0-.063-.031-.079-.078-.079H-2.86c-.047 0-.079.016-.079.079v.203c0 .046.032.078.079.078h1.718c.547 0 .875.39.875.906 0 .5-.328.797-.875.797h-1.718c-.047 0-.079.015-.079.078v.203c0 .063.032.078.079.078h1.734c.781 0 1.203-.437 1.203-1.078m0 0"/><path id="aI" d="M0-.547V-.75c0-.062-.031-.078-.078-.078h-1.719c-.547 0-.875-.39-.875-.906s.328-.797.875-.797h1.719c.047 0 .078-.031.078-.078v-.203c0-.063-.031-.079-.078-.079h-1.734c-.782 0-1.204.422-1.204 1.063 0 .5.25.828.547 1l-.375.015c-.078 0-.094.016-.094.079v.187c0 .063.032.078.079.078h2.78C-.03-.469 0-.484 0-.547m0 0"/><path id="aJ" d="M.078-1.781c0-.547-.265-.938-.672-1.156l.516-.016c.047 0 .078-.016.078-.078v-.188c0-.062-.031-.078-.078-.078h-4.125c-.063 0-.094.016-.094.078v.203c0 .063.031.079.094.079h1.86c-.407.218-.673.624-.673 1.156 0 .86.672 1.453 1.547 1.453S.078-.922.078-1.781m-.344-.047c0 .672-.484 1.156-1.203 1.156-.718 0-1.203-.484-1.203-1.156 0-.656.5-1.125 1.219-1.125.703 0 1.187.469 1.187 1.125m0 0"/><path id="aK" d="M0-.625v-.203c0-.047-.031-.078-.078-.078h-3.547L-3.344-1l3.282-1.39C-.016-2.407 0-2.454 0-2.5v-.234c0-.047-.016-.079-.062-.11l-3.282-1.39-.281-.094h3.547c.047 0 .078-.031.078-.078v-.219c0-.047-.031-.078-.078-.078H-4.11c-.063 0-.094.031-.094.078v.328c0 .047.016.078.062.094L-.406-2.61l-3.735 1.578c-.046.015-.062.047-.062.093v.313q0 .094.094.094h4.03C-.03-.531 0-.562 0-.625m0 0"/><path id="aL" d="M.078-1.312c0-.532-.297-.985-.844-.985-.453 0-.671.313-.828.688l-.11.28c-.14.313-.25.532-.546.532-.312 0-.453-.265-.453-.531 0-.234.094-.438.297-.61.047-.062.062-.093 0-.156l-.078-.062c-.047-.031-.094-.047-.125 0a1.03 1.03 0 0 0-.407.844c0 .468.297.875.766.875.438 0 .64-.313.781-.672l.157-.344c.109-.281.25-.484.562-.484.328 0 .5.25.5.625 0 .343-.156.562-.344.734-.047.047-.047.11 0 .14l.078.063c.063.031.11.031.157-.016.187-.156.437-.453.437-.921m0 0"/><path id="aM" d="M1.031 0h.344c.094 0 .125-.047.125-.14v-3.266h2.61c.077 0 .14-.031.14-.125v-.297a.14.14 0 0 0-.14-.14H1.5v-2.47h2.734c.094 0 .141-.03.141-.125v-.28q0-.142-.14-.141H1.03q-.14 0-.14.14V-.14Q.89 0 1.03 0m0 0"/><path id="aN" d="M3.031.125c1.422 0 2.485-1.11 2.485-2.578 0-1.453-1.063-2.563-2.485-2.563-1.406 0-2.484 1.11-2.484 2.563C.547-.984 1.625.125 3.03.125m0-.578c-1.094 0-1.906-.828-1.906-2 0-1.156.813-2 1.906-2 1.094 0 1.906.844 1.906 2 0 1.172-.812 2-1.906 2m0 0"/><path id="aO" d="M.906 0h.36c.078 0 .125-.047.125-.14v-2.954c0-.515.218-1.36 1.14-1.36.078 0 .203 0 .344.048.094.031.172.015.172-.094v-.25c0-.094-.016-.125-.078-.172-.094-.062-.25-.094-.453-.094-.61 0-.953.36-1.141.813l-.016-.547c0-.11-.03-.14-.14-.14H.906c-.094 0-.125.046-.125.14v4.61c0 .093.031.14.125.14m0 0"/><path id="aQ" d="M1.344 0h.343c.094 0 .125-.047.125-.14v-4.25h1c.079 0 .141-.048.141-.126v-.234c0-.094-.062-.14-.14-.14h-1v-1.016c0-.469.109-.828.687-.828.094 0 .203 0 .328.03.063 0 .125 0 .125-.077v-.328c0-.079-.031-.094-.094-.125a1.2 1.2 0 0 0-.437-.063c-.813 0-1.203.453-1.203 1.234v1.172H.625c-.078 0-.14.047-.14.141v.234c0 .079.062.125.14.125h.594v4.25c0 .094.031.141.125.141m0 0"/><path id="aR" d="M2.563.125c.828 0 1.374-.422 1.656-.906l.031.625c0 .11.031.156.14.156h.298q.14 0 .14-.14v-4.61q0-.14-.14-.14h-.344c-.094 0-.125.046-.125.14v2.86c0 .89-.657 1.437-1.5 1.437-.86 0-1.328-.547-1.328-1.438V-4.75c0-.094-.047-.14-.125-.14h-.36c-.094 0-.125.046-.125.14v2.875c0 1.313.719 2 1.781 2m0 0"/><path id="aS" d="M2.219.125c.25 0 .61-.062.61-.203v-.234c0-.094-.048-.141-.204-.11-.078 0-.234.016-.312.016-.313 0-.454-.14-.454-.547v-3.438h.844c.094 0 .14-.046.14-.125v-.234q0-.14-.14-.14H1.86v-1.157c0-.094-.03-.14-.125-.14h-.343c-.079 0-.125.046-.125.14v1.156H.625c-.078 0-.14.047-.14.141v.234c0 .079.062.125.14.125h.64v3.516c0 .656.313 1 .954 1m0 0"/><path id="aT" d="M3.031-5.016c-.828 0-1.36.407-1.64.907V-7c0-.094-.047-.14-.125-.14h-.36c-.094 0-.125.046-.125.14v6.86c0 .093.031.14.125.14h.36c.078 0 .125-.047.125-.14V-3c0-.89.64-1.453 1.5-1.453.843 0 1.328.562 1.328 1.453v2.86c0 .093.031.14.125.14h.343q.141 0 .141-.14v-2.891c0-1.297-.719-1.985-1.797-1.985m0 0"/><path id="aU" d="M3.11.125c.687 0 1.312-.219 1.75-.64.077-.063.109-.11.046-.204l-.14-.187c-.032-.031-.11-.031-.141 0-.375.297-.828.5-1.453.5-1.266 0-1.969-.797-2.047-1.828h3.813c.265 0 .328-.125.328-.47 0-1.187-.828-2.312-2.282-2.312-1.453 0-2.437 1.11-2.437 2.547 0 1.422.969 2.594 2.562 2.594M1.124-2.719c.094-1.062.813-1.75 1.844-1.75 1.062 0 1.734.719 1.765 1.75Zm0 0"/><path id="aV" d="M1.094-6.234c.218 0 .39-.172.39-.391a.4.4 0 0 0-.39-.406.414.414 0 0 0-.407.406.4.4 0 0 0 .407.39M.906 0h.36c.078 0 .109-.047.109-.14v-4.61c0-.094-.031-.14-.11-.14H.907c-.094 0-.125.046-.125.14v4.61c0 .093.031.14.125.14m0 0"/><path id="aW" d="M.906 0h.36c.078 0 .125-.047.125-.14V-3c0-.89.64-1.453 1.5-1.453.843 0 1.328.562 1.328 1.453v2.86c0 .093.031.14.125.14h.343q.141 0 .141-.14v-2.891c0-1.297-.719-1.985-1.797-1.985-.828 0-1.36.407-1.64.907l-.032-.641c0-.11-.03-.14-.14-.14H.906c-.094 0-.125.046-.125.14v4.61c0 .093.031.14.125.14m0 0"/><path id="aX" d="M.906 0h.36c.078 0 .125-.047.125-.14v-2.891c0-.875.453-1.422 1.218-1.422.75 0 1.172.516 1.172 1.422v2.89c0 .094.031.141.11.141h.359c.094 0 .125-.047.125-.14v-2.891c0-.875.516-1.422 1.281-1.422.75 0 1.11.516 1.11 1.422v2.89c0 .094.03.141.125.141h.343c.094 0 .125-.047.125-.14v-2.938c0-1.297-.593-1.938-1.593-1.938-.86 0-1.297.438-1.547.985-.25-.657-.766-.985-1.453-.985-.735 0-1.157.391-1.391.844l-.016-.578c0-.11-.03-.14-.14-.14H.906c-.094 0-.125.046-.125.14v4.61c0 .093.031.14.125.14m0 0"/><path id="aY" d="M2.969.125c.89 0 1.562-.422 1.922-1.11l.015.844q0 .141.14.141h.313c.094 0 .125-.047.125-.14v-4.61c0-.094-.03-.14-.125-.14h-.312q-.14 0-.14.14l-.016.86c-.36-.672-1.032-1.126-1.922-1.126-1.438 0-2.422 1.11-2.422 2.563C.547-.984 1.53.125 2.969.125m.062-.578c-1.11 0-1.906-.797-1.906-2 0-1.188.797-1.985 1.906-1.985 1.11 0 1.875.813 1.875 2.016 0 1.188-.765 1.969-1.875 1.969m0 0"/><path id="aZ" d="M.906 1.89h.36c.078 0 .125-.046.125-.14V-.969C1.75-.297 2.42.125 3.313.125c1.437 0 2.421-1.11 2.421-2.578 0-1.453-.984-2.563-2.421-2.563-.891 0-1.563.454-1.938 1.125l-.016-.859c0-.094-.03-.14-.125-.14H.906c-.094 0-.125.046-.125.14v6.5c0 .094.031.14.125.14M3.25-.452c-1.11 0-1.875-.781-1.875-1.969 0-1.203.766-2.015 1.875-2.015 1.11 0 1.906.796 1.906 1.984 0 1.203-.797 2-1.906 2m0 0"/><path id="ba" d="M.906 0h.36c.078 0 .125-.047.125-.14V-7c0-.094-.047-.14-.125-.14h-.36c-.094 0-.125.046-.125.14v6.86c0 .093.031.14.125.14m0 0"/><path id="bb" d="M2.188.125c.874 0 1.64-.5 1.64-1.39 0-.766-.515-1.126-1.156-1.376l-.453-.187c-.547-.235-.906-.422-.906-.922 0-.516.437-.75.906-.75.375 0 .703.156 1.015.5.094.094.157.094.235 0l.11-.14c.062-.063.077-.141.015-.22a1.77 1.77 0 0 0-1.39-.656c-.798 0-1.47.5-1.47 1.282 0 .703.532 1.047 1.11 1.297l.578.234c.469.203.812.453.812.937 0 .563-.437.86-1.062.86-.547 0-.922-.266-1.219-.578C.875-1.078.781-1.063.734-1l-.109.156c-.062.078-.062.156.016.25.265.313.75.719 1.547.719m0 0"/><path id="bc" d="M3.078.125c.781 0 1.422-.312 1.828-.812.063-.079.094-.125.032-.188l-.188-.187c-.094-.094-.172-.047-.25.03-.297.329-.703.579-1.39.579-1.126 0-1.985-.813-1.985-2s.86-2 1.984-2c.672 0 1.079.266 1.407.61.046.062.125.109.218.015l.188-.188c.062-.062.047-.109-.016-.203-.422-.5-1.047-.797-1.828-.797-1.437 0-2.531 1.11-2.531 2.563C.547-.984 1.64.125 3.078.125m0 0"/><path id="bd" d="M.906 0h.36c.078 0 .125-.047.125-.14v-1.313l.89-.938L4.11-.094c.047.078.11.094.188.094h.36c.124 0 .155-.078.093-.156L2.64-2.812 4.485-4.75c.063-.062.063-.14-.046-.14h-.47c-.062 0-.109.015-.171.077L1.39-2.187V-7c0-.094-.047-.14-.125-.14h-.36c-.094 0-.125.046-.125.14v6.86c0 .093.031.14.125.14m0 0"/><path id="be" d="M2.953 2.047c1.281 0 2.485-.672 2.485-2.219V-4.75c0-.094-.032-.14-.125-.14h-.329c-.093 0-.125.046-.125.14v.813c-.375-.672-1.03-1.079-1.937-1.079-1.39 0-2.375 1.032-2.375 2.485 0 1.469.984 2.484 2.39 2.484.891 0 1.532-.406 1.907-1.047v.875c0 1.297-.922 1.75-1.922 1.75-.5 0-1.016-.125-1.422-.39-.062-.032-.125-.016-.172.03l-.125.235c-.031.078 0 .14.078.188.36.25.969.453 1.672.453M3-.61c-1.062 0-1.875-.735-1.875-1.922 0-1.172.813-1.922 1.875-1.922 1.078 0 1.844.766 1.844 1.953C4.844-1.344 4.078-.61 3-.61m0 0"/><path id="bf" d="M4.297.125c.719 0 1.437-.203 1.984-.672l-.328-.36c-.469.345-1.016.5-1.625.5-1.469 0-3.094-1.046-3.094-3.077 0-2.063 1.594-3.063 3.094-3.063s2.984.984 2.984 3.125c0 .89-.265 1.375-.828 1.375-.25 0-.609-.094-.546-.781l.218-2.281h-.39l-.172.578c-.297-.469-.797-.766-1.438-.766-1.078 0-1.843.828-1.843 1.875s.734 1.86 1.796 1.86c.594 0 1.11-.25 1.438-.672.125.453.469.672.922.672.578 0 1.39-.36 1.39-1.907 0-2.234-1.656-3.593-3.53-3.593-1.86 0-3.641 1.328-3.641 3.578C.688-1.281 2.422.125 4.297.125m-.14-2.187c-.829 0-1.329-.579-1.329-1.376 0-.78.5-1.359 1.328-1.359s1.36.578 1.36 1.36c0 .796-.532 1.374-1.36 1.374m0 0"/><path id="bg" d="M1.797 1.89h.344c.078 0 .14-.03.172-.109l2.562-6.5c.047-.11 0-.172-.11-.172h-.343c-.078 0-.125.032-.156.125L2.703-.656l-1.578-4.11c-.031-.093-.094-.125-.172-.125H.625c-.11 0-.156.063-.11.172L2.392.016 1.703 1.75q-.047.14.094.14m0 0"/><path id="bh" d="M1.703 0h.36c.078 0 .124-.047.124-.14v-6.704c0-.093-.046-.14-.124-.14H.53c-.094 0-.125.046-.125.14v.25c0 .094.031.14.125.14h1.063V-.14c0 .094.031.141.11.141m0 0"/><path id="bi" d="M.578 0h3.516q.14 0 .14-.14v-.266c0-.078-.046-.14-.14-.14H1.14L3.25-3.142c.469-.546 1-1.203 1-2.078 0-1-.734-1.843-1.953-1.843-.922 0-1.469.468-1.797.984-.062.094-.062.14.016.219l.203.187c.062.063.14.063.187-.016.219-.343.578-.828 1.375-.828.828 0 1.375.579 1.375 1.344 0 .75-.515 1.344-.953 1.89L.516-.624a.26.26 0 0 0-.079.203v.281Q.438 0 .579 0m0 0"/><path id="bj" d="M2.313.125c1.28 0 2.156-.875 2.156-2.016 0-.953-.578-1.625-1.375-1.89.672-.328 1.062-.906 1.062-1.61 0-.937-.718-1.671-1.765-1.671-.797 0-1.391.437-1.72.937-.03.063-.046.11 0 .172l.235.203c.063.047.125.047.188-.016.25-.421.656-.75 1.25-.75.765 0 1.234.532 1.234 1.204 0 .734-.547 1.296-1.36 1.296h-.155c-.11 0-.141.047-.141.125v.297c0 .078.031.11.14.11h.157c.844 0 1.64.53 1.64 1.53 0 .892-.64 1.517-1.546 1.517-.782 0-1.22-.438-1.454-.75-.046-.063-.093-.079-.156-.016L.47-1C.406-.937.39-.89.438-.812c.406.578 1.046.937 1.875.937m0 0"/><path id="bk" d="M.922.125c.25 0 .453-.187.453-.453a.453.453 0 0 0-.453-.453.467.467 0 0 0-.469.453c0 .266.219.453.469.453m0 0"/><clipPath id="a"><path d="M531 0h310.324v199H531Zm0 0"/></clipPath><clipPath id="b"><path d="M530 396h311v198.555H530Zm0 0"/></clipPath><clipPath id="W"><path d="M625 41.098h112V153H625Zm0 0"/></clipPath><clipPath id="X"><path d="M625 41.098h112v112.617H625Zm0 0"/></clipPath><clipPath id="Y"><path d="M624.793 41.098h112.621v112.617H624.793Zm0 0"/></clipPath><clipPath id="Z"><path d="M625 438.129h112V550H625Zm0 0"/></clipPath><clipPath id="aa"><path d="M625 438.129h112v112.617H625Zm0 0"/></clipPath><clipPath id="ab"><path d="M624.793 438.129h112.621v112.617H624.793Zm0 0"/></clipPath><clipPath id="ac"><path d="M625 241.281h112V353H625Zm0 0"/></clipPath><clipPath id="ad"><path d="M624.73 241.281h112.622v112.621H624.73Zm0 0"/></clipPath></defs><path fill="#fff" d="M531.613 197.52h309.098V.61H531.613Zm0 0"/><g clip-path="url(#a)"><path fill="none" stroke="#f4f4f4" stroke-width="1.22451654" d="M531.613 197.52h309.098V.613H531.613Zm0 0"/></g><path fill="#28477c" d="M530.969 593.941h309.097v-196.91H530.97Zm0 0"/><g clip-path="url(#b)"><path fill="none" stroke="#28477c" stroke-width="1.22451654" d="M530.969 593.941h309.097v-196.91H530.97Zm0 0"/></g><use xlink:href="#c" x="36.885" y="243.728" fill="#46464a"/><use xlink:href="#d" x="60.697" y="243.728" fill="#46464a"/><use xlink:href="#e" x="90.21" y="243.728" fill="#46464a"/><use xlink:href="#d" x="121.378" y="243.728" fill="#46464a"/><use xlink:href="#f" x="150.589" y="243.728" fill="#46464a"/><use xlink:href="#g" x="163.318" y="243.728" fill="#46464a"/><use xlink:href="#h" x="172.699" y="243.728" fill="#46464a"/><use xlink:href="#i" x="193.207" y="243.728" fill="#46464a"/><use xlink:href="#j" x="215.757" y="243.728" fill="#46464a"/><use xlink:href="#k" x="228.475" y="243.728" fill="#46464a"/><g fill="#46464a"><use xlink:href="#j" x="239.915" y="243.728"/><use xlink:href="#l" x="251.134" y="243.728"/></g><use xlink:href="#m" x="274.533" y="243.728" fill="#46464a"/><use xlink:href="#k" x="281.373" y="243.728" fill="#46464a"/><path fill="#fff" d="M36.883 404.297h376.93V269.672H36.882Zm0 0"/><use xlink:href="#n" x="36.885" y="280.859" fill="#46464a"/><g fill="#46464a"><use xlink:href="#o" x="43.904" y="280.859"/><use xlink:href="#p" x="51.469" y="280.859"/><use xlink:href="#q" x="54.224" y="280.859"/><use xlink:href="#r" x="60.124" y="280.859"/><use xlink:href="#p" x="62.655" y="280.859"/><use xlink:href="#q" x="65.41" y="280.859"/><use xlink:href="#r" x="71.311" y="280.859"/><use xlink:href="#s" x="73.842" y="280.859"/><use xlink:href="#o" x="78.232" y="280.859"/><use xlink:href="#t" x="85.797" y="280.859"/><use xlink:href="#r" x="93.642" y="280.859"/><use xlink:href="#q" x="96.173" y="280.859"/></g><g fill="#46464a"><use xlink:href="#t" x="102.005" y="280.859"/><use xlink:href="#u" x="109.849" y="280.859"/></g><g fill="#46464a"><use xlink:href="#v" x="116.995" y="280.859"/><use xlink:href="#w" x="125.203" y="280.859"/><use xlink:href="#x" x="132.767" y="280.859"/><use xlink:href="#y" x="141.269" y="280.859"/><use xlink:href="#z" x="149.771" y="280.859"/><use xlink:href="#A" x="154.357" y="280.859"/><use xlink:href="#r" x="161.628" y="280.859"/><use xlink:href="#B" x="164.159" y="280.859"/></g><g fill="#46464a"><use xlink:href="#v" x="168.256" y="280.859"/><use xlink:href="#z" x="176.464" y="280.859"/><use xlink:href="#C" x="181.051" y="280.859"/></g><use xlink:href="#r" x="192.461" y="280.859" fill="#46464a"/><use xlink:href="#v" x="36.885" y="298.837" fill="#46464a"/><g fill="#46464a"><use xlink:href="#B" x="44.953" y="298.837"/><use xlink:href="#r" x="49.469" y="298.837"/><use xlink:href="#s" x="52" y="298.837"/><use xlink:href="#o" x="56.391" y="298.837"/><use xlink:href="#t" x="63.956" y="298.837"/><use xlink:href="#r" x="71.8" y="298.837"/></g><g fill="#46464a"><use xlink:href="#D" x="74.33" y="298.837"/><use xlink:href="#E" x="81.741" y="298.837"/><use xlink:href="#F" x="90.047" y="298.837"/></g><use xlink:href="#G" x="95.794" y="298.837" fill="#46464a"/><g fill="#46464a"><use xlink:href="#E" x="103.135" y="298.837"/><use xlink:href="#H" x="111.441" y="298.837"/><use xlink:href="#I" x="119.342" y="298.837"/></g><use xlink:href="#J" x="124.208" y="298.837" fill="#46464a"/><use xlink:href="#K" x="131.982" y="298.837" fill="#ed1d24"/><g fill="#ed1d24"><use xlink:href="#L" x="138.666" y="298.837"/><use xlink:href="#M" x="145.923" y="298.837"/></g><g fill="#46464a"><use xlink:href="#r" x="152.942" y="298.837"/><use xlink:href="#N" x="155.473" y="298.837"/><use xlink:href="#v" x="158.227" y="298.837"/><use xlink:href="#O" x="166.435" y="298.837"/><use xlink:href="#v" x="174.867" y="298.837"/></g><use xlink:href="#r" x="183.355" y="298.837" fill="#46464a"/><g fill="#46464a"><use xlink:href="#y" x="36.885" y="316.815"/><use xlink:href="#w" x="45.386" y="316.815"/><use xlink:href="#x" x="52.951" y="316.815"/><use xlink:href="#r" x="61.453" y="316.815"/><use xlink:href="#q" x="63.984" y="316.815"/><use xlink:href="#o" x="69.884" y="316.815"/><use xlink:href="#v" x="77.449" y="316.815"/></g><g fill="#46464a"><use xlink:href="#P" x="85.587" y="316.815"/><use xlink:href="#N" x="93.152" y="316.815"/><use xlink:href="#x" x="95.907" y="316.815"/><use xlink:href="#r" x="104.408" y="316.815"/><use xlink:href="#v" x="106.939" y="316.815"/><use xlink:href="#w" x="115.147" y="316.815"/><use xlink:href="#N" x="122.712" y="316.815"/><use xlink:href="#A" x="125.467" y="316.815"/><use xlink:href="#r" x="132.738" y="316.815"/><use xlink:href="#Q" x="135.269" y="316.815"/><use xlink:href="#t" x="143.771" y="316.815"/><use xlink:href="#r" x="151.615" y="316.815"/><use xlink:href="#P" x="154.146" y="316.815"/><use xlink:href="#q" x="161.711" y="316.815"/></g><g fill="#46464a"><use xlink:href="#t" x="167.542" y="316.815"/><use xlink:href="#x" x="175.386" y="316.815"/></g><use xlink:href="#r" x="184.167" y="316.815" fill="#46464a"/><g fill="#46464a"><use xlink:href="#p" x="36.885" y="334.793"/><use xlink:href="#w" x="39.639" y="334.793"/><use xlink:href="#r" x="47.204" y="334.793"/><use xlink:href="#p" x="49.735" y="334.793"/><use xlink:href="#w" x="52.49" y="334.793"/><use xlink:href="#q" x="60.054" y="334.793"/></g><use xlink:href="#s" x="65.676" y="334.793" fill="#46464a"/><g fill="#46464a"><use xlink:href="#y" x="69.996" y="334.793"/><use xlink:href="#w" x="78.498" y="334.793"/><use xlink:href="#u" x="86.063" y="334.793"/></g><use xlink:href="#t" x="93.208" y="334.793" fill="#46464a"/><g fill="#46464a"><use xlink:href="#q" x="100.913" y="334.793"/><use xlink:href="#r" x="106.814" y="334.793"/><use xlink:href="#R" x="109.344" y="334.793"/><use xlink:href="#o" x="121.202" y="334.793"/><use xlink:href="#t" x="128.767" y="334.793"/><use xlink:href="#w" x="136.611" y="334.793"/><use xlink:href="#r" x="144.176" y="334.793"/><use xlink:href="#R" x="146.707" y="334.793"/><use xlink:href="#p" x="158.565" y="334.793"/><use xlink:href="#x" x="161.319" y="334.793"/></g><g fill="#46464a"><use xlink:href="#s" x="169.681" y="334.793"/><use xlink:href="#o" x="174.072" y="334.793"/></g><use xlink:href="#r" x="181.916" y="334.793" fill="#46464a"/><use xlink:href="#z" x="36.885" y="352.771" fill="#46464a"/><use xlink:href="#t" x="41.08" y="352.771" fill="#46464a"/><use xlink:href="#q" x="48.784" y="352.771" fill="#46464a"/><g fill="#46464a"><use xlink:href="#s" x="54.405" y="352.771"/><use xlink:href="#z" x="58.796" y="352.771"/><use xlink:href="#p" x="63.382" y="352.771"/><use xlink:href="#u" x="66.137" y="352.771"/></g><g fill="#46464a"><use xlink:href="#s" x="73.492" y="352.771"/><use xlink:href="#p" x="77.883" y="352.771"/><use xlink:href="#v" x="80.637" y="352.771"/><use xlink:href="#w" x="88.845" y="352.771"/><use xlink:href="#q" x="96.41" y="352.771"/><use xlink:href="#r" x="102.311" y="352.771"/><use xlink:href="#u" x="104.842" y="352.771"/></g><g fill="#46464a"><use xlink:href="#v" x="111.987" y="352.771"/><use xlink:href="#C" x="120.195" y="352.771"/><use xlink:href="#S" x="131.326" y="352.771"/><use xlink:href="#z" x="139.827" y="352.771"/></g><g fill="#46464a"><use xlink:href="#v" x="144.022" y="352.771"/><use xlink:href="#C" x="152.23" y="352.771"/><use xlink:href="#p" x="163.361" y="352.771"/><use xlink:href="#q" x="166.115" y="352.771"/></g><g fill="#46464a"><use xlink:href="#t" x="171.946" y="352.771"/><use xlink:href="#r" x="179.791" y="352.771"/><use xlink:href="#s" x="182.322" y="352.771"/><use xlink:href="#o" x="186.712" y="352.771"/><use xlink:href="#t" x="194.277" y="352.771"/></g><use xlink:href="#r" x="202.401" y="352.771" fill="#46464a"/><g fill="#46464a"><use xlink:href="#N" x="36.885" y="370.749"/><use xlink:href="#y" x="39.639" y="370.749"/><use xlink:href="#w" x="48.141" y="370.749"/><use xlink:href="#x" x="55.706" y="370.749"/><use xlink:href="#q" x="64.207" y="370.749"/></g><use xlink:href="#u" x="70.038" y="370.749" fill="#46464a"/><g fill="#46464a"><use xlink:href="#y" x="77.184" y="370.749"/><use xlink:href="#S" x="85.685" y="370.749"/><use xlink:href="#t" x="94.187" y="370.749"/><use xlink:href="#r" x="102.031" y="370.749"/><use xlink:href="#T" x="104.562" y="370.749"/></g><g fill="#46464a"><use xlink:href="#t" x="111.344" y="370.749"/><use xlink:href="#z" x="119.189" y="370.749"/><use xlink:href="#q" x="123.775" y="370.749"/><use xlink:href="#p" x="129.676" y="370.749"/><use xlink:href="#v" x="132.43" y="370.749"/><use xlink:href="#w" x="140.638" y="370.749"/><use xlink:href="#r" x="148.203" y="370.749"/><use xlink:href="#U" x="150.734" y="370.749"/></g><use xlink:href="#r" x="153.181" y="370.749" fill="#46464a"/><use xlink:href="#V" x="231.341" y="280.859" fill="#46464a"/><g fill="#46464a"><use xlink:href="#v" x="237.508" y="280.859"/><use xlink:href="#O" x="245.716" y="280.859"/><use xlink:href="#v" x="254.147" y="280.859"/></g><g fill="#46464a"><use xlink:href="#q" x="262.215" y="280.859"/><use xlink:href="#r" x="268.116" y="280.859"/><use xlink:href="#q" x="270.647" y="280.859"/><use xlink:href="#o" x="276.548" y="280.859"/><use xlink:href="#v" x="284.113" y="280.859"/></g><g fill="#46464a"><use xlink:href="#P" x="292.251" y="280.859"/><use xlink:href="#N" x="299.816" y="280.859"/><use xlink:href="#x" x="302.57" y="280.859"/><use xlink:href="#r" x="311.072" y="280.859"/><use xlink:href="#y" x="313.603" y="280.859"/><use xlink:href="#N" x="322.105" y="280.859"/><use xlink:href="#R" x="324.859" y="280.859"/></g><g fill="#46464a"><use xlink:href="#y" x="336.229" y="280.859"/><use xlink:href="#A" x="344.73" y="280.859"/></g><g fill="#46464a"><use xlink:href="#q" x="351.584" y="280.859"/><use xlink:href="#r" x="357.484" y="280.859"/><use xlink:href="#Q" x="360.015" y="280.859"/><use xlink:href="#t" x="368.517" y="280.859"/><use xlink:href="#r" x="376.361" y="280.859"/><use xlink:href="#P" x="378.892" y="280.859"/><use xlink:href="#q" x="386.457" y="280.859"/></g><g fill="#46464a"><use xlink:href="#t" x="392.288" y="280.859"/><use xlink:href="#x" x="400.133" y="280.859"/></g><use xlink:href="#r" x="408.914" y="280.859" fill="#46464a"/><use xlink:href="#u" x="231.341" y="298.837" fill="#46464a"/><g fill="#46464a"><use xlink:href="#v" x="238.486" y="298.837"/><use xlink:href="#C" x="246.694" y="298.837"/><use xlink:href="#S" x="257.825" y="298.837"/><use xlink:href="#N" x="266.326" y="298.837"/><use xlink:href="#t" x="269.081" y="298.837"/></g><use xlink:href="#s" x="276.786" y="298.837" fill="#46464a"/><g fill="#46464a"><use xlink:href="#t" x="281.106" y="298.837"/><use xlink:href="#r" x="288.951" y="298.837"/><use xlink:href="#y" x="291.482" y="298.837"/><use xlink:href="#w" x="299.984" y="298.837"/><use xlink:href="#x" x="307.548" y="298.837"/><use xlink:href="#r" x="316.05" y="298.837"/><use xlink:href="#C" x="318.581" y="298.837"/><use xlink:href="#P" x="329.711" y="298.837"/><use xlink:href="#q" x="337.276" y="298.837"/></g><g fill="#46464a"><use xlink:href="#s" x="342.897" y="298.837"/><use xlink:href="#r" x="347.288" y="298.837"/><use xlink:href="#w" x="349.819" y="298.837"/><use xlink:href="#t" x="357.384" y="298.837"/></g><use xlink:href="#T" x="364.739" y="298.837" fill="#46464a"/><g fill="#46464a"><use xlink:href="#t" x="371.521" y="298.837"/><use xlink:href="#z" x="379.365" y="298.837"/></g><g fill="#46464a"><use xlink:href="#r" x="383.812" y="298.837"/><use xlink:href="#Q" x="386.342" y="298.837"/><use xlink:href="#t" x="394.844" y="298.837"/></g><use xlink:href="#r" x="402.968" y="298.837" fill="#46464a"/><use xlink:href="#u" x="231.341" y="316.815" fill="#46464a"/><g fill="#46464a"><use xlink:href="#v" x="238.486" y="316.815"/><use xlink:href="#C" x="246.694" y="316.815"/><use xlink:href="#S" x="257.825" y="316.815"/><use xlink:href="#z" x="266.326" y="316.815"/></g><use xlink:href="#t" x="270.521" y="316.815" fill="#46464a"/><g fill="#46464a"><use xlink:href="#q" x="278.226" y="316.815"/><use xlink:href="#q" x="284.127" y="316.815"/></g><g fill="#46464a"><use xlink:href="#t" x="289.958" y="316.815"/><use xlink:href="#x" x="297.802" y="316.815"/><use xlink:href="#r" x="306.304" y="316.815"/><use xlink:href="#v" x="308.835" y="316.815"/><use xlink:href="#z" x="317.043" y="316.815"/></g><g fill="#46464a"><use xlink:href="#r" x="321.489" y="316.815"/><use xlink:href="#x" x="324.02" y="316.815"/><use xlink:href="#p" x="332.522" y="316.815"/><use xlink:href="#q" x="335.277" y="316.815"/></g><use xlink:href="#s" x="340.898" y="316.815" fill="#46464a"/><g fill="#46464a"><use xlink:href="#v" x="345.219" y="316.815"/><use xlink:href="#z" x="353.427" y="316.815"/></g><use xlink:href="#s" x="358.153" y="316.815" fill="#46464a"/><g fill="#46464a"><use xlink:href="#t" x="362.474" y="316.815"/><use xlink:href="#x" x="370.318" y="316.815"/><use xlink:href="#r" x="378.82" y="316.815"/><use xlink:href="#p" x="381.351" y="316.815"/><use xlink:href="#w" x="384.105" y="316.815"/></g><use xlink:href="#r" x="391.95" y="316.815" fill="#46464a"/><g fill="#46464a"><use xlink:href="#y" x="231.341" y="334.793"/><use xlink:href="#w" x="239.843" y="334.793"/></g><g fill="#46464a"><use xlink:href="#A" x="246.848" y="334.793"/><use xlink:href="#r" x="254.119" y="334.793"/><use xlink:href="#R" x="256.65" y="334.793"/></g><g fill="#46464a"><use xlink:href="#y" x="268.018" y="334.793"/><use xlink:href="#A" x="276.52" y="334.793"/></g><use xlink:href="#U" x="282.393" y="334.793" fill="#46464a"/><g clip-path="url(#W)"><path fill="#fff" d="M725.313 152.523h-88.418c-6.344 0-11.504-5.16-11.504-11.503V52.602c0-6.344 5.16-11.504 11.504-11.504h99.921v99.922c0 6.343-5.16 11.503-11.504 11.503"/></g><g clip-path="url(#X)"><path fill="#fff" d="M725.313 153.055h-88.418c-6.344 0-11.504-5.16-11.504-11.504V53.133c0-6.344 5.16-11.504 11.504-11.504h99.921v99.922c0 6.344-5.16 11.504-11.504 11.504"/></g><path fill="#ec1d27" d="M660.473 136.316V118.25a.42.42 0 0 0-.696-.316l-2.511.925a.42.42 0 0 1-.696-.316v-4.988a.41.41 0 0 1 .145-.317l3.64-1.91a.42.42 0 0 1 .274-.101h5.3c.231 0 .423.187.423.421v24.668c0 .23-.192.422-.422.422h-5.035a.423.423 0 0 1-.422-.422M669.504 136.316v-4.718c0-.106.039-.207.11-.286l9.132-9.91c.934-1.004 1.29-1.648 1.29-2.722 0-1.399-.79-2.368-2.294-2.368-.996 0-2.18.434-2.344 2.075-.023.222-.195.402-.421.402h-5.04a.427.427 0 0 1-.425-.437c.215-4.743 3.918-7.34 8.23-7.34 4.73 0 8.172 2.902 8.172 7.703 0 2.687-1.113 4.12-3.156 6.27l-5.422 5.742a.42.42 0 0 0 .309.707h7.847c.23 0 .422.187.422.421v4.461c0 .23-.191.422-.422.422h-15.57a.42.42 0 0 1-.418-.422M695.637 136.953c-4.117 0-8.274-2.144-8.485-7.555a.43.43 0 0 1 .426-.437h5.047c.223 0 .395.18.418.398.156 1.528 1.238 2.29 2.594 2.29 1.539 0 2.617-.895 2.617-2.723 0-1.54-1.149-2.688-2.727-2.688h-.82v-5.086h.82c1.758 0 2.438-1.254 2.438-2.402 0-1.613-1.11-2.437-2.328-2.437-1.117 0-2.145.726-2.305 2.03-.027.208-.187.372-.394.372h-5.07a.43.43 0 0 1-.427-.442c.22-4.535 3.786-7.261 8.196-7.261 4.73 0 8.207 3.152 8.207 7.558 0 2.461-1.055 3.813-2.188 4.66a.41.41 0 0 0-.008.657c1.254.984 2.48 2.504 2.48 5.218 0 5.34-4.01 7.848-8.491 7.848"/><path fill="#46464a" d="M657.195 99.055h-3.16c-1.222 0-1.98.683-1.98 1.636 0 .914.683 1.715 2.054 1.715 1.22 0 1.79-.117 2.477-.761.457-.422.61-1.067.61-2.06Zm.598 8.226a.446.446 0 0 1-.445-.449v-1.227c-1.258 1.258-2.399 1.868-4.57 1.868-2.06 0-3.774-.688-4.915-1.832-1.18-1.18-1.793-2.895-1.793-4.797 0-3.086 2.098-5.942 6.973-5.942h4.152v-.535c0-1.867-.914-2.55-3.086-2.55-1.433 0-2.132.304-2.972 1.081a.45.45 0 0 1-.614-.02l-3.25-3.253a.45.45 0 0 1 .008-.645c1.969-1.84 3.852-2.421 7.133-2.421 5.867 0 9.027 2.437 9.027 7.43v12.843c0 .25-.199.45-.445.45ZM676.457 107.281a.446.446 0 0 1-.445-.449v-1.227c-1.258 1.258-3.125 1.903-4.762 1.903-1.941 0-3.504-.645-4.61-1.75-1.753-1.754-2.058-3.695-2.058-5.867V87.234c0-.246.203-.445.45-.445h5.35c.247 0 .446.2.446.445v11.82c0 2.36 1.68 2.817 2.516 2.817.84 0 2.515-.457 2.515-2.816v-11.82c0-.247.2-.446.446-.446h5.351c.25 0 .45.2.45.445v19.598c0 .25-.2.45-.45.45ZM691.36 107.281c-4.532 0-6.36-3.238-6.36-6.058v-9.637h-1.422a.445.445 0 0 1-.445-.445v-3.907c0-.246.199-.445.445-.445H685v-4.621c0-.246.2-.445.445-.445h5.356c.246 0 .445.199.445.445v4.621h2.793c.246 0 .445.2.445.445v3.907c0 .246-.199.445-.445.445h-2.793v9.18c0 .8.418 1.257 1.258 1.257h1.535c.246 0 .445.2.445.446v4.363c0 .25-.199.45-.445.45ZM705.871 92.77c-.379-.383-.914-.575-1.676-.575s-1.293.192-1.675.575c-.801.796-.915 2.246-.915 4.265 0 2.02.114 3.465.915 4.266.382.379.914.57 1.675.57.762 0 1.297-.191 1.676-.57.8-.801.914-2.246.914-4.266s-.113-3.469-.914-4.265m4.914 12.109c-1.219 1.297-3.273 2.629-6.59 2.629-3.312 0-5.37-1.332-6.59-2.63-1.714-1.862-2.246-3.808-2.246-7.843 0-4 .532-5.98 2.246-7.847 1.22-1.297 3.278-2.63 6.59-2.63 3.317 0 5.371 1.333 6.59 2.63 1.715 1.867 2.246 3.847 2.246 7.847 0 4.035-.531 5.98-2.246 7.844M656.059 64.703c-.383-.879-1.22-1.601-2.704-1.601-1.488 0-2.324.722-2.707 1.601-.18.363-.273.742-.316 1.106a.45.45 0 0 0 .45.492h5.144c.265 0 .48-.23.449-.492a3.3 3.3 0 0 0-.316-1.106m-5.262 5.75a.457.457 0 0 0-.445.535c.246 1.453 1.5 2.664 3.574 2.664 1.96 0 2.93-.496 3.91-1.41a.455.455 0 0 1 .629.008l3.097 3.098c.18.18.176.472-.003.644-1.989 1.89-4.024 2.918-7.633 2.918-4.531 0-9.75-1.64-9.75-10.476 0-6.704 3.808-10.473 9.18-10.473 5.94 0 9.214 4.34 9.214 9.71v2.337c0 .246-.199.445-.445.445ZM673.883 70.453h-3.16c-1.22 0-1.98.684-1.98 1.637 0 .914.683 1.715 2.054 1.715 1.223 0 1.793-.114 2.476-.762.457-.418.61-1.066.61-2.055Zm.601 8.227c-.25 0-.449-.2-.449-.446v-1.23c-1.258 1.258-2.398 1.867-4.57 1.867-2.055 0-3.77-.683-4.914-1.828-1.18-1.18-1.79-2.895-1.79-4.8 0-3.087 2.094-5.942 6.97-5.942h4.152v-.531c0-1.868-.914-2.555-3.086-2.555-1.434 0-2.133.308-2.973 1.082a.44.44 0 0 1-.61-.02l-3.253-3.25a.454.454 0 0 1 .012-.648c1.965-1.84 3.847-2.418 7.129-2.418 5.867 0 9.03 2.437 9.03 7.426v12.847a.45.45 0 0 1-.448.446ZM689.54 78.91c-2.966 0-5.856-.14-8.58-2.648a.454.454 0 0 1-.01-.649l3.41-3.41a.45.45 0 0 1 .617-.012c1.66 1.422 3.671 1.422 4.675 1.422.914 0 2.668-.265 2.668-1.332 0-.57-.27-1.18-1.488-1.293l-3.16-.308c-3.543-.34-5.942-1.942-5.942-5.942 0-4.531 4.075-6.777 8.149-6.777 3.168 0 5.758.441 7.734 2.191a.45.45 0 0 1 .012.653l-3.223 3.222c-.164.164-.422.16-.605.02-1.043-.79-2.582-.945-4.031-.945-1.524 0-2.02.722-2.02 1.18 0 .23-.074.991 1.336 1.144l3.16.304c4.305.418 6.172 2.97 6.172 6.247 0 4.84-4.113 6.933-8.875 6.933M709.625 79.941c-.418 1.184-.95 2.059-1.598 2.704-1.218 1.296-3.082 1.718-4.91 1.718H701.2a.45.45 0 0 1-.445-.449v-4.742c0-.246.2-.45.445-.45h.887c1.105 0 2.133-.566 2.598-1.722 0 0 .101-.215 0-.48l-6.543-17.727a.448.448 0 0 1 .422-.602h5.585c.192 0 .364.125.422.309l2.934 8.988c.133.414.719.41.851-.008l2.797-8.976a.45.45 0 0 1 .43-.313h5.578c.313 0 .528.309.422.602Zm0 0"/><g clip-path="url(#Y)"><path fill="#f9df27" d="M636.422 45.324c-4.082 0-7.399 3.32-7.399 7.403v89.363c0 4.078 3.317 7.398 7.399 7.398h89.363c4.078 0 7.399-3.32 7.399-7.398V45.324Zm100.992-4.226V142.09c0 6.41-5.219 11.625-11.629 11.625h-89.363c-6.414 0-11.629-5.215-11.629-11.625V52.727c0-6.414 5.215-11.63 11.629-11.63"/></g><g clip-path="url(#Z)"><path fill="#fff" d="M725.313 549.555h-88.418c-6.344 0-11.504-5.16-11.504-11.504v-88.418c0-6.344 5.16-11.504 11.504-11.504h99.921v99.922c0 6.344-5.16 11.504-11.504 11.504"/></g><g clip-path="url(#aa)"><path fill="#fff" d="M725.313 550.086h-88.418c-6.344 0-11.504-5.16-11.504-11.504v-88.418c0-6.344 5.16-11.504 11.504-11.504h99.921v99.922c0 6.344-5.16 11.504-11.504 11.504"/></g><path fill="#ec1d27" d="M660.473 533.348V515.28a.42.42 0 0 0-.696-.316l-2.511.926a.42.42 0 0 1-.696-.317v-4.988a.41.41 0 0 1 .145-.316l3.64-1.91a.42.42 0 0 1 .274-.102h5.3c.231 0 .423.187.423.422v24.668c0 .23-.192.422-.422.422h-5.035a.423.423 0 0 1-.422-.422M669.504 533.348v-4.72c0-.105.039-.206.11-.284l9.132-9.91c.934-1.004 1.29-1.649 1.29-2.723 0-1.399-.79-2.367-2.294-2.367-.996 0-2.18.433-2.344 2.074a.43.43 0 0 1-.421.398h-5.04a.424.424 0 0 1-.425-.433c.215-4.742 3.918-7.34 8.23-7.34 4.73 0 8.172 2.902 8.172 7.703 0 2.688-1.113 4.121-3.156 6.27l-5.422 5.742a.42.42 0 0 0 .309.707h7.847c.23 0 .422.187.422.422v4.46c0 .231-.191.423-.422.423h-15.57a.42.42 0 0 1-.418-.422M695.637 533.984c-4.117 0-8.274-2.144-8.485-7.554a.43.43 0 0 1 .426-.438h5.047c.223 0 .395.176.418.399.156 1.527 1.238 2.289 2.594 2.289 1.539 0 2.617-.895 2.617-2.723 0-1.539-1.149-2.687-2.727-2.687h-.82v-5.086h.82c1.758 0 2.438-1.254 2.438-2.403 0-1.613-1.11-2.437-2.328-2.437-1.117 0-2.145.722-2.305 2.031-.027.207-.187.371-.394.371h-5.07a.43.43 0 0 1-.427-.441c.22-4.535 3.786-7.262 8.196-7.262 4.73 0 8.207 3.152 8.207 7.559 0 2.46-1.055 3.808-2.188 4.66a.41.41 0 0 0-.008.656c1.254.984 2.48 2.5 2.48 5.219 0 5.34-4.01 7.847-8.491 7.847"/><path fill="#46464a" d="M657.195 496.082h-3.16c-1.222 0-1.98.688-1.98 1.64 0 .915.683 1.716 2.054 1.716 1.22 0 1.79-.118 2.477-.766.457-.418.61-1.067.61-2.055Zm.598 8.23a.45.45 0 0 1-.445-.449v-1.226c-1.258 1.254-2.399 1.863-4.57 1.863-2.06 0-3.774-.684-4.915-1.828-1.18-1.18-1.793-2.895-1.793-4.797 0-3.086 2.098-5.941 6.973-5.941h4.152v-.536c0-1.867-.914-2.55-3.086-2.55-1.433 0-2.132.304-2.972 1.078a.45.45 0 0 1-.614-.016l-3.25-3.254a.45.45 0 0 1 .008-.644c1.969-1.84 3.852-2.422 7.133-2.422 5.867 0 9.027 2.437 9.027 7.43v12.843c0 .246-.199.45-.445.45ZM676.457 504.313a.45.45 0 0 1-.445-.45v-1.226c-1.258 1.254-3.125 1.902-4.762 1.902-1.941 0-3.504-.648-4.61-1.75-1.753-1.754-2.058-3.695-2.058-5.867v-12.656c0-.246.203-.446.45-.446h5.35c.247 0 .446.2.446.446v11.816c0 2.363 1.68 2.82 2.516 2.82.84 0 2.515-.457 2.515-2.82v-11.816c0-.246.2-.446.446-.446h5.351c.25 0 .45.2.45.446v19.597c0 .246-.2.45-.45.45ZM691.36 504.313c-4.532 0-6.36-3.239-6.36-6.06v-9.636h-1.422a.445.445 0 0 1-.445-.445v-3.906c0-.246.199-.446.445-.446H685v-4.62c0-.247.2-.446.445-.446h5.356c.246 0 .445.2.445.445v4.621h2.793c.246 0 .445.2.445.446v3.906c0 .246-.199.445-.445.445h-2.793v9.18c0 .8.418 1.258 1.258 1.258h1.535c.246 0 .445.199.445.445v4.363c0 .246-.199.45-.445.45ZM705.871 489.8c-.379-.382-.914-.573-1.676-.573s-1.293.191-1.675.574c-.801.797-.915 2.246-.915 4.265 0 2.02.114 3.465.915 4.266.382.379.914.57 1.675.57.762 0 1.297-.191 1.676-.57.8-.8.914-2.246.914-4.266s-.113-3.468-.914-4.265m4.914 12.11c-1.219 1.296-3.273 2.628-6.59 2.628-3.312 0-5.37-1.332-6.59-2.629-1.714-1.867-2.246-3.808-2.246-7.844 0-4 .532-5.98 2.246-7.847 1.22-1.297 3.278-2.63 6.59-2.63 3.317 0 5.371 1.333 6.59 2.63 1.715 1.867 2.246 3.847 2.246 7.847 0 4.036-.531 5.977-2.246 7.844M656.059 461.73c-.383-.875-1.22-1.597-2.704-1.597-1.488 0-2.324.722-2.707 1.597-.18.364-.273.747-.316 1.11a.45.45 0 0 0 .45.492h5.144c.265 0 .48-.23.449-.492a3.3 3.3 0 0 0-.316-1.11m-5.262 5.754a.457.457 0 0 0-.445.536c.246 1.453 1.5 2.664 3.574 2.664 1.96 0 2.93-.497 3.91-1.41a.455.455 0 0 1 .629.003l3.097 3.102c.18.18.176.473-.003.644-1.989 1.891-4.024 2.918-7.633 2.918-4.531 0-9.75-1.64-9.75-10.476 0-6.703 3.808-10.473 9.18-10.473 5.94 0 9.214 4.34 9.214 9.711v2.332c0 .25-.199.45-.445.45ZM673.883 467.484h-3.16c-1.22 0-1.98.684-1.98 1.637 0 .914.683 1.715 2.054 1.715 1.223 0 1.793-.113 2.476-.762.457-.418.61-1.066.61-2.058Zm.601 8.227c-.25 0-.449-.2-.449-.445v-1.23c-1.258 1.257-2.398 1.866-4.57 1.866-2.055 0-3.77-.687-4.914-1.828-1.18-1.183-1.79-2.894-1.79-4.8 0-3.087 2.094-5.942 6.97-5.942h4.152v-.535c0-1.863-.914-2.55-3.086-2.55-1.434 0-2.133.304-2.973 1.081a.44.44 0 0 1-.61-.02l-3.253-3.25a.454.454 0 0 1 .012-.648c1.965-1.84 3.847-2.422 7.129-2.422 5.867 0 9.03 2.442 9.03 7.43v12.848a.45.45 0 0 1-.448.445ZM689.54 475.941c-2.966 0-5.856-.14-8.58-2.648a.454.454 0 0 1-.01-.648l3.41-3.41a.45.45 0 0 1 .617-.012c1.66 1.422 3.671 1.422 4.675 1.422.914 0 2.668-.266 2.668-1.332 0-.57-.27-1.18-1.488-1.297l-3.16-.305c-3.543-.34-5.942-1.941-5.942-5.941 0-4.532 4.075-6.778 8.149-6.778 3.168 0 5.758.442 7.734 2.192a.45.45 0 0 1 .012.652l-3.223 3.223c-.164.164-.422.16-.605.02-1.043-.79-2.582-.946-4.031-.946-1.524 0-2.02.722-2.02 1.18 0 .23-.074.992 1.336 1.144l3.16.305c4.305.418 6.172 2.968 6.172 6.246 0 4.836-4.113 6.933-8.875 6.933M709.625 476.973c-.418 1.18-.95 2.058-1.598 2.707-1.218 1.293-3.082 1.71-4.91 1.71H701.2a.445.445 0 0 1-.445-.445v-4.742c0-.25.2-.45.445-.45h.887c1.105 0 2.133-.565 2.598-1.722 0 0 .101-.215 0-.48l-6.543-17.727a.448.448 0 0 1 .422-.601h5.585c.192 0 .364.125.422.308l2.934 8.989c.133.414.719.41.851-.008l2.797-8.977a.45.45 0 0 1 .43-.312h5.578c.313 0 .528.308.422.601Zm0 0"/><g clip-path="url(#ab)"><path fill="#f9df27" d="M636.422 442.355c-4.082 0-7.399 3.32-7.399 7.399v89.367c0 4.078 3.317 7.399 7.399 7.399h89.363c4.078 0 7.399-3.32 7.399-7.399v-96.766Zm100.992-4.226V539.12c0 6.41-5.219 11.625-11.629 11.625h-89.363c-6.414 0-11.629-5.215-11.629-11.625v-89.367c0-6.41 5.215-11.625 11.629-11.625"/></g><path fill="#ffde3f" stroke="#ffde3f" stroke-width="1.22451654" d="M531.117 395.555h309.098v-196.91H531.117Zm0 0"/><g clip-path="url(#ac)"><path fill="#f9df27" d="M725.25 352.707h-88.418c-6.344 0-11.504-5.16-11.504-11.5v-88.422c0-6.344 5.16-11.504 11.504-11.504h99.922v99.926c0 6.34-5.16 11.5-11.504 11.5"/></g><path fill="#46464a" d="M657.133 299.238h-3.16c-1.22 0-1.98.684-1.98 1.637 0 .914.683 1.715 2.054 1.715 1.219 0 1.789-.113 2.476-.762.457-.418.61-1.066.61-2.058Zm.597 8.227a.446.446 0 0 1-.445-.45v-1.226c-1.258 1.258-2.398 1.867-4.57 1.867-2.059 0-3.77-.687-4.914-1.828-1.18-1.183-1.79-2.894-1.79-4.8 0-3.087 2.094-5.942 6.97-5.942h4.152v-.535c0-1.863-.914-2.551-3.086-2.551-1.434 0-2.133.305-2.973 1.082a.443.443 0 0 1-.61-.02l-3.253-3.253a.453.453 0 0 1 .008-.645c1.968-1.84 3.851-2.422 7.133-2.422 5.867 0 9.027 2.438 9.027 7.43v12.844c0 .25-.2.449-.445.449ZM676.395 307.465a.445.445 0 0 1-.446-.445v-1.23c-1.258 1.257-3.125 1.901-4.761 1.901-1.942 0-3.504-.644-4.61-1.75-1.75-1.753-2.055-3.695-2.055-5.867v-12.656c0-.246.2-.445.446-.445h5.351c.25 0 .45.199.45.445v11.82c0 2.36 1.675 2.817 2.511 2.817.84 0 2.516-.457 2.516-2.817v-11.82c0-.246.2-.445.445-.445h5.356c.246 0 .445.199.445.445v19.602c0 .246-.2.445-.445.445ZM691.297 307.465c-4.531 0-6.36-3.238-6.36-6.059v-9.636h-1.421a.445.445 0 0 1-.446-.446v-3.906c0-.246.2-.445.446-.445h1.422v-4.621c0-.247.199-.446.445-.446h5.355c.246 0 .446.2.446.446v4.62h2.793c.246 0 .445.2.445.446v3.906c0 .246-.2.446-.445.446h-2.793v9.183c0 .797.418 1.254 1.257 1.254h1.536c.246 0 .445.203.445.45v4.363c0 .246-.2.445-.445.445ZM705.809 292.953c-.38-.383-.914-.574-1.676-.574s-1.293.191-1.676.574c-.8.8-.914 2.246-.914 4.266s.113 3.465.914 4.265c.383.383.914.57 1.676.57s1.297-.187 1.676-.57c.8-.8.914-2.246.914-4.265 0-2.02-.114-3.465-.914-4.266m4.914 12.113c-1.22 1.293-3.274 2.625-6.59 2.625-3.313 0-5.371-1.332-6.59-2.625-1.711-1.867-2.246-3.808-2.246-7.847 0-4 .535-5.98 2.246-7.848 1.219-1.293 3.277-2.629 6.59-2.629 3.316 0 5.37 1.336 6.59 2.63 1.715 1.866 2.25 3.847 2.25 7.847 0 4.039-.535 5.98-2.25 7.847"/><path fill="#ec1d27" d="M660.414 336.5v-18.066a.42.42 0 0 0-.695-.317l-2.516.93a.42.42 0 0 1-.695-.32v-4.989c0-.12.054-.238.144-.316l3.641-1.906a.43.43 0 0 1 .277-.106h5.297a.42.42 0 0 1 .422.422V336.5a.42.42 0 0 1-.422.422h-5.035a.42.42 0 0 1-.418-.422M669.441 336.5v-4.719a.4.4 0 0 1 .11-.281l9.133-9.914c.933-1.004 1.293-1.649 1.293-2.723 0-1.398-.79-2.363-2.293-2.363-1 0-2.184.43-2.348 2.07-.024.223-.195.403-.418.403h-5.043a.427.427 0 0 1-.426-.438c.215-4.738 3.918-7.34 8.235-7.34 4.726 0 8.168 2.903 8.168 7.703 0 2.688-1.114 4.122-3.153 6.27l-5.426 5.742a.42.42 0 0 0 .309.707h7.848c.23 0 .422.192.422.422v4.461a.423.423 0 0 1-.422.422h-15.57a.42.42 0 0 1-.419-.422M695.574 337.137c-4.117 0-8.27-2.145-8.484-7.555a.43.43 0 0 1 .426-.437h5.047c.222 0 .394.18.417.398.157 1.527 1.239 2.289 2.594 2.289 1.543 0 2.617-.894 2.617-2.723 0-1.539-1.148-2.687-2.722-2.687h-.824v-5.086h.824c1.754 0 2.433-1.254 2.433-2.399 0-1.613-1.109-2.437-2.328-2.437-1.117 0-2.14.723-2.304 2.027-.028.207-.188.371-.395.371h-5.066a.43.43 0 0 1-.43-.437c.219-4.54 3.785-7.266 8.195-7.266 4.73 0 8.207 3.153 8.207 7.559 0 2.46-1.054 3.812-2.187 4.66a.412.412 0 0 0-.008.656c1.254.985 2.48 2.504 2.48 5.22 0 5.339-4.011 7.847-8.492 7.847"/><path fill="#46464a" d="M655.996 264.887c-.379-.88-1.219-1.602-2.703-1.602s-2.324.723-2.707 1.602c-.18.363-.274.742-.313 1.105a.443.443 0 0 0 .446.492h5.148a.443.443 0 0 0 .446-.492 3.2 3.2 0 0 0-.317-1.105m-5.262 5.75a.457.457 0 0 0-.445.535c.246 1.453 1.5 2.664 3.574 2.664 1.965 0 2.93-.496 3.914-1.41a.45.45 0 0 1 .625.008l3.102 3.101a.45.45 0 0 1-.008.64c-1.984 1.891-4.023 2.919-7.633 2.919-4.531 0-9.75-1.637-9.75-10.477 0-6.703 3.809-10.472 9.18-10.472 5.941 0 9.219 4.343 9.219 9.71v2.336a.45.45 0 0 1-.45.446ZM673.82 270.637h-3.16c-1.219 0-1.98.687-1.98 1.636 0 .914.687 1.715 2.058 1.715 1.219 0 1.79-.113 2.473-.761.46-.418.61-1.067.61-2.055Zm.602 8.226a.445.445 0 0 1-.445-.445v-1.23c-1.258 1.257-2.403 1.867-4.575 1.867-2.054 0-3.77-.684-4.914-1.828-1.18-1.18-1.789-2.895-1.789-4.801 0-3.082 2.094-5.942 6.973-5.942h4.148v-.53c0-1.868-.914-2.556-3.082-2.556-1.433 0-2.133.309-2.976 1.082a.44.44 0 0 1-.61-.02l-3.254-3.25a.457.457 0 0 1 .012-.647c1.969-1.84 3.852-2.418 7.133-2.418 5.863 0 9.027 2.437 9.027 7.425v12.848a.45.45 0 0 1-.449.445ZM689.477 279.094c-2.965 0-5.856-.14-8.579-2.649a.454.454 0 0 1-.007-.648l3.406-3.41a.45.45 0 0 1 .617-.012c1.664 1.426 3.676 1.426 4.676 1.426.914 0 2.668-.27 2.668-1.336 0-.57-.266-1.18-1.485-1.293l-3.164-.305c-3.543-.344-5.941-1.945-5.941-5.945 0-4.531 4.074-6.777 8.152-6.777 3.164 0 5.754.44 7.73 2.19a.45.45 0 0 1 .013.653l-3.223 3.223c-.164.164-.418.164-.606.02-1.043-.79-2.582-.946-4.027-.946-1.527 0-2.02.723-2.02 1.18 0 .23-.078.992 1.333 1.144l3.16.305c4.304.418 6.172 2.973 6.172 6.246 0 4.84-4.114 6.934-8.875 6.934M709.563 280.129c-.418 1.18-.95 2.055-1.598 2.703-1.219 1.293-3.082 1.715-4.91 1.715h-1.914c-.25 0-.45-.2-.45-.45v-4.742c0-.246.2-.445.45-.445h.882c1.106 0 2.133-.57 2.598-1.723 0 0 .102-.218 0-.484l-6.539-17.726a.445.445 0 0 1 .418-.602h5.586c.191 0 .363.125.426.309l2.93 8.988c.136.414.722.41.851-.004l2.8-8.977a.444.444 0 0 1 .427-.316h5.582c.308 0 .523.313.418.602Zm0 0"/><g clip-path="url(#ad)"><path fill="#fff" d="M636.36 245.512c-4.079 0-7.4 3.316-7.4 7.398v89.363c0 4.079 3.321 7.399 7.4 7.399h89.363c4.082 0 7.402-3.32 7.402-7.399v-96.761Zm100.992-4.23v100.991c0 6.41-5.215 11.625-11.63 11.625H636.36c-6.41 0-11.629-5.214-11.629-11.625V252.91c0-6.414 5.22-11.629 11.63-11.629"/></g><use xlink:href="#ae" x="525.838" y="393.585" fill="#ed1d24"/><use xlink:href="#af" x="525.838" y="389.083" fill="#28477c"/><use xlink:href="#ag" x="525.838" y="387.478" fill="#46464a"/><g fill="#46464a"><use xlink:href="#ah" x="525.838" y="384.433"/><use xlink:href="#ai" x="525.838" y="380.424"/><use xlink:href="#aj" x="525.838" y="378.776"/><use xlink:href="#ak" x="525.838" y="375.876"/><use xlink:href="#al" x="525.838" y="372.927"/><use xlink:href="#am" x="525.838" y="370.375"/></g><g fill="#46464a"><use xlink:href="#an" x="525.838" y="367.822"/><use xlink:href="#ao" x="525.838" y="362.77"/><use xlink:href="#an" x="525.838" y="357.982"/><use xlink:href="#al" x="525.838" y="352.93"/><use xlink:href="#ap" x="525.838" y="350.377"/><use xlink:href="#ag" x="525.838" y="346.458"/></g><g fill="#46464a"><use xlink:href="#aq" x="525.838" y="343.413"/><use xlink:href="#al" x="525.838" y="336.995"/><use xlink:href="#ar" x="525.838" y="334.442"/></g><g fill="#46464a"><use xlink:href="#as" x="525.838" y="331.23"/><use xlink:href="#at" x="525.838" y="327.652"/></g><g fill="#46464a"><use xlink:href="#au" x="525.838" y="325.567"/><use xlink:href="#at" x="525.838" y="323.625"/></g><g fill="#46464a"><use xlink:href="#av" x="525.838" y="321.768"/><use xlink:href="#aw" x="525.838" y="318.064"/></g><g fill="#46464a"><use xlink:href="#au" x="525.838" y="316.884"/><use xlink:href="#al" x="525.838" y="314.942"/><use xlink:href="#ax" x="525.838" y="312.389"/></g><g fill="#46464a"><use xlink:href="#as" x="525.838" y="310.573"/><use xlink:href="#at" x="525.838" y="306.996"/></g><g fill="#46464a"><use xlink:href="#ay" x="525.838" y="305.03"/><use xlink:href="#az" x="525.838" y="303.885"/></g><g fill="#46464a"><use xlink:href="#aA" x="525.838" y="300.919"/><use xlink:href="#aB" x="525.838" y="297.497"/><use xlink:href="#aB" x="525.838" y="296.257"/><use xlink:href="#as" x="525.838" y="295.016"/></g><g fill="#46464a"><use xlink:href="#aC" x="525.838" y="291.648"/><use xlink:href="#ay" x="525.838" y="286.507"/><use xlink:href="#aD" x="525.838" y="285.362"/><use xlink:href="#av" x="525.838" y="281.658"/><use xlink:href="#aE" x="525.838" y="277.955"/><use xlink:href="#aF" x="525.838" y="274.713"/></g><g fill="#46464a"><use xlink:href="#aG" x="525.838" y="271.908"/><use xlink:href="#at" x="525.838" y="268.235"/></g><use xlink:href="#as" x="525.838" y="266.377" fill="#46464a"/><g fill="#46464a"><use xlink:href="#aH" x="525.838" y="262.829"/><use xlink:href="#aI" x="525.838" y="259.527"/><use xlink:href="#aJ" x="525.838" y="256.225"/></g><use xlink:href="#ae" x="525.838" y="194.834" fill="#ed1d24"/><use xlink:href="#af" x="525.838" y="190.332" fill="#28477c"/><use xlink:href="#ag" x="525.838" y="188.727" fill="#46464a"/><g fill="#46464a"><use xlink:href="#ah" x="525.838" y="185.683"/><use xlink:href="#ai" x="525.838" y="181.674"/><use xlink:href="#aj" x="525.838" y="180.026"/><use xlink:href="#ak" x="525.838" y="177.125"/><use xlink:href="#al" x="525.838" y="174.177"/><use xlink:href="#am" x="525.838" y="171.624"/></g><g fill="#46464a"><use xlink:href="#an" x="525.838" y="169.071"/><use xlink:href="#ao" x="525.838" y="164.019"/><use xlink:href="#an" x="525.838" y="159.231"/><use xlink:href="#al" x="525.838" y="154.179"/><use xlink:href="#ap" x="525.838" y="151.626"/><use xlink:href="#ag" x="525.838" y="147.707"/></g><g fill="#46464a"><use xlink:href="#aq" x="525.838" y="144.663"/><use xlink:href="#al" x="525.838" y="138.245"/><use xlink:href="#ar" x="525.838" y="135.692"/></g><g fill="#46464a"><use xlink:href="#as" x="525.838" y="132.48"/><use xlink:href="#at" x="525.838" y="128.902"/></g><g fill="#46464a"><use xlink:href="#au" x="525.838" y="126.817"/><use xlink:href="#at" x="525.838" y="124.875"/></g><g fill="#46464a"><use xlink:href="#av" x="525.838" y="123.017"/><use xlink:href="#aw" x="525.838" y="119.314"/></g><g fill="#46464a"><use xlink:href="#au" x="525.838" y="118.133"/><use xlink:href="#al" x="525.838" y="116.192"/><use xlink:href="#aK" x="525.838" y="113.639"/><use xlink:href="#av" x="525.838" y="108.473"/><use xlink:href="#aL" x="525.838" y="104.769"/></g><use xlink:href="#au" x="525.838" y="102.3" fill="#46464a"/><g fill="#46464a"><use xlink:href="#aA" x="525.838" y="100.389"/><use xlink:href="#at" x="525.838" y="96.967"/></g><use xlink:href="#ae" x="525.838" y="584.974" fill="#ed1d24"/><use xlink:href="#af" x="525.838" y="580.472" fill="#28477c"/><use xlink:href="#ag" x="525.838" y="578.867" fill="#46464a"/><g fill="#46464a"><use xlink:href="#ah" x="525.838" y="575.823"/><use xlink:href="#ai" x="525.838" y="571.814"/><use xlink:href="#aj" x="525.838" y="570.166"/><use xlink:href="#ak" x="525.838" y="567.265"/><use xlink:href="#al" x="525.838" y="564.317"/><use xlink:href="#am" x="525.838" y="561.764"/></g><g fill="#46464a"><use xlink:href="#an" x="525.838" y="559.211"/><use xlink:href="#ao" x="525.838" y="554.159"/><use xlink:href="#an" x="525.838" y="549.371"/><use xlink:href="#al" x="525.838" y="544.319"/><use xlink:href="#ap" x="525.838" y="541.766"/><use xlink:href="#ag" x="525.838" y="537.847"/></g><g fill="#46464a"><use xlink:href="#aq" x="525.838" y="534.803"/><use xlink:href="#al" x="525.838" y="528.384"/><use xlink:href="#ar" x="525.838" y="525.832"/></g><g fill="#46464a"><use xlink:href="#as" x="525.838" y="522.619"/><use xlink:href="#at" x="525.838" y="519.042"/></g><g fill="#46464a"><use xlink:href="#au" x="525.838" y="516.956"/><use xlink:href="#at" x="525.838" y="515.015"/></g><g fill="#46464a"><use xlink:href="#av" x="525.838" y="513.157"/><use xlink:href="#aw" x="525.838" y="509.453"/></g><g fill="#46464a"><use xlink:href="#au" x="525.838" y="508.273"/><use xlink:href="#al" x="525.838" y="506.331"/><use xlink:href="#aK" x="525.838" y="503.778"/><use xlink:href="#av" x="525.838" y="498.613"/><use xlink:href="#aL" x="525.838" y="494.909"/></g><use xlink:href="#au" x="525.838" y="492.44" fill="#46464a"/><g fill="#46464a"><use xlink:href="#aA" x="525.838" y="490.528"/><use xlink:href="#at" x="525.838" y="487.107"/></g><use xlink:href="#aM" x="36.413" y="564.794" fill="#46464a"/><g fill="#46464a"><use xlink:href="#aN" x="41.117" y="564.794"/><use xlink:href="#aO" x="47.08" y="564.794"/></g><g fill="#46464a"><use xlink:href="#aP" x="50.356" y="564.794"/><use xlink:href="#aQ" x="52.263" y="564.794"/></g><g fill="#46464a"><use xlink:href="#aR" x="55.489" y="564.794"/><use xlink:href="#aO" x="60.993" y="564.794"/></g><g fill="#46464a"><use xlink:href="#aS" x="64.469" y="564.794"/><use xlink:href="#aT" x="67.705" y="564.794"/><use xlink:href="#aU" x="73.208" y="564.794"/><use xlink:href="#aO" x="78.911" y="564.794"/></g><g fill="#46464a"><use xlink:href="#aP" x="82.187" y="564.794"/><use xlink:href="#aV" x="84.095" y="564.794"/><use xlink:href="#aW" x="86.162" y="564.794"/></g><use xlink:href="#aQ" x="91.466" y="564.794" fill="#46464a"/><g fill="#46464a"><use xlink:href="#aN" x="94.492" y="564.794"/><use xlink:href="#aO" x="100.455" y="564.794"/><use xlink:href="#aX" x="103.831" y="564.794"/><use xlink:href="#aY" x="111.881" y="564.794"/><use xlink:href="#aS" x="118.053" y="564.794"/><use xlink:href="#aV" x="121.289" y="564.794"/><use xlink:href="#aN" x="123.357" y="564.794"/><use xlink:href="#aW" x="129.32" y="564.794"/><use xlink:href="#aP" x="134.823" y="564.794"/><use xlink:href="#aZ" x="136.731" y="564.794"/><use xlink:href="#ba" x="142.903" y="564.794"/><use xlink:href="#aU" x="144.971" y="564.794"/><use xlink:href="#aY" x="150.674" y="564.794"/><use xlink:href="#bb" x="156.846" y="564.794"/></g><g fill="#46464a"><use xlink:href="#aU" x="161.11" y="564.794"/><use xlink:href="#aP" x="166.813" y="564.794"/><use xlink:href="#bc" x="168.721" y="564.794"/></g><g fill="#46464a"><use xlink:href="#aN" x="173.924" y="564.794"/><use xlink:href="#aW" x="179.887" y="564.794"/></g><use xlink:href="#aS" x="185.191" y="564.794" fill="#46464a"/><g fill="#46464a"><use xlink:href="#aY" x="188.377" y="564.794"/><use xlink:href="#bc" x="194.549" y="564.794"/></g><g fill="#46464a"><use xlink:href="#aS" x="199.903" y="564.794"/><use xlink:href="#aP" x="203.139" y="564.794"/><use xlink:href="#aX" x="205.047" y="564.794"/><use xlink:href="#aY" x="213.097" y="564.794"/><use xlink:href="#aO" x="219.269" y="564.794"/><use xlink:href="#bd" x="222.645" y="564.794"/></g><use xlink:href="#aU" x="227.319" y="564.794" fill="#46464a"/><g fill="#46464a"><use xlink:href="#aS" x="232.923" y="564.794"/><use xlink:href="#aV" x="236.159" y="564.794"/><use xlink:href="#aW" x="238.226" y="564.794"/><use xlink:href="#be" x="243.73" y="564.794"/><use xlink:href="#bf" x="249.852" y="564.794"/><use xlink:href="#aU" x="258.292" y="564.794"/><use xlink:href="#aY" x="263.995" y="564.794"/><use xlink:href="#bb" x="270.167" y="564.794"/></g><use xlink:href="#bg" x="274.282" y="564.794" fill="#46464a"/><g fill="#46464a"><use xlink:href="#aY" x="279.226" y="564.794"/><use xlink:href="#aR" x="285.399" y="564.794"/><use xlink:href="#aS" x="290.902" y="564.794"/></g><g fill="#46464a"><use xlink:href="#aN" x="294.088" y="564.794"/><use xlink:href="#bh" x="300.051" y="564.794"/><use xlink:href="#bi" x="302.798" y="564.794"/><use xlink:href="#bj" x="307.632" y="564.794"/></g><g fill="#46464a"><use xlink:href="#bk" x="312.446" y="564.794"/><use xlink:href="#bc" x="314.194" y="564.794"/></g><g fill="#46464a"><use xlink:href="#aN" x="319.398" y="564.794"/><use xlink:href="#aX" x="325.36" y="564.794"/><use xlink:href="#bk" x="333.41" y="564.794"/><use xlink:href="#aY" x="335.158" y="564.794"/><use xlink:href="#aR" x="341.331" y="564.794"/></g></svg>