<svg xmlns="http://www.w3.org/2000/svg" xmlns:xlink="http://www.w3.org/1999/xlink" width="1122.52" height="793.701" viewBox="0 0 841.89 595.276"><rect width="100%" height="100%" fill="#fff"/><defs><path id="d" d="M2.75 0h7.906c5.75 0 8.5-2.75 8.5-6.75 0-3.469-2.312-5.406-4.625-6.016 1.531-.75 3.063-2.406 3.063-4.953 0-3.297-2.344-6.047-6.594-6.047H2.75c-.312 0-.516.203-.516.5v22.75c0 .313.204.516.516.516m4.781-14.469v-4.578h2.344c1.64 0 2.656.578 2.656 2.203 0 1.735-1.015 2.375-2.656 2.375Zm0 9.75v-5.562h2.797c2 0 3.36.734 3.36 2.75 0 1.968-1.36 2.812-3.36 2.812Zm0 0"/><path id="e" d="M2.406 0h4.14c.313 0 .548-.203.548-.516v-8c0-2.484 1.297-3.843 3.437-3.843.5 0 .875.062 1.219.172.469.093.703 0 .703-.438v-3.297c0-.312-.062-.515-.297-.687-.265-.203-.719-.438-1.531-.438-1.937 0-2.984 1.36-3.531 3.156l-.172-2.203c0-.406-.203-.547-.5-.547H2.406c-.297 0-.5.203-.5.516v15.61c0 .312.203.515.5.515m0 0"/><path id="f" d="M8.86.406c2.374 0 4.078-.953 5.203-2.547l.062 1.625c0 .313.234.516.547.516h3.734c.297 0 .578-.203.578-.516v-15.609c0-.312-.25-.516-.547-.516h-3.765c-.313 0-.547.203-.547.516l-.062 1.594c-1.094-1.563-2.75-2.516-5.204-2.516-4.609 0-7.812 3.813-7.812 8.735C1.047-3.36 4.25.406 8.859.406m1.124-4.718c-2.203 0-3.875-1.563-3.875-4 0-2.422 1.672-4.016 3.875-4.016 2.266 0 3.829 1.594 3.829 3.969 0 2.453-1.563 4.047-3.829 4.047m0 0"/><path id="g" d="M2.406 0h4.14c.313 0 .548-.203.548-.516v-8.421c0-2.204 1.093-3.36 2.89-3.36 1.829 0 2.782 1.156 2.782 3.36v8.421c0 .313.234.516.547.516h4.109c.297 0 .547-.203.547-.516v-9.64c0-4.344-2.547-6.89-6.016-6.89-2.375 0-3.906 1.187-4.86 2.89l-.171-1.938c0-.406-.203-.547-.5-.547H2.406c-.297 0-.5.203-.5.516v15.61c0 .312.203.515.5.515m0 0"/><path id="h" d="M8.86.406c2.374 0 4.078-.953 5.203-2.547l.062 1.625c0 .313.234.516.547.516h3.734c.297 0 .578-.203.578-.516v-23.25c0-.312-.25-.515-.547-.515h-4.171c-.313 0-.516.203-.516.515v8.797c-1.125-1.328-2.719-2.078-4.89-2.078-4.61 0-7.813 3.813-7.813 8.735C1.047-3.36 4.25.406 8.859.406m1.124-4.718c-2.203 0-3.875-1.563-3.875-4 0-2.422 1.672-4.016 3.875-4.016 2.266 0 3.829 1.594 3.829 3.969 0 2.453-1.563 4.047-3.829 4.047m0 0"/><path id="j" d="M11.266.438c5.375 0 9.203-3.297 9.203-9.735v-13.969c0-.297-.203-.5-.5-.5h-4.344c-.312 0-.516.203-.516.5v13.891c0 2.89-1.39 4.547-3.843 4.547-2.47 0-3.828-1.656-3.828-4.547v-13.89c0-.297-.204-.5-.516-.5H2.578c-.297 0-.5.203-.5.5v13.968c0 6.438 3.797 9.735 9.188 9.735m0 0"/><path id="k" d="M7.734.406c3.375 0 6.329-1.765 6.36-5.187.062-2.516-1.594-3.985-3.672-4.797l-2.516-.985c-.734-.296-1.312-.75-1.312-1.359 0-.5.297-1.078 1.312-1.078.922 0 1.844.469 2.922 1.313.313.218.547.25.781 0l1.735-2.032c.14-.203.234-.469.031-.719-1.453-1.687-3.531-2.609-5.734-2.609-3.188 0-5.985 1.875-5.985 5.125 0 2.313 1.438 3.735 3.61 4.594l2.172.875c1.125.437 1.5.812 1.5 1.469 0 .734-.626 1.078-1.532 1.078-1.187 0-2.312-.5-3.765-1.563-.282-.172-.578-.265-.86.172L1.421-3.39c-.234.329-.265.75-.093.985C2.718-.75 4.922.406 7.734.406m0 0"/><path id="l" d="M9.813 6.953c4.046 0 8.859-1.797 8.859-7.937v-15.141c0-.312-.203-.516-.5-.516h-3.813c-.296 0-.5.203-.5.516l-.109 1.281c-1.016-1.39-2.578-2.203-4.922-2.203-4.687 0-7.781 3.469-7.781 8.328 0 4.922 3.094 8.344 7.75 8.344 2.265 0 3.906-.812 4.922-2.172v1.563c0 2.859-2.281 3.734-4.422 3.734-1.422 0-2.844-.406-4.344-1.187-.406-.235-.703-.063-.906.312L2.984 3.938c-.203.343-.171.78.172 1.015 1.735 1.328 4.14 2 6.656 2m.03-11.984c-2.171 0-3.734-1.422-3.734-3.688 0-2.25 1.563-3.672 3.735-3.672 2.14 0 3.672 1.422 3.672 3.672 0 2.266-1.532 3.688-3.672 3.688m0 0"/><path id="m" d="M10.219.406c2.344 0 4.484-.672 5.906-2.11.313-.265.313-.53.172-.733l-1.39-1.97c-.204-.25-.344-.312-.61-.171-1.39.781-2.547.906-3.672.906-2.375 0-3.937-.875-4.516-2.672h9.579c1.53 0 1.968-1.031 1.968-2.718 0-4.282-2.953-7.985-8.047-7.985-5.125 0-8.562 3.766-8.562 8.656 0 5.063 3.703 8.797 9.172 8.797M6.047-9.954c.406-1.968 1.86-2.812 3.594-2.812s3.062.813 3.39 2.813Zm0 0"/><path id="n" d="M13.922.438c6.797 0 10.89-5.063 10.89-11.235v-2.437c0-.313-.203-.516-.5-.516H14.017c-.297 0-.5.203-.5.516v3.687c0 .313.203.547.5.547h5.672c-.204 2.25-2.172 4.172-5.594 4.172C9.954-4.828 7-7.734 7-11.781s2.953-7 6.813-7c2.015 0 3.64.75 4.921 1.875.282.203.547.203.828-.11l2.5-2.672c.313-.343.313-.656.047-.953-2.047-2.109-4.859-3.39-8.328-3.39-6.719 0-12.218 5.25-12.218 12.25S7.063.438 13.922.438m0 0"/><path id="o" d="M7.875.406c2.406 0 3.938-1.187 4.89-2.89l.141 1.937c0 .406.235.547.547.547h3.969c.297 0 .547-.203.547-.516v-15.609c0-.312-.25-.516-.547-.516h-4.11c-.312 0-.546.203-.546.516v8.422c0 2.203-1.125 3.36-2.891 3.36-1.828 0-2.781-1.157-2.781-3.36v-8.422c0-.312-.235-.516-.547-.516h-4.14c-.298 0-.5.203-.5.516v9.64c0 4.344 2.5 6.891 5.968 6.891m0 0"/><path id="p" d="M4.547-19.281c1.625 0 2.828-1.266 2.828-2.86 0-1.562-1.203-2.812-2.828-2.812s-2.844 1.25-2.844 2.812c0 1.594 1.219 2.86 2.844 2.86M2.437 0h4.22a.49.49 0 0 0 .515-.516v-15.609a.49.49 0 0 0-.516-.516H2.438c-.297 0-.5.203-.5.516v15.61c0 .312.203.515.5.515m0 0"/><path id="q" d="M2.406 0h4.188c.297 0 .531-.203.531-.516v-23.25c0-.312-.234-.515-.531-.515H2.406c-.297 0-.5.203-.5.515v23.25c0 .313.203.516.5.516m0 0"/><path id="r" d="M3.375 0h1.64c.094 0 .188-.047.22-.14l2.78-8.047c.047-.126-.015-.204-.14-.204h-1.61c-.093 0-.171.032-.202.141L4.188-2.406 2.327-8.25c-.047-.11-.11-.14-.203-.14H.531c-.14 0-.203.078-.156.203L3.156-.142c.031.094.125.141.219.141m0 0"/><path id="s" d="M.969 0H5.28c.11 0 .203-.078.203-.187V-1.5c0-.11-.093-.172-.203-.172H2.688V-3.39H5.14a.18.18 0 0 0 .187-.187v-1.313c0-.109-.078-.171-.187-.171H2.688V-6.72h2.609c.11 0 .187-.062.187-.172v-1.312a.18.18 0 0 0-.187-.188H.969c-.11 0-.172.079-.172.188v8.015c0 .11.062.188.172.188m0 0"/><path id="t" d="m6.813-.219-1.86-2.89c1.063-.407 1.578-1.344 1.578-2.516 0-1.64-.953-2.766-2.984-2.766H.969c-.11 0-.172.079-.172.188v8.015c0 .11.062.188.172.188H2.5a.18.18 0 0 0 .188-.187v-2.704h.421L4.83-.125c.046.094.124.125.218.125h1.64c.141 0 .204-.078.125-.219m-4.125-6.5H3.5c.64 0 1.219.219 1.219 1.094 0 .86-.578 1.063-1.219 1.063h-.812Zm0 0"/><path id="u" d="M3.328.14c1.422 0 2.86-.75 2.86-2.5 0-1.437-.97-1.984-1.844-2.406l-.86-.39c-.609-.282-.937-.422-.937-.89 0-.423.312-.704.875-.704.484 0 .875.203 1.422.656.078.063.187.032.25-.047l.797-.953a.234.234 0 0 0-.016-.281c-.703-.719-1.531-1.11-2.516-1.11-1.468 0-2.656.844-2.656 2.422 0 1.313.844 1.938 1.735 2.329l1.015.484c.531.234.89.39.89.89 0 .532-.437.766-1.046.766-.64 0-1.094-.265-1.64-.797-.11-.093-.204-.046-.282.032l-.797.906c-.094.094-.094.187-.031.266C1.047-.516 2 .14 3.328.14m0 0"/><path id="v" d="M.969 0H2.5a.18.18 0 0 0 .188-.187v-8.016a.18.18 0 0 0-.188-.188H.969c-.11 0-.172.079-.172.188v8.015c0 .11.062.188.172.188m0 0"/><path id="w" d="M4.86.156c2.39 0 4.328-1.89 4.328-4.312a4.3 4.3 0 0 0-4.329-4.328A4.305 4.305 0 0 0 .547-4.156 4.3 4.3 0 0 0 4.859.156m0-1.86c-1.344 0-2.391-1.062-2.391-2.452 0-1.422 1.047-2.469 2.39-2.469 1.375 0 2.407 1.047 2.407 2.469 0 1.39-1.032 2.453-2.407 2.453m0 0"/><path id="x" d="M7.469-8.39H5.937a.18.18 0 0 0-.187.187v5.125L2.969-8.266c-.047-.093-.11-.125-.219-.125H.969c-.11 0-.172.079-.172.188v8.015c0 .11.062.188.172.188H2.5a.18.18 0 0 0 .188-.187v-5.125l2.78 5.187c.048.094.11.125.22.125h1.78c.11 0 .173-.078.173-.187v-8.016c0-.11-.063-.188-.172-.188m0 0"/><path id="z" d="M2.188 0H3.64a.18.18 0 0 0 .187-.187v-8.016a.18.18 0 0 0-.187-.188H.594a.18.18 0 0 0-.188.188v1.187a.19.19 0 0 0 .188.188H2v6.64c0 .11.078.188.188.188m0 0"/><path id="A" d="M1.531.156c.61 0 1.063-.484 1.063-1.062C2.594-1.516 2.14-2 1.53-2 .938-2 .47-1.516.47-.906.469-.328.938.156 1.53.156m0 0"/><clipPath id="a"><path d="M.457 0h840.867v594.555H.457Zm0 0"/></clipPath><clipPath id="b"><path d="M229.547 242.988H609.68v96.192H229.547Zm0 0"/></clipPath><clipPath id="c"><path d="M229.547 242.988H609.68v96.192H229.547Zm0 0"/></clipPath></defs><g clip-path="url(#a)"><path fill="#28477c" d="M.457 594.555h840.867V0H.457Zm0 0"/></g><g clip-path="url(#b)"><path fill="#fff" d="M589.887 339.18H249.313c-10.915 0-19.793-8.88-19.793-19.793V262.78c0-10.914 8.878-19.793 19.792-19.793H609.68v76.399c0 10.914-8.88 19.793-19.793 19.793"/></g><path fill="#ec1d27" d="M509.844 309.652v-32.574c0-.652-.762-1-1.254-.574l-4.531 1.676a.757.757 0 0 1-1.254-.575v-8.992c0-.218.093-.43.257-.574l6.567-3.437a.76.76 0 0 1 .496-.188h9.555c.422 0 .758.34.758.758v44.48a.756.756 0 0 1-.758.758h-9.078a.76.76 0 0 1-.758-.758M526.121 309.652v-8.507c0-.192.074-.372.203-.512l16.465-17.871c1.68-1.809 2.324-2.973 2.324-4.91 0-2.52-1.418-4.262-4.133-4.262-1.8 0-3.933.777-4.23 3.734-.04.403-.352.723-.754.723h-9.09a.765.765 0 0 1-.765-.79c.382-8.546 7.066-13.23 14.84-13.23 8.527 0 14.73 5.235 14.73 13.887 0 4.848-2.004 7.43-5.688 11.309l-9.773 10.351c-.457.48-.113 1.278.55 1.278h14.153c.418 0 .758.336.758.753v8.047c0 .418-.34.758-.758.758h-28.07a.76.76 0 0 1-.762-.758M573.246 310.797c-7.43 0-14.914-3.86-15.297-13.617a.77.77 0 0 1 .766-.79h9.097c.403 0 .711.32.75.72.29 2.753 2.239 4.128 4.684 4.128 2.777 0 4.715-1.617 4.715-4.91 0-2.777-2.066-4.848-4.91-4.848h-1.489v-9.171h1.489c3.164 0 4.39-2.262 4.39-4.329 0-2.906-2-4.39-4.195-4.39-2.016 0-3.867 1.3-4.16 3.656-.047.375-.336.668-.711.668h-9.137c-.43 0-.789-.36-.77-.789.391-8.184 6.825-13.098 14.778-13.098 8.524 0 14.793 5.684 14.793 13.63 0 4.433-1.902 6.866-3.941 8.402a.744.744 0 0 0-.02 1.183c2.266 1.774 4.477 4.512 4.477 9.41 0 9.625-7.235 14.145-15.309 14.145"/><path fill="#46464a" d="M271.977 285.18c-.684-1.578-2.196-2.883-4.875-2.883-2.68 0-4.188 1.305-4.875 2.883a6 6 0 0 0-.57 1.996.807.807 0 0 0 .808.89h9.277c.477 0 .86-.414.805-.89a6 6 0 0 0-.57-1.996m-9.489 10.37a.823.823 0 0 0-.8.966c.445 2.617 2.707 4.804 6.445 4.804 3.535 0 5.281-.898 7.055-2.539.32-.3.816-.3 1.125.008l5.593 5.59a.817.817 0 0 1-.011 1.16c-3.582 3.41-7.254 5.258-13.762 5.258-8.172 0-17.582-2.953-17.582-18.887 0-12.086 6.867-18.887 16.55-18.887 10.715 0 16.622 7.832 16.622 17.516v4.207c0 .445-.36.805-.805.805ZM304.117 295.55h-5.699c-2.2 0-3.57 1.24-3.57 2.954 0 1.648 1.234 3.09 3.707 3.09 2.199 0 3.226-.203 4.465-1.371.824-.758 1.097-1.926 1.097-3.711Zm1.082 14.837a.81.81 0 0 1-.808-.805v-2.219c-2.266 2.266-4.325 3.367-8.239 3.367-3.71 0-6.8-1.238-8.859-3.296-2.129-2.13-3.23-5.22-3.23-8.653 0-5.566 3.777-10.715 12.57-10.715h7.484v-.96c0-3.368-1.648-4.602-5.562-4.602-2.586 0-3.844.55-5.364 1.95a.8.8 0 0 1-1.101-.036l-5.863-5.863a.815.815 0 0 1 .02-1.164c3.546-3.32 6.94-4.368 12.858-4.368 10.575 0 16.278 4.399 16.278 13.395v23.164a.81.81 0 0 1-.809.805ZM332.344 310.797c-5.344 0-10.559-.254-15.465-4.774a.816.816 0 0 1-.02-1.168l6.149-6.148c.305-.305.785-.3 1.11-.02 2.995 2.567 6.624 2.567 8.429 2.567 1.648 0 4.808-.48 4.808-2.406 0-1.032-.48-2.13-2.675-2.336l-5.703-.547c-6.387-.621-10.711-3.504-10.711-10.715 0-8.172 7.347-12.227 14.695-12.227 5.707 0 10.375.797 13.941 3.954.344.304.348.851.024 1.175l-5.813 5.813c-.297.297-.758.293-1.093.039-1.88-1.426-4.657-1.707-7.266-1.707-2.746 0-3.64 1.305-3.64 2.129 0 .414-.137 1.785 2.406 2.058l5.699.551c7.761.758 11.125 5.356 11.125 11.262 0 8.723-7.418 12.5-16 12.5M401.223 295.55h-5.7c-2.195 0-3.57 1.24-3.57 2.954 0 1.648 1.235 3.09 3.707 3.09 2.2 0 3.23-.203 4.465-1.371.824-.758 1.098-1.926 1.098-3.711Zm1.082 14.837a.806.806 0 0 1-.805-.805v-2.219c-2.266 2.266-4.328 3.367-8.242 3.367-3.711 0-6.801-1.238-8.86-3.296-2.128-2.13-3.23-5.22-3.23-8.653 0-5.566 3.781-10.715 12.57-10.715h7.485v-.96c0-3.368-1.645-4.602-5.563-4.602-2.582 0-3.844.55-5.363 1.95a.796.796 0 0 1-1.098-.036l-5.863-5.863a.815.815 0 0 1 .016-1.164c3.55-3.32 6.941-4.368 12.859-4.368 10.574 0 16.277 4.399 16.277 13.395v23.164a.81.81 0 0 1-.804.805ZM435.957 310.387a.804.804 0 0 1-.809-.805v-2.219c-2.265 2.27-5.628 3.434-8.582 3.434-3.503 0-6.32-1.164-8.312-3.16-3.16-3.157-3.707-6.66-3.707-10.574v-22.82c0-.446.36-.805.805-.805h9.652c.445 0 .805.359.805.804v21.309c0 4.258 3.023 5.082 4.535 5.082 1.508 0 4.531-.824 4.531-5.082v-21.309c0-.445.36-.805.805-.805h9.652c.445 0 .805.36.805.805v35.34c0 .445-.36.805-.805.805ZM462.824 310.387c-8.172 0-11.469-5.84-11.469-10.922V282.09h-2.558a.804.804 0 0 1-.805-.805v-7.043c0-.445.36-.805.805-.805h2.558v-8.328c0-.445.364-.804.805-.804h9.656c.442 0 .805.36.805.804v8.329h5.031c.446 0 .805.359.805.804v7.043c0 .445-.36.805-.805.805h-5.03v16.55c0 1.446.753 2.27 2.265 2.27h2.765c.446 0 .805.36.805.805v7.867c0 .445-.36.805-.805.805ZM488.992 284.219c-.687-.684-1.648-1.028-3.023-1.028s-2.336.344-3.024 1.028c-1.441 1.441-1.648 4.054-1.648 7.691 0 3.64.207 6.25 1.648 7.695.688.688 1.649 1.028 3.024 1.028s2.336-.34 3.023-1.028c1.442-1.445 1.649-4.054 1.649-7.695 0-3.637-.207-6.25-1.649-7.691m8.856 21.84c-2.196 2.336-5.907 4.738-11.88 4.738-5.976 0-9.683-2.402-11.882-4.738-3.09-3.364-4.05-6.868-4.05-14.149 0-7.21.96-10.781 4.05-14.148 2.2-2.332 5.906-4.739 11.883-4.739 5.972 0 9.683 2.407 11.879 4.739 3.093 3.367 4.054 6.937 4.054 14.148 0 7.281-.96 10.785-4.054 14.149M368.563 312.66c-.758 2.133-1.72 3.711-2.887 4.88-2.196 2.335-5.555 3.089-8.852 3.089h-3.453a.804.804 0 0 1-.805-.805v-8.554c0-.446.36-.805.805-.805h1.598c1.992 0 3.847-1.024 4.68-3.106 0 0 .183-.39.003-.87l-11.797-31.962a.804.804 0 0 1 .758-1.082h10.07c.348 0 .657.223.766.555l5.285 16.207c.243.746 1.301.738 1.536-.012l5.046-16.183a.8.8 0 0 1 .77-.567h10.062c.563 0 .95.559.754 1.082Zm0 0"/><g clip-path="url(#c)"><path fill="#f9df27" d="M249.313 250.184c-6.946 0-12.594 5.652-12.594 12.597v56.606c0 6.945 5.648 12.593 12.594 12.593h340.574c6.945 0 12.597-5.648 12.597-12.593v-69.203Zm340.574 88.996H249.313c-10.915 0-19.793-8.88-19.793-19.793V262.78c0-10.914 8.878-19.793 19.792-19.793H609.68v76.399c0 10.914-8.88 19.793-19.793 19.793"/></g><g fill="#fff"><use xlink:href="#d" x="246.798" y="480.159"/><use xlink:href="#e" x="265.951" y="480.159"/></g><g fill="#fff"><use xlink:href="#f" x="277.904" y="480.159"/><use xlink:href="#g" x="297.736" y="480.159"/><use xlink:href="#h" x="316.583" y="480.159"/><use xlink:href="#i" x="336.415" y="480.159"/><use xlink:href="#j" x="341.984" y="480.159"/><use xlink:href="#k" x="363.514" y="480.159"/></g><g fill="#fff"><use xlink:href="#f" x="377.638" y="480.159"/><use xlink:href="#l" x="397.47" y="480.159"/><use xlink:href="#m" x="417.03" y="480.159"/><use xlink:href="#i" x="434.688" y="480.159"/><use xlink:href="#n" x="440.258" y="480.159"/><use xlink:href="#o" x="465.285" y="480.159"/><use xlink:href="#p" x="484.132" y="480.159"/><use xlink:href="#h" x="492.214" y="480.159"/><use xlink:href="#m" x="512.046" y="480.159"/><use xlink:href="#q" x="529.705" y="480.159"/><use xlink:href="#p" x="537.685" y="480.159"/><use xlink:href="#g" x="545.767" y="480.159"/><use xlink:href="#m" x="564.614" y="480.159"/></g><use xlink:href="#k" x="581.933" y="480.159" fill="#fff"/><use xlink:href="#r" x="391.772" y="521.965" fill="#ffde3f"/><g fill="#ffde3f"><use xlink:href="#s" x="399.682" y="521.965"/><use xlink:href="#t" x="405.459" y="521.965"/></g><g fill="#ffde3f"><use xlink:href="#u" x="412.003" y="521.965"/><use xlink:href="#v" x="418.331" y="521.965"/><use xlink:href="#w" x="421.447" y="521.965"/><use xlink:href="#x" x="430.82" y="521.965"/><use xlink:href="#y" x="438.898" y="521.965"/><use xlink:href="#z" x="440.864" y="521.965"/><use xlink:href="#A" x="445.035" y="521.965"/><use xlink:href="#z" x="447.744" y="521.965"/></g></svg>