<svg xmlns="http://www.w3.org/2000/svg" xmlns:xlink="http://www.w3.org/1999/xlink" width="1122.52" height="793.701" viewBox="0 0 841.89 595.276"><rect width="100%" height="100%" fill="#fff"/><defs><path id="d" d="M11.328 0h6.906c.485 0 .813-.328.813-.812v-29.391h7.172c.484 0 .86-.328.86-.813v-5.937c0-.484-.376-.797-.86-.797H3.297c-.485 0-.813.313-.813.797v5.937c0 .485.329.813.813.813h7.172v29.39c0 .485.375.813.86.813m0 0"/><path id="e" d="M18.984-27.078c-3.78 0-6.203 1.89-7.718 4.594V-37.75c0-.484-.375-.812-.86-.812H3.828c-.484 0-.812.328-.812.812V-.812c0 .484.328.812.812.812h6.578c.485 0 .86-.328.86-.812v-13.375c0-3.5 1.734-5.344 4.593-5.344 2.907 0 4.422 1.843 4.422 5.343V-.812c0 .484.375.812.86.812h6.53c.485 0 .86-.328.86-.812v-15.313c0-6.906-4.047-10.953-9.547-10.953m0 0"/><path id="f" d="M16.234.64c3.72 0 7.125-1.078 9.391-3.343.484-.422.484-.86.266-1.188l-2.22-3.125c-.312-.375-.53-.484-.968-.265-2.203 1.234-4.047 1.453-5.828 1.453-3.766 0-6.25-1.406-7.172-4.266h15.219c2.422 0 3.125-1.61 3.125-4.312 0-6.797-4.688-12.672-12.781-12.672-8.141 0-13.594 5.984-13.594 13.75C1.672-5.281 7.547.64 16.234.64m-6.64-16.437c.656-3.14 2.969-4.484 5.719-4.484s4.859 1.297 5.406 4.484Zm0 0"/><path id="h" d="M4.375 0h12.563c9.109 0 13.484-4.375 13.484-10.734 0-5.5-3.672-8.578-7.344-9.547 2.438-1.188 4.86-3.828 4.86-7.875 0-5.235-3.72-9.594-10.47-9.594H4.376c-.484 0-.812.313-.812.797v36.14c0 .485.328.813.812.813m7.594-22.984v-7.282h3.734c2.578 0 4.203.922 4.203 3.516 0 2.75-1.625 3.766-4.203 3.766Zm0 15.484v-8.844h4.422c3.187 0 5.343 1.188 5.343 4.375 0 3.125-2.156 4.469-5.343 4.469Zm0 0"/><path id="i" d="M3.828 0h6.578c.485 0 .86-.328.86-.812v-12.72c0-3.937 2.062-6.109 5.453-6.109.812 0 1.406.11 1.937.282.766.156 1.14 0 1.14-.703v-5.235c0-.484-.108-.812-.483-1.078-.438-.328-1.141-.703-2.438-.703-3.062 0-4.734 2.156-5.61 5.015l-.265-3.5c0-.656-.328-.859-.812-.859h-6.36c-.484 0-.812.313-.812.797V-.812c0 .484.328.812.812.812m0 0"/><path id="j" d="M14.078.64c3.781 0 6.469-1.5 8.25-4.03l.11 2.578c0 .484.375.812.859.812h5.937c.485 0 .922-.328.922-.812v-24.813c0-.484-.375-.797-.875-.797h-5.984c-.485 0-.86.313-.86.797l-.109 2.547c-1.719-2.485-4.36-4-8.25-4-7.344 0-12.406 6.047-12.406 13.86C1.672-5.345 6.734.64 14.078.64m1.781-7.484c-3.5 0-6.156-2.484-6.156-6.375 0-3.828 2.656-6.36 6.156-6.36 3.61 0 6.094 2.532 6.094 6.313 0 3.875-2.484 6.422-6.094 6.422m0 0"/><path id="k" d="M3.828 0h6.578c.485 0 .86-.328.86-.812v-13.375c0-3.5 1.734-5.344 4.593-5.344 2.907 0 4.422 1.843 4.422 5.343V-.812c0 .484.375.812.86.812h6.53c.485 0 .86-.328.86-.812v-15.313c0-6.906-4.047-10.953-9.547-10.953-3.78 0-6.203 1.89-7.718 4.594L11-25.562c0-.657-.328-.86-.812-.86h-6.36c-.484 0-.812.313-.812.797V-.812c0 .484.328.812.812.812m0 0"/><path id="l" d="M14.078.64c3.781 0 6.469-1.5 8.25-4.03l.11 2.578c0 .484.375.812.859.812h5.937c.485 0 .922-.328.922-.812V-37.75c0-.484-.375-.812-.875-.812h-6.625c-.484 0-.812.328-.812.812v13.969c-1.782-2.11-4.313-3.297-7.766-3.297-7.344 0-12.406 6.047-12.406 13.86C1.672-5.345 6.734.64 14.078.64m1.781-7.484c-3.5 0-6.156-2.484-6.156-6.375 0-3.828 2.656-6.36 6.156-6.36 3.61 0 6.094 2.532 6.094 6.313 0 3.875-2.484 6.422-6.094 6.422m0 0"/><path id="m" d="M3.469 0h.484c.125 0 .203-.062.203-.203V-9h2.125q.188 0 .188-.187v-.407c0-.125-.063-.203-.188-.203H1.156c-.125 0-.187.078-.187.203v.406q0 .188.187.188h2.125v8.797c0 .14.063.203.188.203m0 0"/><path id="n" d="M4.25-7.016c-1.156 0-1.922.563-2.312 1.266v-4.047c0-.125-.047-.203-.172-.203h-.5c-.125 0-.157.078-.157.203v9.594c0 .14.032.203.157.203h.5c.125 0 .172-.062.172-.203v-4c0-1.25.921-2.031 2.109-2.031s1.875.78 1.875 2.03v4c0 .142.031.204.156.204h.5c.125 0 .172-.062.172-.203v-4.031c0-1.828-1-2.782-2.5-2.782m0 0"/><path id="o" d="M1.531-8.719c.297 0 .532-.265.532-.562 0-.313-.235-.563-.532-.563a.56.56 0 0 0-.562.563c0 .297.25.562.562.562M1.266 0h.5c.125 0 .172-.062.172-.203v-6.453c0-.125-.047-.203-.172-.203h-.5c-.125 0-.157.078-.157.203v6.453c0 .14.032.203.157.203m0 0"/><path id="p" d="M3.063.172c1.218 0 2.296-.688 2.296-1.953 0-1.063-.734-1.563-1.625-1.922L3.11-3.97c-.765-.312-1.265-.578-1.265-1.297 0-.703.625-1.03 1.265-1.03.532 0 .985.218 1.422.687.125.125.203.14.328 0l.157-.188c.093-.094.109-.203.015-.297-.468-.61-1.187-.922-1.953-.922-1.11 0-2.047.688-2.047 1.782 0 1 .735 1.468 1.563 1.828l.797.328c.656.281 1.14.61 1.14 1.312 0 .782-.61 1.188-1.484 1.188-.781 0-1.297-.36-1.703-.813-.11-.125-.235-.109-.313-.015l-.172.218c-.062.125-.062.22.032.344A2.74 2.74 0 0 0 3.063.172m0 0"/><path id="r" d="M1.438 0h2.718c2.172 0 3.25-1.125 3.25-2.719 0-1.25-.703-2.297-2.015-2.61 1.015-.327 1.437-1.234 1.437-2.124 0-1.125-.64-2.344-2.64-2.344h-2.75c-.125 0-.188.078-.188.203v9.39c0 .142.063.204.188.204m.671-5.625v-3.36h2.032c1.125 0 1.843.454 1.843 1.594 0 1.11-.718 1.766-1.843 1.766Zm0 4.828V-4.89h1.985c1.61 0 2.422.797 2.422 2.063 0 1.312-.813 2.031-2.422 2.031Zm0 0"/><path id="s" d="M1.266 0h.5c.125 0 .172-.062.172-.203v-4.125c0-.734.312-1.906 1.593-1.906.125 0 .297 0 .5.062.14.047.235.016.235-.14v-.344c0-.125-.032-.188-.11-.235-.125-.093-.36-.125-.625-.125-.86 0-1.328.5-1.594 1.125l-.03-.75c0-.156-.048-.218-.204-.218h-.437c-.125 0-.157.078-.157.203v6.453c0 .14.032.203.157.203m0 0"/><path id="t" d="M4.156.172c1.25 0 2.188-.594 2.703-1.563l.016 1.188c0 .14.063.203.188.203h.453c.125 0 .172-.062.172-.203v-6.453c0-.125-.047-.203-.172-.203h-.453c-.125 0-.188.078-.188.203l-.016 1.218c-.515-.953-1.453-1.578-2.703-1.578C2.141-7.016.75-5.469.75-3.422S2.14.172 4.156.172m.094-.797c-1.562 0-2.687-1.125-2.687-2.797S2.688-6.219 4.25-6.219c1.547 0 2.61 1.14 2.61 2.828 0 1.657-1.063 2.766-2.61 2.766m0 0"/><path id="u" d="M1.266 0h.5c.125 0 .172-.062.172-.203v-4c0-1.25.921-2.031 2.109-2.031s1.875.78 1.875 2.03v4c0 .142.031.204.156.204h.5c.125 0 .172-.062.172-.203v-4.031c0-1.828-1-2.782-2.5-2.782-1.156 0-1.922.563-2.312 1.266l-.032-.89c0-.157-.047-.22-.203-.22h-.437c-.125 0-.157.079-.157.204v6.453c0 .14.032.203.157.203m0 0"/><path id="v" d="M4.156.172c1.25 0 2.188-.594 2.703-1.563l.016 1.188c0 .14.063.203.188.203h.453c.125 0 .172-.062.172-.203v-9.594c0-.125-.047-.203-.172-.203h-.5c-.125 0-.157.078-.157.203v4.328c-.53-.953-1.468-1.547-2.703-1.547C2.141-7.016.75-5.469.75-3.422S2.14.172 4.156.172m.094-.797c-1.562 0-2.687-1.125-2.687-2.797S2.688-6.219 4.25-6.219c1.547 0 2.61 1.14 2.61 2.828 0 1.657-1.063 2.766-2.61 2.766m0 0"/><path id="w" d="M4.25.172c1.984 0 3.484-1.563 3.484-3.594 0-2.047-1.5-3.594-3.484-3.594S.75-5.469.75-3.422C.75-1.39 2.266.172 4.25.172m0-.797c-1.531 0-2.672-1.172-2.672-2.797 0-1.64 1.14-2.812 2.672-2.812 1.531 0 2.672 1.172 2.672 2.812 0 1.625-1.14 2.797-2.672 2.797m0 0"/><path id="x" d="M1.266 0h.5c.125 0 .172-.062.172-.203v-1.828l1.25-1.328L5.765-.125c.062.094.14.125.25.125h.515c.172 0 .203-.11.125-.219L3.703-3.922l2.578-2.734c.078-.078.078-.203-.078-.203h-.64a.26.26 0 0 0-.235.125l-3.39 3.672v-6.735c0-.125-.047-.203-.172-.203h-.5c-.125 0-.157.078-.157.203v9.594c0 .14.032.203.157.203m0 0"/><path id="y" d="M4.64.172c2.016 0 3.407-1.547 3.407-3.594S6.657-7.016 4.64-7.016c-1.25 0-2.188.594-2.703 1.547v-4.328c0-.125-.047-.203-.172-.203h-.5c-.125 0-.157.078-.157.203v9.594c0 .14.032.203.157.203h.468c.125 0 .172-.062.172-.203l.032-1.188C2.453-.42 3.375.172 4.64.172m-.093-.797c-1.547 0-2.61-1.11-2.61-2.766 0-1.687 1.063-2.828 2.61-2.828s2.672 1.125 2.672 2.797S6.094-.625 4.547-.625m0 0"/><path id="z" d="M4.36.172c.952 0 1.827-.297 2.452-.89.094-.095.157-.157.047-.282l-.187-.266c-.047-.046-.14-.046-.203 0-.532.407-1.14.704-2.032.704-1.765 0-2.75-1.11-2.875-2.563h5.344c.375 0 .469-.172.469-.672 0-1.656-1.172-3.219-3.187-3.219C2.156-7.016.75-5.469.75-3.453.75-1.47 2.125.172 4.36.172M1.577-3.812c.125-1.485 1.14-2.454 2.594-2.454 1.484 0 2.422 1.016 2.453 2.454Zm0 0"/><path id="A" d="M3.531 0h.5c.11 0 .203-.062.25-.172l2.563-6.437c.047-.157 0-.25-.157-.25h-.484c-.11 0-.172.062-.219.172L3.781-.923 1.563-6.687c-.032-.11-.11-.172-.22-.172H.86c-.14 0-.203.093-.14.25L3.266-.172c.046.11.14.172.265.172m0 0"/><path id="B" d="M1.266 0h.5c.125 0 .172-.062.172-.203v-9.594c0-.125-.047-.203-.172-.203h-.5c-.125 0-.157.078-.157.203v9.594c0 .14.032.203.157.203m0 0"/><path id="C" d="M1.266 2.656h.5c.125 0 .172-.062.172-.187V-1.36C2.453-.422 3.39.17 4.64.17c2.015 0 3.406-1.546 3.406-3.593S6.657-7.016 4.64-7.016c-1.25 0-2.188.625-2.703 1.579l-.032-1.22c0-.124-.047-.202-.172-.202h-.468c-.125 0-.157.078-.157.203v9.125c0 .125.032.187.157.187m3.28-3.281C3-.625 1.938-1.735 1.938-3.391c0-1.687 1.063-2.828 2.61-2.828s2.672 1.125 2.672 2.797S6.094-.625 4.547-.625m0 0"/><path id="D" d="M3.125.172c.344 0 .828-.078.828-.281v-.328c0-.141-.047-.204-.281-.157-.11 0-.313.016-.422.016-.437 0-.64-.188-.64-.75v-4.813h1.187q.187 0 .187-.187v-.328c0-.125-.062-.203-.187-.203H2.609v-1.61c0-.125-.046-.203-.171-.203h-.485c-.125 0-.172.078-.172.203v1.61H.875c-.125 0-.187.078-.187.203v.328q0 .187.187.187h.906v4.907c0 .922.422 1.406 1.344 1.406m0 0"/><path id="E" d="M4.125 2.86c1.797 0 3.484-.922 3.484-3.094v-6.422c0-.125-.046-.203-.171-.203h-.454c-.125 0-.171.078-.171.203l-.016 1.14c-.516-.937-1.438-1.5-2.719-1.5C2.141-7.016.75-5.578.75-3.546.75-1.5 2.14-.063 4.11-.063c1.25 0 2.156-.563 2.671-1.47v1.22c0 1.828-1.281 2.453-2.687 2.453-.703 0-1.422-.172-2-.547-.078-.047-.172-.032-.235.062l-.187.313c-.031.11 0 .203.125.265.5.36 1.36.625 2.328.625m.078-3.72c-1.484 0-2.64-1.03-2.64-2.687 0-1.64 1.156-2.687 2.64-2.687 1.516 0 2.578 1.062 2.578 2.718 0 1.641-1.062 2.657-2.578 2.657m0 0"/><path id="F" d="M4.313.172c1.093 0 1.984-.422 2.562-1.14.094-.11.125-.173.031-.266L6.641-1.5c-.125-.125-.235-.047-.328.047-.422.453-1 .828-1.954.828-1.593 0-2.78-1.14-2.78-2.797 0-1.672 1.187-2.812 2.765-2.812.953 0 1.531.375 1.984.843.063.094.172.157.297.016l.266-.25c.093-.078.062-.156-.032-.281-.578-.688-1.468-1.11-2.53-1.11C2.296-7.016.75-5.484.75-3.422.75-1.375 2.297.172 4.313.172m0 0"/><path id="G" d="M.64 1.734c1.032 0 1.594-.89 1.594-1.718 0-.657-.375-1.125-.859-1.125a.687.687 0 0 0-.703.687c0 .375.265.656.719.64.406-.015.14 1.141-.75 1.157Zm0 0"/><path id="H" d="M.969-3.594H5.14c.125 0 .172-.062.172-.187v-.39c0-.126-.047-.173-.172-.173H.969c-.125 0-.188.047-.188.172v.39q0 .188.188.188m0 0"/><path id="I" d="M3.594.172C4.75.172 5.53-.406 5.922-1.11l.016.906c0 .14.062.203.203.203h.437c.125 0 .172-.062.172-.203v-6.453c0-.125-.047-.203-.172-.203h-.5c-.125 0-.156.078-.156.203v4c0 1.25-.922 2.031-2.125 2.031-1.188 0-1.86-.781-1.86-2.031v-4c0-.125-.046-.203-.171-.203h-.5c-.125 0-.157.078-.157.203v4.031c0 1.828.985 2.797 2.485 2.797m0 0"/><path id="J" d="M3.234 0h.563c.11 0 .203-.062.25-.172l2.016-5.765 2.03 5.765c.048.11.141.172.25.172h.563c.11 0 .219-.062.25-.172l2.266-6.437c.062-.157 0-.25-.156-.25h-.485c-.11 0-.172.062-.203.172L8.61-.907l-2.015-5.78c-.032-.11-.14-.172-.25-.172h-.547a.27.27 0 0 0-.266.172l-2 5.78-1.969-5.78c-.03-.11-.109-.172-.218-.172H.859c-.14 0-.203.093-.14.25L2.984-.172c.032.11.141.172.25.172m0 0"/><path id="U" d="M2.516 2.656H3c.11 0 .188-.062.234-.172l3.61-9.093c.047-.157 0-.25-.157-.25h-.5c-.109 0-.156.062-.203.172L3.781-.923 1.563-6.687c-.032-.11-.11-.172-.22-.172H.86c-.14 0-.203.093-.14.25L3.344.03 2.375 2.47c-.047.11 0 .187.14.187m0 0"/><path id="V" d="M1.266 0h.5c.125 0 .172-.062.172-.203V-4.25c0-1.234.656-1.984 1.718-1.984 1.047 0 1.625.718 1.625 1.984v4.047c0 .14.063.203.172.203h.5c.125 0 .172-.062.172-.203V-4.25c0-1.234.734-1.984 1.797-1.984 1.047 0 1.547.718 1.547 1.984v4.047c0 .14.047.203.187.203h.485c.125 0 .172-.062.172-.203v-4.11c0-1.812-.844-2.703-2.25-2.703-1.188 0-1.813.61-2.157 1.36-.343-.922-1.062-1.36-2.031-1.36-1.016 0-1.625.532-1.937 1.172l-.032-.797c0-.156-.047-.218-.203-.218h-.437c-.125 0-.157.078-.157.203v6.453c0 .14.032.203.157.203m0 0"/><path id="W" d="M1.281.188a.65.65 0 0 0 .657-.657.657.657 0 0 0-.657-.64.654.654 0 0 0-.64.64c0 .375.297.657.64.657m0 0"/><path id="X" d="M.828 0h.547c.11 0 .172-.047.234-.14l1.782-2.782L5.156-.14c.063.094.125.141.235.141h.547c.156 0 .203-.094.109-.234L3.89-3.5l2.047-3.11c.093-.14.046-.25-.094-.25h-.547c-.11 0-.172.048-.234.141L3.39-4.079l-1.688-2.64a.24.24 0 0 0-.234-.14H.937c-.156 0-.203.109-.109.25L2.875-3.5.735-.234C.624-.094.687 0 .827 0m0 0"/><path id="Y" d="M1.297-5.734c.36 0 .64-.282.64-.641a.643.643 0 0 0-.64-.64.654.654 0 0 0-.64.64c0 .36.296.64.64.64M.64 1.734c1.03 0 1.593-.89 1.593-1.718 0-.657-.375-1.125-.859-1.125a.687.687 0 0 0-.703.687c0 .375.265.656.719.64.406-.015.14 1.141-.75 1.157Zm0 0"/><path id="Z" d="M1.875 0h.484c.125 0 .188-.062.188-.203v-5.938h1.375c.14 0 .203-.062.203-.187v-.328c0-.125-.062-.203-.203-.203H2.547v-1.422c0-.656.156-1.156.953-1.156.14 0 .297.015.453.046.094 0 .172 0 .172-.109v-.453c0-.11-.031-.14-.125-.188a2.2 2.2 0 0 0-.61-.078c-1.14 0-1.687.625-1.687 1.735v1.625H.875c-.125 0-.187.078-.187.203v.328q0 .187.187.187h.828v5.938c0 .14.047.203.172.203m0 0"/><path id="K" d="M4.203.172c.969 0 1.86-.281 2.438-.875.125-.11.125-.219.078-.297l-.578-.812c-.079-.11-.141-.125-.25-.079-.578.329-1.047.375-1.516.375-.984 0-1.625-.359-1.86-1.093h3.938c.64 0 .813-.422.813-1.125 0-1.766-1.203-3.282-3.313-3.282S.438-5.469.438-3.453C.438-1.375 1.953.172 4.203.172M2.484-4.094c.172-.812.782-1.172 1.485-1.172.719 0 1.265.344 1.406 1.172Zm0 0"/><path id="L" d="M3.656.172c.969 0 1.672-.39 2.14-1.047l.016.672c0 .125.11.203.235.203h1.531c.125 0 .234-.078.234-.203v-6.438a.214.214 0 0 0-.218-.218H6.047c-.125 0-.234.093-.234.218l-.016.657c-.453-.641-1.14-1.032-2.14-1.032-1.907 0-3.22 1.563-3.22 3.594S1.75.172 3.658.172m.453-1.953c-.906 0-1.593-.64-1.593-1.64s.687-1.657 1.593-1.657c.938 0 1.579.656 1.579 1.64 0 1-.641 1.657-1.579 1.657m0 0"/><path id="M" d="M3.188.172c1.39 0 2.609-.734 2.609-2.14.031-1.032-.656-1.641-1.5-1.97l-1.031-.406c-.313-.125-.547-.312-.547-.562 0-.219.125-.453.547-.453.375 0 .75.203 1.203.547.125.078.218.093.312 0l.719-.844c.047-.078.094-.188.016-.282A3.1 3.1 0 0 0 3.14-7.015c-1.313 0-2.453.766-2.453 2.11 0 .953.578 1.531 1.484 1.89l.89.36c.47.187.61.328.61.594 0 .312-.25.453-.625.453-.485 0-.953-.203-1.547-.641-.11-.078-.234-.11-.36.063l-.546.78c-.11.141-.125.313-.047.407C1.125-.312 2.03.172 3.187.172m0 0"/><path id="N" d="M2.203 2.656H3.86c.11 0 .204-.062.25-.172L7.75-6.609c.047-.157-.031-.25-.187-.25H5.828a.29.29 0 0 0-.266.172l-1.5 4.203-1.515-4.203a.29.29 0 0 0-.266-.172H.547c-.156 0-.235.093-.188.25L3.016.016l-1 2.39c-.079.172.015.25.187.25m0 0"/><path id="O" d="M3.25.172c.984 0 1.61-.5 2.016-1.188l.046.797c0 .157.094.219.22.219h1.64c.125 0 .219-.078.219-.203v-6.438a.214.214 0 0 0-.22-.218H5.485a.214.214 0 0 0-.218.218v3.47c0 .905-.47 1.374-1.203 1.374-.75 0-1.141-.469-1.141-1.375V-6.64a.214.214 0 0 0-.219-.218H1c-.14 0-.219.093-.219.218v3.97C.781-.876 1.812.171 3.25.171m0 0"/><path id="P" d="M3.64.172c.47 0 1.22-.094 1.22-.438v-1.156c0-.14-.11-.219-.25-.203-.173.016-.298.016-.423.016-.359 0-.593-.188-.593-.578v-3.016H4.64c.125 0 .218-.078.218-.203v-1.235a.214.214 0 0 0-.218-.218H3.594v-1.594c0-.14-.094-.219-.219-.219H1.656c-.125 0-.234.078-.234.219v1.594H.578a.214.214 0 0 0-.219.218v1.235c0 .125.094.203.22.203h.843v3.266C1.422-.344 2.5.172 3.64.172m0 0"/><path id="Q" d="M4.031.172c2.063 0 3.61-1.578 3.61-3.594 0-2.031-1.547-3.594-3.61-3.594-2.078 0-3.593 1.563-3.593 3.594C.438-1.406 1.953.172 4.03.172m0-1.969c-.875 0-1.547-.625-1.547-1.625 0-1.015.672-1.64 1.547-1.64.86 0 1.532.625 1.532 1.64 0 1-.672 1.625-1.532 1.625m0 0"/><path id="R" d="M2.547 0H4.25c.125 0 .219-.078.219-.203v-9.375a.214.214 0 0 0-.219-.219H.688a.214.214 0 0 0-.22.219v1.39c0 .126.094.22.22.22h1.64v7.765c0 .125.094.203.219.203m0 0"/><path id="S" d="M.922 0h5.766c.125 0 .218-.078.218-.203v-1.39a.214.214 0 0 0-.218-.22H3.266l2.328-2.39c.375-.39 1.297-1.25 1.297-2.703 0-1.719-1.328-3-3.235-3-1.531 0-2.5.797-3.062 1.61a.24.24 0 0 0 .031.312l.969.968c.125.11.203.125.328 0 .36-.484.797-.921 1.547-.921.812 0 1.344.5 1.344 1.218 0 .875-.72 1.532-1.11 1.922L.797-1.844a.46.46 0 0 0-.094.266v1.375c0 .125.094.203.219.203m0 0"/><path id="T" d="M3.531.188C5.391.188 6.86-.97 6.86-2.734c0-1.328-.812-2.11-1.671-2.453A2.23 2.23 0 0 0 6.53-7.281c0-1.672-1.406-2.625-2.984-2.625-1.281 0-2.281.64-2.813 1.469a.22.22 0 0 0 .047.312l.985.953c.109.11.234.125.312-.031.25-.453.703-.734 1.25-.734.625 0 1.125.406 1.125 1.03 0 .47-.281 1-1.078 1H3c-.14 0-.25.079-.25.235v1.266c0 .14.11.218.25.218h.39c.97 0 1.313.657 1.313 1.188 0 .64-.453 1.219-1.312 1.219-.657 0-1.094-.344-1.47-.797-.124-.11-.234-.11-.312-.016L.563-1.64c-.094.063-.125.188-.047.297C1.046-.5 2.063.188 3.53.188m0 0"/><path id="aa" d="M3.64 0h2.438c.172 0 .313-.125.313-.297v-13.375a.304.304 0 0 0-.313-.312H.984c-.187 0-.312.125-.312.312v1.969c0 .187.125.328.312.328h2.344V-.297c0 .172.125.297.313.297m0 0"/><path id="af" d="M1.313 0h8.234c.172 0 .312-.125.312-.297V-2.28a.313.313 0 0 0-.312-.313h-4.89l3.327-3.39c.547-.563 1.86-1.797 1.86-3.875 0-2.47-1.89-4.282-4.625-4.282-2.188 0-3.563 1.141-4.36 2.297-.093.125-.093.297.047.438l1.375 1.375c.172.172.297.187.453 0 .516-.672 1.141-1.313 2.22-1.313 1.155 0 1.921.719 1.921 1.766 0 1.234-1.031 2.172-1.578 2.734L1.14-2.64C1.03-2.5 1-2.39 1-2.25v1.953c0 .172.14.297.313.297m0 0"/><path id="aj" d="M5.031.266c2.657 0 4.766-1.641 4.766-4.172 0-1.906-1.172-3-2.39-3.5.952-.422 1.921-1.407 1.921-3 0-2.375-2.015-3.735-4.25-3.735-1.844 0-3.281.907-4.047 2.094-.093.172-.047.344.094.438l1.39 1.359c.157.172.344.188.454-.031.36-.64 1-1.063 1.781-1.063.906 0 1.594.594 1.594 1.485 0 .672-.39 1.437-1.532 1.437h-.546c-.188 0-.328.094-.328.313v1.812c0 .203.14.328.328.328h.562c1.406 0 1.875.938 1.875 1.703 0 .891-.625 1.735-1.875 1.735-.922 0-1.547-.5-2.094-1.14-.156-.157-.312-.157-.437-.048l-1.5 1.375a.296.296 0 0 0-.063.422C1.5-.719 2.954.266 5.031.266m0 0"/><path id="ap" d="M6.984 0h2.422c.172 0 .313-.125.313-.297V-2.53h1.187c.172 0 .313-.14.313-.328V-4.75c0-.187-.14-.297-.313-.297H9.72v-8.625c0-.187-.11-.312-.297-.312H6.906a.38.38 0 0 0-.36.203L.876-5.25a.8.8 0 0 0-.094.39v2.032c0 .172.125.297.297.297h5.594v2.234c0 .172.14.297.312.297m-3.25-5.047 2.938-4.422v4.422Zm0 0"/><path id="ac" d="M8.25-1.14H3.016v-12.563c0-.172-.079-.281-.266-.281h-.687c-.188 0-.282.109-.282.28V-.28q0 .28.282.281H8.25a.287.287 0 0 0 .297-.297v-.547a.287.287 0 0 0-.297-.297m0 0"/><path id="ad" d="M6.078.234c2.828 0 4.969-2.218 4.969-5.125 0-2.921-2.14-5.14-4.969-5.14-2.844 0-5 2.219-5 5.14 0 2.907 2.156 5.125 5 5.125m0-1.14c-2.203 0-3.828-1.656-3.828-3.985 0-2.343 1.625-4.015 3.828-4.015 2.172 0 3.813 1.672 3.813 4.015 0 2.329-1.641 3.985-3.813 3.985m0 0"/><path id="ae" d="M5.89 4.094c2.579 0 4.97-1.344 4.97-4.438V-9.5c0-.187-.063-.281-.235-.281h-.656c-.188 0-.25.094-.25.281l-.016 1.625c-.734-1.328-2.062-2.156-3.875-2.156-2.766 0-4.75 2.062-4.75 4.953 0 2.937 1.985 4.984 4.797 4.984 1.766 0 3.078-.812 3.813-2.11v1.767c0 2.593-1.844 3.5-3.844 3.5-1.016 0-2.032-.25-2.844-.782-.125-.062-.266-.047-.344.078l-.265.454c-.047.156 0 .28.172.374.718.5 1.953.907 3.328.907m.126-5.313c-2.141 0-3.782-1.484-3.782-3.86 0-2.327 1.641-3.827 3.782-3.827 2.156 0 3.672 1.515 3.672 3.89 0 2.344-1.516 3.797-3.672 3.797m0 0"/><path id="ag" d="M2.063 0h.687c.188 0 .266-.094.266-.281v-6.531h5.187c.188 0 .281-.079.281-.25v-.579q0-.28-.28-.28H3.015v-4.938h5.453c.172 0 .281-.079.281-.266v-.578c0-.172-.11-.281-.281-.281H2.063c-.188 0-.282.109-.282.28V-.28q0 .28.282.281m0 0"/><path id="ah" d="M1.813 0h.703c.187 0 .265-.094.265-.281v-5.703c0-1.797 1.297-2.922 2.985-2.922 1.703 0 2.687 1.125 2.687 2.922v5.703c0 .187.047.281.235.281h.703c.172 0 .25-.094.25-.281v-5.766c0-2.594-1.438-3.984-3.563-3.984-1.672 0-2.75.828-3.297 1.828L2.72-9.484c0-.22-.063-.297-.281-.297h-.626c-.171 0-.234.094-.234.281v9.219c0 .187.063.281.234.281m0 0"/><path id="ai" d="M4.453.234c.5 0 1.203-.093 1.203-.39v-.469c0-.187-.078-.297-.406-.234-.156.015-.453.046-.625.046-.61 0-.89-.28-.89-1.078v-6.875h1.671q.282 0 .282-.28V-9.5q0-.28-.282-.281H3.734v-2.313c0-.187-.078-.281-.265-.281h-.672c-.188 0-.266.094-.266.281v2.313H1.266q-.282 0-.282.281v.453q0 .282.282.281H2.53v7.016c0 1.313.625 1.984 1.922 1.984m0 0"/><path id="ak" d="M8.453.266c1.938 0 3.453-.688 4.688-1.782.14-.14.265-.28.062-.468l-.422-.47c-.125-.124-.234-.14-.422.017-1.078.921-2.312 1.484-3.875 1.484-3.359 0-5.843-2.516-5.843-5.969 0-3.469 2.484-6 5.843-6 1.563 0 2.797.563 3.875 1.485.188.14.297.14.438 0l.406-.47c.172-.187.078-.327-.062-.468-1.235-1.078-2.75-1.766-4.688-1.766-4.156 0-7.078 3.204-7.078 7.22 0 4 2.922 7.187 7.078 7.187m0 0"/><path id="al" d="M1.813 0h.703c.187 0 .265-.094.265-.281V-14c0-.172-.078-.281-.265-.281h-.703c-.172 0-.235.11-.235.281V-.281c0 .187.063.281.234.281m0 0"/><path id="am" d="M5.125.234c1.672 0 2.766-.812 3.328-1.812l.031 1.281c0 .219.079.297.282.297h.625c.172 0 .25-.094.25-.281V-9.5c0-.187-.079-.281-.25-.281h-.703c-.188 0-.235.094-.235.281v5.703c0 1.797-1.328 2.89-3.015 2.89C3.734-.906 2.78-2 2.78-3.796V-9.5c0-.187-.078-.281-.265-.281h-.703c-.172 0-.235.094-.235.281v5.75C1.578-1.14 3 .234 5.125.234m0 0"/><path id="an" d="M1.813 0h.703c.187 0 .265-.094.265-.281v-5.906c0-1.047.438-2.72 2.266-2.72.187 0 .422 0 .703.095.203.062.344.03.344-.188v-.5c0-.187-.047-.266-.157-.344-.187-.125-.5-.187-.906-.187-1.218 0-1.89.719-2.281 1.625l-.031-1.078c0-.22-.063-.297-.281-.297h-.626c-.171 0-.234.094-.234.281v9.219c0 .187.063.281.234.281m0 0"/><path id="ao" d="M4.375.234c1.734 0 3.266-.968 3.266-2.765 0-1.516-1.032-2.235-2.313-2.766l-.89-.375C3.359-6.109 2.64-6.484 2.64-7.516c0-1.015.875-1.468 1.797-1.468.75 0 1.406.297 2.03.984.188.172.298.188.485 0l.219-.266c.11-.14.14-.296.016-.437-.672-.86-1.704-1.328-2.797-1.328-1.578 0-2.907.984-2.907 2.562 0 1.422 1.032 2.094 2.204 2.594l1.14.484c.938.391 1.64.875 1.64 1.875 0 1.125-.874 1.704-2.109 1.704-1.125 0-1.859-.532-2.437-1.172-.172-.172-.344-.157-.438-.016l-.25.297c-.093.187-.093.328.047.5.516.64 1.516 1.437 3.094 1.437m0 0"/><path id="aq" d="M2.063 0h6.624c.172 0 .282-.094.282-.281V-.86c0-.172-.11-.282-.281-.282H3.016v-5.53H8.39c.172 0 .25-.095.25-.282v-.578c0-.172-.079-.282-.25-.282H3.016v-5.046h5.656c.172 0 .281-.079.281-.266v-.578c0-.172-.11-.281-.281-.281h-6.61c-.187 0-.28.109-.28.28V-.28q0 .28.28.281m0 0"/><path id="ar" d="M1.813 0h.703c.187 0 .265-.094.265-.281v-5.797c0-1.75.906-2.828 2.453-2.828 1.47 0 2.313 1.031 2.313 2.828v5.797q0 .28.234.281H8.5c.188 0 .25-.094.25-.281v-5.797c0-1.75 1.031-2.828 2.547-2.828 1.5 0 2.219 1.031 2.219 2.828v5.797c0 .187.078.281.265.281h.703c.172 0 .235-.094.235-.281v-5.875c0-2.594-1.203-3.875-3.203-3.875-1.688 0-2.594.89-3.094 1.969-.469-1.329-1.516-1.97-2.89-1.97-1.454 0-2.313.766-2.782 1.688l-.031-1.14c0-.22-.063-.297-.281-.297h-.626c-.171 0-.234.094-.234.281v9.219c0 .187.063.281.234.281m0 0"/><path id="as" d="M5.938.234c1.796 0 3.125-.828 3.843-2.218l.047 1.703c0 .187.078.281.25.281h.64c.188 0 .266-.094.266-.281V-9.5c0-.187-.078-.281-.265-.281h-.64c-.173 0-.25.094-.25.281L9.78-7.766c-.719-1.359-2.047-2.265-3.844-2.265-2.875 0-4.859 2.219-4.859 5.14 0 2.938 1.985 5.125 4.86 5.125m.14-1.14c-2.25 0-3.844-1.594-3.844-3.985 0-2.375 1.594-4 3.844-4 2.188 0 3.719 1.641 3.719 4.032S8.266-.906 6.078-.906m0 0"/><path id="at" d="M2.172-12.453c.437 0 .781-.36.781-.813a.787.787 0 0 0-.781-.796.8.8 0 0 0-.797.796c0 .454.36.813.797.813M1.812 0h.704c.187 0 .234-.094.234-.281V-9.5c0-.187-.047-.281-.234-.281h-.703c-.172 0-.235.094-.235.281v9.219c0 .187.063.281.234.281m0 0"/><clipPath id="a"><path d="M.457 0h840.867v594.555H.457Zm0 0"/></clipPath><clipPath id="b"><path d="M36.43 35.957h248.453v62.867H36.43Zm0 0"/></clipPath><clipPath id="c"><path d="M36.43 35.957h248.453v62.867H36.43Zm0 0"/></clipPath></defs><path fill="#ffde3f" d="M1.07 593.941h839.64V.613H1.07Zm0 0"/><g clip-path="url(#a)"><path fill="none" stroke="#ffde3f" stroke-width="1.22451654" d="M1.07 593.941h839.64V.613H1.07Zm0 0"/></g><g clip-path="url(#b)"><path fill="#f9df27" d="M271.945 98.824H49.348c-7.133 0-12.934-5.8-12.934-12.933V48.895c0-7.133 5.8-12.938 12.934-12.938h235.535v49.934c0 7.132-5.801 12.933-12.938 12.933"/></g><path fill="#ec1d27" d="M219.629 79.527V58.234a.494.494 0 0 0-.82-.37l-2.961 1.093a.496.496 0 0 1-.82-.375v-5.879c0-.14.066-.277.171-.371l4.293-2.25a.5.5 0 0 1 .324-.121h6.243c.273 0 .496.223.496.496v29.07a.497.497 0 0 1-.496.496h-5.934a.497.497 0 0 1-.496-.496M230.27 79.527V73.97c0-.125.046-.246.132-.336l10.762-11.68c1.098-1.183 1.52-1.941 1.52-3.21 0-1.645-.93-2.786-2.704-2.786-1.175 0-2.57.508-2.765 2.441a.505.505 0 0 1-.492.473h-5.942a.5.5 0 0 1-.5-.516c.254-5.585 4.617-8.648 9.7-8.648 5.574 0 9.628 3.422 9.628 9.078 0 3.168-1.308 4.856-3.718 7.39l-6.387 6.763a.496.496 0 0 0 .36.835h9.25c.273 0 .495.223.495.497v5.257a.497.497 0 0 1-.496.496h-18.347a.497.497 0 0 1-.496-.496M261.066 80.277c-4.851 0-9.746-2.527-9.996-8.902a.504.504 0 0 1 .5-.516h5.946c.265 0 .464.211.492.473.187 1.797 1.46 2.695 3.058 2.695 1.817 0 3.086-1.054 3.086-3.207 0-1.816-1.351-3.168-3.21-3.168h-.973v-5.996h.972c2.07 0 2.872-1.476 2.872-2.828 0-1.902-1.31-2.871-2.747-2.871-1.316 0-2.523.852-2.714 2.39-.032.247-.22.438-.465.438h-5.973a.506.506 0 0 1-.504-.52c.258-5.347 4.461-8.558 9.656-8.558 5.575 0 9.672 3.715 9.672 8.91 0 2.899-1.242 4.488-2.578 5.488a.483.483 0 0 0-.008.774c1.477 1.16 2.922 2.95 2.922 6.152 0 6.29-4.726 9.246-10.008 9.246"/><path fill="#46464a" d="M64.164 63.535c-.45-1.035-1.437-1.887-3.187-1.887s-2.739.852-3.188 1.887a3.9 3.9 0 0 0-.375 1.305.53.53 0 0 0 .527.578h6.067c.312 0 .562-.27.527-.578a3.9 3.9 0 0 0-.37-1.305m-6.204 6.778c-.332 0-.578.3-.523.628.289 1.711 1.769 3.141 4.21 3.141 2.313 0 3.454-.586 4.61-1.66a.53.53 0 0 1 .738.008l3.656 3.652a.533.533 0 0 1-.007.758c-2.344 2.226-4.743 3.437-8.997 3.437-5.34 0-11.492-1.93-11.492-12.343 0-7.903 4.489-12.344 10.82-12.344 7 0 10.864 5.117 10.864 11.445v2.75a.53.53 0 0 1-.528.528ZM85.168 70.313h-3.727c-1.433 0-2.332.808-2.332 1.93 0 1.077.809 2.019 2.422 2.019 1.438 0 2.11-.133 2.918-.899.54-.492.719-1.258.719-2.422Zm.707 9.695a.53.53 0 0 1-.527-.528v-1.449c-1.48 1.48-2.828 2.2-5.387 2.2-2.422 0-4.441-.81-5.79-2.153-1.39-1.39-2.109-3.414-2.109-5.656 0-3.637 2.47-7.004 8.215-7.004h4.891v-.629c0-2.2-1.074-3.008-3.637-3.008-1.687 0-2.511.364-3.504 1.278a.52.52 0 0 1-.718-.024l-3.832-3.832a.53.53 0 0 1 .011-.762c2.32-2.168 4.535-2.851 8.407-2.851 6.91 0 10.636 2.87 10.636 8.754V79.48c0 .29-.234.528-.527.528ZM103.617 80.277c-3.492 0-6.902-.168-10.11-3.12a.54.54 0 0 1-.01-.766l4.019-4.02c.199-.2.511-.195.726-.012 1.957 1.68 4.328 1.68 5.508 1.68 1.078 0 3.145-.316 3.145-1.574 0-.672-.317-1.39-1.75-1.524l-3.727-.359c-4.176-.406-7.004-2.289-7.004-7.004 0-5.34 4.805-7.988 9.606-7.988 3.73 0 6.78.52 9.113 2.582.226.2.226.555.015.77l-3.796 3.796c-.2.196-.5.192-.72.024-1.226-.93-3.042-1.114-4.745-1.114-1.797 0-2.38.852-2.38 1.391 0 .27-.089 1.168 1.571 1.348l3.727.36c5.07.491 7.27 3.5 7.27 7.358 0 5.704-4.848 8.172-10.458 8.172M148.637 70.313h-3.727c-1.433 0-2.332.808-2.332 1.93 0 1.077.809 2.019 2.422 2.019 1.438 0 2.11-.133 2.918-.899.539-.492.719-1.258.719-2.422Zm.707 9.695a.53.53 0 0 1-.528-.528v-1.449c-1.48 1.48-2.828 2.2-5.386 2.2-2.426 0-4.446-.81-5.79-2.153-1.39-1.39-2.109-3.414-2.109-5.656 0-3.637 2.469-7.004 8.215-7.004h4.89v-.629c0-2.2-1.077-3.008-3.636-3.008-1.687 0-2.512.364-3.504 1.278a.52.52 0 0 1-.719-.024l-3.832-3.832a.53.53 0 0 1 .012-.762c2.32-2.168 4.535-2.851 8.402-2.851 6.914 0 10.641 2.87 10.641 8.754V79.48a.53.53 0 0 1-.527.528ZM171.336 80.008a.524.524 0 0 1-.524-.528v-1.449c-1.484 1.485-3.683 2.246-5.613 2.246-2.289 0-4.129-.761-5.43-2.066-2.066-2.063-2.425-4.352-2.425-6.91V56.383c0-.29.234-.524.527-.524h6.309c.289 0 .527.235.527.524v13.93c0 2.78 1.973 3.32 2.961 3.32s2.96-.54 2.96-3.32v-13.93c0-.29.24-.524.528-.524h6.309c.293 0 .527.235.527.524V79.48a.525.525 0 0 1-.527.528ZM188.898 80.008c-5.34 0-7.496-3.817-7.496-7.137V61.516h-1.672a.53.53 0 0 1-.527-.528v-4.605c0-.29.234-.524.527-.524h1.672v-5.445c0-.289.235-.527.528-.527h6.308a.53.53 0 0 1 .528.527v5.445h3.289c.289 0 .527.235.527.524v4.605a.53.53 0 0 1-.527.528h-3.29v10.816c0 .941.493 1.48 1.481 1.48h1.809c.289 0 .527.235.527.528v5.14a.53.53 0 0 1-.527.528ZM206 62.906c-.45-.449-1.078-.676-1.977-.676-.894 0-1.523.227-1.972.676-.942.942-1.078 2.649-1.078 5.028s.136 4.082 1.078 5.027c.449.45 1.078.672 1.972.672.899 0 1.528-.223 1.977-.672.941-.945 1.078-2.648 1.078-5.027s-.137-4.086-1.078-5.028m5.79 14.274c-1.435 1.527-3.86 3.097-7.767 3.097-3.902 0-6.328-1.57-7.761-3.097-2.024-2.2-2.649-4.489-2.649-9.246 0-4.715.625-7.047 2.649-9.25 1.433-1.524 3.86-3.094 7.761-3.094 3.907 0 6.332 1.57 7.766 3.094 2.02 2.203 2.652 4.535 2.652 9.25 0 4.757-.632 7.046-2.652 9.246M127.29 81.496c-.493 1.39-1.122 2.422-1.888 3.188-1.433 1.523-3.629 2.02-5.785 2.02h-2.258a.527.527 0 0 1-.523-.528v-5.59c0-.293.234-.527.523-.527h1.047c1.301 0 2.512-.668 3.059-2.032 0 0 .117-.254 0-.566l-7.711-20.89a.527.527 0 0 1 .496-.708h6.582c.23 0 .43.145.5.364l3.457 10.59c.156.488.848.484 1.004-.004l3.297-10.579a.52.52 0 0 1 .504-.37h6.574c.367 0 .621.363.496.706Zm0 0"/><g clip-path="url(#c)"><path fill="#fff" d="M49.348 40.66c-4.54 0-8.23 3.695-8.23 8.235V85.89c0 4.539 3.69 8.23 8.23 8.23h222.597c4.54 0 8.235-3.691 8.235-8.23V40.66Zm222.597 58.164H49.348c-7.133 0-12.934-5.8-12.934-12.933V48.895c0-7.133 5.8-12.938 12.934-12.938h235.535v49.934c0 7.132-5.801 12.933-12.938 12.933"/></g><g fill="#46464a"><use xlink:href="#d" x="36.413" y="241.331"/><use xlink:href="#e" x="63.434" y="241.331"/></g><use xlink:href="#f" x="93.276" y="241.331" fill="#46464a"/><g fill="#46464a"><use xlink:href="#g" x="121.861" y="241.331"/><use xlink:href="#h" x="131.246" y="241.331"/></g><use xlink:href="#i" x="162.436" y="241.331" fill="#46464a"/><use xlink:href="#j" x="181.566" y="241.331" fill="#46464a"/><use xlink:href="#k" x="213.21" y="241.331" fill="#46464a"/><use xlink:href="#l" x="243.154" y="241.331" fill="#46464a"/><use xlink:href="#m" x="36.413" y="283.69" fill="#46464a"/><g fill="#46464a"><use xlink:href="#n" x="43.432" y="283.69"/><use xlink:href="#o" x="50.997" y="283.69"/><use xlink:href="#p" x="53.752" y="283.69"/><use xlink:href="#q" x="59.652" y="283.69"/><use xlink:href="#r" x="62.183" y="283.69"/><use xlink:href="#s" x="70.056" y="283.69"/></g><g fill="#46464a"><use xlink:href="#t" x="74.251" y="283.69"/><use xlink:href="#u" x="82.752" y="283.69"/><use xlink:href="#v" x="90.317" y="283.69"/><use xlink:href="#q" x="98.819" y="283.69"/><use xlink:href="#r" x="101.35" y="283.69"/><use xlink:href="#w" x="109.222" y="283.69"/><use xlink:href="#w" x="117.43" y="283.69"/><use xlink:href="#x" x="125.638" y="283.69"/><use xlink:href="#q" x="132.672" y="283.69"/><use xlink:href="#n" x="135.203" y="283.69"/><use xlink:href="#t" x="142.767" y="283.69"/><use xlink:href="#p" x="151.269" y="283.69"/><use xlink:href="#q" x="157.17" y="283.69"/><use xlink:href="#y" x="159.701" y="283.69"/><use xlink:href="#z" x="168.202" y="283.69"/><use xlink:href="#z" x="176.047" y="283.69"/><use xlink:href="#u" x="183.891" y="283.69"/></g><use xlink:href="#q" x="191.736" y="283.69" fill="#46464a"/><g fill="#46464a"><use xlink:href="#v" x="36.413" y="301.668"/><use xlink:href="#z" x="44.914" y="301.668"/></g><use xlink:href="#A" x="52.269" y="301.668" fill="#46464a"/><g fill="#46464a"><use xlink:href="#z" x="59.051" y="301.668"/><use xlink:href="#B" x="66.896" y="301.668"/><use xlink:href="#w" x="69.65" y="301.668"/><use xlink:href="#C" x="77.858" y="301.668"/><use xlink:href="#z" x="86.36" y="301.668"/><use xlink:href="#v" x="94.204" y="301.668"/><use xlink:href="#q" x="102.706" y="301.668"/><use xlink:href="#D" x="105.237" y="301.668"/></g><g fill="#46464a"><use xlink:href="#w" x="109.558" y="301.668"/><use xlink:href="#q" x="117.766" y="301.668"/><use xlink:href="#C" x="120.297" y="301.668"/><use xlink:href="#s" x="128.798" y="301.668"/></g><use xlink:href="#w" x="132.993" y="301.668" fill="#46464a"/><g fill="#46464a"><use xlink:href="#A" x="140.712" y="301.668"/><use xlink:href="#o" x="147.983" y="301.668"/><use xlink:href="#v" x="150.738" y="301.668"/><use xlink:href="#z" x="159.239" y="301.668"/></g><use xlink:href="#q" x="167.363" y="301.668" fill="#46464a"/><g fill="#46464a"><use xlink:href="#t" x="36.413" y="319.646"/><use xlink:href="#E" x="44.914" y="319.646"/><use xlink:href="#z" x="53.346" y="319.646"/><use xlink:href="#u" x="61.191" y="319.646"/><use xlink:href="#F" x="68.755" y="319.646"/><use xlink:href="#o" x="76.18" y="319.646"/><use xlink:href="#z" x="78.935" y="319.646"/></g><use xlink:href="#p" x="86.64" y="319.646" fill="#46464a"/><use xlink:href="#G" x="92.261" y="319.646" fill="#46464a"/><g fill="#46464a"><use xlink:href="#q" x="94.722" y="319.646"/><use xlink:href="#t" x="97.253" y="319.646"/><use xlink:href="#u" x="105.754" y="319.646"/><use xlink:href="#v" x="113.319" y="319.646"/><use xlink:href="#q" x="121.821" y="319.646"/><use xlink:href="#w" x="124.352" y="319.646"/></g><g fill="#46464a"><use xlink:href="#D" x="132.42" y="319.646"/><use xlink:href="#n" x="136.811" y="319.646"/><use xlink:href="#z" x="144.375" y="319.646"/><use xlink:href="#s" x="152.22" y="319.646"/></g><g fill="#46464a"><use xlink:href="#q" x="156.665" y="319.646"/><use xlink:href="#D" x="159.196" y="319.646"/><use xlink:href="#n" x="163.587" y="319.646"/><use xlink:href="#o" x="171.151" y="319.646"/><use xlink:href="#s" x="173.906" y="319.646"/></g><g fill="#46464a"><use xlink:href="#v" x="178.101" y="319.646"/><use xlink:href="#H" x="186.603" y="319.646"/></g><g fill="#46464a"><use xlink:href="#C" x="36.413" y="337.624"/><use xlink:href="#t" x="44.914" y="337.624"/><use xlink:href="#s" x="53.416" y="337.624"/></g><g fill="#46464a"><use xlink:href="#D" x="58.142" y="337.624"/><use xlink:href="#o" x="62.533" y="337.624"/><use xlink:href="#z" x="65.288" y="337.624"/></g><use xlink:href="#p" x="72.992" y="337.624" fill="#46464a"/><use xlink:href="#G" x="78.613" y="337.624" fill="#46464a"/><g fill="#46464a"><use xlink:href="#q" x="81.074" y="337.624"/><use xlink:href="#D" x="83.605" y="337.624"/><use xlink:href="#n" x="87.996" y="337.624"/><use xlink:href="#z" x="95.561" y="337.624"/><use xlink:href="#q" x="103.405" y="337.624"/><use xlink:href="#D" x="105.936" y="337.624"/></g><g fill="#46464a"><use xlink:href="#w" x="110.257" y="337.624"/><use xlink:href="#w" x="118.465" y="337.624"/><use xlink:href="#B" x="126.673" y="337.624"/><use xlink:href="#p" x="129.428" y="337.624"/><use xlink:href="#q" x="135.328" y="337.624"/><use xlink:href="#t" x="137.859" y="337.624"/><use xlink:href="#u" x="146.361" y="337.624"/><use xlink:href="#v" x="153.926" y="337.624"/></g><use xlink:href="#q" x="162.706" y="337.624" fill="#46464a"/><g fill="#46464a"><use xlink:href="#E" x="36.413" y="355.602"/><use xlink:href="#I" x="44.844" y="355.602"/><use xlink:href="#o" x="52.409" y="355.602"/><use xlink:href="#v" x="55.164" y="355.602"/><use xlink:href="#z" x="63.666" y="355.602"/><use xlink:href="#B" x="71.51" y="355.602"/><use xlink:href="#o" x="74.265" y="355.602"/><use xlink:href="#u" x="77.019" y="355.602"/><use xlink:href="#z" x="84.584" y="355.602"/></g><g fill="#46464a"><use xlink:href="#p" x="92.289" y="355.602"/><use xlink:href="#q" x="98.19" y="355.602"/><use xlink:href="#D" x="100.72" y="355.602"/><use xlink:href="#n" x="105.111" y="355.602"/><use xlink:href="#t" x="112.676" y="355.602"/><use xlink:href="#D" x="121.178" y="355.602"/><use xlink:href="#q" x="125.568" y="355.602"/><use xlink:href="#J" x="128.099" y="355.602"/><use xlink:href="#o" x="139.957" y="355.602"/><use xlink:href="#B" x="142.711" y="355.602"/><use xlink:href="#B" x="145.466" y="355.602"/><use xlink:href="#q" x="148.221" y="355.602"/><use xlink:href="#z" x="150.752" y="355.602"/><use xlink:href="#u" x="158.596" y="355.602"/><use xlink:href="#p" x="166.161" y="355.602"/><use xlink:href="#I" x="172.062" y="355.602"/><use xlink:href="#s" x="179.627" y="355.602"/></g><use xlink:href="#z" x="183.821" y="355.602" fill="#46464a"/><use xlink:href="#q" x="191.946" y="355.602" fill="#46464a"/><g fill="#46464a"><use xlink:href="#D" x="36.413" y="373.581"/><use xlink:href="#n" x="40.803" y="373.581"/><use xlink:href="#t" x="48.368" y="373.581"/><use xlink:href="#D" x="56.87" y="373.581"/><use xlink:href="#q" x="61.26" y="373.581"/><use xlink:href="#D" x="63.791" y="373.581"/><use xlink:href="#n" x="68.182" y="373.581"/><use xlink:href="#z" x="75.747" y="373.581"/><use xlink:href="#q" x="83.591" y="373.581"/><use xlink:href="#u" x="86.122" y="373.581"/><use xlink:href="#z" x="93.687" y="373.581"/></g><g fill="#46464a"><use xlink:href="#J" x="101.042" y="373.581"/><use xlink:href="#q" x="112.9" y="373.581"/></g><g fill="#46464a"><use xlink:href="#K" x="115.429" y="373.581"/><use xlink:href="#L" x="122.84" y="373.581"/><use xlink:href="#M" x="131.146" y="373.581"/></g><use xlink:href="#N" x="136.893" y="373.581" fill="#46464a"/><g fill="#46464a"><use xlink:href="#L" x="144.234" y="373.581"/><use xlink:href="#O" x="152.54" y="373.581"/><use xlink:href="#P" x="160.441" y="373.581"/></g><use xlink:href="#Q" x="165.307" y="373.581" fill="#46464a"/><use xlink:href="#R" x="173.081" y="373.581" fill="#ed1d24"/><g fill="#ed1d24"><use xlink:href="#S" x="179.765" y="373.581"/><use xlink:href="#T" x="187.022" y="373.581"/></g><use xlink:href="#q" x="194.32" y="373.581" fill="#46464a"/><g fill="#46464a"><use xlink:href="#y" x="36.413" y="391.559"/><use xlink:href="#s" x="44.914" y="391.559"/></g><g fill="#46464a"><use xlink:href="#t" x="49.109" y="391.559"/><use xlink:href="#u" x="57.611" y="391.559"/><use xlink:href="#v" x="65.176" y="391.559"/><use xlink:href="#q" x="73.677" y="391.559"/><use xlink:href="#o" x="76.208" y="391.559"/><use xlink:href="#p" x="78.963" y="391.559"/><use xlink:href="#q" x="84.864" y="391.559"/><use xlink:href="#C" x="87.395" y="391.559"/><use xlink:href="#s" x="95.896" y="391.559"/></g><use xlink:href="#z" x="100.091" y="391.559" fill="#46464a"/><use xlink:href="#p" x="107.796" y="391.559" fill="#46464a"/><g fill="#46464a"><use xlink:href="#z" x="113.627" y="391.559"/><use xlink:href="#u" x="121.471" y="391.559"/></g><use xlink:href="#D" x="128.756" y="391.559" fill="#46464a"/><g fill="#46464a"><use xlink:href="#z" x="133.079" y="391.559"/><use xlink:href="#v" x="140.923" y="391.559"/></g><use xlink:href="#q" x="149.704" y="391.559" fill="#46464a"/><use xlink:href="#F" x="36.413" y="409.537" fill="#46464a"/><g fill="#46464a"><use xlink:href="#w" x="43.558" y="409.537"/><use xlink:href="#u" x="51.766" y="409.537"/><use xlink:href="#p" x="59.331" y="409.537"/><use xlink:href="#o" x="65.232" y="409.537"/><use xlink:href="#p" x="67.986" y="409.537"/></g><use xlink:href="#D" x="73.607" y="409.537" fill="#46464a"/><g fill="#46464a"><use xlink:href="#z" x="77.928" y="409.537"/><use xlink:href="#u" x="85.773" y="409.537"/></g><g fill="#46464a"><use xlink:href="#D" x="93.058" y="409.537"/><use xlink:href="#B" x="97.448" y="409.537"/><use xlink:href="#U" x="100.203" y="409.537"/><use xlink:href="#q" x="107.474" y="409.537"/><use xlink:href="#t" x="110.005" y="409.537"/><use xlink:href="#F" x="118.507" y="409.537"/><use xlink:href="#s" x="125.932" y="409.537"/></g><use xlink:href="#w" x="130.127" y="409.537" fill="#46464a"/><g fill="#46464a"><use xlink:href="#p" x="138.195" y="409.537"/><use xlink:href="#p" x="144.096" y="409.537"/><use xlink:href="#q" x="149.997" y="409.537"/><use xlink:href="#t" x="152.527" y="409.537"/><use xlink:href="#B" x="161.029" y="409.537"/><use xlink:href="#B" x="163.784" y="409.537"/></g><use xlink:href="#q" x="166.818" y="409.537" fill="#46464a"/><g fill="#46464a"><use xlink:href="#V" x="36.413" y="427.515"/><use xlink:href="#z" x="47.543" y="427.515"/><use xlink:href="#v" x="55.388" y="427.515"/><use xlink:href="#o" x="63.889" y="427.515"/><use xlink:href="#I" x="66.644" y="427.515"/><use xlink:href="#V" x="74.209" y="427.515"/><use xlink:href="#p" x="85.339" y="427.515"/></g><use xlink:href="#W" x="90.96" y="427.515" fill="#46464a"/><use xlink:href="#m" x="230.869" y="283.69" fill="#46464a"/><g fill="#46464a"><use xlink:href="#n" x="237.889" y="283.69"/><use xlink:href="#z" x="245.453" y="283.69"/><use xlink:href="#q" x="253.298" y="283.69"/><use xlink:href="#u" x="255.829" y="283.69"/><use xlink:href="#z" x="263.394" y="283.69"/></g><g fill="#46464a"><use xlink:href="#J" x="270.749" y="283.69"/><use xlink:href="#q" x="282.606" y="283.69"/></g><g fill="#46464a"><use xlink:href="#K" x="285.136" y="283.69"/><use xlink:href="#L" x="292.547" y="283.69"/><use xlink:href="#M" x="300.853" y="283.69"/></g><use xlink:href="#N" x="306.6" y="283.69" fill="#46464a"/><g fill="#46464a"><use xlink:href="#L" x="313.941" y="283.69"/><use xlink:href="#O" x="322.247" y="283.69"/><use xlink:href="#P" x="330.148" y="283.69"/></g><use xlink:href="#Q" x="335.014" y="283.69" fill="#46464a"/><use xlink:href="#R" x="342.788" y="283.69" fill="#ed1d24"/><g fill="#ed1d24"><use xlink:href="#S" x="349.472" y="283.69"/><use xlink:href="#T" x="356.729" y="283.69"/></g><g fill="#46464a"><use xlink:href="#q" x="363.748" y="283.69"/><use xlink:href="#y" x="366.279" y="283.69"/><use xlink:href="#s" x="374.78" y="283.69"/></g><g fill="#46464a"><use xlink:href="#t" x="378.975" y="283.69"/><use xlink:href="#u" x="387.477" y="283.69"/><use xlink:href="#v" x="395.042" y="283.69"/></g><use xlink:href="#q" x="403.823" y="283.69" fill="#46464a"/><g fill="#46464a"><use xlink:href="#n" x="230.869" y="301.668"/><use xlink:href="#t" x="238.434" y="301.668"/><use xlink:href="#p" x="246.936" y="301.668"/><use xlink:href="#q" x="252.836" y="301.668"/><use xlink:href="#y" x="255.367" y="301.668"/><use xlink:href="#z" x="263.869" y="301.668"/><use xlink:href="#z" x="271.713" y="301.668"/><use xlink:href="#u" x="279.558" y="301.668"/><use xlink:href="#q" x="287.123" y="301.668"/><use xlink:href="#F" x="289.654" y="301.668"/><use xlink:href="#s" x="297.079" y="301.668"/></g><g fill="#46464a"><use xlink:href="#z" x="301.275" y="301.668"/><use xlink:href="#t" x="309.119" y="301.668"/><use xlink:href="#D" x="317.621" y="301.668"/></g><g fill="#46464a"><use xlink:href="#z" x="321.942" y="301.668"/><use xlink:href="#v" x="329.786" y="301.668"/><use xlink:href="#q" x="338.288" y="301.668"/><use xlink:href="#D" x="340.819" y="301.668"/></g><g fill="#46464a"><use xlink:href="#w" x="345.141" y="301.668"/><use xlink:href="#q" x="353.349" y="301.668"/><use xlink:href="#z" x="355.88" y="301.668"/><use xlink:href="#u" x="363.724" y="301.668"/><use xlink:href="#n" x="371.289" y="301.668"/><use xlink:href="#t" x="378.854" y="301.668"/><use xlink:href="#u" x="387.356" y="301.668"/><use xlink:href="#F" x="394.92" y="301.668"/></g><use xlink:href="#z" x="402.066" y="301.668" fill="#46464a"/><use xlink:href="#q" x="410.19" y="301.668" fill="#46464a"/><g fill="#46464a"><use xlink:href="#t" x="230.869" y="319.646"/><use xlink:href="#u" x="239.371" y="319.646"/><use xlink:href="#v" x="246.936" y="319.646"/><use xlink:href="#q" x="255.437" y="319.646"/><use xlink:href="#z" x="257.968" y="319.646"/></g><use xlink:href="#X" x="265.393" y="319.646" fill="#46464a"/><use xlink:href="#D" x="271.741" y="319.646" fill="#46464a"/><g fill="#46464a"><use xlink:href="#z" x="276.062" y="319.646"/><use xlink:href="#u" x="283.907" y="319.646"/><use xlink:href="#v" x="291.471" y="319.646"/><use xlink:href="#q" x="299.973" y="319.646"/><use xlink:href="#D" x="302.504" y="319.646"/><use xlink:href="#n" x="306.895" y="319.646"/><use xlink:href="#z" x="314.459" y="319.646"/><use xlink:href="#q" x="322.304" y="319.646"/><use xlink:href="#z" x="324.835" y="319.646"/></g><g fill="#46464a"><use xlink:href="#X" x="332.26" y="319.646"/><use xlink:href="#o" x="338.748" y="319.646"/><use xlink:href="#p" x="341.503" y="319.646"/></g><g fill="#46464a"><use xlink:href="#D" x="347.124" y="319.646"/><use xlink:href="#o" x="351.514" y="319.646"/><use xlink:href="#u" x="354.269" y="319.646"/><use xlink:href="#E" x="361.834" y="319.646"/></g><use xlink:href="#q" x="370.544" y="319.646" fill="#46464a"/><use xlink:href="#F" x="230.869" y="337.624" fill="#46464a"/><g fill="#46464a"><use xlink:href="#w" x="238.014" y="337.624"/><use xlink:href="#u" x="246.222" y="337.624"/><use xlink:href="#F" x="253.787" y="337.624"/></g><g fill="#46464a"><use xlink:href="#z" x="260.933" y="337.624"/><use xlink:href="#C" x="268.777" y="337.624"/></g><g fill="#46464a"><use xlink:href="#D" x="277.139" y="337.624"/><use xlink:href="#Y" x="281.529" y="337.624"/><use xlink:href="#q" x="284.13" y="337.624"/><use xlink:href="#J" x="286.661" y="337.624"/><use xlink:href="#n" x="298.519" y="337.624"/><use xlink:href="#o" x="306.084" y="337.624"/><use xlink:href="#B" x="308.838" y="337.624"/><use xlink:href="#z" x="311.593" y="337.624"/><use xlink:href="#q" x="319.437" y="337.624"/><use xlink:href="#F" x="321.968" y="337.624"/><use xlink:href="#s" x="329.393" y="337.624"/></g><g fill="#46464a"><use xlink:href="#z" x="333.588" y="337.624"/><use xlink:href="#t" x="341.433" y="337.624"/><use xlink:href="#D" x="349.934" y="337.624"/><use xlink:href="#o" x="354.325" y="337.624"/><use xlink:href="#u" x="357.08" y="337.624"/><use xlink:href="#E" x="364.644" y="337.624"/><use xlink:href="#q" x="373.076" y="337.624"/><use xlink:href="#t" x="375.607" y="337.624"/></g><use xlink:href="#q" x="384.388" y="337.624" fill="#46464a"/><use xlink:href="#Z" x="230.869" y="355.602" fill="#46464a"/><g fill="#46464a"><use xlink:href="#s" x="235.246" y="355.602"/><use xlink:href="#o" x="239.832" y="355.602"/><use xlink:href="#z" x="242.587" y="355.602"/><use xlink:href="#u" x="250.431" y="355.602"/><use xlink:href="#v" x="257.996" y="355.602"/><use xlink:href="#B" x="266.498" y="355.602"/><use xlink:href="#o" x="269.252" y="355.602"/><use xlink:href="#z" x="272.007" y="355.602"/><use xlink:href="#s" x="279.852" y="355.602"/></g><use xlink:href="#G" x="283.319" y="355.602" fill="#46464a"/><g fill="#46464a"><use xlink:href="#q" x="285.78" y="355.602"/><use xlink:href="#V" x="288.311" y="355.602"/><use xlink:href="#w" x="299.442" y="355.602"/><use xlink:href="#s" x="307.65" y="355.602"/></g><g fill="#46464a"><use xlink:href="#z" x="311.845" y="355.602"/><use xlink:href="#q" x="319.689" y="355.602"/><use xlink:href="#t" x="322.22" y="355.602"/><use xlink:href="#C" x="330.722" y="355.602"/><use xlink:href="#C" x="339.223" y="355.602"/><use xlink:href="#s" x="347.725" y="355.602"/></g><g fill="#46464a"><use xlink:href="#w" x="351.918" y="355.602"/><use xlink:href="#t" x="360.126" y="355.602"/><use xlink:href="#F" x="368.628" y="355.602"/><use xlink:href="#n" x="376.053" y="355.602"/><use xlink:href="#t" x="383.618" y="355.602"/><use xlink:href="#y" x="392.12" y="355.602"/><use xlink:href="#B" x="400.621" y="355.602"/><use xlink:href="#z" x="403.376" y="355.602"/></g><use xlink:href="#q" x="411.5" y="355.602" fill="#46464a"/><g fill="#46464a"><use xlink:href="#B" x="230.869" y="373.581"/><use xlink:href="#w" x="233.624" y="373.581"/><use xlink:href="#w" x="241.832" y="373.581"/><use xlink:href="#x" x="250.04" y="373.581"/><use xlink:href="#q" x="257.073" y="373.581"/><use xlink:href="#t" x="259.604" y="373.581"/><use xlink:href="#u" x="268.106" y="373.581"/><use xlink:href="#v" x="275.671" y="373.581"/><use xlink:href="#q" x="284.172" y="373.581"/><use xlink:href="#Z" x="286.703" y="373.581"/></g><g fill="#46464a"><use xlink:href="#z" x="290.8" y="373.581"/><use xlink:href="#z" x="298.645" y="373.581"/><use xlink:href="#B" x="306.489" y="373.581"/><use xlink:href="#W" x="309.244" y="373.581"/></g><path fill="none" stroke="#46464a" stroke-miterlimit="10" stroke-width=".499395" d="M525.855 267.5h279.512M525.855 297.465h279.512M525.855 327.426h279.512M525.855 357.39h279.512M525.855 387.355h279.512"/><use xlink:href="#aa" x="525.857" y="288.72" fill="#ed1d24"/><use xlink:href="#ab" x="533.607" y="288.72" fill="#46464a"/><use xlink:href="#ab" x="537.822" y="288.72" fill="#46464a"/><g fill="#46464a"><use xlink:href="#ac" x="553.823" y="288.72"/><use xlink:href="#ad" x="563.091" y="288.72"/></g><use xlink:href="#ae" x="575.358" y="288.72" fill="#46464a"/><use xlink:href="#ad" x="587.967" y="288.72" fill="#46464a"/><use xlink:href="#af" x="525.857" y="318.683" fill="#ed1d24"/><use xlink:href="#ab" x="536.823" y="318.683" fill="#46464a"/><use xlink:href="#ab" x="541.038" y="318.683" fill="#46464a"/><use xlink:href="#ag" x="553.822" y="318.683" fill="#46464a"/><use xlink:href="#ad" x="563.842" y="318.683" fill="#46464a"/><g fill="#46464a"><use xlink:href="#ah" x="576.131" y="318.683"/><use xlink:href="#ai" x="587.018" y="318.683"/></g><use xlink:href="#aj" x="525.857" y="348.647" fill="#ed1d24"/><use xlink:href="#ab" x="536.484" y="348.647" fill="#46464a"/><use xlink:href="#ab" x="540.698" y="348.647" fill="#46464a"/><g fill="#46464a"><use xlink:href="#ak" x="553.822" y="348.647"/><use xlink:href="#ad" x="568.245" y="348.647"/></g><use xlink:href="#al" x="580.534" y="348.647" fill="#46464a"/><use xlink:href="#ad" x="585.013" y="348.647" fill="#46464a"/><use xlink:href="#am" x="597.234" y="348.647" fill="#46464a"/><use xlink:href="#an" x="608.62" y="348.647" fill="#46464a"/><use xlink:href="#ao" x="615.478" y="348.647" fill="#46464a"/><use xlink:href="#ap" x="525.857" y="378.611" fill="#ed1d24"/><use xlink:href="#ab" x="538.042" y="378.611" fill="#46464a"/><use xlink:href="#aq" x="553.823" y="378.611" fill="#46464a"/><g fill="#46464a"><use xlink:href="#ar" x="564.202" y="378.611"/><use xlink:href="#as" x="580.662" y="378.611"/></g><use xlink:href="#at" x="593.386" y="378.611" fill="#46464a"/><use xlink:href="#al" x="597.871" y="378.611" fill="#46464a"/></svg>