<svg xmlns="http://www.w3.org/2000/svg" xmlns:xlink="http://www.w3.org/1999/xlink" width="1122.52" height="793.701" viewBox="0 0 841.89 595.276"><rect width="100%" height="100%" fill="#fff"/><defs><path id="c" d="M23.078-7.547h-11v-29.406c0-.484-.312-.797-.812-.797H4.375c-.484 0-.812.313-.812.797v36.14c0 .485.328.813.812.813h18.703c.5 0 .813-.328.813-.812v-5.922c0-.5-.313-.813-.813-.813m0 0"/><path id="d" d="M15.531.64c7.985 0 13.922-6.03 13.922-13.859 0-7.812-5.937-13.86-13.922-13.86-7.984 0-13.86 6.048-13.86 13.86 0 7.828 5.876 13.86 13.86 13.86m0-7.546c-3.344 0-5.937-2.422-5.937-6.313 0-3.875 2.594-6.312 5.937-6.312s5.938 2.437 5.938 6.312c0 3.89-2.594 6.313-5.938 6.313m0 0"/><path id="e" d="M15.594 11.063c6.406 0 14.078-2.86 14.078-12.625v-24.063c0-.484-.328-.797-.813-.797h-6.047c-.484 0-.812.313-.812.797l-.156 2.047c-1.625-2.203-4.094-3.5-7.813-3.5-7.453 0-12.36 5.5-12.36 13.219C1.672-6.047 6.579-.594 13.97-.594c3.61 0 6.203-1.297 7.828-3.453v2.484c0 4.532-3.625 5.938-7.016 5.938-2.265 0-4.531-.656-6.906-1.89-.64-.376-1.14-.11-1.453.484L4.75 6.25c-.328.547-.266 1.25.266 1.625 2.75 2.11 6.578 3.188 10.578 3.188m.047-19.047c-3.453 0-5.938-2.266-5.938-5.875 0-3.563 2.485-5.828 5.938-5.828 3.406 0 5.828 2.265 5.828 5.828 0 3.609-2.422 5.875-5.828 5.875m0 0"/><path id="f" d="M6.906-17.375a4.78 4.78 0 0 0 4.797-4.797c0-2.687-2.11-4.906-4.797-4.906-2.703 0-4.797 2.219-4.797 4.906a4.77 4.77 0 0 0 4.797 4.797m0 18.016a4.78 4.78 0 0 0 4.797-4.797c0-2.688-2.11-4.906-4.797-4.906-2.703 0-4.797 2.218-4.797 4.906A4.77 4.77 0 0 0 6.906.64m0 0"/><path id="h" d="M16.094-2.219H5.875v-24.5c0-.36-.156-.547-.5-.547h-1.36c-.359 0-.546.188-.546.547V-.547c0 .36.187.547.547.547h12.078c.343 0 .578-.234.578-.578v-1.063c0-.343-.235-.578-.578-.578m0 0"/><path id="i" d="M11.563.469c3.515 0 6.124-1.64 7.53-4.328l.079 3.312c0 .36.156.547.5.547h1.25c.344 0 .5-.187.5-.547v-18c0-.344-.156-.547-.5-.547h-1.25c-.344 0-.5.203-.5.547l-.078 3.39c-1.407-2.64-4.016-4.39-7.532-4.39-5.609 0-9.453 4.313-9.453 10C2.11-3.812 5.953.47 11.563.47m.28-2.219c-4.359 0-7.484-3.125-7.484-7.797 0-4.625 3.125-7.781 7.485-7.781 4.281 0 7.281 3.187 7.281 7.86 0 4.64-3 7.718-7.281 7.718m0 0"/><path id="j" d="M3.547 0h1.36c.359 0 .515-.187.515-.547v-11.14c0-3.5 2.531-5.688 5.828-5.688 3.313 0 5.234 2.188 5.234 5.688v11.14c0 .36.11.547.453.547h1.375c.344 0 .5-.187.5-.547v-11.25c0-5.062-2.796-7.75-6.968-7.75-3.235 0-5.344 1.594-6.422 3.531L5.297-18.5c0-.437-.11-.594-.547-.594H3.547c-.36 0-.469.203-.469.547v18c0 .36.11.547.469.547m0 0"/><path id="k" d="M11.563.469c3.515 0 6.124-1.64 7.53-4.328l.079 3.312c0 .36.156.547.5.547h1.25c.344 0 .5-.187.5-.547v-26.765c0-.344-.156-.532-.5-.532h-1.375c-.344 0-.453.188-.453.532v12.078c-1.453-2.641-4.063-4.313-7.532-4.313-5.609 0-9.453 4.313-9.453 10C2.11-3.812 5.953.47 11.563.47m.28-2.219c-4.359 0-7.484-3.125-7.484-7.797 0-4.625 3.125-7.781 7.485-7.781 4.281 0 7.281 3.187 7.281 7.86 0 4.64-3 7.718-7.281 7.718m0 0"/><path id="l" d="M8.531.469c3.39 0 6.39-1.906 6.39-5.422 0-2.953-2.03-4.36-4.515-5.375l-1.765-.735c-2.094-.859-3.5-1.593-3.5-3.578 0-2 1.718-2.89 3.5-2.89 1.484 0 2.765.593 3.984 1.906.344.36.578.39.938 0l.421-.5c.235-.281.266-.578.032-.86-1.313-1.671-3.297-2.562-5.453-2.562-3.063 0-5.688 1.906-5.688 4.985 0 2.765 2.031 4.078 4.328 5.062l2.219.938c1.828.765 3.203 1.703 3.203 3.656 0 2.172-1.719 3.312-4.14 3.312-2.172 0-3.61-1.015-4.75-2.265-.313-.344-.657-.313-.86-.032l-.453.579c-.203.359-.203.624.078.968C3.5-1.094 5.453.47 8.531.47m0 0"/><path id="m" d="M12 .469c3.078 0 5.531-1.172 7.172-3.156.234-.313.297-.5.078-.735l-.75-.75c-.344-.344-.656-.156-.937.125-1.157 1.281-2.766 2.297-5.407 2.297-4.437 0-7.75-3.156-7.75-7.797 0-4.625 3.313-7.828 7.703-7.828 2.657 0 4.25 1.047 5.5 2.375.188.234.5.438.86.047l.734-.703c.235-.235.156-.438-.078-.781-1.64-1.954-4.094-3.11-7.094-3.11-5.64 0-9.922 4.281-9.922 10C2.11-3.812 6.391.47 12 .47m0 0"/><path id="n" d="M3.547 7.406h1.36c.359 0 .515-.203.515-.547V-3.78c1.39 2.61 4 4.25 7.516 4.25 5.609 0 9.453-4.281 9.453-10.016 0-5.687-3.844-10-9.453-10-3.516 0-6.126 1.75-7.563 4.39l-.078-3.39c0-.344-.11-.547-.469-.547H3.547c-.36 0-.469.203-.469.547V6.86c0 .344.11.547.469.547m9.11-9.156c-4.282 0-7.282-3.078-7.282-7.719 0-4.672 3-7.86 7.281-7.86 4.328 0 7.438 3.157 7.438 7.782 0 4.672-3.11 7.797-7.438 7.797m0 0"/><path id="o" d="M12.156.469c2.64 0 5.094-.813 6.813-2.453.281-.282.437-.47.156-.813l-.547-.703c-.11-.156-.39-.156-.547 0-1.468 1.125-3.187 1.938-5.687 1.938-4.906 0-7.625-3.11-7.985-7.157H19.25c1.047 0 1.281-.469 1.281-1.844 0-4.624-3.234-8.984-8.89-8.984-5.641 0-9.532 4.313-9.532 9.922C2.11-4.094 5.922.469 12.156.469m-7.75-11.11c.344-4.125 3.157-6.812 7.203-6.812 4.125 0 6.735 2.844 6.86 6.812Zm0 0"/><path id="p" d="M1.031 0h.344c.094 0 .125-.047.125-.14v-3.266h2.61c.077 0 .14-.031.14-.125v-.297a.14.14 0 0 0-.14-.14H1.5v-2.47h2.734c.094 0 .141-.03.141-.125v-.28q0-.142-.14-.141H1.03q-.14 0-.14.14V-.14Q.89 0 1.03 0m0 0"/><path id="q" d="M3.031.125c1.422 0 2.485-1.11 2.485-2.578 0-1.453-1.063-2.563-2.485-2.563-1.406 0-2.484 1.11-2.484 2.563C.547-.984 1.625.125 3.03.125m0-.578c-1.094 0-1.906-.828-1.906-2 0-1.156.813-2 1.906-2 1.094 0 1.906.844 1.906 2 0 1.172-.812 2-1.906 2m0 0"/><path id="r" d="M.906 0h.36c.078 0 .125-.047.125-.14v-2.954c0-.515.218-1.36 1.14-1.36.078 0 .203 0 .344.048.094.031.172.015.172-.094v-.25c0-.094-.016-.125-.078-.172-.094-.062-.25-.094-.453-.094-.61 0-.953.36-1.141.813l-.016-.547c0-.11-.03-.14-.14-.14H.906c-.094 0-.125.046-.125.14v4.61c0 .093.031.14.125.14m0 0"/><path id="t" d="M1.344 0h.343c.094 0 .125-.047.125-.14v-4.25h1c.079 0 .141-.048.141-.126v-.234c0-.094-.062-.14-.14-.14h-1v-1.016c0-.469.109-.828.687-.828.094 0 .203 0 .328.03.063 0 .125 0 .125-.077v-.328c0-.079-.031-.094-.094-.125a1.2 1.2 0 0 0-.437-.063c-.813 0-1.203.453-1.203 1.234v1.172H.625c-.078 0-.14.047-.14.141v.234c0 .079.062.125.14.125h.594v4.25c0 .094.031.141.125.141m0 0"/><path id="u" d="M2.563.125c.828 0 1.374-.422 1.656-.906l.031.625c0 .11.031.156.14.156h.298q.14 0 .14-.14v-4.61q0-.14-.14-.14h-.344c-.094 0-.125.046-.125.14v2.86c0 .89-.657 1.437-1.5 1.437-.86 0-1.328-.547-1.328-1.438V-4.75c0-.094-.047-.14-.125-.14h-.36c-.094 0-.125.046-.125.14v2.875c0 1.313.719 2 1.781 2m0 0"/><path id="v" d="M2.219.125c.25 0 .61-.062.61-.203v-.234c0-.094-.048-.141-.204-.11-.078 0-.234.016-.312.016-.313 0-.454-.14-.454-.547v-3.438h.844c.094 0 .14-.046.14-.125v-.234q0-.14-.14-.14H1.86v-1.157c0-.094-.03-.14-.125-.14h-.343c-.079 0-.125.046-.125.14v1.156H.625c-.078 0-.14.047-.14.141v.234c0 .079.062.125.14.125h.64v3.516c0 .656.313 1 .954 1m0 0"/><path id="w" d="M3.031-5.016c-.828 0-1.36.407-1.64.907V-7c0-.094-.047-.14-.125-.14h-.36c-.094 0-.125.046-.125.14v6.86c0 .093.031.14.125.14h.36c.078 0 .125-.047.125-.14V-3c0-.89.64-1.453 1.5-1.453.843 0 1.328.562 1.328 1.453v2.86c0 .093.031.14.125.14h.343q.141 0 .141-.14v-2.891c0-1.297-.719-1.985-1.797-1.985m0 0"/><path id="x" d="M3.11.125c.687 0 1.312-.219 1.75-.64.077-.063.109-.11.046-.204l-.14-.187c-.032-.031-.11-.031-.141 0-.375.297-.828.5-1.453.5-1.266 0-1.969-.797-2.047-1.828h3.813c.265 0 .328-.125.328-.47 0-1.187-.828-2.312-2.282-2.312-1.453 0-2.437 1.11-2.437 2.547 0 1.422.969 2.594 2.562 2.594M1.124-2.719c.094-1.062.813-1.75 1.844-1.75 1.062 0 1.734.719 1.765 1.75Zm0 0"/><path id="y" d="M1.094-6.234c.218 0 .39-.172.39-.391a.4.4 0 0 0-.39-.406.414.414 0 0 0-.407.406.4.4 0 0 0 .407.39M.906 0h.36c.078 0 .109-.047.109-.14v-4.61c0-.094-.031-.14-.11-.14H.907c-.094 0-.125.046-.125.14v4.61c0 .093.031.14.125.14m0 0"/><path id="z" d="M.906 0h.36c.078 0 .125-.047.125-.14V-3c0-.89.64-1.453 1.5-1.453.843 0 1.328.562 1.328 1.453v2.86c0 .093.031.14.125.14h.343q.141 0 .141-.14v-2.891c0-1.297-.719-1.985-1.797-1.985-.828 0-1.36.407-1.64.907l-.032-.641c0-.11-.03-.14-.14-.14H.906c-.094 0-.125.046-.125.14v4.61c0 .093.031.14.125.14m0 0"/><path id="A" d="M.906 0h.36c.078 0 .125-.047.125-.14v-2.891c0-.875.453-1.422 1.218-1.422.75 0 1.172.516 1.172 1.422v2.89c0 .094.031.141.11.141h.359c.094 0 .125-.047.125-.14v-2.891c0-.875.516-1.422 1.281-1.422.75 0 1.11.516 1.11 1.422v2.89c0 .094.03.141.125.141h.343c.094 0 .125-.047.125-.14v-2.938c0-1.297-.593-1.938-1.593-1.938-.86 0-1.297.438-1.547.985-.25-.657-.766-.985-1.453-.985-.735 0-1.157.391-1.391.844l-.016-.578c0-.11-.03-.14-.14-.14H.906c-.094 0-.125.046-.125.14v4.61c0 .093.031.14.125.14m0 0"/><path id="B" d="M2.969.125c.89 0 1.562-.422 1.922-1.11l.015.844q0 .141.14.141h.313c.094 0 .125-.047.125-.14v-4.61c0-.094-.03-.14-.125-.14h-.312q-.14 0-.14.14l-.016.86c-.36-.672-1.032-1.126-1.922-1.126-1.438 0-2.422 1.11-2.422 2.563C.547-.984 1.53.125 2.969.125m.062-.578c-1.11 0-1.906-.797-1.906-2 0-1.188.797-1.985 1.906-1.985 1.11 0 1.875.813 1.875 2.016 0 1.188-.765 1.969-1.875 1.969m0 0"/><path id="C" d="M.906 1.89h.36c.078 0 .125-.046.125-.14V-.969C1.75-.297 2.42.125 3.313.125c1.437 0 2.421-1.11 2.421-2.578 0-1.453-.984-2.563-2.421-2.563-.891 0-1.563.454-1.938 1.125l-.016-.859c0-.094-.03-.14-.125-.14H.906c-.094 0-.125.046-.125.14v6.5c0 .094.031.14.125.14M3.25-.452c-1.11 0-1.875-.781-1.875-1.969 0-1.203.766-2.015 1.875-2.015 1.11 0 1.906.796 1.906 1.984 0 1.203-.797 2-1.906 2m0 0"/><path id="D" d="M.906 0h.36c.078 0 .125-.047.125-.14V-7c0-.094-.047-.14-.125-.14h-.36c-.094 0-.125.046-.125.14v6.86c0 .093.031.14.125.14m0 0"/><path id="E" d="M2.188.125c.874 0 1.64-.5 1.64-1.39 0-.766-.515-1.126-1.156-1.376l-.453-.187c-.547-.235-.906-.422-.906-.922 0-.516.437-.75.906-.75.375 0 .703.156 1.015.5.094.094.157.094.235 0l.11-.14c.062-.063.077-.141.015-.22a1.77 1.77 0 0 0-1.39-.656c-.798 0-1.47.5-1.47 1.282 0 .703.532 1.047 1.11 1.297l.578.234c.469.203.812.453.812.937 0 .563-.437.86-1.062.86-.547 0-.922-.266-1.219-.578C.875-1.078.781-1.063.734-1l-.109.156c-.062.078-.062.156.016.25.265.313.75.719 1.547.719m0 0"/><path id="F" d="M3.078.125c.781 0 1.422-.312 1.828-.812.063-.079.094-.125.032-.188l-.188-.187c-.094-.094-.172-.047-.25.03-.297.329-.703.579-1.39.579-1.126 0-1.985-.813-1.985-2s.86-2 1.984-2c.672 0 1.079.266 1.407.61.046.062.125.109.218.015l.188-.188c.062-.062.047-.109-.016-.203-.422-.5-1.047-.797-1.828-.797-1.437 0-2.531 1.11-2.531 2.563C.547-.984 1.64.125 3.078.125m0 0"/><path id="G" d="M.906 0h.36c.078 0 .125-.047.125-.14v-1.313l.89-.938L4.11-.094c.047.078.11.094.188.094h.36c.124 0 .155-.078.093-.156L2.64-2.812 4.485-4.75c.063-.062.063-.14-.046-.14h-.47c-.062 0-.109.015-.171.077L1.39-2.187V-7c0-.094-.047-.14-.125-.14h-.36c-.094 0-.125.046-.125.14v6.86c0 .093.031.14.125.14m0 0"/><path id="H" d="M2.953 2.047c1.281 0 2.485-.672 2.485-2.219V-4.75c0-.094-.032-.14-.125-.14h-.329c-.093 0-.125.046-.125.14v.813c-.375-.672-1.03-1.079-1.937-1.079-1.39 0-2.375 1.032-2.375 2.485 0 1.469.984 2.484 2.39 2.484.891 0 1.532-.406 1.907-1.047v.875c0 1.297-.922 1.75-1.922 1.75-.5 0-1.016-.125-1.422-.39-.062-.032-.125-.016-.172.03l-.125.235c-.031.078 0 .14.078.188.36.25.969.453 1.672.453M3-.61c-1.062 0-1.875-.735-1.875-1.922 0-1.172.813-1.922 1.875-1.922 1.078 0 1.844.766 1.844 1.953C4.844-1.344 4.078-.61 3-.61m0 0"/><path id="I" d="M4.297.125c.719 0 1.437-.203 1.984-.672l-.328-.36c-.469.345-1.016.5-1.625.5-1.469 0-3.094-1.046-3.094-3.077 0-2.063 1.594-3.063 3.094-3.063s2.984.984 2.984 3.125c0 .89-.265 1.375-.828 1.375-.25 0-.609-.094-.546-.781l.218-2.281h-.39l-.172.578c-.297-.469-.797-.766-1.438-.766-1.078 0-1.843.828-1.843 1.875s.734 1.86 1.796 1.86c.594 0 1.11-.25 1.438-.672.125.453.469.672.922.672.578 0 1.39-.36 1.39-1.907 0-2.234-1.656-3.593-3.53-3.593-1.86 0-3.641 1.328-3.641 3.578C.688-1.281 2.422.125 4.297.125m-.14-2.187c-.829 0-1.329-.579-1.329-1.376 0-.78.5-1.359 1.328-1.359s1.36.578 1.36 1.36c0 .796-.532 1.374-1.36 1.374m0 0"/><path id="J" d="M1.797 1.89h.344c.078 0 .14-.03.172-.109l2.562-6.5c.047-.11 0-.172-.11-.172h-.343c-.078 0-.125.032-.156.125L2.703-.656l-1.578-4.11c-.031-.093-.094-.125-.172-.125H.625c-.11 0-.156.063-.11.172L2.392.016 1.703 1.75q-.047.14.094.14m0 0"/><path id="K" d="M1.703 0h.36c.078 0 .124-.047.124-.14v-6.704c0-.093-.046-.14-.124-.14H.53c-.094 0-.125.046-.125.14v.25c0 .094.031.14.125.14h1.063V-.14c0 .094.031.141.11.141m0 0"/><path id="L" d="M.578 0h3.516q.14 0 .14-.14v-.266c0-.078-.046-.14-.14-.14H1.14L3.25-3.142c.469-.546 1-1.203 1-2.078 0-1-.734-1.843-1.953-1.843-.922 0-1.469.468-1.797.984-.062.094-.062.14.016.219l.203.187c.062.063.14.063.187-.016.219-.343.578-.828 1.375-.828.828 0 1.375.579 1.375 1.344 0 .75-.515 1.344-.953 1.89L.516-.624a.26.26 0 0 0-.079.203v.281Q.438 0 .579 0m0 0"/><path id="M" d="M2.313.125c1.28 0 2.156-.875 2.156-2.016 0-.953-.578-1.625-1.375-1.89.672-.328 1.062-.906 1.062-1.61 0-.937-.718-1.671-1.765-1.671-.797 0-1.391.437-1.72.937-.03.063-.046.11 0 .172l.235.203c.063.047.125.047.188-.016.25-.421.656-.75 1.25-.75.765 0 1.234.532 1.234 1.204 0 .734-.547 1.296-1.36 1.296h-.155c-.11 0-.141.047-.141.125v.297c0 .078.031.11.14.11h.157c.844 0 1.64.53 1.64 1.53 0 .892-.64 1.517-1.546 1.517-.782 0-1.22-.438-1.454-.75-.046-.063-.093-.079-.156-.016L.47-1C.406-.937.39-.89.438-.812c.406.578 1.046.937 1.875.937m0 0"/><path id="N" d="M.922.125c.25 0 .453-.187.453-.453a.453.453 0 0 0-.453-.453.467.467 0 0 0-.469.453c0 .266.219.453.469.453m0 0"/><path id="O" d="M0-4.36v4.157h-4.156V-4.36Zm0 0"/><path id="P" d="M0 0"/><path id="Q" d="M0-.625v-1.984c0-.047-.031-.079-.078-.079h-.188c-.046 0-.078.032-.078.079v1.703H-2v-1.61c0-.062-.031-.078-.094-.078h-.172c-.046 0-.078.016-.078.078v1.61h-1.515V-2.61c0-.047-.032-.079-.079-.079h-.171c-.063 0-.094.032-.094.079v1.984q0 .094.094.094h4.03C-.03-.531 0-.562 0-.625m0 0"/><path id="R" d="m-.11-3.734-4.015 1.453c-.047.031-.078.062-.078.11v.265c0 .047.031.093.078.11L-.109-.345c.062.031.109 0 .109-.062v-.219c0-.047-.016-.078-.078-.094l-.906-.328V-3.03l.906-.328c.062-.016.078-.032.078-.079v-.234c0-.062-.047-.094-.11-.062m-1.218 2.578-2.438-.875 2.438-.875Zm0 0"/><path id="S" d="M0-1.031v-.203c0-.063-.031-.079-.078-.079H-4.11c-.063 0-.094.016-.094.079v.922c0 .046.031.062.094.062h.156c.047 0 .078-.016.078-.062v-.641h3.797C-.031-.953 0-.97 0-1.031m0 0"/><path id="T" d="M0-.344v-2.11c0-.062-.031-.093-.078-.093h-.156q-.094 0-.094.094v1.765l-1.563-1.265c-.328-.281-.718-.594-1.234-.594-.61 0-1.125.438-1.125 1.172 0 .547.281.875.594 1.078.062.031.094.031.14-.016l.11-.124c.031-.032.031-.079-.016-.11-.203-.125-.484-.344-.484-.828 0-.5.344-.828.797-.828s.812.312 1.14.578L-.375-.312a.17.17 0 0 0 .11.046h.187c.047 0 .078-.03.078-.078m0 0"/><path id="U" d="M.078-1.39c0-.766-.531-1.297-1.219-1.297-.562 0-.968.343-1.125.828-.203-.407-.546-.641-.968-.641-.563 0-1.016.438-1.016 1.063 0 .484.266.843.563 1.03.046.016.078.032.109 0l.125-.14c.031-.031.031-.078-.016-.11-.25-.155-.437-.39-.437-.75 0-.452.312-.75.719-.75.437 0 .78.329.78.829v.094c0 .062.016.078.079.078h.172c.047 0 .062-.016.062-.078v-.094c0-.516.328-1 .922-1 .531 0 .906.39.906.937 0 .47-.25.735-.453.875-.031.032-.047.063 0 .094l.125.14c.031.048.063.048.11.016.343-.25.562-.625.562-1.125m0 0"/><path id="V" d="M-1.547-.406v-1.797c0-.063-.016-.078-.078-.078h-.156c-.063 0-.078.015-.078.078v1.797c0 .047.015.062.078.062h.156c.063 0 .078-.015.078-.062m0 0"/><path id="W" d="M-.344-2.484v1.578h-3.765c-.063 0-.094.031-.094.078v.203q0 .094.094.094h4.03C-.03-.531 0-.562 0-.625v-1.86c0-.046-.031-.078-.094-.078H-.25c-.062 0-.094.032-.094.079m0 0"/><path id="X" d="M.078-2.562c0-1.204-.953-2.141-2.156-2.141-1.219 0-2.172.937-2.172 2.14 0 1.22.953 2.157 2.172 2.157A2.13 2.13 0 0 0 .078-2.562m-.36 0c0 1.015-.78 1.765-1.796 1.765-1.031 0-1.797-.75-1.797-1.765 0-1 .766-1.766 1.797-1.766 1.015 0 1.797.766 1.797 1.766m0 0"/><path id="Y" d="M.078-2.562C.078-3.75-.782-4.5-1.906-4.5h-.14q-.095 0-.095.094v1.781c0 .047.016.078.079.078h.187c.047 0 .078-.031.078-.078v-1.516c.875 0 1.516.657 1.516 1.579 0 1.015-.781 1.765-1.797 1.765-1.031 0-1.797-.75-1.797-1.765 0-.438.156-.844.453-1.188.031-.031.031-.062 0-.078l-.172-.156c-.031-.032-.062-.032-.094.015-.374.39-.562.844-.562 1.406 0 1.25.969 2.157 2.172 2.157S.078-1.312.078-2.562m0 0"/><path id="Z" d="M-4.203-3.36v.204c0 .047.031.078.094.078h3.593L-4.14-1.031c-.046.015-.062.062-.062.11v.296q0 .094.094.094h4.03C-.03-.531 0-.562 0-.625v-.203c0-.047-.031-.078-.078-.078h-3.61l3.626-2.047c.046-.016.062-.063.062-.11v-.296c0-.063-.031-.094-.078-.094H-4.11q-.094 0-.094.094m0 0"/><path id="aa" d="M0-1.687v-.25c0-.047-.016-.079-.078-.11L-3.734-3.25l3.656-1.203C-.016-4.47 0-4.5 0-4.547v-.266c0-.046-.016-.078-.078-.093l-4.016-1.25c-.062-.016-.11 0-.11.078v.203c0 .047.016.078.079.094L-.5-4.671-4.125-3.47c-.062.031-.078.063-.078.094v.25c0 .047.016.078.078.094L-.5-1.812-4.125-.703c-.062.015-.078.047-.078.094v.203c0 .062.047.094.11.078l4.015-1.25c.062-.031.078-.047.078-.11m0 0"/><path id="ab" d="M.078-1.781c0-.547-.265-.938-.672-1.156l.516-.016c.047 0 .078-.016.078-.078v-.188c0-.062-.031-.078-.078-.078H-2.86c-.047 0-.079.016-.079.078v.188c0 .062.032.078.079.078l.53.015c-.405.22-.687.61-.687 1.157 0 .86.672 1.453 1.547 1.453S.078-.922.078-1.781m-.344-.047c0 .672-.484 1.156-1.203 1.156-.718 0-1.203-.484-1.203-1.156 0-.656.5-1.125 1.219-1.125.703 0 1.187.469 1.187 1.125m0 0"/><path id="ac" d="M0-.547V-.75c0-.062-.031-.078-.078-.078h-1.719c-.547 0-.875-.39-.875-.906s.328-.797.875-.797h1.719c.047 0 .078-.031.078-.078v-.203c0-.063-.031-.079-.078-.079h-1.734c-.782 0-1.204.422-1.204 1.063 0 .5.25.828.547 1l-.375.015c-.078 0-.094.016-.094.079v.187c0 .063.032.078.079.078h2.78C-.03-.469 0-.484 0-.547m0 0"/><path id="ad" d="M.078-1.781c0-.547-.265-.938-.672-1.156l.516-.016c.047 0 .078-.016.078-.078v-.188c0-.062-.031-.078-.078-.078h-4.125c-.063 0-.094.016-.094.078v.203c0 .063.031.079.094.079h1.86c-.407.218-.673.624-.673 1.156 0 .86.672 1.453 1.547 1.453S.078-.922.078-1.781m-.344-.047c0 .672-.484 1.156-1.203 1.156-.718 0-1.203-.484-1.203-1.156 0-.656.5-1.125 1.219-1.125.703 0 1.187.469 1.187 1.125m0 0"/><path id="ae" d="M.078-1.312c0-.532-.297-.985-.844-.985-.453 0-.671.313-.828.688l-.11.28c-.14.313-.25.532-.546.532-.312 0-.453-.265-.453-.531 0-.234.094-.438.297-.61.047-.062.062-.093 0-.156l-.078-.062c-.047-.031-.094-.047-.125 0a1.03 1.03 0 0 0-.407.844c0 .468.297.875.766.875.438 0 .64-.313.781-.672l.157-.344c.109-.281.25-.484.562-.484.328 0 .5.25.5.625 0 .343-.156.562-.344.734-.047.047-.047.11 0 .14l.078.063c.063.031.11.031.157-.016.187-.156.437-.453.437-.921m0 0"/><path id="af" d="M.078-1.844c0-.484-.187-.86-.484-1.11-.063-.03-.078-.046-.125-.015l-.11.125c-.062.047-.03.094.016.14.203.173.36.423.36.829 0 .688-.485 1.203-1.204 1.203-.718 0-1.203-.515-1.203-1.187 0-.422.156-.657.36-.86.03-.015.062-.078.015-.125l-.11-.11c-.046-.046-.077-.03-.124 0-.297.267-.485.642-.485 1.095 0 .875.657 1.53 1.547 1.53.875 0 1.547-.655 1.547-1.515m0 0"/><path id="ag" d="M1.14-.547V-.75c0-.062-.03-.078-.077-.078H-.578c.39-.219.656-.625.656-1.156 0-.875-.672-1.47-1.547-1.47s-1.547.595-1.547 1.47c0 .53.282.937.688 1.156l-.531.015c-.047 0-.079.016-.079.063v.203c0 .063.032.078.079.078h3.922c.046 0 .078-.015.078-.078M-.265-1.953c0 .656-.484 1.125-1.187 1.125-.719 0-1.219-.469-1.219-1.125s.485-1.14 1.203-1.14 1.203.484 1.203 1.14m0 0"/><path id="ah" d="M.078-1.875c0-.406-.125-.781-.39-1.047-.032-.047-.063-.062-.125-.031l-.11.094c-.015.015-.015.062 0 .078.188.234.313.5.313.875 0 .765-.485 1.187-1.11 1.234v-2.297c0-.156-.078-.187-.281-.187-.719 0-1.39.5-1.39 1.36 0 .874.671 1.468 1.53 1.468.86 0 1.563-.578 1.563-1.547M-1.64-.672c-.64-.062-1.046-.484-1.046-1.11 0-.64.437-1.046 1.046-1.062Zm0 0"/><path id="ai" d="M0-.797v-.219c0-.046-.031-.078-.078-.078h-2.563v-.593c0-.047-.015-.079-.078-.079h-.14c-.047 0-.079.032-.079.079v.593h-.609c-.281 0-.5-.062-.5-.406 0-.062 0-.125.016-.203 0-.031 0-.063-.047-.063h-.188c-.046 0-.062 0-.078.047a.7.7 0 0 0-.047.266c0 .484.282.719.75.719h.704v.359c0 .047.03.078.078.078h.14c.063 0 .078-.031.078-.078v-.36h2.563C-.031-.734 0-.75 0-.796m0 0"/><path id="aj" d="M.078-1.828c0-.844-.672-1.484-1.547-1.484s-1.547.64-1.547 1.484c0 .86.672 1.5 1.547 1.5s1.547-.64 1.547-1.5m-.344 0c0 .672-.5 1.156-1.203 1.156s-1.203-.484-1.203-1.156c0-.656.5-1.14 1.203-1.14s1.203.484 1.203 1.14m0 0"/><path id="ak" d="M0-.547V-.75c0-.062-.031-.078-.078-.078H-1.86c-.313 0-.813-.14-.813-.688 0-.062 0-.125.031-.218.016-.047 0-.094-.062-.094h-.156q-.071 0-.094.047c-.047.047-.063.156-.063.265 0 .375.22.579.485.688l-.313.015c-.078 0-.094.016-.094.079v.187c0 .063.032.078.079.078h2.78C-.03-.469 0-.484 0-.547m0 0"/><path id="am" d="M1.14-1.078v-.203a.12.12 0 0 0-.077-.11l-3.907-1.546c-.062-.016-.094 0-.094.062v.219c0 .047.016.062.063.094l2.484.937-2.484.953c-.047.016-.062.047-.062.094v.203c0 .063.03.094.093.063l2.86-1.125 1.047.421c.046.016.078 0 .078-.062m0 0"/><path id="an" d="M0-.547V-.75c0-.062-.031-.078-.078-.078h-4.125c-.063 0-.094.015-.094.078v.203c0 .063.031.078.094.078h4.125C-.031-.469 0-.484 0-.547m0 0"/><path id="ao" d="M0-1.39v-.235a.12.12 0 0 0-.078-.11l-2.469-.874 2.469-.86A.12.12 0 0 0 0-3.579v-.25c0-.046-.031-.077-.078-.108l-2.766-.97c-.062-.015-.094 0-.094.063v.219c0 .047.016.078.063.094l2.484.828-2.484.875c-.047.015-.062.062-.062.11v.234c0 .046.015.093.062.109l2.484.86-2.484.843c-.047.016-.062.047-.062.094v.203c0 .063.03.094.093.063l2.766-.97A.12.12 0 0 0 0-1.39m0 0"/><path id="ap" d="M.078-1.984c0-.875-.672-1.47-1.547-1.47s-1.547.595-1.547 1.47c0 .53.266.937.672 1.156h-1.86c-.062 0-.093.015-.093.078v.203c0 .063.031.078.094.078h4.125C-.031-.469 0-.484 0-.547V-.75c0-.047-.031-.062-.078-.062l-.516-.016c.407-.219.672-.625.672-1.156m-.344.03c0 .657-.484 1.126-1.187 1.126-.719 0-1.219-.469-1.219-1.125s.485-1.14 1.203-1.14 1.203.484 1.203 1.14m0 0"/><path id="aq" d="M0-.547V-.75c0-.062-.031-.078-.078-.078h-.797l-.562-.547 1.39-1.094A.14.14 0 0 0 0-2.579v-.218c0-.078-.047-.094-.094-.062l-1.593 1.265-1.172-1.093c-.032-.047-.079-.047-.079.03v.266c0 .047.016.079.047.11l1.579 1.453h-2.891c-.063 0-.094.015-.094.078v.203c0 .063.031.078.094.078h4.125C-.031-.469 0-.484 0-.547m0 0"/><path id="ar" d="M1.234-1.766c0-.78-.406-1.5-1.343-1.5h-2.75c-.047 0-.079.016-.079.079V-3c0 .063.032.078.079.078h.5c-.407.235-.657.625-.657 1.172 0 .828.625 1.422 1.485 1.422.89 0 1.5-.594 1.5-1.438 0-.53-.235-.921-.625-1.14h.531c.766 0 1.047.547 1.047 1.14 0 .313-.078.625-.235.86-.015.047-.015.078.016.11l.14.077c.048.016.095 0 .11-.047.156-.218.281-.593.281-1m-1.593-.046c0 .656-.453 1.14-1.172 1.14-.688 0-1.14-.484-1.14-1.14 0-.641.452-1.094 1.171-1.094.703 0 1.14.453 1.14 1.094m0 0"/><path id="as" d="M.078-1.547c0-.5-.25-.828-.547-.984l.375-.016Q0-2.547 0-2.64v-.171c0-.063-.031-.079-.078-.079H-2.86c-.047 0-.079.016-.079.079v.203c0 .046.032.078.079.078h1.718c.547 0 .875.39.875.906 0 .5-.328.797-.875.797h-1.718c-.047 0-.079.015-.079.078v.203c0 .063.032.078.079.078h1.734c.781 0 1.203-.437 1.203-1.078m0 0"/><path id="at" d="M0-.625v-.203c0-.047-.031-.078-.078-.078h-3.547L-3.344-1l3.282-1.39C-.016-2.407 0-2.454 0-2.5v-.234c0-.047-.016-.079-.062-.11l-3.282-1.39-.281-.094h3.547c.047 0 .078-.031.078-.078v-.219c0-.047-.031-.078-.078-.078H-4.11c-.063 0-.094.031-.094.078v.328c0 .047.016.078.062.094L-.406-2.61l-3.735 1.578c-.046.015-.062.047-.062.093v.313q0 .094.094.094h4.03C-.03-.531 0-.562 0-.625m0 0"/><path id="au" d="M.078-1.344c0-.14-.031-.36-.125-.36h-.14c-.063 0-.094.032-.079.126a.8.8 0 0 1 .016.187c0 .188-.078.266-.312.266h-2.079v-.5c0-.062-.015-.078-.078-.078h-.14c-.047 0-.079.016-.079.078v.5h-.703c-.046 0-.078.031-.078.078v.203c0 .063.031.078.078.078h.704v.391c0 .047.03.078.078.078h.14c.063 0 .078-.031.078-.078v-.39h2.11c.406 0 .61-.188.61-.579m0 0"/><path id="aB" d="M3.469 0h.484c.125 0 .203-.062.203-.203V-9h2.125q.188 0 .188-.187v-.407c0-.125-.063-.203-.188-.203H1.156c-.125 0-.187.078-.187.203v.406q0 .188.187.188h2.125v8.797c0 .14.063.203.188.203m0 0"/><path id="aC" d="M4.25-7.016c-1.156 0-1.922.563-2.312 1.266v-4.047c0-.125-.047-.203-.172-.203h-.5c-.125 0-.157.078-.157.203v9.594c0 .14.032.203.157.203h.5c.125 0 .172-.062.172-.203v-4c0-1.25.921-2.031 2.109-2.031s1.875.78 1.875 2.03v4c0 .142.031.204.156.204h.5c.125 0 .172-.062.172-.203v-4.031c0-1.828-1-2.782-2.5-2.782m0 0"/><path id="aD" d="M1.531-8.719c.297 0 .532-.265.532-.562 0-.313-.235-.563-.532-.563a.56.56 0 0 0-.562.563c0 .297.25.562.562.562M1.266 0h.5c.125 0 .172-.062.172-.203v-6.453c0-.125-.047-.203-.172-.203h-.5c-.125 0-.157.078-.157.203v6.453c0 .14.032.203.157.203m0 0"/><path id="aE" d="M3.063.172c1.218 0 2.296-.688 2.296-1.953 0-1.063-.734-1.563-1.625-1.922L3.11-3.97c-.765-.312-1.265-.578-1.265-1.297 0-.703.625-1.03 1.265-1.03.532 0 .985.218 1.422.687.125.125.203.14.328 0l.157-.188c.093-.094.109-.203.015-.297-.468-.61-1.187-.922-1.953-.922-1.11 0-2.047.688-2.047 1.782 0 1 .735 1.468 1.563 1.828l.797.328c.656.281 1.14.61 1.14 1.312 0 .782-.61 1.188-1.484 1.188-.781 0-1.297-.36-1.703-.813-.11-.125-.235-.109-.313-.015l-.172.218c-.062.125-.062.22.032.344A2.74 2.74 0 0 0 3.063.172m0 0"/><path id="aG" d="M3.125.172c.344 0 .828-.078.828-.281v-.328c0-.141-.047-.204-.281-.157-.11 0-.313.016-.422.016-.437 0-.64-.188-.64-.75v-4.813h1.187q.187 0 .187-.187v-.328c0-.125-.062-.203-.187-.203H2.609v-1.61c0-.125-.046-.203-.171-.203h-.485c-.125 0-.172.078-.172.203v1.61H.875c-.125 0-.187.078-.187.203v.328q0 .187.187.187h.906v4.907c0 .922.422 1.406 1.344 1.406m0 0"/><path id="aH" d="M4.36.172c.952 0 1.827-.297 2.452-.89.094-.095.157-.157.047-.282l-.187-.266c-.047-.046-.14-.046-.203 0-.532.407-1.14.704-2.032.704-1.765 0-2.75-1.11-2.875-2.563h5.344c.375 0 .469-.172.469-.672 0-1.656-1.172-3.219-3.187-3.219C2.156-7.016.75-5.469.75-3.453.75-1.47 2.125.172 4.36.172M1.577-3.812c.125-1.485 1.14-2.454 2.594-2.454 1.484 0 2.422 1.016 2.453 2.454Zm0 0"/><path id="aI" d="M1.266 2.656h.5c.125 0 .172-.062.172-.187V-1.36C2.453-.422 3.39.17 4.64.17c2.015 0 3.406-1.546 3.406-3.593S6.657-7.016 4.64-7.016c-1.25 0-2.188.625-2.703 1.579l-.032-1.22c0-.124-.047-.202-.172-.202h-.468c-.125 0-.157.078-.157.203v9.125c0 .125.032.187.157.187m3.28-3.281C3-.625 1.938-1.735 1.938-3.391c0-1.687 1.063-2.828 2.61-2.828s2.672 1.125 2.672 2.797S6.094-.625 4.547-.625m0 0"/><path id="aJ" d="M1.266 0h.5c.125 0 .172-.062.172-.203v-4.125c0-.734.312-1.906 1.593-1.906.125 0 .297 0 .5.062.14.047.235.016.235-.14v-.344c0-.125-.032-.188-.11-.235-.125-.093-.36-.125-.625-.125-.86 0-1.328.5-1.594 1.125l-.03-.75c0-.156-.048-.218-.204-.218h-.437c-.125 0-.157.078-.157.203v6.453c0 .14.032.203.157.203m0 0"/><path id="aK" d="M1.875 0h.484c.125 0 .188-.062.188-.203v-5.938h1.375c.14 0 .203-.062.203-.187v-.328c0-.125-.062-.203-.203-.203H2.547v-1.422c0-.656.156-1.156.953-1.156.14 0 .297.015.453.046.094 0 .172 0 .172-.109v-.453c0-.11-.031-.14-.125-.188a2.2 2.2 0 0 0-.61-.078c-1.14 0-1.687.625-1.687 1.735v1.625H.875c-.125 0-.187.078-.187.203v.328q0 .187.187.187h.828v5.938c0 .14.047.203.172.203m0 0"/><path id="aL" d="M4.156.172c1.25 0 2.188-.594 2.703-1.563l.016 1.188c0 .14.063.203.188.203h.453c.125 0 .172-.062.172-.203v-9.594c0-.125-.047-.203-.172-.203h-.5c-.125 0-.157.078-.157.203v4.328c-.53-.953-1.468-1.547-2.703-1.547C2.141-7.016.75-5.469.75-3.422S2.14.172 4.156.172m.094-.797c-1.562 0-2.687-1.125-2.687-2.797S2.688-6.219 4.25-6.219c1.547 0 2.61 1.14 2.61 2.828 0 1.657-1.063 2.766-2.61 2.766m0 0"/><path id="aM" d="M3.531 0h.5c.11 0 .203-.062.25-.172l2.563-6.437c.047-.157 0-.25-.157-.25h-.484c-.11 0-.172.062-.219.172L3.781-.923 1.563-6.687c-.032-.11-.11-.172-.22-.172H.86c-.14 0-.203.093-.14.25L3.266-.172c.046.11.14.172.265.172m0 0"/><path id="aN" d="M4.25.172c1.984 0 3.484-1.563 3.484-3.594 0-2.047-1.5-3.594-3.484-3.594S.75-5.469.75-3.422C.75-1.39 2.266.172 4.25.172m0-.797c-1.531 0-2.672-1.172-2.672-2.797 0-1.64 1.14-2.812 2.672-2.812 1.531 0 2.672 1.172 2.672 2.812 0 1.625-1.14 2.797-2.672 2.797m0 0"/><path id="aO" d="M1.266 0h.5c.125 0 .172-.062.172-.203v-4c0-1.25.921-2.031 2.109-2.031s1.875.78 1.875 2.03v4c0 .142.031.204.156.204h.5c.125 0 .172-.062.172-.203v-4.031c0-1.828-1-2.782-2.5-2.782-1.156 0-1.922.563-2.312 1.266l-.032-.89c0-.157-.047-.22-.203-.22h-.437c-.125 0-.157.079-.157.204v6.453c0 .14.032.203.157.203m0 0"/><path id="aZ" d="M1.266 0h.5c.125 0 .172-.062.172-.203v-9.594c0-.125-.047-.203-.172-.203h-.5c-.125 0-.157.078-.157.203v9.594c0 .14.032.203.157.203m0 0"/><path id="ba" d="M4.125 2.86c1.797 0 3.484-.922 3.484-3.094v-6.422c0-.125-.046-.203-.171-.203h-.454c-.125 0-.171.078-.171.203l-.016 1.14c-.516-.937-1.438-1.5-2.719-1.5C2.141-7.016.75-5.578.75-3.546.75-1.5 2.14-.063 4.11-.063c1.25 0 2.156-.563 2.671-1.47v1.22c0 1.828-1.281 2.453-2.687 2.453-.703 0-1.422-.172-2-.547-.078-.047-.172-.032-.235.062l-.187.313c-.031.11 0 .203.125.265.5.36 1.36.625 2.328.625m.078-3.72c-1.484 0-2.64-1.03-2.64-2.687 0-1.64 1.156-2.687 2.64-2.687 1.516 0 2.578 1.062 2.578 2.718 0 1.641-1.062 2.657-2.578 2.657m0 0"/><path id="bb" d="M4.156.172c1.25 0 2.188-.594 2.703-1.563l.016 1.188c0 .14.063.203.188.203h.453c.125 0 .172-.062.172-.203v-6.453c0-.125-.047-.203-.172-.203h-.453c-.125 0-.188.078-.188.203l-.016 1.218c-.515-.953-1.453-1.578-2.703-1.578C2.141-7.016.75-5.469.75-3.422S2.14.172 4.156.172m.094-.797c-1.562 0-2.687-1.125-2.687-2.797S2.688-6.219 4.25-6.219c1.547 0 2.61 1.14 2.61 2.828 0 1.657-1.063 2.766-2.61 2.766m0 0"/><path id="bc" d="M3.594.172C4.75.172 5.53-.406 5.922-1.11l.016.906c0 .14.062.203.203.203h.437c.125 0 .172-.062.172-.203v-6.453c0-.125-.047-.203-.172-.203h-.5c-.125 0-.156.078-.156.203v4c0 1.25-.922 2.031-2.125 2.031-1.188 0-1.86-.781-1.86-2.031v-4c0-.125-.046-.203-.171-.203h-.5c-.125 0-.157.078-.157.203v4.031c0 1.828.985 2.797 2.485 2.797m0 0"/><path id="bd" d="M4.64.172c2.016 0 3.407-1.547 3.407-3.594S6.657-7.016 4.64-7.016c-1.25 0-2.188.594-2.703 1.547v-4.328c0-.125-.047-.203-.172-.203h-.5c-.125 0-.157.078-.157.203v9.594c0 .14.032.203.157.203h.468c.125 0 .172-.062.172-.203l.032-1.188C2.453-.42 3.375.172 4.64.172m-.093-.797c-1.547 0-2.61-1.11-2.61-2.766 0-1.687 1.063-2.828 2.61-2.828s2.672 1.125 2.672 2.797S6.094-.625 4.547-.625m0 0"/><path id="be" d="M3.234 0h.563c.11 0 .203-.062.25-.172l2.016-5.765 2.03 5.765c.048.11.141.172.25.172h.563c.11 0 .219-.062.25-.172l2.266-6.437c.062-.157 0-.25-.156-.25h-.485c-.11 0-.172.062-.203.172L8.61-.907l-2.015-5.78c-.032-.11-.14-.172-.25-.172h-.547a.27.27 0 0 0-.266.172l-2 5.78-1.969-5.78c-.03-.11-.109-.172-.218-.172H.859c-.14 0-.203.093-.14.25L2.984-.172c.032.11.141.172.25.172m0 0"/><path id="bf" d="M1.281.188a.65.65 0 0 0 .657-.657.657.657 0 0 0-.657-.64.654.654 0 0 0-.64.64c0 .375.297.657.64.657m0 0"/><path id="bg" d="M1.016 0h4.718c.125 0 .188-.062.188-.203v-.344q0-.187-.188-.187H1.766l4.047-5.282a.33.33 0 0 0 .109-.234v-.406c0-.125-.094-.203-.219-.203h-4.64c-.125 0-.204.078-.204.203v.343c0 .125.079.188.204.188h3.906L.922-.859a.4.4 0 0 0-.094.265v.39c0 .142.063.204.188.204m0 0"/><path id="bh" d="M1.266 0h.5c.125 0 .172-.062.172-.203v-1.828l1.25-1.328L5.765-.125c.062.094.14.125.25.125h.515c.172 0 .203-.11.125-.219L3.703-3.922l2.578-2.734c.078-.078.078-.203-.078-.203h-.64a.26.26 0 0 0-.235.125l-3.39 3.672v-6.735c0-.125-.047-.203-.172-.203h-.5c-.125 0-.157.078-.157.203v9.594c0 .14.032.203.157.203m0 0"/><path id="bi" d="M2.516 2.656H3c.11 0 .188-.062.234-.172l3.61-9.093c.047-.157 0-.25-.157-.25h-.5c-.109 0-.156.062-.203.172L3.781-.923 1.563-6.687c-.032-.11-.11-.172-.22-.172H.86c-.14 0-.203.093-.14.25L3.344.03 2.375 2.47c-.047.11 0 .187.14.187m0 0"/><path id="bj" d="M4.313.172c1.093 0 1.984-.422 2.562-1.14.094-.11.125-.173.031-.266L6.641-1.5c-.125-.125-.235-.047-.328.047-.422.453-1 .828-1.954.828-1.593 0-2.78-1.14-2.78-2.797 0-1.672 1.187-2.812 2.765-2.812.953 0 1.531.375 1.984.843.063.094.172.157.297.016l.266-.25c.093-.078.062-.156-.032-.281-.578-.688-1.468-1.11-2.53-1.11C2.296-7.016.75-5.484.75-3.422.75-1.375 2.297.172 4.313.172m0 0"/><path id="bk" d="M5.781-.797H2.11v-8.797c0-.125-.046-.203-.171-.203h-.5c-.125 0-.188.078-.188.203v9.39c0 .142.063.204.188.204H5.78c.125 0 .203-.078.203-.203v-.39c0-.126-.078-.204-.203-.204m0 0"/><path id="bl" d="M1.266 0h.5c.125 0 .172-.062.172-.203V-4.25c0-1.234.656-1.984 1.718-1.984 1.047 0 1.625.718 1.625 1.984v4.047c0 .14.063.203.172.203h.5c.125 0 .172-.062.172-.203V-4.25c0-1.234.734-1.984 1.797-1.984 1.047 0 1.547.718 1.547 1.984v4.047c0 .14.047.203.187.203h.485c.125 0 .172-.062.172-.203v-4.11c0-1.812-.844-2.703-2.25-2.703-1.188 0-1.813.61-2.157 1.36-.343-.922-1.062-1.36-2.031-1.36-1.016 0-1.625.532-1.937 1.172l-.032-.797c0-.156-.047-.218-.203-.218h-.437c-.125 0-.157.078-.157.203v6.453c0 .14.032.203.157.203m0 0"/><path id="aP" d="M4.203.172c.969 0 1.86-.281 2.438-.875.125-.11.125-.219.078-.297l-.578-.812c-.079-.11-.141-.125-.25-.079-.578.329-1.047.375-1.516.375-.984 0-1.625-.359-1.86-1.093h3.938c.64 0 .813-.422.813-1.125 0-1.766-1.203-3.282-3.313-3.282S.438-5.469.438-3.453C.438-1.375 1.953.172 4.203.172M2.484-4.094c.172-.812.782-1.172 1.485-1.172.719 0 1.265.344 1.406 1.172Zm0 0"/><path id="aQ" d="M3.656.172c.969 0 1.672-.39 2.14-1.047l.016.672c0 .125.11.203.235.203h1.531c.125 0 .234-.078.234-.203v-6.438a.214.214 0 0 0-.218-.218H6.047c-.125 0-.234.093-.234.218l-.016.657c-.453-.641-1.14-1.032-2.14-1.032-1.907 0-3.22 1.563-3.22 3.594S1.75.172 3.658.172m.453-1.953c-.906 0-1.593-.64-1.593-1.64s.687-1.657 1.593-1.657c.938 0 1.579.656 1.579 1.64 0 1-.641 1.657-1.579 1.657m0 0"/><path id="aR" d="M3.188.172c1.39 0 2.609-.734 2.609-2.14.031-1.032-.656-1.641-1.5-1.97l-1.031-.406c-.313-.125-.547-.312-.547-.562 0-.219.125-.453.547-.453.375 0 .75.203 1.203.547.125.078.218.093.312 0l.719-.844c.047-.078.094-.188.016-.282A3.1 3.1 0 0 0 3.14-7.015c-1.313 0-2.453.766-2.453 2.11 0 .953.578 1.531 1.484 1.89l.89.36c.47.187.61.328.61.594 0 .312-.25.453-.625.453-.485 0-.953-.203-1.547-.641-.11-.078-.234-.11-.36.063l-.546.78c-.11.141-.125.313-.047.407C1.125-.312 2.03.172 3.187.172m0 0"/><path id="aS" d="M2.203 2.656H3.86c.11 0 .204-.062.25-.172L7.75-6.609c.047-.157-.031-.25-.187-.25H5.828a.29.29 0 0 0-.266.172l-1.5 4.203-1.515-4.203a.29.29 0 0 0-.266-.172H.547c-.156 0-.235.093-.188.25L3.016.016l-1 2.39c-.079.172.015.25.187.25m0 0"/><path id="aT" d="M3.25.172c.984 0 1.61-.5 2.016-1.188l.046.797c0 .157.094.219.22.219h1.64c.125 0 .219-.078.219-.203v-6.438a.214.214 0 0 0-.22-.218H5.485a.214.214 0 0 0-.218.218v3.47c0 .905-.47 1.374-1.203 1.374-.75 0-1.141-.469-1.141-1.375V-6.64a.214.214 0 0 0-.219-.218H1c-.14 0-.219.093-.219.218v3.97C.781-.876 1.812.171 3.25.171m0 0"/><path id="aU" d="M3.64.172c.47 0 1.22-.094 1.22-.438v-1.156c0-.14-.11-.219-.25-.203-.173.016-.298.016-.423.016-.359 0-.593-.188-.593-.578v-3.016H4.64c.125 0 .218-.078.218-.203v-1.235a.214.214 0 0 0-.218-.218H3.594v-1.594c0-.14-.094-.219-.219-.219H1.656c-.125 0-.234.078-.234.219v1.594H.578a.214.214 0 0 0-.219.218v1.235c0 .125.094.203.22.203h.843v3.266C1.422-.344 2.5.172 3.64.172m0 0"/><path id="aV" d="M4.031.172c2.063 0 3.61-1.578 3.61-3.594 0-2.031-1.547-3.594-3.61-3.594-2.078 0-3.593 1.563-3.593 3.594C.438-1.406 1.953.172 4.03.172m0-1.969c-.875 0-1.547-.625-1.547-1.625 0-1.015.672-1.64 1.547-1.64.86 0 1.532.625 1.532 1.64 0 1-.672 1.625-1.532 1.625m0 0"/><path id="aW" d="M2.547 0H4.25c.125 0 .219-.078.219-.203v-9.375a.214.214 0 0 0-.219-.219H.688a.214.214 0 0 0-.22.219v1.39c0 .126.094.22.22.22h1.64v7.765c0 .125.094.203.219.203m0 0"/><path id="aX" d="M.922 0h5.766c.125 0 .218-.078.218-.203v-1.39a.214.214 0 0 0-.218-.22H3.266l2.328-2.39c.375-.39 1.297-1.25 1.297-2.703 0-1.719-1.328-3-3.235-3-1.531 0-2.5.797-3.062 1.61a.24.24 0 0 0 .031.312l.969.968c.125.11.203.125.328 0 .36-.484.797-.921 1.547-.921.812 0 1.344.5 1.344 1.218 0 .875-.72 1.532-1.11 1.922L.797-1.844a.46.46 0 0 0-.094.266v1.375c0 .125.094.203.219.203m0 0"/><path id="aY" d="M3.531.188C5.391.188 6.86-.97 6.86-2.734c0-1.328-.812-2.11-1.671-2.453A2.23 2.23 0 0 0 6.53-7.281c0-1.672-1.406-2.625-2.984-2.625-1.281 0-2.281.64-2.813 1.469a.22.22 0 0 0 .047.312l.985.953c.109.11.234.125.312-.031.25-.453.703-.734 1.25-.734.625 0 1.125.406 1.125 1.03 0 .47-.281 1-1.078 1H3c-.14 0-.25.079-.25.235v1.266c0 .14.11.218.25.218h.39c.97 0 1.313.657 1.313 1.188 0 .64-.453 1.219-1.312 1.219-.657 0-1.094-.344-1.47-.797-.124-.11-.234-.11-.312-.016L.563-1.64c-.094.063-.125.188-.047.297C1.046-.5 2.063.188 3.53.188m0 0"/><clipPath id="a"><path d="M531 0h310.324v199H531Zm0 0"/></clipPath><clipPath id="b"><path d="M530 396h311v198.555H530Zm0 0"/></clipPath><clipPath id="av"><path d="M561.945 64.629h248.453V127.5H561.945Zm0 0"/></clipPath><clipPath id="aw"><path d="M561.945 64.629h248.453V127.5H561.945Zm0 0"/></clipPath><clipPath id="ax"><path d="M561.297 461.05h248.457v62.868H561.297Zm0 0"/></clipPath><clipPath id="ay"><path d="M561.297 461.05h248.457v62.868H561.297Zm0 0"/></clipPath><clipPath id="az"><path d="M561.168 262.66h248.453v62.871H561.168Zm0 0"/></clipPath><clipPath id="aA"><path d="M561.168 262.66h248.453v62.871H561.168Zm0 0"/></clipPath></defs><path fill="#fff" d="M531.613 197.52h309.098V.61H531.613Zm0 0"/><g clip-path="url(#a)"><path fill="none" stroke="#f4f4f4" stroke-width="1.22451654" d="M531.613 197.52h309.098V.613H531.613Zm0 0"/></g><path fill="#28477c" d="M530.969 593.941h309.097v-196.91H530.97Zm0 0"/><g clip-path="url(#b)"><path fill="none" stroke="#28477c" stroke-width="1.22451654" d="M530.969 593.941h309.097v-196.91H530.97Zm0 0"/></g><use xlink:href="#c" x="36.885" y="243.728" fill="#46464a"/><use xlink:href="#d" x="60.697" y="243.728" fill="#46464a"/><use xlink:href="#e" x="90.21" y="243.728" fill="#46464a"/><use xlink:href="#d" x="121.378" y="243.728" fill="#46464a"/><use xlink:href="#f" x="150.589" y="243.728" fill="#46464a"/><use xlink:href="#g" x="163.318" y="243.728" fill="#46464a"/><use xlink:href="#h" x="172.699" y="243.728" fill="#46464a"/><g fill="#46464a"><use xlink:href="#i" x="189.378" y="243.728"/><use xlink:href="#j" x="212.789" y="243.728"/></g><use xlink:href="#k" x="233.492" y="243.728" fill="#46464a"/><use xlink:href="#l" x="256.439" y="243.728" fill="#46464a"/><use xlink:href="#m" x="272.168" y="243.728" fill="#46464a"/><g fill="#46464a"><use xlink:href="#i" x="291.734" y="243.728"/><use xlink:href="#n" x="315.145" y="243.728"/></g><use xlink:href="#o" x="338.504" y="243.728" fill="#46464a"/><use xlink:href="#p" x="36.413" y="564.794" fill="#46464a"/><g fill="#46464a"><use xlink:href="#q" x="41.117" y="564.794"/><use xlink:href="#r" x="47.08" y="564.794"/></g><g fill="#46464a"><use xlink:href="#s" x="50.356" y="564.794"/><use xlink:href="#t" x="52.263" y="564.794"/></g><g fill="#46464a"><use xlink:href="#u" x="55.489" y="564.794"/><use xlink:href="#r" x="60.993" y="564.794"/></g><g fill="#46464a"><use xlink:href="#v" x="64.469" y="564.794"/><use xlink:href="#w" x="67.705" y="564.794"/><use xlink:href="#x" x="73.208" y="564.794"/><use xlink:href="#r" x="78.911" y="564.794"/></g><g fill="#46464a"><use xlink:href="#s" x="82.187" y="564.794"/><use xlink:href="#y" x="84.095" y="564.794"/><use xlink:href="#z" x="86.162" y="564.794"/></g><use xlink:href="#t" x="91.466" y="564.794" fill="#46464a"/><g fill="#46464a"><use xlink:href="#q" x="94.492" y="564.794"/><use xlink:href="#r" x="100.455" y="564.794"/><use xlink:href="#A" x="103.831" y="564.794"/><use xlink:href="#B" x="111.881" y="564.794"/><use xlink:href="#v" x="118.053" y="564.794"/><use xlink:href="#y" x="121.289" y="564.794"/><use xlink:href="#q" x="123.357" y="564.794"/><use xlink:href="#z" x="129.32" y="564.794"/><use xlink:href="#s" x="134.823" y="564.794"/><use xlink:href="#C" x="136.731" y="564.794"/><use xlink:href="#D" x="142.903" y="564.794"/><use xlink:href="#x" x="144.971" y="564.794"/><use xlink:href="#B" x="150.674" y="564.794"/><use xlink:href="#E" x="156.846" y="564.794"/></g><g fill="#46464a"><use xlink:href="#x" x="161.11" y="564.794"/><use xlink:href="#s" x="166.813" y="564.794"/><use xlink:href="#F" x="168.721" y="564.794"/></g><g fill="#46464a"><use xlink:href="#q" x="173.924" y="564.794"/><use xlink:href="#z" x="179.887" y="564.794"/></g><use xlink:href="#v" x="185.191" y="564.794" fill="#46464a"/><g fill="#46464a"><use xlink:href="#B" x="188.377" y="564.794"/><use xlink:href="#F" x="194.549" y="564.794"/></g><g fill="#46464a"><use xlink:href="#v" x="199.903" y="564.794"/><use xlink:href="#s" x="203.139" y="564.794"/><use xlink:href="#A" x="205.047" y="564.794"/><use xlink:href="#B" x="213.097" y="564.794"/><use xlink:href="#r" x="219.269" y="564.794"/><use xlink:href="#G" x="222.645" y="564.794"/></g><use xlink:href="#x" x="227.319" y="564.794" fill="#46464a"/><g fill="#46464a"><use xlink:href="#v" x="232.923" y="564.794"/><use xlink:href="#y" x="236.159" y="564.794"/><use xlink:href="#z" x="238.226" y="564.794"/><use xlink:href="#H" x="243.73" y="564.794"/><use xlink:href="#I" x="249.852" y="564.794"/><use xlink:href="#x" x="258.292" y="564.794"/><use xlink:href="#B" x="263.995" y="564.794"/><use xlink:href="#E" x="270.167" y="564.794"/></g><use xlink:href="#J" x="274.282" y="564.794" fill="#46464a"/><g fill="#46464a"><use xlink:href="#B" x="279.226" y="564.794"/><use xlink:href="#u" x="285.399" y="564.794"/><use xlink:href="#v" x="290.902" y="564.794"/></g><g fill="#46464a"><use xlink:href="#q" x="294.088" y="564.794"/><use xlink:href="#K" x="300.051" y="564.794"/><use xlink:href="#L" x="302.798" y="564.794"/><use xlink:href="#M" x="307.632" y="564.794"/></g><g fill="#46464a"><use xlink:href="#N" x="312.446" y="564.794"/><use xlink:href="#F" x="314.194" y="564.794"/></g><g fill="#46464a"><use xlink:href="#q" x="319.398" y="564.794"/><use xlink:href="#A" x="325.36" y="564.794"/><use xlink:href="#N" x="333.41" y="564.794"/><use xlink:href="#B" x="335.158" y="564.794"/><use xlink:href="#u" x="341.331" y="564.794"/></g><use xlink:href="#O" x="525.838" y="393.585" fill="#ed1d24"/><use xlink:href="#P" x="525.838" y="389.083" fill="#28477c"/><use xlink:href="#Q" x="525.838" y="387.478" fill="#46464a"/><g fill="#46464a"><use xlink:href="#R" x="525.838" y="384.433"/><use xlink:href="#S" x="525.838" y="380.424"/><use xlink:href="#T" x="525.838" y="378.776"/><use xlink:href="#U" x="525.838" y="375.876"/><use xlink:href="#V" x="525.838" y="372.927"/><use xlink:href="#W" x="525.838" y="370.375"/></g><g fill="#46464a"><use xlink:href="#X" x="525.838" y="367.822"/><use xlink:href="#Y" x="525.838" y="362.77"/><use xlink:href="#X" x="525.838" y="357.982"/><use xlink:href="#V" x="525.838" y="352.93"/><use xlink:href="#Z" x="525.838" y="350.377"/><use xlink:href="#Q" x="525.838" y="346.458"/></g><g fill="#46464a"><use xlink:href="#aa" x="525.838" y="343.413"/><use xlink:href="#V" x="525.838" y="336.995"/><use xlink:href="#W" x="525.838" y="334.442"/></g><g fill="#46464a"><use xlink:href="#ab" x="525.838" y="331.74"/><use xlink:href="#ac" x="525.838" y="328.036"/><use xlink:href="#ad" x="525.838" y="324.734"/><use xlink:href="#ae" x="525.838" y="321.031"/></g><use xlink:href="#af" x="525.838" y="318.472" fill="#46464a"/><g fill="#46464a"><use xlink:href="#ab" x="525.838" y="315.349"/><use xlink:href="#ag" x="525.838" y="311.646"/><use xlink:href="#ah" x="525.838" y="307.942"/><use xlink:href="#V" x="525.838" y="304.521"/><use xlink:href="#ai" x="525.838" y="301.968"/></g><g fill="#46464a"><use xlink:href="#aj" x="525.838" y="300.152"/><use xlink:href="#ak" x="525.838" y="296.574"/></g><g fill="#46464a"><use xlink:href="#al" x="525.838" y="294.609"/><use xlink:href="#am" x="525.838" y="293.464"/></g><g fill="#46464a"><use xlink:href="#ah" x="525.838" y="290.498"/><use xlink:href="#an" x="525.838" y="287.076"/><use xlink:href="#an" x="525.838" y="285.835"/><use xlink:href="#aj" x="525.838" y="284.595"/></g><g fill="#46464a"><use xlink:href="#ao" x="525.838" y="281.227"/><use xlink:href="#al" x="525.838" y="276.085"/><use xlink:href="#ap" x="525.838" y="274.941"/><use xlink:href="#ab" x="525.838" y="271.237"/><use xlink:href="#af" x="525.838" y="267.534"/><use xlink:href="#aq" x="525.838" y="264.292"/></g><g fill="#46464a"><use xlink:href="#ar" x="525.838" y="261.487"/><use xlink:href="#ak" x="525.838" y="257.813"/></g><use xlink:href="#aj" x="525.838" y="255.956" fill="#46464a"/><g fill="#46464a"><use xlink:href="#as" x="525.838" y="252.408"/><use xlink:href="#ac" x="525.838" y="249.106"/><use xlink:href="#ad" x="525.838" y="245.804"/></g><use xlink:href="#O" x="525.838" y="194.834" fill="#ed1d24"/><use xlink:href="#P" x="525.838" y="190.332" fill="#28477c"/><use xlink:href="#Q" x="525.838" y="188.727" fill="#46464a"/><g fill="#46464a"><use xlink:href="#R" x="525.838" y="185.683"/><use xlink:href="#S" x="525.838" y="181.674"/><use xlink:href="#T" x="525.838" y="180.026"/><use xlink:href="#U" x="525.838" y="177.125"/><use xlink:href="#V" x="525.838" y="174.177"/><use xlink:href="#W" x="525.838" y="171.624"/></g><g fill="#46464a"><use xlink:href="#X" x="525.838" y="169.071"/><use xlink:href="#Y" x="525.838" y="164.019"/><use xlink:href="#X" x="525.838" y="159.231"/><use xlink:href="#V" x="525.838" y="154.179"/><use xlink:href="#Z" x="525.838" y="151.626"/><use xlink:href="#Q" x="525.838" y="147.707"/></g><g fill="#46464a"><use xlink:href="#aa" x="525.838" y="144.663"/><use xlink:href="#V" x="525.838" y="138.245"/><use xlink:href="#W" x="525.838" y="135.692"/></g><g fill="#46464a"><use xlink:href="#ab" x="525.838" y="132.989"/><use xlink:href="#ac" x="525.838" y="129.286"/><use xlink:href="#ad" x="525.838" y="125.984"/><use xlink:href="#ae" x="525.838" y="122.28"/></g><use xlink:href="#af" x="525.838" y="119.721" fill="#46464a"/><g fill="#46464a"><use xlink:href="#ab" x="525.838" y="116.599"/><use xlink:href="#ag" x="525.838" y="112.896"/><use xlink:href="#ah" x="525.838" y="109.192"/><use xlink:href="#V" x="525.838" y="105.77"/><use xlink:href="#at" x="525.838" y="103.217"/><use xlink:href="#ab" x="525.838" y="98.052"/><use xlink:href="#ae" x="525.838" y="94.348"/></g><use xlink:href="#au" x="525.838" y="91.879" fill="#46464a"/><g fill="#46464a"><use xlink:href="#ah" x="525.838" y="89.967"/><use xlink:href="#ak" x="525.838" y="86.546"/></g><use xlink:href="#O" x="525.838" y="584.974" fill="#ed1d24"/><use xlink:href="#P" x="525.838" y="580.472" fill="#28477c"/><use xlink:href="#Q" x="525.838" y="578.867" fill="#46464a"/><g fill="#46464a"><use xlink:href="#R" x="525.838" y="575.823"/><use xlink:href="#S" x="525.838" y="571.814"/><use xlink:href="#T" x="525.838" y="570.166"/><use xlink:href="#U" x="525.838" y="567.265"/><use xlink:href="#V" x="525.838" y="564.317"/><use xlink:href="#W" x="525.838" y="561.764"/></g><g fill="#46464a"><use xlink:href="#X" x="525.838" y="559.211"/><use xlink:href="#Y" x="525.838" y="554.159"/><use xlink:href="#X" x="525.838" y="549.371"/><use xlink:href="#V" x="525.838" y="544.319"/><use xlink:href="#Z" x="525.838" y="541.766"/><use xlink:href="#Q" x="525.838" y="537.847"/></g><g fill="#46464a"><use xlink:href="#aa" x="525.838" y="534.803"/><use xlink:href="#V" x="525.838" y="528.384"/><use xlink:href="#W" x="525.838" y="525.832"/></g><g fill="#46464a"><use xlink:href="#ab" x="525.838" y="523.129"/><use xlink:href="#ac" x="525.838" y="519.425"/><use xlink:href="#ad" x="525.838" y="516.123"/><use xlink:href="#ae" x="525.838" y="512.42"/></g><use xlink:href="#af" x="525.838" y="509.861" fill="#46464a"/><g fill="#46464a"><use xlink:href="#ab" x="525.838" y="506.739"/><use xlink:href="#ag" x="525.838" y="503.035"/><use xlink:href="#ah" x="525.838" y="499.332"/><use xlink:href="#V" x="525.838" y="495.91"/><use xlink:href="#at" x="525.838" y="493.357"/><use xlink:href="#ab" x="525.838" y="488.191"/><use xlink:href="#ae" x="525.838" y="484.488"/></g><use xlink:href="#au" x="525.838" y="482.019" fill="#46464a"/><g fill="#46464a"><use xlink:href="#ah" x="525.838" y="480.107"/><use xlink:href="#ak" x="525.838" y="476.685"/></g><g clip-path="url(#av)"><path fill="#fff" d="M797.46 127.5H574.864c-7.133 0-12.937-5.805-12.937-12.937V77.566c0-7.132 5.804-12.937 12.937-12.937h235.535v49.933c0 7.133-5.804 12.938-12.937 12.938"/></g><path fill="#ec1d27" d="M745.145 108.2V86.91c0-.426-.5-.652-.82-.375l-2.962 1.094a.496.496 0 0 1-.82-.375v-5.879c0-.14.062-.277.172-.371l4.289-2.25a.5.5 0 0 1 .328-.121h6.242c.274 0 .496.222.496.496v29.07a.494.494 0 0 1-.496.496h-5.933a.494.494 0 0 1-.496-.496M755.785 108.2v-5.56a.5.5 0 0 1 .13-.335l10.765-11.68c1.097-1.184 1.52-1.941 1.52-3.21 0-1.645-.93-2.786-2.704-2.786-1.176 0-2.57.512-2.766 2.441a.5.5 0 0 1-.492.473h-5.941a.5.5 0 0 1-.5-.516c.25-5.586 4.617-8.648 9.7-8.648 5.573 0 9.624 3.422 9.624 9.078 0 3.168-1.308 4.856-3.715 7.39l-6.386 6.766a.493.493 0 0 0 .359.832h9.25c.273 0 .492.223.492.496v5.258a.49.49 0 0 1-.492.496H756.28a.494.494 0 0 1-.496-.496M786.582 108.95c-4.852 0-9.746-2.524-9.996-8.9a.5.5 0 0 1 .5-.515h5.945c.266 0 .465.207.492.469.188 1.797 1.461 2.695 3.059 2.695 1.816 0 3.082-1.054 3.082-3.207 0-1.816-1.351-3.168-3.207-3.168h-.973v-5.996h.973c2.066 0 2.871-1.476 2.871-2.828 0-1.898-1.308-2.871-2.746-2.871-1.316 0-2.523.851-2.715 2.39-.031.247-.219.438-.465.438h-5.972a.505.505 0 0 1-.504-.516c.254-5.347 4.46-8.562 9.656-8.562 5.574 0 9.672 3.715 9.672 8.91 0 2.898-1.242 4.488-2.578 5.492a.486.486 0 0 0-.012.774c1.48 1.156 2.926 2.945 2.926 6.148 0 6.293-4.73 9.246-10.008 9.246"/><path fill="#46464a" d="M589.676 92.207c-.45-1.035-1.434-1.887-3.184-1.887-1.754 0-2.742.852-3.187 1.887a4 4 0 0 0-.375 1.305.53.53 0 0 0 .527.582h6.066c.313 0 .563-.27.528-.582a4 4 0 0 0-.375-1.305m-6.2 6.777a.537.537 0 0 0-.523.63c.29 1.71 1.77 3.14 4.211 3.14 2.313 0 3.453-.586 4.61-1.66a.53.53 0 0 1 .738.008l3.652 3.652c.211.21.207.555-.004.758-2.344 2.226-4.742 3.437-8.996 3.437-5.344 0-11.492-1.93-11.492-12.344 0-7.902 4.488-12.343 10.82-12.343 7 0 10.86 5.117 10.86 11.445v2.75a.524.524 0 0 1-.524.527ZM610.684 98.984h-3.727c-1.434 0-2.332.809-2.332 1.93 0 1.078.809 2.02 2.422 2.02 1.437 0 2.11-.133 2.918-.899.539-.492.719-1.254.719-2.422Zm.707 9.696a.525.525 0 0 1-.528-.528v-1.445c-1.48 1.48-2.828 2.2-5.386 2.2-2.422 0-4.442-.81-5.79-2.157-1.394-1.39-2.109-3.41-2.109-5.656 0-3.637 2.469-7.004 8.211-7.004h4.895v-.625c0-2.2-1.079-3.008-3.637-3.008-1.688 0-2.512.36-3.504 1.273a.52.52 0 0 1-.719-.023l-3.832-3.832a.534.534 0 0 1 .008-.762c2.32-2.168 4.54-2.851 8.406-2.851 6.914 0 10.64 2.87 10.64 8.754v15.136a.53.53 0 0 1-.526.528ZM629.133 108.95c-3.492 0-6.903-.165-10.11-3.122a.535.535 0 0 1-.011-.766l4.02-4.015c.198-.2.511-.195.726-.012 1.957 1.676 4.328 1.676 5.508 1.676 1.078 0 3.14-.313 3.14-1.57 0-.676-.312-1.395-1.75-1.528l-3.722-.36c-4.176-.401-7.004-2.288-7.004-7.003 0-5.34 4.804-7.988 9.605-7.988 3.73 0 6.781.52 9.113 2.582.223.199.227.558.012.77l-3.797 3.796c-.195.195-.496.192-.715.028-1.226-.934-3.043-1.118-4.75-1.118-1.793 0-2.375.856-2.375 1.39 0 .27-.09 1.169 1.57 1.349l3.727.359c5.07.492 7.27 3.5 7.27 7.363 0 5.7-4.848 8.168-10.457 8.168M674.152 98.984h-3.726c-1.438 0-2.332.809-2.332 1.93 0 1.078.804 2.02 2.422 2.02 1.437 0 2.109-.133 2.918-.899.539-.492.718-1.254.718-2.422Zm.707 9.696a.525.525 0 0 1-.527-.528v-1.445c-1.48 1.48-2.828 2.2-5.387 2.2-2.425 0-4.445-.81-5.789-2.157-1.394-1.39-2.113-3.41-2.113-5.656 0-3.637 2.473-7.004 8.219-7.004h4.89v-.625c0-2.2-1.078-3.008-3.636-3.008-1.688 0-2.512.36-3.504 1.273a.52.52 0 0 1-.719-.023l-3.832-3.832a.534.534 0 0 1 .008-.762c2.32-2.168 4.539-2.851 8.406-2.851 6.914 0 10.637 2.87 10.637 8.754v15.136a.524.524 0 0 1-.524.528ZM696.852 108.68a.53.53 0 0 1-.528-.528v-1.449c-1.48 1.484-3.68 2.246-5.61 2.246-2.288 0-4.128-.761-5.433-2.066-2.062-2.063-2.422-4.352-2.422-6.91V85.059c0-.293.235-.528.528-.528h6.308c.29 0 .528.235.528.528v13.925c0 2.786 1.972 3.32 2.96 3.32.989 0 2.962-.534 2.962-3.32V85.06c0-.293.238-.528.527-.528h6.308c.29 0 .528.235.528.528v23.093a.53.53 0 0 1-.528.528ZM714.414 108.68c-5.34 0-7.496-3.817-7.496-7.137V90.187h-1.672a.53.53 0 0 1-.527-.527V85.06c0-.293.234-.528.527-.528h1.672v-5.445c0-.29.234-.523.527-.523h6.309c.289 0 .527.234.527.523v5.445h3.29c.288 0 .523.235.523.528v4.601c0 .29-.235.528-.524.528h-3.289v10.816c0 .945.492 1.48 1.48 1.48h1.81c.288 0 .523.239.523.528v5.14a.524.524 0 0 1-.524.528ZM731.516 91.578c-.45-.45-1.078-.672-1.977-.672-.898 0-1.523.223-1.973.672-.945.942-1.078 2.649-1.078 5.027 0 2.38.133 4.086 1.078 5.028.45.449 1.075.672 1.973.672s1.527-.223 1.977-.672c.941-.942 1.078-2.649 1.078-5.028s-.137-4.085-1.078-5.027m5.789 14.274c-1.434 1.527-3.86 3.097-7.766 3.097-3.902 0-6.328-1.57-7.766-3.097-2.02-2.2-2.648-4.489-2.648-9.247 0-4.714.629-7.046 2.648-9.246 1.438-1.527 3.864-3.097 7.766-3.097 3.906 0 6.332 1.57 7.766 3.097 2.023 2.2 2.648 4.532 2.648 9.246 0 4.758-.625 7.047-2.648 9.247M652.805 110.168c-.496 1.39-1.125 2.422-1.887 3.187-1.438 1.524-3.633 2.02-5.785 2.02h-2.258a.53.53 0 0 1-.527-.527v-5.59a.53.53 0 0 1 .527-.528h1.047c1.3 0 2.512-.668 3.055-2.027 0 0 .12-.258.003-.57l-7.71-20.89a.527.527 0 0 1 .496-.708h6.582c.226 0 .43.145.5.363l3.457 10.59c.156.489.847.485 1-.004l3.3-10.582a.52.52 0 0 1 .5-.367h6.579c.367 0 .62.363.496.707Zm0 0"/><g clip-path="url(#aw)"><path fill="#f9df27" d="M574.863 69.332c-4.539 0-8.23 3.695-8.23 8.234v36.997c0 4.539 3.691 8.23 8.23 8.23h222.598c4.539 0 8.234-3.691 8.234-8.23V69.332ZM797.461 127.5H574.863c-7.133 0-12.937-5.805-12.937-12.937V77.566c0-7.132 5.804-12.937 12.937-12.937h235.535v49.933c0 7.133-5.804 12.938-12.937 12.938"/></g><g clip-path="url(#ax)"><path fill="#fff" d="M796.816 523.918H574.22c-7.133 0-12.938-5.8-12.938-12.938v-36.996c0-7.132 5.805-12.933 12.938-12.933h235.535v49.93c0 7.136-5.805 12.937-12.938 12.937"/></g><path fill="#ec1d27" d="M744.5 504.621v-21.293c0-.426-.5-.652-.82-.371l-2.961 1.094a.496.496 0 0 1-.82-.375v-5.88c0-.144.062-.28.171-.374l4.29-2.246a.48.48 0 0 1 .324-.125h6.246c.273 0 .496.222.496.496v29.074a.497.497 0 0 1-.496.496h-5.934a.497.497 0 0 1-.496-.496M755.14 504.621v-5.562c0-.122.048-.243.13-.332l10.761-11.684c1.098-1.18 1.52-1.941 1.52-3.207 0-1.649-.926-2.785-2.7-2.785-1.175 0-2.57.508-2.765 2.441a.505.505 0 0 1-.496.469h-5.938a.496.496 0 0 1-.5-.512c.25-5.586 4.618-8.648 9.7-8.648 5.57 0 9.625 3.418 9.625 9.078 0 3.164-1.309 4.855-3.715 7.387l-6.39 6.765a.496.496 0 0 0 .362.836h9.246c.278 0 .497.223.497.496v5.258a.494.494 0 0 1-.497.496h-18.347a.493.493 0 0 1-.492-.496M785.938 505.371c-4.852 0-9.747-2.527-9.997-8.902a.5.5 0 0 1 .5-.516h5.946c.261 0 .465.207.492.469.187 1.8 1.46 2.7 3.058 2.7 1.817 0 3.083-1.06 3.083-3.212 0-1.812-1.352-3.164-3.207-3.164h-.973v-5.996h.972c2.067 0 2.868-1.48 2.868-2.832 0-1.898-1.309-2.867-2.742-2.867-1.317 0-2.524.847-2.72 2.39a.477.477 0 0 1-.464.438h-5.973a.503.503 0 0 1-.5-.52c.254-5.347 4.461-8.558 9.657-8.558 5.574 0 9.667 3.715 9.667 8.906 0 2.898-1.242 4.488-2.574 5.492a.486.486 0 0 0-.011.774c1.48 1.156 2.925 2.949 2.925 6.148 0 6.293-4.73 9.25-10.008 9.25"/><path fill="#46464a" d="M589.031 488.625c-.449-1.031-1.437-1.883-3.187-1.883s-2.739.852-3.188 1.883c-.21.43-.32.879-.37 1.305a.53.53 0 0 0 .527.582h6.066a.53.53 0 0 0 .527-.582 4 4 0 0 0-.375-1.305m-6.203 6.777a.538.538 0 0 0-.523.633c.293 1.711 1.77 3.14 4.215 3.14 2.312 0 3.449-.585 4.609-1.66a.53.53 0 0 1 .738.005l3.653 3.656a.53.53 0 0 1-.008.758c-2.34 2.226-4.739 3.437-8.992 3.437-5.344 0-11.493-1.933-11.493-12.348 0-7.898 4.489-12.343 10.817-12.343 7.004 0 10.863 5.117 10.863 11.449v2.75c0 .289-.234.523-.527.523ZM610.04 495.402h-3.727c-1.438 0-2.336.809-2.336 1.93 0 1.078.808 2.023 2.425 2.023 1.438 0 2.11-.136 2.918-.898.54-.492.72-1.258.72-2.426Zm.702 9.696a.523.523 0 0 1-.523-.524v-1.449c-1.48 1.48-2.828 2.2-5.387 2.2-2.426 0-4.445-.81-5.793-2.157-1.39-1.39-2.11-3.41-2.11-5.652 0-3.637 2.47-7.004 8.216-7.004h4.894v-.63c0-2.198-1.078-3.007-3.637-3.007-1.687 0-2.511.36-3.504 1.273a.527.527 0 0 1-.722-.02l-3.832-3.835a.54.54 0 0 1 .011-.762c2.32-2.164 4.54-2.851 8.407-2.851 6.91 0 10.636 2.875 10.636 8.754v15.14c0 .29-.234.524-.523.524ZM628.484 505.371c-3.492 0-6.898-.168-10.105-3.121a.535.535 0 0 1-.012-.766l4.02-4.02a.526.526 0 0 1 .722-.01c1.961 1.675 4.328 1.675 5.512 1.675 1.078 0 3.14-.313 3.14-1.57 0-.672-.312-1.391-1.75-1.528l-3.726-.36c-4.172-.401-7-2.288-7-7 0-5.343 4.8-7.991 9.606-7.991 3.73 0 6.78.523 9.113 2.586.223.199.226.554.012.77l-3.797 3.796c-.196.195-.496.191-.715.023-1.23-.93-3.043-1.113-4.75-1.113-1.793 0-2.379.852-2.379 1.39 0 .27-.09 1.169 1.574 1.348l3.723.36c5.074.492 7.273 3.5 7.273 7.36 0 5.698-4.847 8.171-10.46 8.171M673.508 495.402h-3.727c-1.437 0-2.336.809-2.336 1.93 0 1.078.809 2.023 2.426 2.023 1.438 0 2.11-.136 2.918-.898.54-.492.719-1.258.719-2.426Zm.703 9.696a.523.523 0 0 1-.524-.524v-1.449c-1.484 1.48-2.832 2.2-5.386 2.2-2.426 0-4.446-.81-5.793-2.157-1.39-1.39-2.11-3.41-2.11-5.652 0-3.637 2.47-7.004 8.215-7.004h4.895v-.63c0-2.198-1.078-3.007-3.637-3.007-1.691 0-2.512.36-3.508 1.273a.52.52 0 0 1-.718-.02l-3.832-3.835a.54.54 0 0 1 .011-.762c2.32-2.164 4.54-2.851 8.406-2.851 6.91 0 10.637 2.875 10.637 8.754v15.14c0 .29-.234.524-.523.524ZM696.207 505.102a.53.53 0 0 1-.527-.528v-1.449c-1.48 1.48-3.68 2.246-5.61 2.246-2.289 0-4.133-.766-5.433-2.066-2.063-2.067-2.422-4.356-2.422-6.914v-14.914c0-.29.234-.528.523-.528h6.309c.293 0 .527.238.527.528v13.93c0 2.78 1.977 3.32 2.965 3.32.984 0 2.961-.54 2.961-3.32v-13.93c0-.29.234-.528.527-.528h6.309c.289 0 .523.238.523.528v23.097c0 .29-.234.528-.523.528ZM713.77 505.102c-5.344 0-7.497-3.817-7.497-7.141v-11.356h-1.675a.524.524 0 0 1-.524-.527v-4.601c0-.29.235-.528.524-.528h1.675v-5.441c0-.293.235-.528.528-.528h6.308c.29 0 .524.235.524.528v5.441h3.289c.293 0 .527.238.527.528v4.601a.525.525 0 0 1-.527.527h-3.29v10.82c0 .942.497 1.481 1.481 1.481h1.809c.293 0 .527.235.527.528v5.14c0 .29-.234.528-.527.528ZM730.871 487.996c-.45-.445-1.078-.672-1.976-.672-.899 0-1.528.227-1.977.672-.941.945-1.074 2.649-1.074 5.027 0 2.383.133 4.086 1.074 5.028.45.449 1.078.676 1.977.676.898 0 1.527-.227 1.976-.676.942-.942 1.074-2.645 1.074-5.028 0-2.378-.133-4.082-1.074-5.027m5.79 14.277c-1.438 1.524-3.86 3.098-7.766 3.098s-6.329-1.574-7.766-3.098c-2.02-2.199-2.649-4.488-2.649-9.25 0-4.71.63-7.046 2.649-9.246 1.437-1.527 3.86-3.097 7.766-3.097s6.328 1.57 7.765 3.097c2.02 2.2 2.649 4.536 2.649 9.246 0 4.762-.63 7.051-2.649 9.25M652.16 506.586c-.496 1.394-1.125 2.426-1.887 3.187-1.437 1.528-3.632 2.024-5.785 2.024h-2.258a.53.53 0 0 1-.527-.527v-5.594c0-.29.235-.524.527-.524h1.043c1.301 0 2.516-.672 3.059-2.03 0 0 .121-.255.004-.571l-7.711-20.887a.525.525 0 0 1 .492-.707h6.586c.227 0 .43.145.5.36l3.453 10.593c.16.488.852.48 1.004-.008l3.3-10.578a.52.52 0 0 1 .5-.367h6.58c.366 0 .62.363.491.707Zm0 0"/><g clip-path="url(#ay)"><path fill="#f9df27" d="M574.219 465.754c-4.54 0-8.235 3.691-8.235 8.23v36.996c0 4.543 3.696 8.235 8.235 8.235h222.597c4.54 0 8.23-3.692 8.23-8.235v-45.226Zm222.597 58.164H574.22c-7.133 0-12.938-5.8-12.938-12.938v-36.996c0-7.132 5.805-12.937 12.938-12.937h235.535v49.933c0 7.137-5.805 12.938-12.938 12.938"/></g><path fill="#ffde3f" stroke="#ffde3f" stroke-width="1.22451654" d="M531.117 395.555h309.098v-196.91H531.117Zm0 0"/><g clip-path="url(#az)"><path fill="#f9df27" d="M796.688 325.531H574.09c-7.133 0-12.938-5.804-12.938-12.937v-36.996c0-7.133 5.805-12.938 12.938-12.938H809.62v49.934c0 7.133-5.8 12.937-12.933 12.937"/></g><path fill="#ec1d27" d="M744.371 306.234v-21.293c0-.425-.5-.652-.82-.375l-2.961 1.094a.496.496 0 0 1-.82-.37v-5.884c0-.14.062-.277.171-.37l4.29-2.25a.5.5 0 0 1 .324-.122h6.246c.273 0 .492.223.492.496v29.074a.49.49 0 0 1-.492.493h-5.934a.493.493 0 0 1-.496-.493M755.012 306.234v-5.562a.5.5 0 0 1 .129-.336l10.761-11.68c1.098-1.183 1.52-1.941 1.52-3.21 0-1.645-.93-2.786-2.7-2.786-1.179 0-2.574.512-2.765 2.442-.027.265-.23.472-.496.472h-5.941a.496.496 0 0 1-.497-.515c.25-5.582 4.618-8.649 9.7-8.649 5.57 0 9.625 3.422 9.625 9.078 0 3.168-1.309 4.856-3.715 7.39l-6.39 6.767a.496.496 0 0 0 .359.835h9.25c.273 0 .496.22.496.493v5.261a.493.493 0 0 1-.496.493h-18.348a.49.49 0 0 1-.492-.493M785.809 306.98c-4.856 0-9.746-2.523-10-8.898a.505.505 0 0 1 .504-.516h5.945c.262 0 .465.207.492.47.188 1.796 1.46 2.694 3.059 2.694 1.816 0 3.082-1.054 3.082-3.207 0-1.816-1.352-3.168-3.211-3.168h-.97v-5.996h.97c2.07 0 2.87-1.476 2.87-2.828 0-1.898-1.308-2.87-2.741-2.87-1.317 0-2.528.85-2.72 2.39-.03.246-.218.437-.464.437h-5.973a.5.5 0 0 1-.5-.515c.254-5.348 4.461-8.563 9.657-8.563 5.574 0 9.668 3.715 9.668 8.91 0 2.899-1.243 4.489-2.575 5.493a.482.482 0 0 0-.011.769c1.48 1.16 2.925 2.953 2.925 6.152 0 6.293-4.73 9.246-10.007 9.246"/><path fill="#46464a" d="M588.902 290.238c-.449-1.031-1.437-1.886-3.187-1.886s-2.738.855-3.188 1.886c-.215.43-.324.875-.37 1.305a.53.53 0 0 0 .527.582h6.062a.53.53 0 0 0 .527-.582 3.8 3.8 0 0 0-.37-1.305m-6.204 6.778a.537.537 0 0 0-.523.629c.293 1.71 1.77 3.14 4.21 3.14 2.313 0 3.454-.586 4.614-1.66a.526.526 0 0 1 .734.008l3.657 3.652a.533.533 0 0 1-.008.758c-2.34 2.227-4.738 3.437-8.996 3.437-5.34 0-11.489-1.93-11.489-12.343 0-7.899 4.489-12.344 10.817-12.344 7.004 0 10.863 5.117 10.863 11.445v2.75a.525.525 0 0 1-.527.528ZM609.91 297.016h-3.726c-1.438 0-2.336.808-2.336 1.93 0 1.077.808 2.019 2.425 2.019 1.438 0 2.11-.133 2.918-.899.54-.492.72-1.253.72-2.421Zm.703 9.695a.524.524 0 0 1-.523-.527v-1.446c-1.485 1.48-2.832 2.2-5.387 2.2-2.426 0-4.445-.81-5.793-2.157-1.39-1.39-2.11-3.41-2.11-5.656 0-3.637 2.47-7.004 8.216-7.004h4.894v-.625c0-2.2-1.078-3.008-3.637-3.008-1.691 0-2.511.36-3.507 1.274a.52.52 0 0 1-.72-.024l-3.831-3.832a.54.54 0 0 1 .012-.761c2.32-2.168 4.539-2.852 8.406-2.852 6.91 0 10.637 2.871 10.637 8.754v15.137a.525.525 0 0 1-.528.527ZM628.355 306.98c-3.492 0-6.898-.164-10.105-3.12a.53.53 0 0 1-.012-.762l4.016-4.02c.2-.2.512-.195.726-.012 1.961 1.676 4.329 1.676 5.512 1.676 1.074 0 3.14-.312 3.14-1.57 0-.676-.312-1.39-1.75-1.527l-3.726-.36c-4.176-.402-7-2.289-7-7.004 0-5.34 4.801-7.988 9.606-7.988 3.73 0 6.781.52 9.11 2.582.226.2.226.559.015.77l-3.797 3.796c-.195.196-.496.192-.715.028-1.23-.934-3.047-1.117-4.75-1.117-1.793 0-2.379.855-2.379 1.394 0 .27-.09 1.164 1.57 1.344l3.727.36c5.074.495 7.273 3.5 7.273 7.363 0 5.699-4.851 8.167-10.46 8.167M673.375 297.016h-3.723c-1.437 0-2.336.808-2.336 1.93 0 1.077.809 2.019 2.426 2.019 1.434 0 2.11-.133 2.918-.899.535-.492.715-1.253.715-2.421Zm.707 9.695a.53.53 0 0 1-.527-.527v-1.446c-1.48 1.48-2.828 2.2-5.383 2.2-2.426 0-4.445-.81-5.793-2.157-1.39-1.39-2.11-3.41-2.11-5.656 0-3.637 2.47-7.004 8.215-7.004h4.891v-.625c0-2.2-1.074-3.008-3.633-3.008-1.691 0-2.515.36-3.508 1.274a.52.52 0 0 1-.718-.024l-3.832-3.832a.53.53 0 0 1 .011-.761c2.32-2.168 4.54-2.852 8.407-2.852 6.91 0 10.636 2.871 10.636 8.754v15.137a.525.525 0 0 1-.527.527ZM696.078 306.71a.525.525 0 0 1-.527-.526v-1.446c-1.48 1.48-3.684 2.242-5.614 2.242-2.289 0-4.128-.761-5.43-2.066-2.066-2.062-2.425-4.351-2.425-6.91V283.09c0-.293.238-.527.527-.527h6.309c.293 0 .527.234.527.527v13.926c0 2.785 1.977 3.32 2.961 3.32.989 0 2.965-.535 2.965-3.32V283.09c0-.293.234-.527.527-.527h6.309c.29 0 .523.234.523.527v23.094a.524.524 0 0 1-.523.527ZM713.64 306.71c-5.343 0-7.495-3.815-7.495-7.136V288.22h-1.676a.53.53 0 0 1-.528-.528v-4.601c0-.293.239-.527.528-.527h1.676v-5.446c0-.289.234-.523.523-.523h6.309c.293 0 .527.234.527.523v5.445h3.289c.293 0 .527.235.527.528v4.601a.525.525 0 0 1-.527.528h-3.29v10.816c0 .945.497 1.48 1.481 1.48h1.809c.293 0 .527.239.527.528v5.14a.525.525 0 0 1-.527.528ZM730.742 289.61c-.449-.45-1.078-.673-1.976-.673-.899 0-1.528.223-1.977.672-.941.942-1.078 2.649-1.078 5.028s.137 4.086 1.078 5.027c.45.45 1.078.672 1.977.672.898 0 1.527-.223 1.976-.672.942-.941 1.074-2.648 1.074-5.027s-.132-4.086-1.074-5.028m5.79 14.274c-1.438 1.527-3.86 3.097-7.766 3.097s-6.328-1.57-7.766-3.097c-2.02-2.2-2.648-4.488-2.648-9.246 0-4.711.628-7.047 2.648-9.246 1.438-1.528 3.86-3.098 7.766-3.098s6.328 1.57 7.765 3.098c2.02 2.199 2.649 4.535 2.649 9.246 0 4.758-.63 7.047-2.649 9.246M652.027 308.2c-.492 1.39-1.12 2.425-1.882 3.187-1.438 1.527-3.633 2.02-5.79 2.02h-2.253a.525.525 0 0 1-.528-.528v-5.59c0-.289.235-.527.528-.527h1.043c1.3 0 2.511-.668 3.058-2.028 0 0 .121-.254.004-.57l-7.71-20.89a.524.524 0 0 1 .491-.708h6.586a.53.53 0 0 1 .5.364l3.453 10.593c.16.485.852.48 1.004-.007l3.297-10.579a.53.53 0 0 1 .504-.37h6.578c.367 0 .621.367.492.71Zm0 0"/><g clip-path="url(#aA)"><path fill="#fff" d="M574.09 267.363c-4.54 0-8.235 3.696-8.235 8.235v36.996c0 4.539 3.696 8.23 8.235 8.23h222.597c4.54 0 8.231-3.691 8.231-8.23v-45.23Zm222.597 58.168H574.09c-7.133 0-12.938-5.804-12.938-12.937v-36.996c0-7.133 5.805-12.938 12.938-12.938h235.535v49.934c0 7.133-5.805 12.937-12.937 12.937"/></g><use xlink:href="#aB" x="36.885" y="283.69" fill="#46464a"/><g fill="#46464a"><use xlink:href="#aC" x="43.904" y="283.69"/><use xlink:href="#aD" x="51.469" y="283.69"/><use xlink:href="#aE" x="54.224" y="283.69"/><use xlink:href="#aF" x="60.124" y="283.69"/><use xlink:href="#aD" x="62.655" y="283.69"/><use xlink:href="#aE" x="65.41" y="283.69"/><use xlink:href="#aF" x="71.311" y="283.69"/><use xlink:href="#aG" x="73.842" y="283.69"/><use xlink:href="#aC" x="78.232" y="283.69"/><use xlink:href="#aH" x="85.797" y="283.69"/><use xlink:href="#aF" x="93.642" y="283.69"/><use xlink:href="#aI" x="96.173" y="283.69"/><use xlink:href="#aJ" x="104.674" y="283.69"/></g><use xlink:href="#aH" x="108.87" y="283.69" fill="#46464a"/><use xlink:href="#aK" x="116.574" y="283.69" fill="#46464a"/><g fill="#46464a"><use xlink:href="#aH" x="120.671" y="283.69"/><use xlink:href="#aJ" x="128.515" y="283.69"/><use xlink:href="#aJ" x="133.102" y="283.69"/></g><g fill="#46464a"><use xlink:href="#aH" x="137.296" y="283.69"/><use xlink:href="#aL" x="145.141" y="283.69"/><use xlink:href="#aF" x="153.643" y="283.69"/><use xlink:href="#aM" x="156.174" y="283.69"/></g><g fill="#46464a"><use xlink:href="#aH" x="162.955" y="283.69"/><use xlink:href="#aJ" x="170.8" y="283.69"/><use xlink:href="#aE" x="175.386" y="283.69"/><use xlink:href="#aD" x="181.287" y="283.69"/><use xlink:href="#aN" x="184.042" y="283.69"/><use xlink:href="#aO" x="192.25" y="283.69"/></g><use xlink:href="#aF" x="200.094" y="283.69" fill="#46464a"/><use xlink:href="#aN" x="36.885" y="301.668" fill="#46464a"/><g fill="#46464a"><use xlink:href="#aK" x="44.953" y="301.668"/><use xlink:href="#aF" x="49.469" y="301.668"/><use xlink:href="#aG" x="52" y="301.668"/><use xlink:href="#aC" x="56.391" y="301.668"/><use xlink:href="#aH" x="63.956" y="301.668"/><use xlink:href="#aF" x="71.8" y="301.668"/></g><g fill="#46464a"><use xlink:href="#aP" x="74.33" y="301.668"/><use xlink:href="#aQ" x="81.741" y="301.668"/><use xlink:href="#aR" x="90.047" y="301.668"/></g><use xlink:href="#aS" x="95.794" y="301.668" fill="#46464a"/><g fill="#46464a"><use xlink:href="#aQ" x="103.135" y="301.668"/><use xlink:href="#aT" x="111.441" y="301.668"/><use xlink:href="#aU" x="119.342" y="301.668"/></g><use xlink:href="#aV" x="124.208" y="301.668" fill="#46464a"/><use xlink:href="#aW" x="131.982" y="301.668" fill="#ed1d24"/><g fill="#ed1d24"><use xlink:href="#aX" x="138.666" y="301.668"/><use xlink:href="#aY" x="145.923" y="301.668"/></g><g fill="#46464a"><use xlink:href="#aF" x="152.942" y="301.668"/><use xlink:href="#aZ" x="155.473" y="301.668"/><use xlink:href="#aN" x="158.227" y="301.668"/><use xlink:href="#ba" x="166.435" y="301.668"/><use xlink:href="#aN" x="174.867" y="301.668"/><use xlink:href="#aF" x="183.075" y="301.668"/><use xlink:href="#bb" x="185.606" y="301.668"/><use xlink:href="#aO" x="194.108" y="301.668"/><use xlink:href="#aL" x="201.672" y="301.668"/></g><use xlink:href="#aF" x="210.454" y="301.668" fill="#46464a"/><g fill="#46464a"><use xlink:href="#aE" x="36.885" y="319.646"/><use xlink:href="#aC" x="42.785" y="319.646"/><use xlink:href="#aN" x="50.35" y="319.646"/></g><g fill="#46464a"><use xlink:href="#bc" x="58.488" y="319.646"/><use xlink:href="#aZ" x="66.053" y="319.646"/><use xlink:href="#aL" x="68.808" y="319.646"/><use xlink:href="#aF" x="77.309" y="319.646"/><use xlink:href="#bd" x="79.84" y="319.646"/><use xlink:href="#aH" x="88.342" y="319.646"/><use xlink:href="#aF" x="96.186" y="319.646"/><use xlink:href="#bc" x="98.717" y="319.646"/><use xlink:href="#aE" x="106.282" y="319.646"/></g><g fill="#46464a"><use xlink:href="#aH" x="112.113" y="319.646"/><use xlink:href="#aL" x="119.958" y="319.646"/><use xlink:href="#aF" x="128.459" y="319.646"/><use xlink:href="#be" x="130.99" y="319.646"/><use xlink:href="#aC" x="142.848" y="319.646"/><use xlink:href="#aH" x="150.413" y="319.646"/><use xlink:href="#aO" x="158.257" y="319.646"/><use xlink:href="#aH" x="165.822" y="319.646"/></g><use xlink:href="#aM" x="173.177" y="319.646" fill="#46464a"/><g fill="#46464a"><use xlink:href="#aH" x="179.959" y="319.646"/><use xlink:href="#aJ" x="187.803" y="319.646"/></g><use xlink:href="#aF" x="192.531" y="319.646" fill="#46464a"/><g fill="#46464a"><use xlink:href="#aI" x="36.885" y="337.624"/><use xlink:href="#aN" x="45.386" y="337.624"/></g><g fill="#46464a"><use xlink:href="#aE" x="53.454" y="337.624"/><use xlink:href="#aE" x="59.355" y="337.624"/><use xlink:href="#aD" x="65.256" y="337.624"/><use xlink:href="#bd" x="68.011" y="337.624"/><use xlink:href="#aZ" x="76.512" y="337.624"/><use xlink:href="#aH" x="79.267" y="337.624"/></g><use xlink:href="#bf" x="86.552" y="337.624" fill="#46464a"/><use xlink:href="#aB" x="36.885" y="373.581" fill="#46464a"/><g fill="#46464a"><use xlink:href="#aC" x="43.904" y="373.581"/><use xlink:href="#aH" x="51.469" y="373.581"/><use xlink:href="#aF" x="59.313" y="373.581"/><use xlink:href="#aZ" x="61.844" y="373.581"/><use xlink:href="#aN" x="64.599" y="373.581"/></g><use xlink:href="#bg" x="72.667" y="373.581" fill="#46464a"/><g fill="#46464a"><use xlink:href="#aH" x="78.722" y="373.581"/><use xlink:href="#aO" x="86.566" y="373.581"/><use xlink:href="#ba" x="94.131" y="373.581"/><use xlink:href="#aH" x="102.563" y="373.581"/><use xlink:href="#aF" x="110.407" y="373.581"/><use xlink:href="#bb" x="112.938" y="373.581"/><use xlink:href="#aO" x="121.44" y="373.581"/><use xlink:href="#aL" x="129.005" y="373.581"/><use xlink:href="#aF" x="137.506" y="373.581"/><use xlink:href="#bh" x="140.037" y="373.581"/></g><use xlink:href="#aH" x="146.441" y="373.581" fill="#46464a"/><g fill="#46464a"><use xlink:href="#bi" x="153.796" y="373.581"/><use xlink:href="#aZ" x="161.068" y="373.581"/><use xlink:href="#aD" x="163.822" y="373.581"/><use xlink:href="#aO" x="166.577" y="373.581"/><use xlink:href="#aH" x="174.142" y="373.581"/></g><use xlink:href="#aF" x="182.266" y="373.581" fill="#46464a"/><g fill="#46464a"><use xlink:href="#aE" x="36.885" y="391.559"/><use xlink:href="#aC" x="42.785" y="391.559"/><use xlink:href="#aN" x="50.35" y="391.559"/></g><g fill="#46464a"><use xlink:href="#bc" x="58.488" y="391.559"/><use xlink:href="#aZ" x="66.053" y="391.559"/><use xlink:href="#aL" x="68.808" y="391.559"/><use xlink:href="#aF" x="77.309" y="391.559"/><use xlink:href="#bj" x="79.84" y="391.559"/></g><g fill="#46464a"><use xlink:href="#aN" x="86.986" y="391.559"/><use xlink:href="#aO" x="95.194" y="391.559"/></g><g fill="#46464a"><use xlink:href="#aG" x="102.479" y="391.559"/><use xlink:href="#aJ" x="106.869" y="391.559"/></g><g fill="#46464a"><use xlink:href="#bb" x="111.064" y="391.559"/><use xlink:href="#aE" x="119.566" y="391.559"/></g><g fill="#46464a"><use xlink:href="#aG" x="125.187" y="391.559"/><use xlink:href="#aF" x="129.578" y="391.559"/><use xlink:href="#be" x="132.109" y="391.559"/><use xlink:href="#aD" x="143.966" y="391.559"/></g><g fill="#46464a"><use xlink:href="#aG" x="146.581" y="391.559"/><use xlink:href="#aC" x="150.972" y="391.559"/><use xlink:href="#aF" x="158.537" y="391.559"/><use xlink:href="#aG" x="161.068" y="391.559"/><use xlink:href="#aC" x="165.458" y="391.559"/><use xlink:href="#aH" x="173.023" y="391.559"/></g><use xlink:href="#aF" x="181.147" y="391.559" fill="#46464a"/><g fill="#46464a"><use xlink:href="#bd" x="36.885" y="409.537"/><use xlink:href="#bb" x="45.386" y="409.537"/><use xlink:href="#bj" x="53.888" y="409.537"/><use xlink:href="#bh" x="61.313" y="409.537"/></g><g fill="#46464a"><use xlink:href="#ba" x="67.717" y="409.537"/><use xlink:href="#aJ" x="76.149" y="409.537"/></g><use xlink:href="#aN" x="80.344" y="409.537" fill="#46464a"/><g fill="#46464a"><use xlink:href="#bc" x="88.482" y="409.537"/><use xlink:href="#aO" x="96.047" y="409.537"/><use xlink:href="#aL" x="103.611" y="409.537"/><use xlink:href="#aF" x="112.113" y="409.537"/><use xlink:href="#bc" x="114.644" y="409.537"/><use xlink:href="#aE" x="122.209" y="409.537"/></g><g fill="#46464a"><use xlink:href="#aH" x="128.041" y="409.537"/><use xlink:href="#aL" x="135.886" y="409.537"/><use xlink:href="#bf" x="144.387" y="409.537"/></g><use xlink:href="#aF" x="36.885" y="427.515" fill="#46464a"/><use xlink:href="#aF" x="36.885" y="445.493" fill="#46464a"/><use xlink:href="#aF" x="36.885" y="463.471" fill="#46464a"/><use xlink:href="#aF" x="36.885" y="481.449" fill="#46464a"/><use xlink:href="#aF" x="36.885" y="499.427" fill="#46464a"/><use xlink:href="#bk" x="231.341" y="283.69" fill="#46464a"/><g fill="#46464a"><use xlink:href="#aN" x="237.508" y="283.69"/><use xlink:href="#ba" x="245.716" y="283.69"/><use xlink:href="#aN" x="254.147" y="283.69"/></g><g fill="#46464a"><use xlink:href="#aE" x="262.215" y="283.69"/><use xlink:href="#aF" x="268.116" y="283.69"/><use xlink:href="#aE" x="270.647" y="283.69"/><use xlink:href="#aC" x="276.548" y="283.69"/><use xlink:href="#aN" x="284.113" y="283.69"/></g><g fill="#46464a"><use xlink:href="#bc" x="292.251" y="283.69"/><use xlink:href="#aZ" x="299.816" y="283.69"/><use xlink:href="#aL" x="302.57" y="283.69"/><use xlink:href="#aF" x="311.072" y="283.69"/><use xlink:href="#bb" x="313.603" y="283.69"/><use xlink:href="#aZ" x="322.105" y="283.69"/><use xlink:href="#be" x="324.859" y="283.69"/></g><g fill="#46464a"><use xlink:href="#bb" x="336.229" y="283.69"/><use xlink:href="#bi" x="344.73" y="283.69"/></g><g fill="#46464a"><use xlink:href="#aE" x="351.584" y="283.69"/><use xlink:href="#aF" x="357.484" y="283.69"/><use xlink:href="#bd" x="360.015" y="283.69"/><use xlink:href="#aH" x="368.517" y="283.69"/></g><use xlink:href="#aF" x="376.641" y="283.69" fill="#46464a"/><use xlink:href="#aF" x="378.887" y="283.69" fill="#46464a"/><g fill="#46464a"><use xlink:href="#bc" x="231.341" y="301.668"/><use xlink:href="#aE" x="238.906" y="301.668"/></g><g fill="#46464a"><use xlink:href="#aH" x="244.737" y="301.668"/><use xlink:href="#aL" x="252.581" y="301.668"/><use xlink:href="#aF" x="261.083" y="301.668"/><use xlink:href="#bj" x="263.614" y="301.668"/></g><g fill="#46464a"><use xlink:href="#aN" x="270.759" y="301.668"/><use xlink:href="#bl" x="278.967" y="301.668"/><use xlink:href="#aI" x="290.098" y="301.668"/><use xlink:href="#aZ" x="298.599" y="301.668"/><use xlink:href="#aH" x="301.354" y="301.668"/></g><use xlink:href="#aG" x="309.058" y="301.668" fill="#46464a"/><g fill="#46464a"><use xlink:href="#aH" x="313.379" y="301.668"/><use xlink:href="#aF" x="321.224" y="301.668"/><use xlink:href="#bb" x="323.755" y="301.668"/><use xlink:href="#aO" x="332.256" y="301.668"/><use xlink:href="#aL" x="339.821" y="301.668"/><use xlink:href="#aF" x="348.323" y="301.668"/><use xlink:href="#bl" x="350.854" y="301.668"/><use xlink:href="#bc" x="361.984" y="301.668"/><use xlink:href="#aE" x="369.549" y="301.668"/></g><use xlink:href="#aG" x="375.17" y="301.668" fill="#46464a"/><use xlink:href="#aF" x="379.84" y="301.668" fill="#46464a"/><g fill="#46464a"><use xlink:href="#aO" x="231.341" y="319.646"/><use xlink:href="#aH" x="238.906" y="319.646"/></g><use xlink:href="#aM" x="246.261" y="319.646" fill="#46464a"/><g fill="#46464a"><use xlink:href="#aH" x="253.043" y="319.646"/><use xlink:href="#aJ" x="260.887" y="319.646"/></g><g fill="#46464a"><use xlink:href="#aF" x="265.334" y="319.646"/><use xlink:href="#bd" x="267.865" y="319.646"/><use xlink:href="#aH" x="276.366" y="319.646"/><use xlink:href="#aF" x="284.211" y="319.646"/><use xlink:href="#bj" x="286.742" y="319.646"/></g><g fill="#46464a"><use xlink:href="#aN" x="293.887" y="319.646"/><use xlink:href="#bl" x="302.095" y="319.646"/><use xlink:href="#aI" x="313.225" y="319.646"/><use xlink:href="#aJ" x="321.727" y="319.646"/></g><use xlink:href="#aH" x="325.922" y="319.646" fill="#46464a"/><g fill="#46464a"><use xlink:href="#aE" x="333.627" y="319.646"/><use xlink:href="#aE" x="339.527" y="319.646"/></g><g fill="#46464a"><use xlink:href="#aH" x="345.358" y="319.646"/><use xlink:href="#aL" x="353.203" y="319.646"/><use xlink:href="#aF" x="361.704" y="319.646"/><use xlink:href="#aN" x="364.235" y="319.646"/><use xlink:href="#aJ" x="372.443" y="319.646"/></g><use xlink:href="#aF" x="377.17" y="319.646" fill="#46464a"/><g fill="#46464a"><use xlink:href="#aL" x="231.341" y="337.624"/><use xlink:href="#aD" x="239.843" y="337.624"/><use xlink:href="#aE" x="242.597" y="337.624"/></g><use xlink:href="#aG" x="248.218" y="337.624" fill="#46464a"/><g fill="#46464a"><use xlink:href="#aN" x="252.539" y="337.624"/><use xlink:href="#aJ" x="260.747" y="337.624"/></g><use xlink:href="#aG" x="265.473" y="337.624" fill="#46464a"/><g fill="#46464a"><use xlink:href="#aH" x="269.794" y="337.624"/><use xlink:href="#aL" x="277.639" y="337.624"/><use xlink:href="#aF" x="286.14" y="337.624"/><use xlink:href="#aD" x="288.671" y="337.624"/><use xlink:href="#aO" x="291.426" y="337.624"/><use xlink:href="#aF" x="298.991" y="337.624"/><use xlink:href="#bb" x="301.522" y="337.624"/><use xlink:href="#aO" x="310.023" y="337.624"/></g><g fill="#46464a"><use xlink:href="#bi" x="317.029" y="337.624"/><use xlink:href="#aF" x="324.3" y="337.624"/><use xlink:href="#be" x="326.831" y="337.624"/></g><g fill="#46464a"><use xlink:href="#bb" x="338.199" y="337.624"/><use xlink:href="#bi" x="346.701" y="337.624"/></g><use xlink:href="#bf" x="352.574" y="337.624" fill="#46464a"/></svg>