<svg xmlns="http://www.w3.org/2000/svg" xmlns:xlink="http://www.w3.org/1999/xlink" width="1122.52" height="793.701" viewBox="0 0 841.89 595.276"><rect width="100%" height="100%" fill="#fff"/><defs><path id="Q" d="M23.078-7.547h-11v-29.406c0-.484-.312-.797-.812-.797H4.375c-.484 0-.812.313-.812.797v36.14c0 .485.328.813.812.813h18.703c.5 0 .813-.328.813-.812v-5.922c0-.5-.313-.813-.813-.813m0 0"/><path id="R" d="M15.531.64c7.985 0 13.922-6.03 13.922-13.859 0-7.812-5.937-13.86-13.922-13.86-7.984 0-13.86 6.048-13.86 13.86 0 7.828 5.876 13.86 13.86 13.86m0-7.546c-3.344 0-5.937-2.422-5.937-6.313 0-3.875 2.594-6.312 5.937-6.312s5.938 2.437 5.938 6.312c0 3.89-2.594 6.313-5.938 6.313m0 0"/><path id="S" d="M15.594 11.063c6.406 0 14.078-2.86 14.078-12.625v-24.063c0-.484-.328-.797-.813-.797h-6.047c-.484 0-.812.313-.812.797l-.156 2.047c-1.625-2.203-4.094-3.5-7.813-3.5-7.453 0-12.36 5.5-12.36 13.219C1.672-6.047 6.579-.594 13.97-.594c3.61 0 6.203-1.297 7.828-3.453v2.484c0 4.532-3.625 5.938-7.016 5.938-2.265 0-4.531-.656-6.906-1.89-.64-.376-1.14-.11-1.453.484L4.75 6.25c-.328.547-.266 1.25.266 1.625 2.75 2.11 6.578 3.188 10.578 3.188m.047-19.047c-3.453 0-5.938-2.266-5.938-5.875 0-3.563 2.485-5.828 5.938-5.828 3.406 0 5.828 2.265 5.828 5.828 0 3.609-2.422 5.875-5.828 5.875m0 0"/><path id="T" d="M6.906-17.375a4.78 4.78 0 0 0 4.797-4.797c0-2.687-2.11-4.906-4.797-4.906-2.703 0-4.797 2.219-4.797 4.906a4.77 4.77 0 0 0 4.797 4.797m0 18.016a4.78 4.78 0 0 0 4.797-4.797c0-2.688-2.11-4.906-4.797-4.906-2.703 0-4.797 2.218-4.797 4.906A4.77 4.77 0 0 0 6.906.64m0 0"/><path id="V" d="M10.36.469c4.953 0 8.296-2.89 8.296-7.36 0-4.28-3.078-6.203-6.312-7.796l-3.266-1.594c-2.5-1.203-3.656-2.61-3.656-4.719 0-2.875 2.25-4.312 5.094-4.312 2.375 0 4.015.968 5.5 2.718.312.344.625.422.968.047l.578-.672c.282-.312.36-.5 0-.937-1.671-2.094-4-3.422-7.125-3.422-4.124 0-7.406 2.562-7.406 6.656 0 3.078 1.797 5.14 4.688 6.516l3.312 1.625c2.906 1.406 5.25 2.765 5.25 5.922 0 3.047-2.14 5.062-5.875 5.062-3.078 0-4.984-1.36-6.36-3.266-.234-.28-.577-.437-.89-.078l-.656.735c-.281.312-.281.547-.078.86C3.89-1.329 6.469.468 10.359.468m0 0"/><path id="W" d="M3.547 7.406h1.36c.359 0 .515-.203.515-.547V-3.78c1.39 2.61 4 4.25 7.516 4.25 5.609 0 9.453-4.281 9.453-10.016 0-5.687-3.844-10-9.453-10-3.516 0-6.126 1.75-7.563 4.39l-.078-3.39c0-.344-.11-.547-.469-.547H3.547c-.36 0-.469.203-.469.547V6.86c0 .344.11.547.469.547m9.11-9.156c-4.282 0-7.282-3.078-7.282-7.719 0-4.672 3-7.86 7.281-7.86 4.328 0 7.438 3.157 7.438 7.782 0 4.672-3.11 7.797-7.438 7.797m0 0"/><path id="X" d="M11.563.469c3.515 0 6.124-1.64 7.53-4.328l.079 3.312c0 .36.156.547.5.547h1.25c.344 0 .5-.187.5-.547v-18c0-.344-.156-.547-.5-.547h-1.25c-.344 0-.5.203-.5.547l-.078 3.39c-1.407-2.64-4.016-4.39-7.532-4.39-5.609 0-9.453 4.313-9.453 10C2.11-3.812 5.953.47 11.563.47m.28-2.219c-4.359 0-7.484-3.125-7.484-7.797 0-4.625 3.125-7.781 7.485-7.781 4.281 0 7.281 3.187 7.281 7.86 0 4.64-3 7.718-7.281 7.718m0 0"/><path id="Y" d="M12 .469c3.078 0 5.531-1.172 7.172-3.156.234-.313.297-.5.078-.735l-.75-.75c-.344-.344-.656-.156-.937.125-1.157 1.281-2.766 2.297-5.407 2.297-4.437 0-7.75-3.156-7.75-7.797 0-4.625 3.313-7.828 7.703-7.828 2.657 0 4.25 1.047 5.5 2.375.188.234.5.438.86.047l.734-.703c.235-.235.156-.438-.078-.781-1.64-1.954-4.094-3.11-7.094-3.11-5.64 0-9.922 4.281-9.922 10C2.11-3.812 6.391.47 12 .47m0 0"/><path id="Z" d="M4.25-24.312c.86 0 1.516-.704 1.516-1.547 0-.86-.657-1.563-1.516-1.563-.86 0-1.562.703-1.562 1.563 0 .843.703 1.547 1.562 1.547M3.547 0h1.36c.359 0 .468-.187.468-.547v-18c0-.344-.11-.547-.469-.547h-1.36c-.358 0-.468.203-.468.547v18c0 .36.11.547.469.547m0 0"/><path id="aa" d="M3.547 0h1.36c.359 0 .515-.187.515-.547v-11.14c0-3.5 2.531-5.688 5.828-5.688 3.313 0 5.234 2.188 5.234 5.688v11.14c0 .36.11.547.453.547h1.375c.344 0 .5-.187.5-.547v-11.25c0-5.062-2.796-7.75-6.968-7.75-3.235 0-5.344 1.594-6.422 3.531L5.297-18.5c0-.437-.11-.594-.547-.594H3.547c-.36 0-.469.203-.469.547v18c0 .36.11.547.469.547m0 0"/><path id="ab" d="M11.484 7.984c5.032 0 9.704-2.609 9.704-8.64v-17.89c0-.345-.11-.548-.47-.548h-1.28c-.344 0-.47.203-.47.547l-.03 3.203c-1.454-2.61-4.016-4.203-7.563-4.203-5.422 0-9.266 4-9.266 9.656 0 5.72 3.844 9.704 9.344 9.704 3.469 0 6-1.563 7.438-4.094V-.86c0 5.062-3.578 6.812-7.485 6.812-1.984 0-3.969-.453-5.562-1.516-.235-.109-.5-.078-.657.157l-.515.906c-.11.297 0 .531.312.734 1.407.97 3.813 1.75 6.5 1.75m.235-10.359c-4.156 0-7.36-2.89-7.36-7.516 0-4.562 3.204-7.484 7.36-7.484 4.219 0 7.172 2.969 7.172 7.594 0 4.562-2.953 7.406-7.172 7.406m0 0"/><path id="ac" d="M3.469 0h.484c.125 0 .203-.062.203-.203V-9h2.125q.188 0 .188-.187v-.407c0-.125-.063-.203-.188-.203H1.156c-.125 0-.187.078-.187.203v.406q0 .188.187.188h2.125v8.797c0 .14.063.203.188.203m0 0"/><path id="ad" d="M4.25-7.016c-1.156 0-1.922.563-2.312 1.266v-4.047c0-.125-.047-.203-.172-.203h-.5c-.125 0-.157.078-.157.203v9.594c0 .14.032.203.157.203h.5c.125 0 .172-.062.172-.203v-4c0-1.25.921-2.031 2.109-2.031s1.875.78 1.875 2.03v4c0 .142.031.204.156.204h.5c.125 0 .172-.062.172-.203v-4.031c0-1.828-1-2.782-2.5-2.782m0 0"/><path id="ae" d="M4.36.172c.952 0 1.827-.297 2.452-.89.094-.095.157-.157.047-.282l-.187-.266c-.047-.046-.14-.046-.203 0-.532.407-1.14.704-2.032.704-1.765 0-2.75-1.11-2.875-2.563h5.344c.375 0 .469-.172.469-.672 0-1.656-1.172-3.219-3.187-3.219C2.156-7.016.75-5.469.75-3.453.75-1.47 2.125.172 4.36.172M1.577-3.812c.125-1.485 1.14-2.454 2.594-2.454 1.484 0 2.422 1.016 2.453 2.454Zm0 0"/><path id="aq" d="M1.266 0h.5c.125 0 .172-.062.172-.203v-9.594c0-.125-.047-.203-.172-.203h-.5c-.125 0-.157.078-.157.203v9.594c0 .14.032.203.157.203m0 0"/><path id="ar" d="M4.25.172c1.984 0 3.484-1.563 3.484-3.594 0-2.047-1.5-3.594-3.484-3.594S.75-5.469.75-3.422C.75-1.39 2.266.172 4.25.172m0-.797c-1.531 0-2.672-1.172-2.672-2.797 0-1.64 1.14-2.812 2.672-2.812 1.531 0 2.672 1.172 2.672 2.812 0 1.625-1.14 2.797-2.672 2.797m0 0"/><path id="as" d="M4.125 2.86c1.797 0 3.484-.922 3.484-3.094v-6.422c0-.125-.046-.203-.171-.203h-.454c-.125 0-.171.078-.171.203l-.016 1.14c-.516-.937-1.438-1.5-2.719-1.5C2.141-7.016.75-5.578.75-3.546.75-1.5 2.14-.063 4.11-.063c1.25 0 2.156-.563 2.671-1.47v1.22c0 1.828-1.281 2.453-2.687 2.453-.703 0-1.422-.172-2-.547-.078-.047-.172-.032-.235.062l-.187.313c-.031.11 0 .203.125.265.5.36 1.36.625 2.328.625m.078-3.72c-1.484 0-2.64-1.03-2.64-2.687 0-1.64 1.156-2.687 2.64-2.687 1.516 0 2.578 1.062 2.578 2.718 0 1.641-1.062 2.657-2.578 2.657m0 0"/><path id="at" d="M1.266 0h.5c.125 0 .172-.062.172-.203V-4.25c0-1.234.656-1.984 1.718-1.984 1.047 0 1.625.718 1.625 1.984v4.047c0 .14.063.203.172.203h.5c.125 0 .172-.062.172-.203V-4.25c0-1.234.734-1.984 1.797-1.984 1.047 0 1.547.718 1.547 1.984v4.047c0 .14.047.203.187.203h.485c.125 0 .172-.062.172-.203v-4.11c0-1.812-.844-2.703-2.25-2.703-1.188 0-1.813.61-2.157 1.36-.343-.922-1.062-1.36-2.031-1.36-1.016 0-1.625.532-1.937 1.172l-.032-.797c0-.156-.047-.218-.203-.218h-.437c-.125 0-.157.078-.157.203v6.453c0 .14.032.203.157.203m0 0"/><path id="au" d="M3.594.172C4.75.172 5.53-.406 5.922-1.11l.016.906c0 .14.062.203.203.203h.437c.125 0 .172-.062.172-.203v-6.453c0-.125-.047-.203-.172-.203h-.5c-.125 0-.156.078-.156.203v4c0 1.25-.922 2.031-2.125 2.031-1.188 0-1.86-.781-1.86-2.031v-4c0-.125-.046-.203-.171-.203h-.5c-.125 0-.157.078-.157.203v4.031c0 1.828.985 2.797 2.485 2.797m0 0"/><path id="av" d="M3.063.172c1.218 0 2.296-.688 2.296-1.953 0-1.063-.734-1.563-1.625-1.922L3.11-3.97c-.765-.312-1.265-.578-1.265-1.297 0-.703.625-1.03 1.265-1.03.532 0 .985.218 1.422.687.125.125.203.14.328 0l.157-.188c.093-.094.109-.203.015-.297-.468-.61-1.187-.922-1.953-.922-1.11 0-2.047.688-2.047 1.782 0 1 .735 1.468 1.563 1.828l.797.328c.656.281 1.14.61 1.14 1.312 0 .782-.61 1.188-1.484 1.188-.781 0-1.297-.36-1.703-.813-.11-.125-.235-.109-.313-.015l-.172.218c-.062.125-.062.22.032.344A2.74 2.74 0 0 0 3.063.172m0 0"/><path id="aw" d="M3.125.172c.344 0 .828-.078.828-.281v-.328c0-.141-.047-.204-.281-.157-.11 0-.313.016-.422.016-.437 0-.64-.188-.64-.75v-4.813h1.187q.187 0 .187-.187v-.328c0-.125-.062-.203-.187-.203H2.609v-1.61c0-.125-.046-.203-.171-.203h-.485c-.125 0-.172.078-.172.203v1.61H.875c-.125 0-.187.078-.187.203v.328q0 .187.187.187h.906v4.907c0 .922.422 1.406 1.344 1.406m0 0"/><path id="ax" d="M4.313.172c1.093 0 1.984-.422 2.562-1.14.094-.11.125-.173.031-.266L6.641-1.5c-.125-.125-.235-.047-.328.047-.422.453-1 .828-1.954.828-1.593 0-2.78-1.14-2.78-2.797 0-1.672 1.187-2.812 2.765-2.812.953 0 1.531.375 1.984.843.063.094.172.157.297.016l.266-.25c.093-.078.062-.156-.032-.281-.578-.688-1.468-1.11-2.53-1.11C2.296-7.016.75-5.484.75-3.422.75-1.375 2.297.172 4.313.172m0 0"/><path id="ay" d="M4.156.172c1.25 0 2.188-.594 2.703-1.563l.016 1.188c0 .14.063.203.188.203h.453c.125 0 .172-.062.172-.203v-6.453c0-.125-.047-.203-.172-.203h-.453c-.125 0-.188.078-.188.203l-.016 1.218c-.515-.953-1.453-1.578-2.703-1.578C2.141-7.016.75-5.469.75-3.422S2.14.172 4.156.172m.094-.797c-1.562 0-2.687-1.125-2.687-2.797S2.688-6.219 4.25-6.219c1.547 0 2.61 1.14 2.61 2.828 0 1.657-1.063 2.766-2.61 2.766m0 0"/><path id="az" d="M1.266 0h.5c.125 0 .172-.062.172-.203v-4c0-1.25.921-2.031 2.109-2.031s1.875.78 1.875 2.03v4c0 .142.031.204.156.204h.5c.125 0 .172-.062.172-.203v-4.031c0-1.828-1-2.782-2.5-2.782-1.156 0-1.922.563-2.312 1.266l-.032-.89c0-.157-.047-.22-.203-.22h-.437c-.125 0-.157.079-.157.204v6.453c0 .14.032.203.157.203m0 0"/><path id="aA" d="M4.156.172c1.25 0 2.188-.594 2.703-1.563l.016 1.188c0 .14.063.203.188.203h.453c.125 0 .172-.062.172-.203v-9.594c0-.125-.047-.203-.172-.203h-.5c-.125 0-.157.078-.157.203v4.328c-.53-.953-1.468-1.547-2.703-1.547C2.141-7.016.75-5.469.75-3.422S2.14.172 4.156.172m.094-.797c-1.562 0-2.687-1.125-2.687-2.797S2.688-6.219 4.25-6.219c1.547 0 2.61 1.14 2.61 2.828 0 1.657-1.063 2.766-2.61 2.766m0 0"/><path id="aB" d="M1.531-8.719c.297 0 .532-.265.532-.562 0-.313-.235-.563-.532-.563a.56.56 0 0 0-.562.563c0 .297.25.562.562.562M1.266 0h.5c.125 0 .172-.062.172-.203v-6.453c0-.125-.047-.203-.172-.203h-.5c-.125 0-.157.078-.157.203v6.453c0 .14.032.203.157.203m0 0"/><path id="aC" d="M.5-7.203c1.031 0 1.594-.906 1.594-1.719 0-.672-.375-1.125-.86-1.125-.375 0-.703.281-.703.672 0 .39.266.672.719.656.422-.015.156 1.125-.75 1.156Zm0 0"/><path id="aD" d="M3.234 0h.563c.11 0 .203-.062.25-.172l2.016-5.765 2.03 5.765c.048.11.141.172.25.172h.563c.11 0 .219-.062.25-.172l2.266-6.437c.062-.157 0-.25-.156-.25h-.485c-.11 0-.172.062-.203.172L8.61-.907l-2.015-5.78c-.032-.11-.14-.172-.25-.172h-.547a.27.27 0 0 0-.266.172l-2 5.78-1.969-5.78c-.03-.11-.109-.172-.218-.172H.859c-.14 0-.203.093-.14.25L2.984-.172c.032.11.141.172.25.172m0 0"/><path id="aE" d="M1.266 2.656h.5c.125 0 .172-.062.172-.187V-1.36C2.453-.422 3.39.17 4.64.17c2.015 0 3.406-1.546 3.406-3.593S6.657-7.016 4.64-7.016c-1.25 0-2.188.625-2.703 1.579l-.032-1.22c0-.124-.047-.202-.172-.202h-.468c-.125 0-.157.078-.157.203v9.125c0 .125.032.187.157.187m3.28-3.281C3-.625 1.938-1.735 1.938-3.391c0-1.687 1.063-2.828 2.61-2.828s2.672 1.125 2.672 2.797S6.094-.625 4.547-.625m0 0"/><path id="aF" d="M1.281.188a.65.65 0 0 0 .657-.657.657.657 0 0 0-.657-.64.654.654 0 0 0-.64.64c0 .375.297.657.64.657m0 0"/><path id="aG" d="M1.266 0h.5c.125 0 .172-.062.172-.203v-4.125c0-.734.312-1.906 1.593-1.906.125 0 .297 0 .5.062.14.047.235.016.235-.14v-.344c0-.125-.032-.188-.11-.235-.125-.093-.36-.125-.625-.125-.86 0-1.328.5-1.594 1.125l-.03-.75c0-.156-.048-.218-.204-.218h-.437c-.125 0-.157.078-.157.203v6.453c0 .14.032.203.157.203m0 0"/><path id="aH" d="M1.875 0h.484c.125 0 .188-.062.188-.203v-5.938h1.375c.14 0 .203-.062.203-.187v-.328c0-.125-.062-.203-.203-.203H2.547v-1.422c0-.656.156-1.156.953-1.156.14 0 .297.015.453.046.094 0 .172 0 .172-.109v-.453c0-.11-.031-.14-.125-.188a2.2 2.2 0 0 0-.61-.078c-1.14 0-1.687.625-1.687 1.735v1.625H.875c-.125 0-.187.078-.187.203v.328q0 .187.187.187h.828v5.938c0 .14.047.203.172.203m0 0"/><path id="aI" d="M4.64.172c2.016 0 3.407-1.547 3.407-3.594S6.657-7.016 4.64-7.016c-1.25 0-2.188.594-2.703 1.547v-4.328c0-.125-.047-.203-.172-.203h-.5c-.125 0-.157.078-.157.203v9.594c0 .14.032.203.157.203h.468c.125 0 .172-.062.172-.203l.032-1.188C2.453-.42 3.375.172 4.64.172m-.093-.797c-1.547 0-2.61-1.11-2.61-2.766 0-1.687 1.063-2.828 2.61-2.828s2.672 1.125 2.672 2.797S6.094-.625 4.547-.625m0 0"/><path id="aJ" d="M2.516 2.656H3c.11 0 .188-.062.234-.172l3.61-9.093c.047-.157 0-.25-.157-.25h-.5c-.109 0-.156.062-.203.172L3.781-.923 1.563-6.687c-.032-.11-.11-.172-.22-.172H.86c-.14 0-.203.093-.14.25L3.344.03 2.375 2.47c-.047.11 0 .187.14.187m0 0"/><path id="aK" d="M2.11-10C1.062-10 .5-9.11.5-8.281c0 .656.39 1.125.875 1.125.39 0 .703-.282.703-.688 0-.375-.281-.656-.703-.64-.422.015-.172-1.141.734-1.157Zm0 0"/><path id="aL" d="M2.39 0h.485c.125 0 .188-.062.188-.203v-9.39c0-.126-.063-.204-.188-.204H.735c-.126 0-.157.078-.157.203v.36c0 .125.031.203.156.203H2.22v8.828c0 .14.047.203.172.203m0 0"/><path id="aM" d="M.813 0h4.921c.125 0 .188-.062.188-.203v-.36q0-.187-.188-.187H1.61l2.954-3.64c.64-.782 1.375-1.688 1.375-2.907 0-1.422-1.016-2.61-2.72-2.61-1.28 0-2.062.657-2.515 1.391-.094.141-.094.204.016.313L1-7.938c.094.079.203.079.266-.03.312-.485.797-1.157 1.922-1.157 1.171 0 1.937.797 1.937 1.875 0 1.063-.719 1.89-1.344 2.656L.72-.859c-.078.062-.11.156-.11.265v.39C.61-.061.688 0 .813 0m0 0"/><path id="aN" d="M3.25.188c1.781 0 3.016-1.235 3.016-2.844 0-1.328-.813-2.266-1.938-2.625.938-.469 1.5-1.282 1.5-2.266 0-1.312-1-2.36-2.484-2.36-1.125 0-1.938.626-2.39 1.313-.063.11-.079.172 0 .25l.312.281c.093.079.172.079.265-.015.36-.594.922-1.047 1.75-1.047 1.063 0 1.735.734 1.735 1.688 0 1.015-.766 1.812-1.907 1.812h-.234c-.14 0-.187.063-.187.188v.406c0 .11.046.156.187.156h.234c1.188 0 2.297.75 2.297 2.14 0 1.25-.89 2.126-2.172 2.126-1.078 0-1.703-.61-2.03-1.063-.079-.078-.141-.11-.22-.016l-.328.282c-.094.093-.11.156-.047.265C1.188-.328 2.063.188 3.25.188m0 0"/><path id="aO" d="M7.844-9.797h-.485c-.125 0-.203.078-.203.203v8.375l-4.75-8.437a.28.28 0 0 0-.25-.14h-.719c-.125 0-.187.077-.187.202v9.39c0 .142.063.204.188.204h.5c.125 0 .171-.062.171-.203v-8.39L6.875-.142c.063.094.14.141.25.141h.719c.125 0 .203-.062.203-.203v-9.39c0-.126-.078-.204-.203-.204m0 0"/><path id="ag" d="M4.203.172c.969 0 1.86-.281 2.438-.875.125-.11.125-.219.078-.297l-.578-.812c-.079-.11-.141-.125-.25-.079-.578.329-1.047.375-1.516.375-.984 0-1.625-.359-1.86-1.093h3.938c.64 0 .813-.422.813-1.125 0-1.766-1.203-3.282-3.313-3.282S.438-5.469.438-3.453C.438-1.375 1.953.172 4.203.172M2.484-4.094c.172-.812.782-1.172 1.485-1.172.719 0 1.265.344 1.406 1.172Zm0 0"/><path id="ah" d="M3.656.172c.969 0 1.672-.39 2.14-1.047l.016.672c0 .125.11.203.235.203h1.531c.125 0 .234-.078.234-.203v-6.438a.214.214 0 0 0-.218-.218H6.047c-.125 0-.234.093-.234.218l-.016.657c-.453-.641-1.14-1.032-2.14-1.032-1.907 0-3.22 1.563-3.22 3.594S1.75.172 3.658.172m.453-1.953c-.906 0-1.593-.64-1.593-1.64s.687-1.657 1.593-1.657c.938 0 1.579.656 1.579 1.64 0 1-.641 1.657-1.579 1.657m0 0"/><path id="ai" d="M3.188.172c1.39 0 2.609-.734 2.609-2.14.031-1.032-.656-1.641-1.5-1.97l-1.031-.406c-.313-.125-.547-.312-.547-.562 0-.219.125-.453.547-.453.375 0 .75.203 1.203.547.125.078.218.093.312 0l.719-.844c.047-.078.094-.188.016-.282A3.1 3.1 0 0 0 3.14-7.015c-1.313 0-2.453.766-2.453 2.11 0 .953.578 1.531 1.484 1.89l.89.36c.47.187.61.328.61.594 0 .312-.25.453-.625.453-.485 0-.953-.203-1.547-.641-.11-.078-.234-.11-.36.063l-.546.78c-.11.141-.125.313-.047.407C1.125-.312 2.03.172 3.187.172m0 0"/><path id="aj" d="M2.203 2.656H3.86c.11 0 .204-.062.25-.172L7.75-6.609c.047-.157-.031-.25-.187-.25H5.828a.29.29 0 0 0-.266.172l-1.5 4.203-1.515-4.203a.29.29 0 0 0-.266-.172H.547c-.156 0-.235.093-.188.25L3.016.016l-1 2.39c-.079.172.015.25.187.25m0 0"/><path id="ak" d="M3.25.172c.984 0 1.61-.5 2.016-1.188l.046.797c0 .157.094.219.22.219h1.64c.125 0 .219-.078.219-.203v-6.438a.214.214 0 0 0-.22-.218H5.485a.214.214 0 0 0-.218.218v3.47c0 .905-.47 1.374-1.203 1.374-.75 0-1.141-.469-1.141-1.375V-6.64a.214.214 0 0 0-.219-.218H1c-.14 0-.219.093-.219.218v3.97C.781-.876 1.812.171 3.25.171m0 0"/><path id="al" d="M3.64.172c.47 0 1.22-.094 1.22-.438v-1.156c0-.14-.11-.219-.25-.203-.173.016-.298.016-.423.016-.359 0-.593-.188-.593-.578v-3.016H4.64c.125 0 .218-.078.218-.203v-1.235a.214.214 0 0 0-.218-.218H3.594v-1.594c0-.14-.094-.219-.219-.219H1.656c-.125 0-.234.078-.234.219v1.594H.578a.214.214 0 0 0-.219.218v1.235c0 .125.094.203.22.203h.843v3.266C1.422-.344 2.5.172 3.64.172m0 0"/><path id="am" d="M4.031.172c2.063 0 3.61-1.578 3.61-3.594 0-2.031-1.547-3.594-3.61-3.594-2.078 0-3.593 1.563-3.593 3.594C.438-1.406 1.953.172 4.03.172m0-1.969c-.875 0-1.547-.625-1.547-1.625 0-1.015.672-1.64 1.547-1.64.86 0 1.532.625 1.532 1.64 0 1-.672 1.625-1.532 1.625m0 0"/><path id="an" d="M2.547 0H4.25c.125 0 .219-.078.219-.203v-9.375a.214.214 0 0 0-.219-.219H.688a.214.214 0 0 0-.22.219v1.39c0 .126.094.22.22.22h1.64v7.765c0 .125.094.203.219.203m0 0"/><path id="ao" d="M.922 0h5.766c.125 0 .218-.078.218-.203v-1.39a.214.214 0 0 0-.218-.22H3.266l2.328-2.39c.375-.39 1.297-1.25 1.297-2.703 0-1.719-1.328-3-3.235-3-1.531 0-2.5.797-3.062 1.61a.24.24 0 0 0 .031.312l.969.968c.125.11.203.125.328 0 .36-.484.797-.921 1.547-.921.812 0 1.344.5 1.344 1.218 0 .875-.72 1.532-1.11 1.922L.797-1.844a.46.46 0 0 0-.094.266v1.375c0 .125.094.203.219.203m0 0"/><path id="ap" d="M3.531.188C5.391.188 6.86-.97 6.86-2.734c0-1.328-.812-2.11-1.671-2.453A2.23 2.23 0 0 0 6.53-7.281c0-1.672-1.406-2.625-2.984-2.625-1.281 0-2.281.64-2.813 1.469a.22.22 0 0 0 .047.312l.985.953c.109.11.234.125.312-.031.25-.453.703-.734 1.25-.734.625 0 1.125.406 1.125 1.03 0 .47-.281 1-1.078 1H3c-.14 0-.25.079-.25.235v1.266c0 .14.11.218.25.218h.39c.97 0 1.313.657 1.313 1.188 0 .64-.453 1.219-1.312 1.219-.657 0-1.094-.344-1.47-.797-.124-.11-.234-.11-.312-.016L.563-1.64c-.094.063-.125.188-.047.297C1.046-.5 2.063.188 3.53.188m0 0"/><path id="aP" d="M1.031 0h.344c.094 0 .125-.047.125-.14v-3.266h2.61c.077 0 .14-.031.14-.125v-.297a.14.14 0 0 0-.14-.14H1.5v-2.47h2.734c.094 0 .141-.03.141-.125v-.28q0-.142-.14-.141H1.03q-.14 0-.14.14V-.14Q.89 0 1.03 0m0 0"/><path id="aQ" d="M3.031.125c1.422 0 2.485-1.11 2.485-2.578 0-1.453-1.063-2.563-2.485-2.563-1.406 0-2.484 1.11-2.484 2.563C.547-.984 1.625.125 3.03.125m0-.578c-1.094 0-1.906-.828-1.906-2 0-1.156.813-2 1.906-2 1.094 0 1.906.844 1.906 2 0 1.172-.812 2-1.906 2m0 0"/><path id="aR" d="M.906 0h.36c.078 0 .125-.047.125-.14v-2.954c0-.515.218-1.36 1.14-1.36.078 0 .203 0 .344.048.094.031.172.015.172-.094v-.25c0-.094-.016-.125-.078-.172-.094-.062-.25-.094-.453-.094-.61 0-.953.36-1.141.813l-.016-.547c0-.11-.03-.14-.14-.14H.906c-.094 0-.125.046-.125.14v4.61c0 .093.031.14.125.14m0 0"/><path id="aT" d="M1.344 0h.343c.094 0 .125-.047.125-.14v-4.25h1c.079 0 .141-.048.141-.126v-.234c0-.094-.062-.14-.14-.14h-1v-1.016c0-.469.109-.828.687-.828.094 0 .203 0 .328.03.063 0 .125 0 .125-.077v-.328c0-.079-.031-.094-.094-.125a1.2 1.2 0 0 0-.437-.063c-.813 0-1.203.453-1.203 1.234v1.172H.625c-.078 0-.14.047-.14.141v.234c0 .079.062.125.14.125h.594v4.25c0 .094.031.141.125.141m0 0"/><path id="aU" d="M2.563.125c.828 0 1.374-.422 1.656-.906l.031.625c0 .11.031.156.14.156h.298q.14 0 .14-.14v-4.61q0-.14-.14-.14h-.344c-.094 0-.125.046-.125.14v2.86c0 .89-.657 1.437-1.5 1.437-.86 0-1.328-.547-1.328-1.438V-4.75c0-.094-.047-.14-.125-.14h-.36c-.094 0-.125.046-.125.14v2.875c0 1.313.719 2 1.781 2m0 0"/><path id="aV" d="M2.219.125c.25 0 .61-.062.61-.203v-.234c0-.094-.048-.141-.204-.11-.078 0-.234.016-.312.016-.313 0-.454-.14-.454-.547v-3.438h.844c.094 0 .14-.046.14-.125v-.234q0-.14-.14-.14H1.86v-1.157c0-.094-.03-.14-.125-.14h-.343c-.079 0-.125.046-.125.14v1.156H.625c-.078 0-.14.047-.14.141v.234c0 .079.062.125.14.125h.64v3.516c0 .656.313 1 .954 1m0 0"/><path id="aW" d="M3.031-5.016c-.828 0-1.36.407-1.64.907V-7c0-.094-.047-.14-.125-.14h-.36c-.094 0-.125.046-.125.14v6.86c0 .093.031.14.125.14h.36c.078 0 .125-.047.125-.14V-3c0-.89.64-1.453 1.5-1.453.843 0 1.328.562 1.328 1.453v2.86c0 .093.031.14.125.14h.343q.141 0 .141-.14v-2.891c0-1.297-.719-1.985-1.797-1.985m0 0"/><path id="aX" d="M3.11.125c.687 0 1.312-.219 1.75-.64.077-.063.109-.11.046-.204l-.14-.187c-.032-.031-.11-.031-.141 0-.375.297-.828.5-1.453.5-1.266 0-1.969-.797-2.047-1.828h3.813c.265 0 .328-.125.328-.47 0-1.187-.828-2.312-2.282-2.312-1.453 0-2.437 1.11-2.437 2.547 0 1.422.969 2.594 2.562 2.594M1.124-2.719c.094-1.062.813-1.75 1.844-1.75 1.062 0 1.734.719 1.765 1.75Zm0 0"/><path id="aY" d="M1.094-6.234c.218 0 .39-.172.39-.391a.4.4 0 0 0-.39-.406.414.414 0 0 0-.407.406.4.4 0 0 0 .407.39M.906 0h.36c.078 0 .109-.047.109-.14v-4.61c0-.094-.031-.14-.11-.14H.907c-.094 0-.125.046-.125.14v4.61c0 .093.031.14.125.14m0 0"/><path id="aZ" d="M.906 0h.36c.078 0 .125-.047.125-.14V-3c0-.89.64-1.453 1.5-1.453.843 0 1.328.562 1.328 1.453v2.86c0 .093.031.14.125.14h.343q.141 0 .141-.14v-2.891c0-1.297-.719-1.985-1.797-1.985-.828 0-1.36.407-1.64.907l-.032-.641c0-.11-.03-.14-.14-.14H.906c-.094 0-.125.046-.125.14v4.61c0 .093.031.14.125.14m0 0"/><path id="ba" d="M.906 0h.36c.078 0 .125-.047.125-.14v-2.891c0-.875.453-1.422 1.218-1.422.75 0 1.172.516 1.172 1.422v2.89c0 .094.031.141.11.141h.359c.094 0 .125-.047.125-.14v-2.891c0-.875.516-1.422 1.281-1.422.75 0 1.11.516 1.11 1.422v2.89c0 .094.03.141.125.141h.343c.094 0 .125-.047.125-.14v-2.938c0-1.297-.593-1.938-1.593-1.938-.86 0-1.297.438-1.547.985-.25-.657-.766-.985-1.453-.985-.735 0-1.157.391-1.391.844l-.016-.578c0-.11-.03-.14-.14-.14H.906c-.094 0-.125.046-.125.14v4.61c0 .093.031.14.125.14m0 0"/><path id="bb" d="M2.969.125c.89 0 1.562-.422 1.922-1.11l.015.844q0 .141.14.141h.313c.094 0 .125-.047.125-.14v-4.61c0-.094-.03-.14-.125-.14h-.312q-.14 0-.14.14l-.016.86c-.36-.672-1.032-1.126-1.922-1.126-1.438 0-2.422 1.11-2.422 2.563C.547-.984 1.53.125 2.969.125m.062-.578c-1.11 0-1.906-.797-1.906-2 0-1.188.797-1.985 1.906-1.985 1.11 0 1.875.813 1.875 2.016 0 1.188-.765 1.969-1.875 1.969m0 0"/><path id="bc" d="M.906 1.89h.36c.078 0 .125-.046.125-.14V-.969C1.75-.297 2.42.125 3.313.125c1.437 0 2.421-1.11 2.421-2.578 0-1.453-.984-2.563-2.421-2.563-.891 0-1.563.454-1.938 1.125l-.016-.859c0-.094-.03-.14-.125-.14H.906c-.094 0-.125.046-.125.14v6.5c0 .094.031.14.125.14M3.25-.452c-1.11 0-1.875-.781-1.875-1.969 0-1.203.766-2.015 1.875-2.015 1.11 0 1.906.796 1.906 1.984 0 1.203-.797 2-1.906 2m0 0"/><path id="bd" d="M.906 0h.36c.078 0 .125-.047.125-.14V-7c0-.094-.047-.14-.125-.14h-.36c-.094 0-.125.046-.125.14v6.86c0 .093.031.14.125.14m0 0"/><path id="be" d="M2.188.125c.874 0 1.64-.5 1.64-1.39 0-.766-.515-1.126-1.156-1.376l-.453-.187c-.547-.235-.906-.422-.906-.922 0-.516.437-.75.906-.75.375 0 .703.156 1.015.5.094.094.157.094.235 0l.11-.14c.062-.063.077-.141.015-.22a1.77 1.77 0 0 0-1.39-.656c-.798 0-1.47.5-1.47 1.282 0 .703.532 1.047 1.11 1.297l.578.234c.469.203.812.453.812.937 0 .563-.437.86-1.062.86-.547 0-.922-.266-1.219-.578C.875-1.078.781-1.063.734-1l-.109.156c-.062.078-.062.156.016.25.265.313.75.719 1.547.719m0 0"/><path id="bf" d="M3.078.125c.781 0 1.422-.312 1.828-.812.063-.079.094-.125.032-.188l-.188-.187c-.094-.094-.172-.047-.25.03-.297.329-.703.579-1.39.579-1.126 0-1.985-.813-1.985-2s.86-2 1.984-2c.672 0 1.079.266 1.407.61.046.062.125.109.218.015l.188-.188c.062-.062.047-.109-.016-.203-.422-.5-1.047-.797-1.828-.797-1.437 0-2.531 1.11-2.531 2.563C.547-.984 1.64.125 3.078.125m0 0"/><path id="bg" d="M.906 0h.36c.078 0 .125-.047.125-.14v-1.313l.89-.938L4.11-.094c.047.078.11.094.188.094h.36c.124 0 .155-.078.093-.156L2.64-2.812 4.485-4.75c.063-.062.063-.14-.046-.14h-.47c-.062 0-.109.015-.171.077L1.39-2.187V-7c0-.094-.047-.14-.125-.14h-.36c-.094 0-.125.046-.125.14v6.86c0 .093.031.14.125.14m0 0"/><path id="bh" d="M2.953 2.047c1.281 0 2.485-.672 2.485-2.219V-4.75c0-.094-.032-.14-.125-.14h-.329c-.093 0-.125.046-.125.14v.813c-.375-.672-1.03-1.079-1.937-1.079-1.39 0-2.375 1.032-2.375 2.485 0 1.469.984 2.484 2.39 2.484.891 0 1.532-.406 1.907-1.047v.875c0 1.297-.922 1.75-1.922 1.75-.5 0-1.016-.125-1.422-.39-.062-.032-.125-.016-.172.03l-.125.235c-.031.078 0 .14.078.188.36.25.969.453 1.672.453M3-.61c-1.062 0-1.875-.735-1.875-1.922 0-1.172.813-1.922 1.875-1.922 1.078 0 1.844.766 1.844 1.953C4.844-1.344 4.078-.61 3-.61m0 0"/><path id="bi" d="M4.297.125c.719 0 1.437-.203 1.984-.672l-.328-.36c-.469.345-1.016.5-1.625.5-1.469 0-3.094-1.046-3.094-3.077 0-2.063 1.594-3.063 3.094-3.063s2.984.984 2.984 3.125c0 .89-.265 1.375-.828 1.375-.25 0-.609-.094-.546-.781l.218-2.281h-.39l-.172.578c-.297-.469-.797-.766-1.438-.766-1.078 0-1.843.828-1.843 1.875s.734 1.86 1.796 1.86c.594 0 1.11-.25 1.438-.672.125.453.469.672.922.672.578 0 1.39-.36 1.39-1.907 0-2.234-1.656-3.593-3.53-3.593-1.86 0-3.641 1.328-3.641 3.578C.688-1.281 2.422.125 4.297.125m-.14-2.187c-.829 0-1.329-.579-1.329-1.376 0-.78.5-1.359 1.328-1.359s1.36.578 1.36 1.36c0 .796-.532 1.374-1.36 1.374m0 0"/><path id="bj" d="M1.797 1.89h.344c.078 0 .14-.03.172-.109l2.562-6.5c.047-.11 0-.172-.11-.172h-.343c-.078 0-.125.032-.156.125L2.703-.656l-1.578-4.11c-.031-.093-.094-.125-.172-.125H.625c-.11 0-.156.063-.11.172L2.392.016 1.703 1.75q-.047.14.094.14m0 0"/><path id="bk" d="M1.703 0h.36c.078 0 .124-.047.124-.14v-6.704c0-.093-.046-.14-.124-.14H.53c-.094 0-.125.046-.125.14v.25c0 .094.031.14.125.14h1.063V-.14c0 .094.031.141.11.141m0 0"/><path id="bl" d="M.578 0h3.516q.14 0 .14-.14v-.266c0-.078-.046-.14-.14-.14H1.14L3.25-3.142c.469-.546 1-1.203 1-2.078 0-1-.734-1.843-1.953-1.843-.922 0-1.469.468-1.797.984-.062.094-.062.14.016.219l.203.187c.062.063.14.063.187-.016.219-.343.578-.828 1.375-.828.828 0 1.375.579 1.375 1.344 0 .75-.515 1.344-.953 1.89L.516-.624a.26.26 0 0 0-.079.203v.281Q.438 0 .579 0m0 0"/><path id="bm" d="M2.313.125c1.28 0 2.156-.875 2.156-2.016 0-.953-.578-1.625-1.375-1.89.672-.328 1.062-.906 1.062-1.61 0-.937-.718-1.671-1.765-1.671-.797 0-1.391.437-1.72.937-.03.063-.046.11 0 .172l.235.203c.063.047.125.047.188-.016.25-.421.656-.75 1.25-.75.765 0 1.234.532 1.234 1.204 0 .734-.547 1.296-1.36 1.296h-.155c-.11 0-.141.047-.141.125v.297c0 .078.031.11.14.11h.157c.844 0 1.64.53 1.64 1.53 0 .892-.64 1.517-1.546 1.517-.782 0-1.22-.438-1.454-.75-.046-.063-.093-.079-.156-.016L.47-1C.406-.937.39-.89.438-.812c.406.578 1.046.937 1.875.937m0 0"/><path id="bn" d="M.922.125c.25 0 .453-.187.453-.453a.453.453 0 0 0-.453-.453.467.467 0 0 0-.469.453c0 .266.219.453.469.453m0 0"/><g id="P" clip-path="url(#H)"><g clip-path="url(#I)"><path fill="#fff" d="M58.14 52.266h-222.6c-7.13 0-12.935-5.805-12.935-12.938V2.332c0-7.133 5.805-12.937 12.934-12.937H71.074v49.933c0 7.133-5.8 12.938-12.933 12.938"/></g><g clip-path="url(#J)"><path fill="#ec1d27" d="M5.824 32.965v-21.29c0-.425-.5-.652-.82-.374l-2.961 1.094a.496.496 0 0 1-.82-.375V6.14a.5.5 0 0 1 .168-.37l4.293-2.25a.5.5 0 0 1 .324-.122h6.242c.277 0 .496.223.496.497v29.07a.494.494 0 0 1-.496.496H6.316a.493.493 0 0 1-.492-.496"/></g><path fill="#ec1d27" d="M16.46 32.965v-5.559c0-.125.048-.246.134-.336l10.761-11.68c1.098-1.183 1.52-1.94 1.52-3.21 0-1.645-.93-2.785-2.703-2.785-1.176 0-2.57.511-2.762 2.44-.027.267-.23.474-.496.474h-5.941a.5.5 0 0 1-.5-.516c.254-5.586 4.617-8.648 9.699-8.648 5.574 0 9.629 3.421 9.629 9.078 0 3.168-1.309 4.855-3.715 7.39l-6.39 6.766a.494.494 0 0 0 .359.832h9.25c.273 0 .496.223.496.496v5.258a.497.497 0 0 1-.496.496H16.957a.497.497 0 0 1-.496-.496M47.262 33.715c-4.856 0-9.75-2.524-10-8.899a.505.505 0 0 1 .504-.515h5.941c.266 0 .469.207.496.469.188 1.796 1.461 2.695 3.059 2.695 1.816 0 3.082-1.055 3.082-3.207 0-1.817-1.352-3.168-3.211-3.168h-.969v-5.996h.969c2.07 0 2.87-1.477 2.87-2.828 0-1.899-1.308-2.871-2.741-2.871-1.317 0-2.528.851-2.719 2.39-.031.246-.219.438-.465.438h-5.973a.506.506 0 0 1-.503-.52c.257-5.348 4.46-8.558 9.66-8.558 5.57 0 9.668 3.714 9.668 8.91 0 2.898-1.242 4.488-2.575 5.488a.487.487 0 0 0-.011.777c1.476 1.157 2.922 2.946 2.922 6.149 0 6.289-4.727 9.246-10.004 9.246"/><g clip-path="url(#K)"><path fill="#f9df27" d="M-164.457-5.902c-4.54 0-8.234 3.695-8.234 8.234v36.996c0 4.54 3.695 8.23 8.234 8.23H58.141c4.539 0 8.23-3.69 8.23-8.23v-45.23ZM58.141 52.266h-222.598c-7.137 0-12.938-5.805-12.938-12.938V2.332c0-7.137 5.801-12.937 12.938-12.937H71.074v49.933c0 7.133-5.8 12.938-12.933 12.938"/></g></g><g id="L"><path fill-opacity="0" d="M0 0h1010.268v714.33H0z"/><path fill="#fff" d="M0 0h1010.268v714.33H0z"/></g><g id="a" mask="url(#O)"><use xlink:href="#P" transform="translate(690.189 321.528)"/></g><g id="b"><use xlink:href="#Q" x="36.885" y="243.728" fill="#46464a" transform="translate(84.189 59.528)"/><use xlink:href="#R" x="60.697" y="243.728" fill="#46464a" transform="translate(84.189 59.528)"/><use xlink:href="#S" x="90.21" y="243.728" fill="#46464a" transform="translate(84.189 59.528)"/><use xlink:href="#R" x="121.378" y="243.728" fill="#46464a" transform="translate(84.189 59.528)"/><use xlink:href="#T" x="150.589" y="243.728" fill="#46464a" transform="translate(84.189 59.528)"/><use xlink:href="#U" x="163.318" y="243.728" fill="#46464a" transform="translate(84.189 59.528)"/><use xlink:href="#V" x="172.699" y="243.728" fill="#46464a" transform="translate(84.189 59.528)"/><g fill="#46464a" transform="translate(84.189 59.528)"><use xlink:href="#W" x="192.72" y="243.728"/><use xlink:href="#X" x="216.092" y="243.728"/><use xlink:href="#Y" x="239.464" y="243.728"/></g><use xlink:href="#Z" x="259.294" y="243.728" fill="#46464a" transform="translate(84.189 59.528)"/><use xlink:href="#aa" x="266.621" y="243.728" fill="#46464a" transform="translate(84.189 59.528)"/><use xlink:href="#ab" x="287.258" y="243.728" fill="#46464a" transform="translate(84.189 59.528)"/><path fill="#fff" d="M121.072 522.43h376.93V332.032h-376.93Zm0 0"/><use xlink:href="#ac" x="36.885" y="283.69" fill="#46464a" transform="translate(84.189 59.528)"/><g fill="#46464a" transform="translate(84.189 59.528)"><use xlink:href="#ad" x="43.904" y="283.69"/><use xlink:href="#ae" x="51.469" y="283.69"/><use xlink:href="#af" x="59.313" y="283.69"/></g><g fill="#46464a" transform="translate(84.189 59.528)"><use xlink:href="#ag" x="61.844" y="283.69"/><use xlink:href="#ah" x="69.255" y="283.69"/><use xlink:href="#ai" x="77.561" y="283.69"/></g><use xlink:href="#aj" x="83.308" y="283.69" fill="#46464a" transform="translate(84.189 59.528)"/><g fill="#46464a" transform="translate(84.189 59.528)"><use xlink:href="#ah" x="90.649" y="283.69"/><use xlink:href="#ak" x="98.955" y="283.69"/><use xlink:href="#al" x="106.855" y="283.69"/></g><use xlink:href="#am" x="111.721" y="283.69" fill="#46464a" transform="translate(84.189 59.528)"/><use xlink:href="#an" x="119.495" y="283.69" fill="#ed1d24" transform="translate(84.189 59.528)"/><g fill="#ed1d24" transform="translate(84.189 59.528)"><use xlink:href="#ao" x="126.179" y="283.69"/><use xlink:href="#ap" x="133.436" y="283.69"/></g><g fill="#46464a" transform="translate(84.189 59.528)"><use xlink:href="#af" x="140.455" y="283.69"/><use xlink:href="#aq" x="142.986" y="283.69"/><use xlink:href="#ar" x="145.741" y="283.69"/><use xlink:href="#as" x="153.949" y="283.69"/><use xlink:href="#ar" x="162.381" y="283.69"/><use xlink:href="#af" x="170.589" y="283.69"/><use xlink:href="#at" x="173.12" y="283.69"/><use xlink:href="#au" x="184.25" y="283.69"/><use xlink:href="#av" x="191.815" y="283.69"/></g><use xlink:href="#aw" x="197.436" y="283.69" fill="#46464a" transform="translate(84.189 59.528)"/><use xlink:href="#af" x="202.106" y="283.69" fill="#46464a" transform="translate(84.189 59.528)"/><use xlink:href="#ax" x="36.885" y="301.668" fill="#46464a" transform="translate(84.189 59.528)"/><g fill="#46464a" transform="translate(84.189 59.528)"><use xlink:href="#ar" x="44.03" y="301.668"/><use xlink:href="#at" x="52.238" y="301.668"/><use xlink:href="#at" x="63.368" y="301.668"/><use xlink:href="#ay" x="74.499" y="301.668"/><use xlink:href="#az" x="83.001" y="301.668"/><use xlink:href="#aA" x="90.565" y="301.668"/><use xlink:href="#af" x="99.067" y="301.668"/><use xlink:href="#aB" x="101.598" y="301.668"/></g><g fill="#46464a" transform="translate(84.189 59.528)"><use xlink:href="#aw" x="104.213" y="301.668"/><use xlink:href="#aC" x="108.603" y="301.668"/></g><g fill="#46464a" transform="translate(84.189 59.528)"><use xlink:href="#av" x="109.666" y="301.668"/><use xlink:href="#af" x="115.567" y="301.668"/><use xlink:href="#ar" x="118.098" y="301.668"/></g><g fill="#46464a" transform="translate(84.189 59.528)"><use xlink:href="#aD" x="125.816" y="301.668"/><use xlink:href="#az" x="137.674" y="301.668"/><use xlink:href="#af" x="145.239" y="301.668"/><use xlink:href="#av" x="147.77" y="301.668"/><use xlink:href="#aE" x="153.671" y="301.668"/><use xlink:href="#ay" x="162.172" y="301.668"/><use xlink:href="#ax" x="170.674" y="301.668"/></g><use xlink:href="#ae" x="177.819" y="301.668" fill="#46464a" transform="translate(84.189 59.528)"/><use xlink:href="#aF" x="185.104" y="301.668" fill="#46464a" transform="translate(84.189 59.528)"/><g fill="#46464a" transform="translate(84.189 59.528)"><use xlink:href="#af" x="187.272" y="301.668"/><use xlink:href="#ac" x="189.803" y="301.668"/></g><g fill="#46464a" transform="translate(84.189 59.528)"><use xlink:href="#ad" x="196.822" y="301.668"/><use xlink:href="#ae" x="204.387" y="301.668"/></g><use xlink:href="#af" x="212.511" y="301.668" fill="#46464a" transform="translate(84.189 59.528)"/><g fill="#46464a" transform="translate(84.189 59.528)"><use xlink:href="#ax" x="36.885" y="319.646"/><use xlink:href="#aq" x="44.31" y="319.646"/><use xlink:href="#ae" x="47.064" y="319.646"/><use xlink:href="#ay" x="54.909" y="319.646"/><use xlink:href="#aG" x="63.41" y="319.646"/></g><g fill="#46464a" transform="translate(84.189 59.528)"><use xlink:href="#af" x="67.857" y="319.646"/><use xlink:href="#av" x="70.388" y="319.646"/><use xlink:href="#aE" x="76.289" y="319.646"/><use xlink:href="#ay" x="84.79" y="319.646"/><use xlink:href="#ax" x="93.292" y="319.646"/></g><g fill="#46464a" transform="translate(84.189 59.528)"><use xlink:href="#ae" x="100.437" y="319.646"/><use xlink:href="#af" x="108.282" y="319.646"/><use xlink:href="#ay" x="110.813" y="319.646"/><use xlink:href="#aG" x="119.314" y="319.646"/></g><g fill="#46464a" transform="translate(84.189 59.528)"><use xlink:href="#ae" x="123.509" y="319.646"/><use xlink:href="#ay" x="131.354" y="319.646"/><use xlink:href="#af" x="139.855" y="319.646"/><use xlink:href="#ay" x="142.386" y="319.646"/><use xlink:href="#aG" x="150.888" y="319.646"/></g><use xlink:href="#ar" x="155.083" y="319.646" fill="#46464a" transform="translate(84.189 59.528)"/><g fill="#46464a" transform="translate(84.189 59.528)"><use xlink:href="#au" x="163.222" y="319.646"/><use xlink:href="#az" x="170.787" y="319.646"/><use xlink:href="#aA" x="178.352" y="319.646"/><use xlink:href="#af" x="186.854" y="319.646"/><use xlink:href="#aw" x="189.385" y="319.646"/><use xlink:href="#ad" x="193.775" y="319.646"/><use xlink:href="#ae" x="201.34" y="319.646"/></g><use xlink:href="#af" x="209.464" y="319.646" fill="#46464a" transform="translate(84.189 59.528)"/><g fill="#46464a" transform="translate(84.189 59.528)"><use xlink:href="#aq" x="36.885" y="337.624"/><use xlink:href="#ar" x="39.639" y="337.624"/><use xlink:href="#as" x="47.847" y="337.624"/><use xlink:href="#ar" x="56.279" y="337.624"/><use xlink:href="#af" x="64.487" y="337.624"/><use xlink:href="#aB" x="67.018" y="337.624"/><use xlink:href="#av" x="69.773" y="337.624"/><use xlink:href="#af" x="75.673" y="337.624"/><use xlink:href="#aA" x="78.204" y="337.624"/><use xlink:href="#ae" x="86.706" y="337.624"/></g><g fill="#46464a" transform="translate(84.189 59.528)"><use xlink:href="#aH" x="94.411" y="337.624"/><use xlink:href="#aB" x="98.927" y="337.624"/><use xlink:href="#az" x="101.682" y="337.624"/><use xlink:href="#ae" x="109.247" y="337.624"/><use xlink:href="#aA" x="117.091" y="337.624"/><use xlink:href="#af" x="125.593" y="337.624"/><use xlink:href="#aI" x="128.124" y="337.624"/></g><g fill="#46464a" transform="translate(84.189 59.528)"><use xlink:href="#aJ" x="136.136" y="337.624"/><use xlink:href="#af" x="143.407" y="337.624"/><use xlink:href="#aw" x="145.938" y="337.624"/><use xlink:href="#ad" x="150.329" y="337.624"/><use xlink:href="#ae" x="157.893" y="337.624"/><use xlink:href="#af" x="165.738" y="337.624"/><use xlink:href="#ad" x="168.269" y="337.624"/><use xlink:href="#ae" x="175.834" y="337.624"/><use xlink:href="#aB" x="183.678" y="337.624"/><use xlink:href="#as" x="186.433" y="337.624"/><use xlink:href="#ad" x="194.864" y="337.624"/></g><use xlink:href="#aw" x="202.15" y="337.624" fill="#46464a" transform="translate(84.189 59.528)"/><use xlink:href="#af" x="206.82" y="337.624" fill="#46464a" transform="translate(84.189 59.528)"/><use xlink:href="#ar" x="36.885" y="355.602" fill="#46464a" transform="translate(84.189 59.528)"/><g fill="#46464a" transform="translate(84.189 59.528)"><use xlink:href="#aH" x="44.953" y="355.602"/><use xlink:href="#af" x="49.469" y="355.602"/><use xlink:href="#aw" x="52" y="355.602"/><use xlink:href="#ad" x="56.391" y="355.602"/><use xlink:href="#ae" x="63.956" y="355.602"/><use xlink:href="#af" x="71.8" y="355.602"/><use xlink:href="#aK" x="74.331" y="355.602"/><use xlink:href="#aL" x="76.652" y="355.602"/><use xlink:href="#aM" x="80.358" y="355.602"/><use xlink:href="#aN" x="86.986" y="355.602"/><use xlink:href="#aC" x="93.725" y="355.602"/><use xlink:href="#af" x="96.047" y="355.602"/><use xlink:href="#ay" x="98.578" y="355.602"/><use xlink:href="#aw" x="107.079" y="355.602"/><use xlink:href="#af" x="111.47" y="355.602"/><use xlink:href="#aw" x="114.001" y="355.602"/><use xlink:href="#ad" x="118.391" y="355.602"/><use xlink:href="#ae" x="125.956" y="355.602"/><use xlink:href="#af" x="133.801" y="355.602"/><use xlink:href="#av" x="136.332" y="355.602"/></g><g fill="#46464a" transform="translate(84.189 59.528)"><use xlink:href="#ay" x="142.163" y="355.602"/><use xlink:href="#at" x="150.664" y="355.602"/><use xlink:href="#ae" x="161.795" y="355.602"/><use xlink:href="#af" x="169.639" y="355.602"/><use xlink:href="#av" x="172.17" y="355.602"/></g><use xlink:href="#ax" x="178.001" y="355.602" fill="#46464a" transform="translate(84.189 59.528)"/><g fill="#46464a" transform="translate(84.189 59.528)"><use xlink:href="#ay" x="185.146" y="355.602"/><use xlink:href="#aq" x="193.648" y="355.602"/><use xlink:href="#ae" x="196.403" y="355.602"/></g><use xlink:href="#af" x="204.527" y="355.602" fill="#46464a" transform="translate(84.189 59.528)"/><g fill="#46464a" transform="translate(84.189 59.528)"><use xlink:href="#ay" x="36.885" y="373.581"/><use xlink:href="#av" x="45.386" y="373.581"/><use xlink:href="#af" x="51.287" y="373.581"/><use xlink:href="#aw" x="53.818" y="373.581"/><use xlink:href="#ad" x="58.209" y="373.581"/><use xlink:href="#ae" x="65.773" y="373.581"/><use xlink:href="#af" x="73.618" y="373.581"/><use xlink:href="#aq" x="76.149" y="373.581"/><use xlink:href="#ar" x="78.904" y="373.581"/><use xlink:href="#as" x="87.112" y="373.581"/><use xlink:href="#ar" x="95.543" y="373.581"/></g><use xlink:href="#aF" x="103.192" y="373.581" fill="#46464a" transform="translate(84.189 59.528)"/><g fill="#46464a" transform="translate(84.189 59.528)"><use xlink:href="#aO" x="36.885" y="409.537"/><use xlink:href="#ar" x="45.89" y="409.537"/><use xlink:href="#af" x="54.098" y="409.537"/><use xlink:href="#ar" x="56.629" y="409.537"/></g><g fill="#46464a" transform="translate(84.189 59.528)"><use xlink:href="#aw" x="64.697" y="409.537"/><use xlink:href="#ad" x="69.087" y="409.537"/><use xlink:href="#ae" x="76.652" y="409.537"/><use xlink:href="#aG" x="84.497" y="409.537"/></g><g fill="#46464a" transform="translate(84.189 59.528)"><use xlink:href="#af" x="88.943" y="409.537"/><use xlink:href="#aA" x="91.474" y="409.537"/><use xlink:href="#ae" x="99.976" y="409.537"/></g><g fill="#46464a" transform="translate(84.189 59.528)"><use xlink:href="#av" x="107.681" y="409.537"/><use xlink:href="#aB" x="113.581" y="409.537"/><use xlink:href="#as" x="116.336" y="409.537"/><use xlink:href="#az" x="124.768" y="409.537"/><use xlink:href="#af" x="132.333" y="409.537"/><use xlink:href="#ae" x="134.863" y="409.537"/><use xlink:href="#aq" x="142.708" y="409.537"/><use xlink:href="#ae" x="145.463" y="409.537"/><use xlink:href="#at" x="153.307" y="409.537"/><use xlink:href="#ae" x="164.437" y="409.537"/><use xlink:href="#az" x="172.282" y="409.537"/></g><use xlink:href="#aw" x="179.567" y="409.537" fill="#46464a" transform="translate(84.189 59.528)"/><use xlink:href="#av" x="183.777" y="409.537" fill="#46464a" transform="translate(84.189 59.528)"/><use xlink:href="#af" x="189.956" y="409.537" fill="#46464a" transform="translate(84.189 59.528)"/><g fill="#46464a" transform="translate(84.189 59.528)"><use xlink:href="#av" x="36.885" y="427.515"/><use xlink:href="#ad" x="42.785" y="427.515"/><use xlink:href="#ar" x="50.35" y="427.515"/></g><g fill="#46464a" transform="translate(84.189 59.528)"><use xlink:href="#au" x="58.488" y="427.515"/><use xlink:href="#aq" x="66.053" y="427.515"/><use xlink:href="#aA" x="68.808" y="427.515"/><use xlink:href="#af" x="77.309" y="427.515"/><use xlink:href="#ae" x="79.84" y="427.515"/><use xlink:href="#az" x="87.685" y="427.515"/></g><use xlink:href="#aw" x="94.97" y="427.515" fill="#46464a" transform="translate(84.189 59.528)"/><g fill="#46464a" transform="translate(84.189 59.528)"><use xlink:href="#ae" x="99.291" y="427.515"/><use xlink:href="#aG" x="107.135" y="427.515"/></g><g fill="#46464a" transform="translate(84.189 59.528)"><use xlink:href="#af" x="111.582" y="427.515"/><use xlink:href="#aw" x="114.113" y="427.515"/><use xlink:href="#ad" x="118.503" y="427.515"/><use xlink:href="#aB" x="126.068" y="427.515"/><use xlink:href="#av" x="128.823" y="427.515"/><use xlink:href="#af" x="134.724" y="427.515"/><use xlink:href="#av" x="137.255" y="427.515"/><use xlink:href="#aE" x="143.155" y="427.515"/><use xlink:href="#ay" x="151.657" y="427.515"/><use xlink:href="#ax" x="160.159" y="427.515"/></g><use xlink:href="#ae" x="167.304" y="427.515" fill="#46464a" transform="translate(84.189 59.528)"/><use xlink:href="#aF" x="174.589" y="427.515" fill="#46464a" transform="translate(84.189 59.528)"/><use xlink:href="#aP" x="36.413" y="564.794" fill="#46464a" transform="translate(84.189 59.528)"/><g fill="#46464a" transform="translate(84.189 59.528)"><use xlink:href="#aQ" x="41.117" y="564.794"/><use xlink:href="#aR" x="47.08" y="564.794"/></g><g fill="#46464a" transform="translate(84.189 59.528)"><use xlink:href="#aS" x="50.356" y="564.794"/><use xlink:href="#aT" x="52.263" y="564.794"/></g><g fill="#46464a" transform="translate(84.189 59.528)"><use xlink:href="#aU" x="55.489" y="564.794"/><use xlink:href="#aR" x="60.993" y="564.794"/></g><g fill="#46464a" transform="translate(84.189 59.528)"><use xlink:href="#aV" x="64.469" y="564.794"/><use xlink:href="#aW" x="67.705" y="564.794"/><use xlink:href="#aX" x="73.208" y="564.794"/><use xlink:href="#aR" x="78.911" y="564.794"/></g><g fill="#46464a" transform="translate(84.189 59.528)"><use xlink:href="#aS" x="82.187" y="564.794"/><use xlink:href="#aY" x="84.095" y="564.794"/><use xlink:href="#aZ" x="86.162" y="564.794"/></g><use xlink:href="#aT" x="91.466" y="564.794" fill="#46464a" transform="translate(84.189 59.528)"/><g fill="#46464a" transform="translate(84.189 59.528)"><use xlink:href="#aQ" x="94.492" y="564.794"/><use xlink:href="#aR" x="100.455" y="564.794"/><use xlink:href="#ba" x="103.831" y="564.794"/><use xlink:href="#bb" x="111.881" y="564.794"/><use xlink:href="#aV" x="118.053" y="564.794"/><use xlink:href="#aY" x="121.289" y="564.794"/><use xlink:href="#aQ" x="123.357" y="564.794"/><use xlink:href="#aZ" x="129.32" y="564.794"/><use xlink:href="#aS" x="134.823" y="564.794"/><use xlink:href="#bc" x="136.731" y="564.794"/><use xlink:href="#bd" x="142.903" y="564.794"/><use xlink:href="#aX" x="144.971" y="564.794"/><use xlink:href="#bb" x="150.674" y="564.794"/><use xlink:href="#be" x="156.846" y="564.794"/></g><g fill="#46464a" transform="translate(84.189 59.528)"><use xlink:href="#aX" x="161.11" y="564.794"/><use xlink:href="#aS" x="166.813" y="564.794"/><use xlink:href="#bf" x="168.721" y="564.794"/></g><g fill="#46464a" transform="translate(84.189 59.528)"><use xlink:href="#aQ" x="173.924" y="564.794"/><use xlink:href="#aZ" x="179.887" y="564.794"/></g><use xlink:href="#aV" x="185.191" y="564.794" fill="#46464a" transform="translate(84.189 59.528)"/><g fill="#46464a" transform="translate(84.189 59.528)"><use xlink:href="#bb" x="188.377" y="564.794"/><use xlink:href="#bf" x="194.549" y="564.794"/></g><g fill="#46464a" transform="translate(84.189 59.528)"><use xlink:href="#aV" x="199.903" y="564.794"/><use xlink:href="#aS" x="203.139" y="564.794"/><use xlink:href="#ba" x="205.047" y="564.794"/><use xlink:href="#bb" x="213.097" y="564.794"/><use xlink:href="#aR" x="219.269" y="564.794"/><use xlink:href="#bg" x="222.645" y="564.794"/></g><use xlink:href="#aX" x="227.319" y="564.794" fill="#46464a" transform="translate(84.189 59.528)"/><g fill="#46464a" transform="translate(84.189 59.528)"><use xlink:href="#aV" x="232.923" y="564.794"/><use xlink:href="#aY" x="236.159" y="564.794"/><use xlink:href="#aZ" x="238.226" y="564.794"/><use xlink:href="#bh" x="243.73" y="564.794"/><use xlink:href="#bi" x="249.852" y="564.794"/><use xlink:href="#aX" x="258.292" y="564.794"/><use xlink:href="#bb" x="263.995" y="564.794"/><use xlink:href="#be" x="270.167" y="564.794"/></g><use xlink:href="#bj" x="274.282" y="564.794" fill="#46464a" transform="translate(84.189 59.528)"/><g fill="#46464a" transform="translate(84.189 59.528)"><use xlink:href="#bb" x="279.226" y="564.794"/><use xlink:href="#aU" x="285.399" y="564.794"/><use xlink:href="#aV" x="290.902" y="564.794"/></g><g fill="#46464a" transform="translate(84.189 59.528)"><use xlink:href="#aQ" x="294.088" y="564.794"/><use xlink:href="#bk" x="300.051" y="564.794"/><use xlink:href="#bl" x="302.798" y="564.794"/><use xlink:href="#bm" x="307.632" y="564.794"/></g><g fill="#46464a" transform="translate(84.189 59.528)"><use xlink:href="#bn" x="312.446" y="564.794"/><use xlink:href="#bf" x="314.194" y="564.794"/></g><g fill="#46464a" transform="translate(84.189 59.528)"><use xlink:href="#aQ" x="319.398" y="564.794"/><use xlink:href="#ba" x="325.36" y="564.794"/><use xlink:href="#bn" x="333.41" y="564.794"/><use xlink:href="#bb" x="335.158" y="564.794"/><use xlink:href="#aU" x="341.331" y="564.794"/></g></g><g id="c" filter="url(#bo)" mask="url(#bp)"><path d="M0 0h1010.268v714.331H0z"/></g><g id="d" mask="url(#bq)"><use xlink:href="#b"/></g><g id="by" clip-path="url(#br)"><g clip-path="url(#bs)"><path fill="#fff" d="M58.14 53.117h-222.6c-7.13 0-12.935-5.804-12.935-12.937V3.184c0-7.133 5.805-12.938 12.934-12.938H71.074V40.18c0 7.133-5.8 12.937-12.933 12.937"/></g><g clip-path="url(#bt)"><path fill="#ec1d27" d="M5.824 33.82V12.527c0-.425-.5-.652-.82-.375L2.043 13.25a.497.497 0 0 1-.82-.375V6.996c0-.144.062-.281.168-.375l4.293-2.246a.48.48 0 0 1 .324-.125h6.242c.277 0 .496.223.496.496V33.82a.494.494 0 0 1-.496.496H6.316a.493.493 0 0 1-.492-.496"/></g><path fill="#ec1d27" d="M16.46 33.82v-5.562c0-.125.048-.242.134-.336l10.761-11.68c1.098-1.183 1.52-1.941 1.52-3.207 0-1.648-.93-2.785-2.703-2.785-1.176 0-2.57.508-2.762 2.438-.027.265-.23.472-.496.472h-5.941a.5.5 0 0 1-.5-.512C16.727 7.063 21.09 4 26.172 4c5.574 0 9.629 3.418 9.629 9.078 0 3.164-1.309 4.856-3.715 7.387l-6.39 6.765a.496.496 0 0 0 .359.836h9.25c.273 0 .496.223.496.497v5.257a.497.497 0 0 1-.496.496H16.957a.497.497 0 0 1-.496-.496M47.262 34.566c-4.856 0-9.75-2.523-10-8.898a.505.505 0 0 1 .504-.516h5.941c.266 0 .469.207.496.47.188 1.8 1.461 2.698 3.059 2.698 1.816 0 3.082-1.058 3.082-3.21 0-1.813-1.352-3.165-3.211-3.165h-.969V15.95h.969c2.07 0 2.87-1.48 2.87-2.832 0-1.898-1.308-2.87-2.741-2.87-1.317 0-2.528.85-2.719 2.394-.031.242-.219.437-.465.437h-5.973a.506.506 0 0 1-.503-.52C37.859 7.212 42.062 4 47.262 4c5.57 0 9.668 3.715 9.668 8.906 0 2.899-1.242 4.489-2.575 5.492a.483.483 0 0 0-.011.774c1.476 1.156 2.922 2.95 2.922 6.148 0 6.293-4.727 9.246-10.004 9.246"/><g clip-path="url(#bu)"><path fill="#f9df27" d="M-164.457-5.047c-4.54 0-8.234 3.692-8.234 8.23V40.18c0 4.539 3.695 8.234 8.234 8.234H58.141c4.539 0 8.23-3.695 8.23-8.234V-5.047ZM58.141 53.117h-222.598c-7.137 0-12.938-5.804-12.938-12.937V3.184c0-7.133 5.801-12.938 12.938-12.938H71.074V40.18c0 7.133-5.8 12.937-12.933 12.937"/></g></g><g id="bv"><path fill-opacity="0" d="M0 0h1010.268v714.33H0z"/><path fill="#fff" d="M0 0h1010.268v714.33H0z"/></g><g id="e" mask="url(#bx)"><use xlink:href="#by" transform="translate(690.189 227.528)"/></g><g id="f" filter="url(#bz)"><path d="M0 0h1010.268v714.331H0z"/></g><g id="g" filter="url(#bA)" mask="url(#bB)"><path d="M0 0h1010.268v714.331H0z"/></g><g id="h" mask="url(#bC)"><use xlink:href="#f"/></g><g id="bK" clip-path="url(#bD)"><g clip-path="url(#bE)"><path fill="#fff" d="M52.387.93v222.597c0 7.133-5.805 12.938-12.938 12.938H2.453c-7.133 0-12.937-5.805-12.937-12.938v-235.53h49.933c7.133 0 12.938 5.8 12.938 12.933"/></g><path fill="#ec1d27" d="M33.09 53.246H11.797c-.426 0-.652.5-.375.82l1.098 2.961c.277.32.046.82-.375.82h-5.88a.5.5 0 0 1-.374-.171l-2.246-4.29a.48.48 0 0 1-.125-.324v-6.246c0-.273.222-.492.496-.492H33.09c.273 0 .496.219.496.492v5.934a.497.497 0 0 1-.496.496M33.09 42.605h-5.563a.5.5 0 0 1-.336-.128l-11.68-10.762c-1.183-1.098-1.94-1.52-3.206-1.52-1.649 0-2.785.93-2.785 2.7 0 1.18.507 2.574 2.437 2.765.266.028.473.23.473.496v5.942a.495.495 0 0 1-.512.496c-5.586-.25-8.648-4.617-8.648-9.7 0-5.57 3.418-9.624 9.078-9.624 3.164 0 4.855 1.308 7.386 3.714l6.766 6.391a.496.496 0 0 0 .836-.36v-9.25c0-.273.223-.495.496-.495h5.258c.273 0 .496.222.496.496v18.347a.493.493 0 0 1-.496.492M33.836 11.809c0 4.855-2.523 9.746-8.898 10a.505.505 0 0 1-.516-.504v-5.946c0-.261.207-.464.469-.492 1.797-.187 2.699-1.46 2.699-3.058 0-1.817-1.059-3.082-3.211-3.082-1.817 0-3.164 1.351-3.164 3.21v.97h-5.996v-.97c0-2.07-1.48-2.87-2.832-2.87-1.899 0-2.871 1.308-2.871 2.742 0 1.316.851 2.523 2.394 2.718.242.032.438.22.438.465v5.973a.5.5 0 0 1-.52.5C6.48 21.21 3.27 17.004 3.27 11.809c0-5.575 3.714-9.668 8.906-9.668 2.898 0 4.488 1.242 5.492 2.574a.486.486 0 0 0 .773.012c1.157-1.48 2.95-2.926 6.149-2.926 6.293 0 9.246 4.73 9.246 10.008"/><g clip-path="url(#bF)"><path fill="#46464a" d="M16.465 66.875c-.45.45-.672 1.078-.672 1.977 0 .898.223 1.527.672 1.976.945.942 2.648 1.078 5.027 1.078s4.086-.136 5.028-1.078c.449-.45.675-1.078.675-1.976 0-.899-.226-1.528-.675-1.977-.942-.941-2.649-1.074-5.028-1.074s-4.082.133-5.027 1.074m14.277-5.79c1.524 1.438 3.094 3.86 3.094 7.767 0 3.906-1.57 6.328-3.094 7.765-2.199 2.02-4.488 2.649-9.25 2.649-4.71 0-7.047-.63-9.246-2.649-1.527-1.437-3.098-3.86-3.098-7.765 0-3.907 1.57-6.329 3.098-7.766 2.2-2.02 4.535-2.648 9.246-2.648 4.762 0 7.051.628 9.25 2.648"/></g><g clip-path="url(#bG)"><path fill="#f9df27" d="M-5.777 223.527c0 4.54 3.691 8.235 8.23 8.235H39.45c4.54 0 8.235-3.696 8.235-8.235V.93c0-4.54-3.696-8.23-8.235-8.23H-5.777ZM52.387.93v222.597c0 7.133-5.805 12.938-12.938 12.938H2.453c-7.133 0-12.937-5.805-12.937-12.938V-12.008h49.933c7.133 0 12.938 5.805 12.938 12.938"/></g></g><g id="bH"><path fill-opacity="0" d="M0 0h1010.268v714.33H0z"/><path fill="#fff" d="M0 0h1010.268v714.33H0z"/></g><g id="i" mask="url(#bJ)"><use xlink:href="#bK" transform="translate(562.189 263.528)"/></g><g id="j" filter="url(#bL)"><path d="M0 0h1010.268v714.331H0z"/></g><g id="k" filter="url(#bM)" mask="url(#bN)"><path d="M0 0h1010.268v714.331H0z"/></g><g id="l" mask="url(#bO)"><use xlink:href="#j"/></g><g id="bX" clip-path="url(#bP)"><g clip-path="url(#bQ)"><path fill="#fff" d="M-13.617 57.652v-222.597c0-7.133 5.8-12.938 12.933-12.938h37c7.133 0 12.934 5.805 12.934 12.938V70.59H-.684c-7.132 0-12.933-5.805-12.933-12.938"/></g><g clip-path="url(#bR)"><path fill="#ec1d27" d="M5.68 5.336h21.293c.422 0 .652-.5.37-.82L26.25 1.555a.496.496 0 0 1 .375-.82h5.879c.144 0 .281.062.375.171l2.246 4.29c.078.09.121.206.121.324v6.246a.493.493 0 0 1-.492.496H5.68a.497.497 0 0 1-.496-.496V5.832c0-.273.222-.496.496-.496"/></g><path fill="#ec1d27" d="M5.68 15.977h5.558a.5.5 0 0 1 .336.128l11.684 10.762c1.18 1.102 1.941 1.52 3.207 1.52 1.648 0 2.785-.926 2.785-2.7 0-1.175-.508-2.57-2.441-2.765-.262-.027-.47-.23-.47-.492v-5.942c0-.281.235-.511.513-.5 5.586.25 8.648 4.617 8.648 9.7 0 5.574-3.418 9.625-9.078 9.625-3.164 0-4.856-1.31-7.387-3.715l-6.765-6.391a.496.496 0 0 0-.836.363v9.25a.493.493 0 0 1-.496.492H5.68a.493.493 0 0 1-.496-.492V16.473c0-.274.222-.496.496-.496M4.93 46.773c0-4.851 2.527-9.746 8.902-9.996a.5.5 0 0 1 .516.5v5.946c0 .261-.207.465-.47.492-1.8.187-2.698 1.46-2.698 3.058 0 1.817 1.054 3.082 3.21 3.082 1.813 0 3.165-1.351 3.165-3.207v-.972h5.996v.972c0 2.067 1.48 2.868 2.832 2.868 1.898 0 2.867-1.305 2.867-2.743 0-1.316-.848-2.523-2.39-2.718a.477.477 0 0 1-.438-.465v-5.973c0-.277.238-.512.52-.5 5.347.254 8.558 4.461 8.558 9.656 0 5.575-3.715 9.668-8.91 9.668-2.899 0-4.488-1.242-5.488-2.574a.486.486 0 0 0-.774-.012c-1.16 1.48-2.95 2.926-6.148 2.926-6.293 0-9.25-4.73-9.25-10.008"/><g clip-path="url(#bS)"><path fill="#46464a" d="M22.305-8.293c.445-.45.672-1.078.672-1.977 0-.898-.227-1.527-.672-1.972-.946-.945-2.653-1.078-5.028-1.078-2.382 0-4.086.133-5.03 1.078-.45.445-.673 1.074-.673 1.972 0 .899.223 1.528.672 1.977.945.941 2.649 1.074 5.031 1.074 2.375 0 4.082-.133 5.028-1.074M8.027-2.503C6.504-3.942 4.93-6.364 4.93-10.27c0-3.906 1.574-6.328 3.097-7.765 2.2-2.02 4.489-2.649 9.25-2.649 4.711 0 7.047.63 9.246 2.649 1.524 1.437 3.094 3.86 3.094 7.765 0 3.907-1.57 6.329-3.094 7.766C24.324-.484 21.988.145 17.277.145c-4.761 0-7.05-.63-9.25-2.649"/></g><g clip-path="url(#bT)"><path fill="#f9df27" d="M44.547-164.945c0-4.54-3.692-8.23-8.23-8.23H-.68c-4.543 0-8.234 3.69-8.234 8.23V57.652c0 4.54 3.691 8.23 8.234 8.23h45.227ZM-13.617 57.652v-222.597c0-7.133 5.8-12.938 12.937-12.938h36.996c7.133 0 12.934 5.805 12.934 12.938V70.59H-.68c-7.136 0-12.937-5.805-12.937-12.938"/></g></g><g id="bU"><path fill-opacity="0" d="M0 0h1010.268v714.33H0z"/><path fill="#fff" d="M0 0h1010.268v714.33H0z"/></g><g id="m" mask="url(#bW)"><use xlink:href="#bX" transform="translate(839.189 263.528)"/></g><g id="n" filter="url(#bY)"><path d="M0 0h1010.268v714.331H0z"/></g><g id="o" filter="url(#bZ)" mask="url(#ca)"><path d="M0 0h1010.268v714.331H0z"/></g><g id="p" mask="url(#cb)"><use xlink:href="#n"/></g><g id="ci" clip-path="url(#cc)"><g fill="#fff" clip-path="url(#cd)"><path d="M72.375 44.84h-88.422c-6.344 0-11.504-5.16-11.504-11.504v-88.418c0-6.344 5.16-11.504 11.504-11.504H83.88v99.922c0 6.344-5.164 11.504-11.504 11.504"/><path d="M72.375 45.371h-88.422c-6.344 0-11.504-5.164-11.504-11.504v-88.422c0-6.343 5.16-11.504 11.504-11.504H83.88v99.926c0 6.34-5.164 11.504-11.504 11.504"/></g><path fill="#ec1d27" d="M7.535 28.633V10.566a.42.42 0 0 0-.695-.32l-2.516.93a.42.42 0 0 1-.695-.317V5.871c0-.125.055-.238.144-.316l3.641-1.91a.43.43 0 0 1 .277-.102h5.301c.23 0 .418.187.418.418v24.672c0 .23-.187.418-.418.418H7.953a.42.42 0 0 1-.418-.418M16.563 28.633v-4.719c0-.105.039-.207.109-.285l9.137-9.91c.93-1.004 1.289-1.649 1.289-2.723 0-1.398-.79-2.367-2.293-2.367-1 0-2.184.434-2.348 2.074a.425.425 0 0 1-.418.399h-5.043a.42.42 0 0 1-.422-.438c.211-4.738 3.918-7.336 8.23-7.336 4.727 0 8.169 2.902 8.169 7.703 0 2.688-1.11 4.117-3.153 6.27l-5.422 5.738a.421.421 0 0 0 .305.711h7.848a.42.42 0 0 1 .422.418v4.465a.42.42 0 0 1-.422.418H16.98a.42.42 0 0 1-.419-.418M42.7 29.266c-4.122 0-8.274-2.141-8.485-7.551a.424.424 0 0 1 .426-.438h5.043c.222 0 .394.176.418.399.16 1.527 1.242 2.289 2.597 2.289 1.54 0 2.614-.895 2.614-2.723 0-1.543-1.145-2.687-2.723-2.687h-.824v-5.09h.824c1.754 0 2.437-1.254 2.437-2.399 0-1.613-1.113-2.437-2.328-2.437-1.117 0-2.144.723-2.308 2.031-.024.207-.184.371-.395.371H34.93a.43.43 0 0 1-.426-.441c.215-4.54 3.785-7.262 8.195-7.262 4.727 0 8.203 3.152 8.203 7.559 0 2.457-1.054 3.808-2.187 4.66a.412.412 0 0 0-.008.656c1.254.98 2.48 2.5 2.48 5.219 0 5.336-4.011 7.844-8.488 7.844"/><g clip-path="url(#ce)"><path fill="#f9df27" d="M-16.52-62.36c-4.078 0-7.398 3.32-7.398 7.4v89.366c0 4.078 3.32 7.399 7.398 7.399h89.368c4.078 0 7.398-3.32 7.398-7.399v-96.765Zm100.993-4.226V34.406c0 6.41-5.215 11.625-11.625 11.625H-16.52c-6.41 0-11.625-5.215-11.625-11.625V-54.96c0-6.41 5.215-11.625 11.625-11.625"/></g></g><g id="cf"><path fill-opacity="0" d="M0 0h1010.268v714.33H0z"/><path fill="#fff" d="M0 0h1010.268v714.33H0z"/></g><g id="q" mask="url(#ch)"><use xlink:href="#ci" transform="translate(694.189 408.528)"/></g><g id="r"><g filter="url(#cj)"><path d="M0 0h1010.268v714.331H0z"/></g><g clip-path="url(#ck)" transform="translate(84.189 59.528)"><path fill="#fff" d="M747.234 265.3H524.637c-7.133 0-12.938-5.804-12.938-12.937v-36.996c0-7.133 5.805-12.937 12.938-12.937h235.535v49.933c0 7.133-5.805 12.938-12.938 12.938"/></g><path fill="#ec1d27" d="M779.107 305.532v-21.293c0-.426-.5-.653-.82-.375l-2.961 1.097a.497.497 0 0 1-.82-.375v-5.879c0-.144.062-.281.171-.375l4.29-2.246a.48.48 0 0 1 .324-.125h6.246c.273 0 .496.223.496.496v29.075a.497.497 0 0 1-.496.496h-5.934a.497.497 0 0 1-.496-.496M789.748 305.532v-5.563c0-.125.046-.242.128-.336l10.762-11.68c1.102-1.183 1.524-1.941 1.524-3.207 0-1.648-.93-2.785-2.703-2.785-1.176 0-2.57.508-2.766 2.442a.5.5 0 0 1-.492.468h-5.942a.5.5 0 0 1-.5-.511c.25-5.586 4.617-8.649 9.7-8.649 5.574 0 9.625 3.418 9.625 9.078 0 3.164-1.31 4.856-3.715 7.387l-6.39 6.766a.497.497 0 0 0 .362.836h9.25c.274 0 .493.222.493.496v5.258a.493.493 0 0 1-.493.496h-18.347a.497.497 0 0 1-.496-.496M820.544 306.278c-4.851 0-9.746-2.524-9.996-8.899a.5.5 0 0 1 .5-.515h5.946c.265 0 .465.207.492.468.187 1.797 1.46 2.7 3.058 2.7 1.817 0 3.082-1.06 3.082-3.211 0-1.817-1.351-3.168-3.207-3.168h-.972v-5.993h.972c2.067 0 2.872-1.48 2.872-2.832 0-1.898-1.309-2.87-2.747-2.87-1.316 0-2.523.85-2.714 2.394-.032.242-.22.433-.465.433h-5.973a.503.503 0 0 1-.504-.515c.254-5.348 4.461-8.559 9.656-8.559 5.575 0 9.672 3.715 9.672 8.906 0 2.899-1.246 4.489-2.578 5.493a.486.486 0 0 0-.012.773c1.481 1.156 2.926 2.95 2.926 6.149 0 6.292-4.73 9.246-10.008 9.246"/><path fill="#46464a" d="M623.638 289.535c-.449-1.03-1.433-1.886-3.183-1.886-1.754 0-2.743.855-3.188 1.886a4 4 0 0 0-.375 1.305.53.53 0 0 0 .527.582h6.067c.312 0 .562-.27.527-.582a4 4 0 0 0-.375-1.305m-6.199 6.778a.538.538 0 0 0-.523.633c.289 1.71 1.765 3.136 4.21 3.136 2.313 0 3.454-.586 4.61-1.656.21-.2.535-.2.738.004l3.652 3.656c.211.207.208.551-.003.754-2.344 2.23-4.743 3.442-8.997 3.442-5.343 0-11.492-1.934-11.492-12.348 0-7.899 4.489-12.344 10.82-12.344 7 0 10.86 5.117 10.86 11.445v2.75a.524.524 0 0 1-.523.528ZM644.646 296.313h-3.727c-1.433 0-2.332.808-2.332 1.93 0 1.078.809 2.023 2.422 2.023 1.438 0 2.11-.137 2.918-.899.54-.496.719-1.257.719-2.425Zm.707 9.695a.524.524 0 0 1-.527-.523v-1.45c-1.48 1.48-2.828 2.2-5.387 2.2-2.426 0-4.445-.809-5.79-2.157-1.394-1.39-2.108-3.41-2.108-5.656 0-3.633 2.468-7 8.21-7h4.895v-.629c0-2.199-1.078-3.008-3.637-3.008-1.687 0-2.511.36-3.504 1.274a.52.52 0 0 1-.718-.024l-3.832-3.832a.534.534 0 0 1 .007-.761c2.32-2.168 4.54-2.852 8.407-2.852 6.914 0 10.64 2.875 10.64 8.754v15.14c0 .29-.238.524-.527.524ZM663.095 306.278c-3.492 0-6.902-.164-10.11-3.121a.53.53 0 0 1-.01-.762l4.019-4.02c.199-.199.511-.195.726-.011 1.957 1.675 4.328 1.675 5.508 1.675 1.078 0 3.14-.312 3.14-1.57 0-.672-.312-1.39-1.75-1.527l-3.722-.36c-4.176-.402-7.004-2.289-7.004-7 0-5.343 4.805-7.992 9.606-7.992 3.73 0 6.78.52 9.113 2.582.223.2.226.559.012.77l-3.797 3.8c-.196.196-.496.192-.715.024-1.227-.93-3.043-1.113-4.75-1.113-1.793 0-2.375.851-2.375 1.39 0 .27-.09 1.168 1.57 1.344l3.727.36c5.07.495 7.27 3.503 7.27 7.363 0 5.699-4.848 8.168-10.458 8.168M708.115 296.313h-3.727c-1.437 0-2.332.808-2.332 1.93 0 1.078.805 2.023 2.422 2.023 1.438 0 2.11-.137 2.918-.899.54-.496.719-1.257.719-2.425Zm.707 9.695a.524.524 0 0 1-.528-.523v-1.45c-1.48 1.48-2.828 2.2-5.386 2.2-2.426 0-4.446-.809-5.793-2.157-1.39-1.39-2.11-3.41-2.11-5.656 0-3.633 2.47-7 8.215-7h4.895v-.629c0-2.199-1.078-3.008-3.637-3.008-1.687 0-2.512.36-3.504 1.274a.52.52 0 0 1-.719-.024l-3.832-3.832a.534.534 0 0 1 .008-.761c2.32-2.168 4.54-2.852 8.406-2.852 6.914 0 10.637 2.875 10.637 8.754v15.14c0 .29-.234.524-.523.524ZM730.814 306.008a.524.524 0 0 1-.527-.523v-1.45c-1.48 1.48-3.68 2.243-5.61 2.243-2.289 0-4.129-.762-5.433-2.063-2.063-2.066-2.422-4.355-2.422-6.914v-14.914c0-.293.234-.527.527-.527h6.309c.289 0 .527.234.527.527v13.926c0 2.785 1.973 3.324 2.961 3.324s2.961-.54 2.961-3.324v-13.926c0-.293.238-.527.527-.527h6.309c.289 0 .527.234.527.527v23.098c0 .289-.238.523-.527.523ZM748.377 306.008c-5.34 0-7.497-3.812-7.497-7.137v-11.355h-1.671a.525.525 0 0 1-.528-.527v-4.602c0-.293.235-.527.528-.527h1.671v-5.442c0-.293.235-.527.528-.527h6.308c.29 0 .528.234.528.527v5.442h3.289c.289 0 .527.234.527.527v4.602a.53.53 0 0 1-.527.527h-3.29v10.816c0 .946.493 1.485 1.481 1.485h1.809c.289 0 .527.234.527.523v5.145c0 .289-.238.523-.527.523ZM765.478 288.907c-.45-.45-1.078-.672-1.976-.672-.899 0-1.524.222-1.973.672-.945.945-1.078 2.648-1.078 5.027s.133 4.086 1.078 5.027c.45.45 1.074.676 1.972.676.899 0 1.528-.227 1.977-.676.941-.941 1.078-2.648 1.078-5.027s-.137-4.082-1.078-5.027m5.79 14.277c-1.434 1.523-3.86 3.094-7.767 3.094-3.906 0-6.328-1.57-7.765-3.094-2.02-2.2-2.649-4.492-2.649-9.25 0-4.711.63-7.047 2.649-9.246 1.437-1.528 3.86-3.098 7.765-3.098 3.907 0 6.333 1.57 7.766 3.098 2.02 2.199 2.649 4.535 2.649 9.246 0 4.758-.63 7.05-2.649 9.25M686.767 307.496c-.496 1.391-1.125 2.426-1.887 3.188-1.437 1.527-3.632 2.02-5.785 2.02h-2.258a.527.527 0 0 1-.527-.524v-5.594c0-.289.238-.523.527-.523h1.043c1.305 0 2.516-.672 3.059-2.031 0 0 .121-.254.004-.57l-7.711-20.888a.53.53 0 0 1 .496-.71h6.582a.53.53 0 0 1 .5.363l3.457 10.594c.156.488.848.48 1-.008l3.3-10.578a.52.52 0 0 1 .5-.371h6.579c.367 0 .621.367.492.71Zm0 0"/><g clip-path="url(#cl)" transform="translate(84.189 59.528)"><path fill="#f9df27" d="M524.637 207.137c-4.54 0-8.23 3.691-8.23 8.23v36.996c0 4.54 3.69 8.235 8.23 8.235h222.597c4.54 0 8.235-3.696 8.235-8.235v-45.226ZM747.234 265.3H524.637c-7.133 0-12.938-5.805-12.938-12.938v-36.996c0-7.133 5.805-12.937 12.938-12.937h235.535v49.933c0 7.133-5.805 12.938-12.938 12.938"/></g><path fill="none" stroke="#e6e3e3" stroke-width=".499395" d="M565.915 355.387h308.668V231.914H565.915ZM638.04 574.84h164.278V411.73H638.04ZM844.572 231.95v123.722M775.986 412.297v162.227M663.521 412.297v162.227M596.138 231.95v123.722M874.552 261.64h-308.32M874.552 323.93h-308.32M801.79 549.293H638.077M801.79 437.742H638.077"/></g><g id="s" filter="url(#cm)" mask="url(#cn)"><path d="M0 0h1010.268v714.331H0z"/></g><g id="t" mask="url(#co)"><use xlink:href="#r"/></g><g id="cv" clip-path="url(#cp)"><g fill="#fff" clip-path="url(#cq)"><path d="M45.238-16.316v88.421c0 6.344-5.16 11.5-11.5 11.5h-88.422c-6.343 0-11.504-5.156-11.504-11.5V-27.82h99.926c6.34 0 11.5 5.16 11.5 11.504"/><path d="M45.77-16.316v88.421c0 6.344-5.16 11.5-11.504 11.5h-88.418c-6.344 0-11.504-5.156-11.504-11.5V-27.82h99.922c6.343 0 11.504 5.16 11.504 11.504"/></g><path fill="#ec1d27" d="M29.031 48.523H10.965a.42.42 0 0 0-.317.696l.93 2.515a.418.418 0 0 1-.32.692H6.27a.41.41 0 0 1-.317-.145l-1.91-3.64a.43.43 0 0 1-.102-.274v-5.3a.42.42 0 0 1 .422-.419h24.668a.42.42 0 0 1 .422.418v5.036a.42.42 0 0 1-.422.421M29.031 39.496h-4.718a.41.41 0 0 1-.282-.113l-9.914-9.133c-1.004-.93-1.648-1.29-2.722-1.29-1.399 0-2.364.79-2.364 2.294 0 1 .43 2.183 2.07 2.348.223.02.403.195.403.418v5.042c0 .235-.2.434-.438.422-4.742-.214-7.34-3.918-7.34-8.23 0-4.73 2.903-8.168 7.704-8.168 2.687 0 4.12 1.11 6.27 3.152l5.741 5.422a.42.42 0 0 0 .707-.305v-7.851c0-.23.192-.418.422-.418h4.461a.42.42 0 0 1 .422.418v15.57a.42.42 0 0 1-.422.422M29.668 13.36c0 4.12-2.145 8.273-7.555 8.484a.43.43 0 0 1-.437-.426v-5.043c0-.223.18-.395.398-.418 1.528-.16 2.29-1.242 2.29-2.598 0-1.539-.895-2.613-2.723-2.613-1.54 0-2.688 1.145-2.688 2.723v.824h-5.086v-.824c0-1.758-1.254-2.438-2.402-2.438-1.61 0-2.434 1.114-2.434 2.328 0 1.118.723 2.145 2.028 2.309.207.023.37.184.37.395v5.066c0 .238-.199.437-.44.426-4.536-.215-7.262-3.785-7.262-8.196 0-4.726 3.152-8.203 7.558-8.203 2.461 0 3.813 1.055 4.66 2.184a.412.412 0 0 0 .657.012c.984-1.258 2.503-2.485 5.218-2.485 5.34 0 7.848 4.016 7.848 8.492"/><g clip-path="url(#cr)"><path fill="#f9df27" d="M-61.957 72.578c0 4.078 3.316 7.399 7.398 7.399h89.364c4.078 0 7.398-3.32 7.398-7.399v-89.367c0-4.078-3.32-7.398-7.398-7.398h-96.762Zm-4.23-100.992H34.805c6.41 0 11.625 5.215 11.625 11.625v89.367c0 6.41-5.215 11.625-11.625 11.625H-54.56c-6.414 0-11.629-5.215-11.629-11.625"/></g></g><g id="cs"><path fill-opacity="0" d="M0 0h1010.268v714.33H0z"/><path fill="#fff" d="M0 0h1010.268v714.33H0z"/></g><g id="u" mask="url(#cu)"><use xlink:href="#cv" transform="translate(634.189 466.528)"/></g><g id="v" filter="url(#cw)"><path d="M0 0h1010.268v714.331H0z"/></g><g id="w" filter="url(#cx)" mask="url(#cy)"><path d="M0 0h1010.268v714.331H0z"/></g><g id="x" mask="url(#cz)"><use xlink:href="#v"/></g><g id="cG" clip-path="url(#cA)"><g fill="#fff" clip-path="url(#cB)"><path d="M72.375 45.434h-88.422c-6.344 0-11.504-5.16-11.504-11.5v-88.422c0-6.344 5.16-11.504 11.504-11.504H83.88v99.926c0 6.34-5.164 11.5-11.504 11.5"/><path d="M72.375 45.965h-88.422c-6.344 0-11.504-5.16-11.504-11.504v-88.418c0-6.344 5.16-11.504 11.504-11.504H83.88v99.922c0 6.344-5.164 11.504-11.504 11.504"/></g><path fill="#ec1d27" d="M7.535 29.227V11.16a.42.42 0 0 0-.695-.316l-2.516.93a.42.42 0 0 1-.695-.32v-4.99a.43.43 0 0 1 .144-.316l3.641-1.906a.43.43 0 0 1 .277-.105h5.301c.23 0 .418.191.418.422v24.668a.42.42 0 0 1-.418.421H7.953a.42.42 0 0 1-.418-.421M16.563 29.227v-4.715c0-.11.039-.211.109-.285l9.137-9.914c.93-1.004 1.289-1.649 1.289-2.723 0-1.399-.79-2.363-2.293-2.363-1 0-2.184.43-2.348 2.07a.43.43 0 0 1-.418.402h-5.043a.42.42 0 0 1-.422-.437c.211-4.739 3.918-7.34 8.23-7.34 4.727 0 8.169 2.902 8.169 7.703 0 2.688-1.11 4.121-3.153 6.27l-5.422 5.742a.419.419 0 0 0 .305.707h7.848c.234 0 .422.191.422.422v4.46a.42.42 0 0 1-.422.422H16.98a.42.42 0 0 1-.419-.421M42.7 29.863c-4.122 0-8.274-2.14-8.485-7.554a.427.427 0 0 1 .426-.438h5.043c.222 0 .394.18.418.402.16 1.524 1.242 2.29 2.597 2.29 1.54 0 2.614-.899 2.614-2.723 0-1.543-1.145-2.692-2.723-2.692h-.824v-5.085h.824c1.754 0 2.437-1.254 2.437-2.399 0-1.613-1.113-2.437-2.328-2.437-1.117 0-2.144.722-2.308 2.027-.024.207-.184.371-.395.371H34.93a.424.424 0 0 1-.426-.437c.215-4.54 3.785-7.266 8.195-7.266 4.727 0 8.203 3.152 8.203 7.562 0 2.457-1.054 3.809-2.187 4.657a.412.412 0 0 0-.008.656c1.254.984 2.48 2.504 2.48 5.219 0 5.34-4.011 7.847-8.488 7.847"/><g clip-path="url(#cC)"><path fill="#f9df27" d="M-16.52-61.762c-4.078 0-7.398 3.317-7.398 7.399V35c0 4.082 3.32 7.398 7.398 7.398h89.368c4.078 0 7.398-3.316 7.398-7.398v-96.762Zm100.993-4.23V35c0 6.41-5.215 11.629-11.625 11.629H-16.52c-6.41 0-11.625-5.219-11.625-11.629v-89.363c0-6.41 5.215-11.63 11.625-11.63"/></g></g><g id="cD"><path fill-opacity="0" d="M0 0h1010.268v714.33H0z"/><path fill="#fff" d="M0 0h1010.268v714.33H0z"/></g><g id="y" mask="url(#cF)"><use xlink:href="#cG" transform="translate(694.189 545.528)"/></g><g id="z" filter="url(#cH)"><path d="M0 0h1010.268v714.331H0z"/></g><g id="A" filter="url(#cI)" mask="url(#cJ)"><path d="M0 0h1010.268v714.331H0z"/></g><g id="B" mask="url(#cK)"><use xlink:href="#z"/></g><g id="cR" clip-path="url(#cL)"><g fill="#fff" clip-path="url(#cM)"><path d="M-10.398 72.008V-16.41c0-6.344 5.16-11.504 11.5-11.504h88.421c6.344 0 11.504 5.16 11.504 11.504v99.922H1.102c-6.34 0-11.5-5.16-11.5-11.504"/><path d="M-10.93 72.008V-16.41c0-6.344 5.16-11.504 11.504-11.504h88.418c6.344 0 11.504 5.16 11.504 11.504v99.922H.574c-6.344 0-11.504-5.16-11.504-11.504"/></g><path fill="#ec1d27" d="M5.809 7.172h18.066a.42.42 0 0 0 .316-.695l-.93-2.516a.42.42 0 0 1 .321-.695h4.988a.43.43 0 0 1 .317.144l1.91 3.64a.45.45 0 0 1 .101.278v5.297a.42.42 0 0 1-.421.422H5.809a.42.42 0 0 1-.422-.422V7.59a.42.42 0 0 1 .422-.418M5.809 16.2h4.718a.4.4 0 0 1 .282.109l9.914 9.132c1.004.934 1.648 1.29 2.722 1.29 1.399 0 2.364-.786 2.364-2.29 0-1-.43-2.183-2.07-2.347-.223-.024-.403-.196-.403-.418v-5.043c0-.238.2-.434.437-.426 4.743.215 7.34 3.918 7.34 8.234 0 4.727-2.902 8.168-7.703 8.168-2.687 0-4.12-1.113-6.27-3.152l-5.742-5.426a.42.42 0 0 0-.707.309v7.848c0 .23-.191.421-.421.421H5.809a.423.423 0 0 1-.422-.422v-15.57a.42.42 0 0 1 .422-.418M5.172 42.332c0-4.117 2.14-8.27 7.555-8.484a.43.43 0 0 1 .437.425v5.047c0 .223-.18.395-.398.418-1.528.157-2.293 1.239-2.293 2.594 0 1.543.898 2.617 2.722 2.617 1.543 0 2.692-1.148 2.692-2.722v-.825h5.086v.825c0 1.753 1.254 2.433 2.398 2.433 1.613 0 2.438-1.11 2.438-2.328 0-1.117-.723-2.14-2.028-2.305-.207-.027-.37-.187-.37-.394v-5.067c0-.242.198-.437.437-.43 4.539.22 7.265 3.786 7.265 8.196 0 4.73-3.152 8.207-7.562 8.207-2.457 0-3.809-1.055-4.656-2.187a.412.412 0 0 0-.657-.008c-.984 1.254-2.504 2.48-5.218 2.48-5.34 0-7.848-4.011-7.848-8.492"/><g clip-path="url(#cN)"><path fill="#f9df27" d="M96.797-16.883c0-4.078-3.317-7.398-7.399-7.398H.035c-4.082 0-7.398 3.32-7.398 7.398V72.48c0 4.082 3.316 7.403 7.398 7.403h96.762Zm4.23 100.992H.035c-6.41 0-11.625-5.214-11.625-11.629v-89.363c0-6.41 5.215-11.629 11.625-11.629h89.363c6.415 0 11.63 5.219 11.63 11.63"/></g></g><g id="cO"><path fill-opacity="0" d="M0 0h1010.268v714.33H0z"/><path fill="#fff" d="M0 0h1010.268v714.33H0z"/></g><g id="C" mask="url(#cQ)"><use xlink:href="#cR" transform="translate(771.189 464.528)"/></g><g id="D" filter="url(#cS)"><path d="M0 0h1010.268v714.331H0z"/></g><g id="E" filter="url(#cT)" mask="url(#cU)"><path d="M0 0h1010.268v714.331H0z"/></g><g id="F" mask="url(#cV)"><use xlink:href="#D"/></g><clipPath id="I"><path d="M1.043.453h57.473V38.11H1.043Zm0 0"/></clipPath><clipPath id="J"><path d="M1.043 3H13v31H1.043Zm0 0"/></clipPath><clipPath id="K"><path d="M1.043.453h57.473V38.11H1.043Zm0 0"/></clipPath><clipPath id="H"><path d="M0 0h59v39H0z"/></clipPath><clipPath id="bs"><path d="M1.043 1.305h57.473V38.96H1.043Zm0 0"/></clipPath><clipPath id="bt"><path d="M1.043 4H13v31H1.043Zm0 0"/></clipPath><clipPath id="bu"><path d="M1.043 1.305h57.473V38.96H1.043Zm0 0"/></clipPath><clipPath id="br"><path d="M0 0h59v40H0z"/></clipPath><clipPath id="bE"><path d="M.574.555H38.23v57.472H.574Zm0 0"/></clipPath><clipPath id="bF"><path d="M9 58h25v.027H9Zm0 0"/></clipPath><clipPath id="bG"><path d="M.574.555H38.23v57.472H.574Zm0 0"/></clipPath><clipPath id="bD"><path d="M0 0h39v59H0z"/></clipPath><clipPath id="bQ"><path d="M.54.555H38.19v57.472H.54Zm0 0"/></clipPath><clipPath id="bR"><path d="M5 .555h31V13H5Zm0 0"/></clipPath><clipPath id="bS"><path d="M4 .555h26V1H4Zm0 0"/></clipPath><clipPath id="bT"><path d="M.54.555H38.19v57.472H.54Zm0 0"/></clipPath><clipPath id="bP"><path d="M0 0h39v59H0z"/></clipPath><clipPath id="ck"><path d="M511.719 202.434h248.453V265.3H511.719Zm0 0"/></clipPath><clipPath id="cl"><path d="M511.719 202.434h248.453V265.3H511.719Zm0 0"/></clipPath><clipPath id="cd"><path d="M1.074.652h53.793v33.27H1.074Zm0 0"/></clipPath><clipPath id="ce"><path d="M1.074.652h53.797v33.27H1.074Zm0 0"/></clipPath><clipPath id="cc"><path d="M0 0h56v35H0z"/></clipPath><clipPath id="cq"><path d="M1.055 1.191H34.32v53.79H1.055Zm0 0"/></clipPath><clipPath id="cr"><path d="M1.055 1.188H34.32V54.98H1.055Zm0 0"/></clipPath><clipPath id="cp"><path d="M0 0h35v56H0z"/></clipPath><clipPath id="cB"><path d="M1.074 1.25h53.793v33.266H1.074Zm0 0"/></clipPath><clipPath id="cC"><path d="M1.074 1.25h53.797v33.266H1.074Zm0 0"/></clipPath><clipPath id="cA"><path d="M0 0h56v35H0z"/></clipPath><clipPath id="cM"><path d="M.52.71h33.265v53.794H.52Zm0 0"/></clipPath><clipPath id="cN"><path d="M.52.71h33.265v53.794H.52Zm0 0"/></clipPath><clipPath id="cL"><path d="M0 0h35v55H0z"/></clipPath><clipPath id="cX"><path d="M580 378.25h112V489H580Zm0 0"/></clipPath><clipPath id="cY"><path d="M580 378.25h112V490H580Zm0 0"/></clipPath><clipPath id="cZ"><path d="M579.445 378.25h112.621v111.91h-112.62Zm0 0"/></clipPath><mask id="N"><g filter="url(#G)"><path fill-opacity=".1" d="M-84.189-59.528H926.079v714.331H-84.189z"/></g></mask><mask id="bp"><use xlink:href="#L"/></mask><mask id="bq"><use xlink:href="#L" filter="url(#M)"/></mask><mask id="O"><g mask="url(#N)" transform="translate(84.189 59.528)"><path fill="#fff" d="M-84.189-59.528H926.079v714.331H-84.189z"/></g></mask><mask id="bw"><g filter="url(#G)"><path fill-opacity=".1" d="M-84.189-59.528H926.079v714.331H-84.189z"/></g></mask><mask id="bB"><use xlink:href="#bv"/></mask><mask id="bC"><use xlink:href="#bv" filter="url(#M)"/></mask><mask id="bx"><g mask="url(#bw)" transform="translate(84.189 59.528)"><path fill="#fff" d="M-84.189-59.528H926.079v714.331H-84.189z"/></g></mask><mask id="bI"><g filter="url(#G)"><path fill-opacity=".1" d="M-84.189-59.528H926.079v714.331H-84.189z"/></g></mask><mask id="bN"><use xlink:href="#bH"/></mask><mask id="bO"><use xlink:href="#bH" filter="url(#M)"/></mask><mask id="bJ"><g mask="url(#bI)" transform="translate(84.189 59.528)"><path fill="#fff" d="M-84.189-59.528H926.079v714.331H-84.189z"/></g></mask><mask id="bV"><g filter="url(#G)"><path fill-opacity=".1" d="M-84.189-59.528H926.079v714.331H-84.189z"/></g></mask><mask id="ca"><use xlink:href="#bU"/></mask><mask id="cb"><use xlink:href="#bU" filter="url(#M)"/></mask><mask id="bW"><g mask="url(#bV)" transform="translate(84.189 59.528)"><path fill="#fff" d="M-84.189-59.528H926.079v714.331H-84.189z"/></g></mask><mask id="cg"><g filter="url(#G)"><path fill-opacity=".1" d="M-84.189-59.528H926.079v714.331H-84.189z"/></g></mask><mask id="cn"><use xlink:href="#cf"/></mask><mask id="co"><use xlink:href="#cf" filter="url(#M)"/></mask><mask id="ch"><g mask="url(#cg)" transform="translate(84.189 59.528)"><path fill="#fff" d="M-84.189-59.528H926.079v714.331H-84.189z"/></g></mask><mask id="ct"><g filter="url(#G)"><path fill-opacity=".1" d="M-84.189-59.528H926.079v714.331H-84.189z"/></g></mask><mask id="cy"><use xlink:href="#cs"/></mask><mask id="cz"><use xlink:href="#cs" filter="url(#M)"/></mask><mask id="cu"><g mask="url(#ct)" transform="translate(84.189 59.528)"><path fill="#fff" d="M-84.189-59.528H926.079v714.331H-84.189z"/></g></mask><mask id="cE"><g filter="url(#G)"><path fill-opacity=".1" d="M-84.189-59.528H926.079v714.331H-84.189z"/></g></mask><mask id="cJ"><use xlink:href="#cD"/></mask><mask id="cK"><use xlink:href="#cD" filter="url(#M)"/></mask><mask id="cF"><g mask="url(#cE)" transform="translate(84.189 59.528)"><path fill="#fff" d="M-84.189-59.528H926.079v714.331H-84.189z"/></g></mask><mask id="cP"><g filter="url(#G)"><path fill-opacity=".1" d="M-84.189-59.528H926.079v714.331H-84.189z"/></g></mask><mask id="cU"><use xlink:href="#cO"/></mask><mask id="cV"><use xlink:href="#cO" filter="url(#M)"/></mask><mask id="cQ"><g mask="url(#cP)" transform="translate(84.189 59.528)"><path fill="#fff" d="M-84.189-59.528H926.079v714.331H-84.189z"/></g></mask><filter id="G" width="100%" height="100%" x="0%" y="0%"><feColorMatrix color-interpolation-filters="sRGB" values="0 0 0 0 1 0 0 0 0 1 0 0 0 0 1 0 0 0 1 0"/></filter><filter id="M" width="100%" height="100%" x="0%" y="0%"><feColorMatrix color-interpolation-filters="sRGB" values="0 0 0 0 1 0 0 0 0 1 0 0 0 0 1 0 0 0 -1 1"/></filter><filter id="bo" width="100%" height="100%" x="0%" y="0%"><feImage xlink:href="#a" width="1010.268" height="714.331" x="0" y="0" result="source"/><feImage xlink:href="#b" width="1010.268" height="714.331" x="0" y="0" result="destination"/><feBlend color-interpolation-filters="sRGB" in="source" in2="destination" mode="multiply"/></filter><filter id="bz" width="100%" height="100%" x="0%" y="0%"><feImage xlink:href="#c" width="1010.268" height="714.331" x="0" y="0" result="source"/><feImage xlink:href="#d" width="1010.268" height="714.331" x="0" y="0" result="destination"/><feComposite color-interpolation-filters="sRGB" in="source" in2="destination" k2="1" k3="1" operator="arithmetic"/></filter><filter id="bA" width="100%" height="100%" x="0%" y="0%"><feImage xlink:href="#e" width="1010.268" height="714.331" x="0" y="0" result="source"/><feImage xlink:href="#f" width="1010.268" height="714.331" x="0" y="0" result="destination"/><feBlend color-interpolation-filters="sRGB" in="source" in2="destination" mode="multiply"/></filter><filter id="bL" width="100%" height="100%" x="0%" y="0%"><feImage xlink:href="#g" width="1010.268" height="714.331" x="0" y="0" result="source"/><feImage xlink:href="#h" width="1010.268" height="714.331" x="0" y="0" result="destination"/><feComposite color-interpolation-filters="sRGB" in="source" in2="destination" k2="1" k3="1" operator="arithmetic"/></filter><filter id="bM" width="100%" height="100%" x="0%" y="0%"><feImage xlink:href="#i" width="1010.268" height="714.331" x="0" y="0" result="source"/><feImage xlink:href="#j" width="1010.268" height="714.331" x="0" y="0" result="destination"/><feBlend color-interpolation-filters="sRGB" in="source" in2="destination" mode="multiply"/></filter><filter id="bY" width="100%" height="100%" x="0%" y="0%"><feImage xlink:href="#k" width="1010.268" height="714.331" x="0" y="0" result="source"/><feImage xlink:href="#l" width="1010.268" height="714.331" x="0" y="0" result="destination"/><feComposite color-interpolation-filters="sRGB" in="source" in2="destination" k2="1" k3="1" operator="arithmetic"/></filter><filter id="bZ" width="100%" height="100%" x="0%" y="0%"><feImage xlink:href="#m" width="1010.268" height="714.331" x="0" y="0" result="source"/><feImage xlink:href="#n" width="1010.268" height="714.331" x="0" y="0" result="destination"/><feBlend color-interpolation-filters="sRGB" in="source" in2="destination" mode="multiply"/></filter><filter id="cj" width="100%" height="100%" x="0%" y="0%"><feImage xlink:href="#o" width="1010.268" height="714.331" x="0" y="0" result="source"/><feImage xlink:href="#p" width="1010.268" height="714.331" x="0" y="0" result="destination"/><feComposite color-interpolation-filters="sRGB" in="source" in2="destination" k2="1" k3="1" operator="arithmetic"/></filter><filter id="cm" width="100%" height="100%" x="0%" y="0%"><feImage xlink:href="#q" width="1010.268" height="714.331" x="0" y="0" result="source"/><feImage xlink:href="#r" width="1010.268" height="714.331" x="0" y="0" result="destination"/><feBlend color-interpolation-filters="sRGB" in="source" in2="destination" mode="multiply"/></filter><filter id="cw" width="100%" height="100%" x="0%" y="0%"><feImage xlink:href="#s" width="1010.268" height="714.331" x="0" y="0" result="source"/><feImage xlink:href="#t" width="1010.268" height="714.331" x="0" y="0" result="destination"/><feComposite color-interpolation-filters="sRGB" in="source" in2="destination" k2="1" k3="1" operator="arithmetic"/></filter><filter id="cx" width="100%" height="100%" x="0%" y="0%"><feImage xlink:href="#u" width="1010.268" height="714.331" x="0" y="0" result="source"/><feImage xlink:href="#v" width="1010.268" height="714.331" x="0" y="0" result="destination"/><feBlend color-interpolation-filters="sRGB" in="source" in2="destination" mode="multiply"/></filter><filter id="cH" width="100%" height="100%" x="0%" y="0%"><feImage xlink:href="#w" width="1010.268" height="714.331" x="0" y="0" result="source"/><feImage xlink:href="#x" width="1010.268" height="714.331" x="0" y="0" result="destination"/><feComposite color-interpolation-filters="sRGB" in="source" in2="destination" k2="1" k3="1" operator="arithmetic"/></filter><filter id="cI" width="100%" height="100%" x="0%" y="0%"><feImage xlink:href="#y" width="1010.268" height="714.331" x="0" y="0" result="source"/><feImage xlink:href="#z" width="1010.268" height="714.331" x="0" y="0" result="destination"/><feBlend color-interpolation-filters="sRGB" in="source" in2="destination" mode="multiply"/></filter><filter id="cS" width="100%" height="100%" x="0%" y="0%"><feImage xlink:href="#A" width="1010.268" height="714.331" x="0" y="0" result="source"/><feImage xlink:href="#B" width="1010.268" height="714.331" x="0" y="0" result="destination"/><feComposite color-interpolation-filters="sRGB" in="source" in2="destination" k2="1" k3="1" operator="arithmetic"/></filter><filter id="cT" width="100%" height="100%" x="0%" y="0%"><feImage xlink:href="#C" width="1010.268" height="714.331" x="0" y="0" result="source"/><feImage xlink:href="#D" width="1010.268" height="714.331" x="0" y="0" result="destination"/><feBlend color-interpolation-filters="sRGB" in="source" in2="destination" mode="multiply"/></filter><filter id="cW" width="100%" height="100%" x="0%" y="0%"><feImage xlink:href="#E" width="1010.268" height="714.331" x="0" y="0" result="source"/><feImage xlink:href="#F" width="1010.268" height="714.331" x="0" y="0" result="destination"/><feComposite color-interpolation-filters="sRGB" in="source" in2="destination" k2="1" k3="1" operator="arithmetic"/></filter></defs><g filter="url(#cW)" transform="translate(-84.189 -59.528)"><path d="M0 0h1010.268v714.331H0z"/></g><g clip-path="url(#cX)"><path fill="#fff" d="M679.965 488.969h-88.418c-6.344 0-11.504-5.164-11.504-11.504v-88.422c0-6.34 5.16-11.504 11.504-11.504h99.922v99.926c0 6.34-5.16 11.504-11.504 11.504"/></g><g clip-path="url(#cY)"><path fill="#fff" d="M679.965 489.496h-88.418c-6.344 0-11.504-5.16-11.504-11.5v-88.422c0-6.344 5.16-11.504 11.504-11.504h99.922v99.926c0 6.34-5.16 11.5-11.504 11.5"/></g><path fill="#ec1d27" d="M615.129 472.762v-18.07a.42.42 0 0 0-.695-.317l-2.516.93a.42.42 0 0 1-.695-.317v-4.992a.43.43 0 0 1 .144-.316l3.64-1.907a.43.43 0 0 1 .278-.105h5.3c.231 0 .419.191.419.422v24.672c0 .23-.188.418-.418.418h-5.04a.42.42 0 0 1-.417-.418M624.156 472.762v-4.719c0-.106.04-.207.11-.285l9.132-9.914c.934-1 1.293-1.649 1.293-2.723 0-1.394-.789-2.363-2.293-2.363-1 0-2.183.433-2.347 2.07-.024.223-.196.402-.418.402h-5.043a.42.42 0 0 1-.422-.437c.21-4.738 3.918-7.34 8.23-7.34 4.727 0 8.168 2.902 8.168 7.707 0 2.684-1.109 4.117-3.152 6.27l-5.422 5.738a.421.421 0 0 0 .305.71h7.848a.42.42 0 0 1 .421.419v4.465a.42.42 0 0 1-.421.418h-15.57a.42.42 0 0 1-.419-.418M650.29 473.395c-4.118 0-8.27-2.141-8.481-7.551a.424.424 0 0 1 .425-.438h5.043c.223 0 .395.176.418.399.16 1.523 1.242 2.289 2.594 2.289 1.543 0 2.617-.899 2.617-2.723 0-1.543-1.144-2.687-2.722-2.687h-.825v-5.09h.825c1.754 0 2.433-1.254 2.433-2.399 0-1.613-1.11-2.437-2.328-2.437-1.113 0-2.14.722-2.305 2.027-.027.211-.183.375-.394.375h-5.067a.43.43 0 0 1-.425-.441c.215-4.54 3.785-7.266 8.191-7.266 4.73 0 8.207 3.156 8.207 7.563 0 2.457-1.055 3.808-2.187 4.66a.412.412 0 0 0-.008.656c1.254.98 2.48 2.5 2.48 5.219 0 5.336-4.011 7.844-8.492 7.844"/><path fill="#46464a" d="M611.848 435.496h-3.16c-1.22 0-1.981.684-1.981 1.637 0 .914.684 1.715 2.055 1.715 1.222 0 1.793-.114 2.476-.762.457-.418.61-1.066.61-2.055Zm.601 8.227c-.25 0-.449-.2-.449-.446v-1.23c-1.258 1.258-2.398 1.867-4.57 1.867-2.055 0-3.77-.684-4.914-1.828-1.18-1.18-1.79-2.895-1.79-4.8 0-3.087 2.094-5.942 6.97-5.942h4.152v-.531c0-1.868-.914-2.555-3.086-2.555-1.434 0-2.13.308-2.973 1.082a.44.44 0 0 1-.61-.02l-3.253-3.25a.454.454 0 0 1 .011-.648c1.965-1.84 3.848-2.418 7.13-2.418 5.867 0 9.03 2.437 9.03 7.426v12.847a.45.45 0 0 1-.449.446ZM631.11 443.723a.445.445 0 0 1-.446-.446v-1.23c-1.258 1.258-3.121 1.906-4.762 1.906-1.941 0-3.504-.648-4.609-1.754-1.75-1.75-2.055-3.695-2.055-5.863v-12.66c0-.246.2-.446.446-.446h5.355c.246 0 .445.2.445.446v11.82c0 2.36 1.676 2.82 2.512 2.82.84 0 2.516-.46 2.516-2.82v-11.82c0-.246.199-.446.449-.446h5.351c.247 0 .446.2.446.446v19.601c0 .246-.2.446-.446.446ZM646.016 443.723c-4.536 0-6.364-3.239-6.364-6.055v-9.637h-1.418c-.25 0-.449-.199-.449-.449v-3.906c0-.246.2-.446.45-.446h1.417v-4.617c0-.25.2-.449.446-.449h5.355c.246 0 .45.2.45.45v4.616h2.788c.246 0 .446.2.446.446v3.906c0 .25-.2.45-.446.45h-2.789v9.179c0 .8.418 1.254 1.254 1.254h1.535c.246 0 .446.203.446.45v4.362c0 .246-.2.446-.446.446ZM660.527 429.21c-.382-.382-.914-.57-1.68-.57-.757 0-1.292.188-1.675.57-.797.802-.914 2.247-.914 4.267s.117 3.468.914 4.265c.383.383.918.574 1.676.574.765 0 1.297-.191 1.68-.574.796-.797.91-2.246.91-4.265 0-2.02-.114-3.465-.91-4.266m4.91 12.113c-1.22 1.293-3.274 2.63-6.59 2.63-3.313 0-5.368-1.337-6.59-2.63-1.711-1.867-2.246-3.808-2.246-7.847 0-4 .535-5.98 2.246-7.848 1.222-1.293 3.277-2.625 6.59-2.625 3.316 0 5.37 1.332 6.59 2.625 1.714 1.867 2.25 3.848 2.25 7.848 0 4.039-.536 5.98-2.25 7.847M610.71 401.145c-.378-.875-1.218-1.602-2.702-1.602-1.485 0-2.324.727-2.703 1.602a3.2 3.2 0 0 0-.317 1.109.445.445 0 0 0 .446.492h5.148c.266 0 .477-.23.445-.492a3.2 3.2 0 0 0-.316-1.11m-5.262 5.75a.457.457 0 0 0-.445.536c.246 1.453 1.5 2.664 3.574 2.664 1.965 0 2.93-.496 3.914-1.406a.447.447 0 0 1 .625.003l3.102 3.102a.45.45 0 0 1-.008.64c-1.984 1.891-4.02 2.919-7.633 2.919-4.531 0-9.75-1.637-9.75-10.477 0-6.703 3.809-10.473 9.18-10.473 5.941 0 9.219 4.344 9.219 9.715v2.332c0 .246-.2.446-.446.446ZM628.54 406.895h-3.165c-1.219 0-1.98.687-1.98 1.64 0 .914.687 1.711 2.058 1.711 1.219 0 1.79-.113 2.477-.762.457-.418.61-1.066.61-2.054Zm.597 8.23a.45.45 0 0 1-.446-.45v-1.226c-1.257 1.254-2.402 1.863-4.574 1.863-2.054 0-3.77-.683-4.91-1.828-1.184-1.18-1.793-2.894-1.793-4.796 0-3.086 2.098-5.942 6.973-5.942h4.152v-.535c0-1.867-.914-2.55-3.086-2.55-1.433 0-2.133.304-2.976 1.077a.44.44 0 0 1-.61-.02l-3.25-3.25a.45.45 0 0 1 .008-.644c1.969-1.84 3.852-2.422 7.133-2.422 5.863 0 9.027 2.438 9.027 7.43v12.844c0 .246-.2.449-.445.449ZM644.191 415.352c-2.964 0-5.855-.141-8.578-2.649a.454.454 0 0 1-.008-.648l3.41-3.41a.45.45 0 0 1 .614-.012c1.664 1.426 3.676 1.426 4.676 1.426.914 0 2.668-.27 2.668-1.336 0-.57-.266-1.18-1.485-1.293l-3.164-.305c-3.543-.344-5.941-1.945-5.941-5.941 0-4.536 4.078-6.782 8.152-6.782 3.164 0 5.754.442 7.735 2.192a.455.455 0 0 1 .007.652l-3.222 3.223c-.164.168-.418.164-.606.02-1.043-.79-2.582-.946-4.027-.946-1.527 0-2.02.727-2.02 1.184 0 .226-.078.988 1.332 1.14l3.164.305c4.301.418 6.168 2.973 6.168 6.246 0 4.84-4.113 6.934-8.875 6.934M664.281 416.387c-.422 1.18-.953 2.054-1.601 2.703-1.22 1.297-3.082 1.715-4.91 1.715h-1.915c-.25 0-.449-.2-.449-.446v-4.746c0-.246.2-.445.45-.445h.886c1.102 0 2.133-.57 2.594-1.723 0 0 .101-.215 0-.484l-6.54-17.723a.445.445 0 0 1 .419-.601h5.586a.45.45 0 0 1 .426.304l2.93 8.989c.136.414.722.41.85-.004l2.802-8.977a.44.44 0 0 1 .425-.312h5.582c.313 0 .528.308.418.601Zm0 0"/><g clip-path="url(#cZ)"><path fill="#f9df27" d="M591.074 381.77c-4.078 0-7.398 3.32-7.398 7.398v89.367c0 4.078 3.32 7.395 7.398 7.395h89.367c4.079 0 7.399-3.317 7.399-7.395V381.77Zm100.992-4.227v100.992c0 6.41-5.214 11.625-11.625 11.625h-89.367c-6.41 0-11.625-5.215-11.625-11.625v-89.367c0-6.41 5.215-11.625 11.625-11.625"/></g></svg>