<svg xmlns="http://www.w3.org/2000/svg" xmlns:xlink="http://www.w3.org/1999/xlink" width="1122.52" height="793.701" viewBox="0 0 841.89 595.276"><rect width="100%" height="100%" fill="#fff"/><defs><path id="b" d="M47.375 0h16.39c1.22 0 2.157-.812 2.157-2.031v-15.156h8c1.219 0 2.156-.954 2.156-2.172v-12.86c0-1.218-.937-2.031-2.156-2.031h-8v-58.484c0-1.22-.813-2.032-2.031-2.032H46.844c-1.094 0-1.907.407-2.438 1.36L5.953-35.61c-.531 1.093-.672 1.765-.672 2.718v13.672c0 1.219.813 2.032 2.032 2.032h37.906v15.156c0 1.219.937 2.031 2.156 2.031M25.313-34.25l19.906-29.922v29.922Zm0 0"/><path id="c" d="M17.328 1.766c6.766 0 12.047-5.422 12.047-12.047 0-6.781-5.281-12.328-12.047-12.328-6.765 0-12.047 5.547-12.047 12.328 0 6.625 5.282 12.047 12.047 12.047m0 0"/><path id="e" d="M10.969 0h48.734c1.219 0 2.156-.812 2.156-2.031v-14.89c0-1.22-.937-2.032-2.156-2.032H30.328v-19.36h27.75c1.219 0 2.031-.812 2.031-2.03v-14.891c0-1.22-.812-2.032-2.03-2.032h-27.75v-18.546h29.5c1.218 0 2.03-.813 2.03-2.032v-14.89c0-1.22-.812-2.032-2.03-2.032h-48.86c-1.219 0-2.031.813-2.031 2.032v90.703C8.938-.812 9.75 0 10.968 0m0 0"/><path id="f" d="M9.61 0h16.515c1.219 0 2.172-.812 2.172-2.031v-33.985C28.297-44.53 31.812-49 38.172-49c6.64 0 9.61 4.594 9.61 12.984V-2.03c0 1.219.952 2.031 2.312 2.031h16.375C67.688 0 68.5-.812 68.5-2.031v-33.985C68.5-44.53 72.016-49 78.516-49c6.64 0 9.609 4.594 9.609 12.984V-2.03c0 1.219.953 2.031 2.172 2.031h16.375c1.219 0 2.172-.812 2.172-2.031V-40.75c0-17.187-8.797-27.203-23.156-27.203-10.016 0-16.641 4.734-20.297 11.36-3.797-7.438-10.297-11.36-18.688-11.36-8.797 0-14.89 4.469-18.547 10.687l-.547-6.906c0-1.625-.812-2.156-2.03-2.156H9.608c-1.218 0-2.03.812-2.03 2.031V-2.03C7.578-.812 8.39 0 9.608 0m0 0"/><path id="g" d="M35.328 1.625c9.484 0 16.25-3.797 20.719-10.156l.266 6.5c0 1.219.953 2.031 2.171 2.031h14.891c1.219 0 2.297-.812 2.297-2.031v-62.266c0-1.219-.938-2.031-2.156-2.031H58.484c-1.218 0-2.172.812-2.172 2.031l-.265 6.36c-4.328-6.235-10.969-10.016-20.719-10.016-18.406 0-31.125 15.156-31.125 34.781 0 19.766 12.719 34.797 31.125 34.797m4.469-18.812c-8.797 0-15.422-6.235-15.422-15.985 0-9.61 6.625-15.969 15.422-15.969 9.078 0 15.297 6.36 15.297 15.844 0 9.734-6.219 16.11-15.297 16.11m0 0"/><path id="h" d="M18.14-76.89c6.5 0 11.235-5.016 11.235-11.376 0-6.218-4.734-11.234-11.234-11.234S6.766-94.484 6.766-88.266c0 6.36 4.875 11.375 11.375 11.375M9.75 0h16.781c1.219 0 2.032-.812 2.032-2.031v-62.266c0-1.219-.813-2.031-2.032-2.031H9.75c-1.219 0-2.031.812-2.031 2.031V-2.03C7.719-.812 8.53 0 9.75 0m0 0"/><path id="i" d="M9.61 0h16.656c1.218 0 2.156-.812 2.156-2.031v-92.735c0-1.218-.938-2.03-2.156-2.03H9.609c-1.218 0-2.03.812-2.03 2.03V-2.03C7.578-.812 8.39 0 9.608 0m0 0"/><clipPath id="a"><path d="M.457 0h840.867v594.555H.457Zm0 0"/></clipPath><clipPath id="j"><path d="M36.43 35.957h248.453v62.867H36.43Zm0 0"/></clipPath><clipPath id="k"><path d="M36.43 35.957h248.453v62.867H36.43Zm0 0"/></clipPath></defs><path fill="#ffde3f" d="M1.07 593.941h839.64V.613H1.07Zm0 0"/><g clip-path="url(#a)"><path fill="none" stroke="#ffde3f" stroke-width="1.22451654" d="M1.07 593.941h839.64V.613H1.07Zm0 0"/></g><use xlink:href="#b" x="346.452" y="529.44" fill="#46464a"/><use xlink:href="#c" x="425.687" y="529.44" fill="#46464a"/><g fill="#46464a"><use xlink:href="#d" x="457.636" y="529.44"/><use xlink:href="#e" x="481.191" y="529.44"/></g><g fill="#46464a"><use xlink:href="#f" x="546.997" y="529.44"/><use xlink:href="#g" x="658.817" y="529.44"/></g><g fill="#46464a"><use xlink:href="#h" x="737.646" y="529.44"/><use xlink:href="#i" x="769.459" y="529.44"/></g><g clip-path="url(#j)"><path fill="#f9df27" d="M271.945 98.824H49.348c-7.133 0-12.934-5.8-12.934-12.933V48.895c0-7.133 5.8-12.938 12.934-12.938h235.535v49.934c0 7.132-5.801 12.933-12.938 12.933"/></g><path fill="#ec1d27" d="M219.629 79.527V58.234a.494.494 0 0 0-.82-.37l-2.961 1.093a.496.496 0 0 1-.82-.375v-5.879c0-.14.066-.277.171-.371l4.293-2.25a.5.5 0 0 1 .324-.121h6.243c.273 0 .496.223.496.496v29.07a.497.497 0 0 1-.496.496h-5.934a.497.497 0 0 1-.496-.496M230.27 79.527V73.97c0-.125.046-.246.132-.336l10.762-11.68c1.098-1.183 1.52-1.941 1.52-3.21 0-1.645-.93-2.786-2.704-2.786-1.175 0-2.57.508-2.765 2.441a.505.505 0 0 1-.492.473h-5.942a.5.5 0 0 1-.5-.516c.254-5.585 4.617-8.648 9.7-8.648 5.574 0 9.628 3.422 9.628 9.078 0 3.168-1.308 4.856-3.718 7.39l-6.387 6.763a.496.496 0 0 0 .36.835h9.25c.273 0 .495.223.495.497v5.257a.497.497 0 0 1-.496.496h-18.347a.497.497 0 0 1-.496-.496M261.066 80.277c-4.851 0-9.746-2.527-9.996-8.902a.504.504 0 0 1 .5-.516h5.946c.265 0 .464.211.492.473.187 1.797 1.46 2.695 3.058 2.695 1.817 0 3.086-1.054 3.086-3.207 0-1.816-1.351-3.168-3.21-3.168h-.973v-5.996h.972c2.07 0 2.872-1.476 2.872-2.828 0-1.902-1.31-2.871-2.747-2.871-1.316 0-2.523.852-2.714 2.39-.032.247-.22.438-.465.438h-5.973a.506.506 0 0 1-.504-.52c.258-5.347 4.461-8.558 9.656-8.558 5.575 0 9.672 3.715 9.672 8.91 0 2.899-1.242 4.488-2.578 5.488a.483.483 0 0 0-.008.774c1.477 1.16 2.922 2.95 2.922 6.152 0 6.29-4.726 9.246-10.008 9.246"/><path fill="#46464a" d="M64.164 63.535c-.45-1.035-1.437-1.887-3.187-1.887s-2.739.852-3.188 1.887a3.9 3.9 0 0 0-.375 1.305.53.53 0 0 0 .527.578h6.067c.312 0 .562-.27.527-.578a3.9 3.9 0 0 0-.37-1.305m-6.204 6.778c-.332 0-.578.3-.523.628.289 1.711 1.769 3.141 4.21 3.141 2.313 0 3.454-.586 4.61-1.66a.53.53 0 0 1 .738.008l3.656 3.652a.533.533 0 0 1-.007.758c-2.344 2.226-4.743 3.437-8.997 3.437-5.34 0-11.492-1.93-11.492-12.343 0-7.903 4.489-12.344 10.82-12.344 7 0 10.864 5.117 10.864 11.445v2.75a.53.53 0 0 1-.528.528ZM85.168 70.313h-3.727c-1.433 0-2.332.808-2.332 1.93 0 1.077.809 2.019 2.422 2.019 1.438 0 2.11-.133 2.918-.899.54-.492.719-1.258.719-2.422Zm.707 9.695a.53.53 0 0 1-.527-.528v-1.449c-1.48 1.48-2.828 2.2-5.387 2.2-2.422 0-4.441-.81-5.79-2.153-1.39-1.39-2.109-3.414-2.109-5.656 0-3.637 2.47-7.004 8.215-7.004h4.891v-.629c0-2.2-1.074-3.008-3.637-3.008-1.687 0-2.511.364-3.504 1.278a.52.52 0 0 1-.718-.024l-3.832-3.832a.53.53 0 0 1 .011-.762c2.32-2.168 4.535-2.851 8.407-2.851 6.91 0 10.636 2.87 10.636 8.754V79.48c0 .29-.234.528-.527.528ZM103.617 80.277c-3.492 0-6.902-.168-10.11-3.12a.54.54 0 0 1-.01-.766l4.019-4.02c.199-.2.511-.195.726-.012 1.957 1.68 4.328 1.68 5.508 1.68 1.078 0 3.145-.316 3.145-1.574 0-.672-.317-1.39-1.75-1.524l-3.727-.359c-4.176-.406-7.004-2.289-7.004-7.004 0-5.34 4.805-7.988 9.606-7.988 3.73 0 6.78.52 9.113 2.582.226.2.226.555.015.77l-3.796 3.796c-.2.196-.5.192-.72.024-1.226-.93-3.042-1.114-4.745-1.114-1.797 0-2.38.852-2.38 1.391 0 .27-.089 1.168 1.571 1.348l3.727.36c5.07.491 7.27 3.5 7.27 7.358 0 5.704-4.848 8.172-10.458 8.172M148.637 70.313h-3.727c-1.433 0-2.332.808-2.332 1.93 0 1.077.809 2.019 2.422 2.019 1.438 0 2.11-.133 2.918-.899.539-.492.719-1.258.719-2.422Zm.707 9.695a.53.53 0 0 1-.528-.528v-1.449c-1.48 1.48-2.828 2.2-5.386 2.2-2.426 0-4.446-.81-5.79-2.153-1.39-1.39-2.109-3.414-2.109-5.656 0-3.637 2.469-7.004 8.215-7.004h4.89v-.629c0-2.2-1.077-3.008-3.636-3.008-1.687 0-2.512.364-3.504 1.278a.52.52 0 0 1-.719-.024l-3.832-3.832a.53.53 0 0 1 .012-.762c2.32-2.168 4.535-2.851 8.402-2.851 6.914 0 10.641 2.87 10.641 8.754V79.48a.53.53 0 0 1-.527.528ZM171.336 80.008a.524.524 0 0 1-.524-.528v-1.449c-1.484 1.485-3.683 2.246-5.613 2.246-2.289 0-4.129-.761-5.43-2.066-2.066-2.063-2.425-4.352-2.425-6.91V56.383c0-.29.234-.524.527-.524h6.309c.289 0 .527.235.527.524v13.93c0 2.78 1.973 3.32 2.961 3.32s2.96-.54 2.96-3.32v-13.93c0-.29.24-.524.528-.524h6.309c.293 0 .527.235.527.524V79.48a.525.525 0 0 1-.527.528ZM188.898 80.008c-5.34 0-7.496-3.817-7.496-7.137V61.516h-1.672a.53.53 0 0 1-.527-.528v-4.605c0-.29.234-.524.527-.524h1.672v-5.445c0-.289.235-.527.528-.527h6.308a.53.53 0 0 1 .528.527v5.445h3.289c.289 0 .527.235.527.524v4.605a.53.53 0 0 1-.527.528h-3.29v10.816c0 .941.493 1.48 1.481 1.48h1.809c.289 0 .527.235.527.528v5.14a.53.53 0 0 1-.527.528ZM206 62.906c-.45-.449-1.078-.676-1.977-.676-.894 0-1.523.227-1.972.676-.942.942-1.078 2.649-1.078 5.028s.136 4.082 1.078 5.027c.449.45 1.078.672 1.972.672.899 0 1.528-.223 1.977-.672.941-.945 1.078-2.648 1.078-5.027s-.137-4.086-1.078-5.028m5.79 14.274c-1.435 1.527-3.86 3.097-7.767 3.097-3.902 0-6.328-1.57-7.761-3.097-2.024-2.2-2.649-4.489-2.649-9.246 0-4.715.625-7.047 2.649-9.25 1.433-1.524 3.86-3.094 7.761-3.094 3.907 0 6.332 1.57 7.766 3.094 2.02 2.203 2.652 4.535 2.652 9.25 0 4.757-.632 7.046-2.652 9.246M127.29 81.496c-.493 1.39-1.122 2.422-1.888 3.188-1.433 1.523-3.629 2.02-5.785 2.02h-2.258a.527.527 0 0 1-.523-.528v-5.59c0-.293.234-.527.523-.527h1.047c1.301 0 2.512-.668 3.059-2.032 0 0 .117-.254 0-.566l-7.711-20.89a.527.527 0 0 1 .496-.708h6.582c.23 0 .43.145.5.364l3.457 10.59c.156.488.848.484 1.004-.004l3.297-10.579a.52.52 0 0 1 .504-.37h6.574c.367 0 .621.363.496.706Zm0 0"/><g clip-path="url(#k)"><path fill="#fff" d="M49.348 40.66c-4.54 0-8.23 3.695-8.23 8.235V85.89c0 4.539 3.69 8.23 8.23 8.23h222.597c4.54 0 8.235-3.691 8.235-8.23V40.66Zm222.597 58.164H49.348c-7.133 0-12.934-5.8-12.934-12.933V48.895c0-7.133 5.8-12.938 12.934-12.938h235.535v49.934c0 7.132-5.801 12.933-12.938 12.933"/></g></svg>